<?xml version="1.0" encoding="UTF-8"?><svg id="b" xmlns="http://www.w3.org/2000/svg" viewBox="0 0 414 423.31"><defs><style>.e{fill:none;stroke:#f7f4f3;stroke-linecap:round;stroke-linejoin:round;stroke-width:20px;}.f{fill:#f7f4f3;}</style></defs><g id="c"><g><g><polygon class="e" points="389 413.31 25 413.31 10 187.31 404 187.31 389 413.31"/><path class="e" d="M45,187.35s167-399.04,320,0"/></g><path id="d" class="f" d="M314.32,357.98c-2.3,1.73-7.12,4.36-17.13,3.82-11.59-.62-17.08,3.83-18.12,4.77-.72,.65-4.9,5.44-2.81,10.21-.22,0-.45,.02-.67,.02-3.54,0-6.65-1.01-9.35-3.02-2.7-2.01-5.35-5.11-7.95-9.28-2.6-4.18-5.97-10.38-10.09-18.63-1.57-3.05-3.83-7.61-6.78-13.7-4.12-8.44-7.61-15.15-10.46-20.11-2.85-4.96-6.31-9.33-10.38-13.11-4.08-3.78-8.76-6.21-14.07-7.29,10.8-.98,19.96-3.54,27.47-7.66,7.51-4.12,11.27-10.36,11.27-18.71,0-8.93-3.44-15.69-10.31-20.25-6.87-4.57-16.64-6.85-29.31-6.85h-35.94c-1.28,0-2.9-.1-4.86-.29l-5.01-.15c-4.12,0-7.19,1.1-9.21,3.31-2.01,2.21-3.02,5.13-3.02,8.76,0,5.7,1.89,11.47,5.67,17.31,3.78,5.84,8.86,10.88,15.25,15.1v36.24c0,6.87-.37,11.83-1.1,14.88-.74,3.04-2.04,5.01-3.9,5.89-1.87,.88-4.96,1.38-9.28,1.47-.49,0-.74,.17-.74,.52s.24,.52,.74,.52c4.52,0,8.35-.1,11.49-.29,.98-.1,2.31-.15,3.98-.15h9.57c2.36,0,4.22,.05,5.6,.15,4.32,.2,9.67,.29,16.06,.29,.78,0,1.18-.2,1.18-.59,0-.1-.12-.2-.37-.29-.25-.1-.52-.15-.81-.15-5.99-.1-10.31-.66-12.96-1.69-2.65-1.03-4.49-3.22-5.52-6.55-1.03-3.34-1.55-8.79-1.55-16.35v-27.54c6.58,2.26,13.01,3.39,19.3,3.39,3.93,0,7.49,1.82,10.68,5.45,3.19,3.63,6.01,8.08,8.47,13.33,2.45,5.25,5.3,12.1,8.54,20.55,.39,1.08,1.52,4,3.39,8.76,1.86,4.76,3.68,8.86,5.45,12.3,3.93,7.66,9.28,13.87,16.06,18.63,6.78,4.76,14.29,7.14,22.54,7.14,.58,0,1.15-.02,1.7-.04,1.22,1.74,3.4,3.43,7.04,4.86,14.43,5.68,26.19-12.98,27.89-15.6,1.75-2.69,2.33-5.34,2.33-5.34l.73-3.6c.08-.38-.36-.66-.67-.43Zm-145.81-77.36c-5.99-4.12-10.75-8.99-14.29-14.58-3.54-5.6-5.3-11-5.3-16.2,0-3.34,.88-5.97,2.65-7.88,1.77-1.91,4.52-2.87,8.25-2.87,2.75,0,4.88,1.65,6.41,4.93,1.52,3.29,2.28,7.73,2.28,13.33v23.27Zm12.37,6.48v-30.64c0-4.71,.07-8.32,.22-10.83,.15-2.5,.42-4.54,.81-6.11h21.36c8.05,0,14.63,2.23,19.74,6.7,5.1,4.47,7.66,10.83,7.66,19.08,0,6.68-1.18,11.81-3.54,15.39-2.36,3.59-5.67,6.09-9.94,7.51-4.27,1.42-9.85,2.28-16.72,2.58-6.78,0-13.31-1.23-19.59-3.68Z"/></g></g></svg>