<svg xmlns="http://www.w3.org/2000/svg" viewBox="0 0 142.15 331.61"><defs><style>.a,.b,.c{fill:none;}.a,.b,.c,.d{stroke:#f2f3fa;stroke-miterlimit:10;}.a,.c{stroke-width:3px;}.b,.c,.d{stroke-linecap:round;}.b,.d{stroke-width:2px;}.d{fill:#f0f7fa;}.e{fill:#f2f3fa;}</style></defs><path class="a" d="M66,108.45l-1.3,3.8-.3,1.1-.6-.1a2.57,2.57,0,0,0-1.5.1c-2.4.8-8.9,3.9-2.2,11l-1,4.2s-1,4.5-12,8.8c0,0-7.2,1.9-9.7,10.9,0,0-35.3,134.8-35.8,149,0,0-3.3,18.2,45.4,29,48.6,11.5,53.6-6.4,53.6-6.4,5.7-13,32.4-149.8,32.4-149.8,1.6-9.2-4-14.1-4-14.1-8-8.6-7-13.1-7-13.1l1-4.2c8.7-3.4,4.9-8.6,3-10.6a4.53,4.53,0,0,0-1.9-1.1l-.3-.1.3-1.1.9-3.5"/><path class="a" d="M64,113.35s26.7,15,60.8,13.9"/><path class="a" d="M60.05,124.85s27.3,15.2,62.1,14.2"/><path class="a" d="M36.15,152.85s30-1.2,40.6,12.2,39.8,5.9,39.8,5.9,10.3-5.8,15.5,3.1"/><path class="b" d="M50.55,143.25s-5.3.8-8.2,13.5"/><line class="b" x1="40.55" y1="164.15" x2="26.75" y2="224.85"/><line class="b" x1="25.15" y1="231.75" x2="22.45" y2="243.55"/><line class="b" x1="20.95" y1="250.25" x2="12.15" y2="288.85"/><path class="b" d="M11,294a13.42,13.42,0,0,0,7,14.2"/><path class="c" d="M51.85,186.75s32.7,17.4,73.8,16.9"/><path class="c" d="M29.35,284.25s33.5,17.5,75.8,17.3"/><line class="c" x1="51.35" y1="187.55" x2="29.25" y2="284.35"/><path class="b" d="M123.05,157.75s5.9,5.5,3.7,15.2"/><line class="b" x1="125.75" y1="177.55" x2="124.95" y2="181.05"/><path class="d" d="M118.55,150.55a16.92,16.92,0,0,0,2,4.6"/><path class="e" d="M105.65,276.55c-1.1.5-3.2,1.1-7,0-4.5-1.3-7,0-7.5.2a3.79,3.79,0,0,0-2,3.7h-.3a6.58,6.58,0,0,1-3.4-2,12.55,12.55,0,0,1-2.2-4.3c-.6-1.9-1.4-4.6-2.2-8.1-.4-1.3-.8-3.3-1.4-5.9-.8-3.6-1.6-6.6-2.2-8.7a22.8,22.8,0,0,0-2.9-6.1,11.88,11.88,0,0,0-4.8-4.1,29.24,29.24,0,0,0,11.4-.5,7.93,7.93,0,0,0,6-6.3,9.17,9.17,0,0,0-2.2-8.8c-2.2-2.4-5.8-4.1-10.8-5.3l-14-3.2a13.32,13.32,0,0,1-1.9-.5l-1.9-.5a4.88,4.88,0,0,0-3.9.5,4.59,4.59,0,0,0-2,3.2,11.89,11.89,0,0,0,.7,7.2,20.18,20.18,0,0,0,4.6,7.2l-3.2,14.1a29,29,0,0,1-1.8,5.7,3.4,3.4,0,0,1-2,1.9,9.16,9.16,0,0,1-3.7-.2c-.2,0-.3,0-.3.1s0,.2.2.3c1.8.4,3.2.7,4.5.9a5,5,0,0,1,1.6.3l3.7.8a21.78,21.78,0,0,1,2.2.6c1.7.5,3.7,1,6.2,1.5.3.1.5,0,.5-.1s0-.1-.1-.1l-.3-.1a14.49,14.49,0,0,1-4.9-1.8,3.5,3.5,0,0,1-1.5-3.1,28.21,28.21,0,0,1,.8-6.5l2.4-10.7a22.89,22.89,0,0,0,7.2,3A5.73,5.73,0,0,1,71,244a21.94,21.94,0,0,1,2.1,5.9c.5,2.2,1,5.2,1.5,8.8,0,.4.2,1.7.5,3.7a49.37,49.37,0,0,0,1,5.3,20.92,20.92,0,0,0,4.6,8.7,15.35,15.35,0,0,0,8.1,4.8l.7.1a6.14,6.14,0,0,0,2.3,2.5c5.1,3.5,11.3-2.7,12.2-3.6a6.69,6.69,0,0,0,1.4-1.9l.6-1.3a1.38,1.38,0,0,0-.3-.4Zm-49.8-43a21.62,21.62,0,0,1-4.3-6.9,12.08,12.08,0,0,1-.6-6.8,4.59,4.59,0,0,1,1.7-2.8,4.26,4.26,0,0,1,3.5-.4,2.8,2.8,0,0,1,2,2.5,12.36,12.36,0,0,1-.3,5.4Zm4.2,3.6,2.7-11.8c.4-1.8.8-3.2,1.1-4.2a15.55,15.55,0,0,1,.8-2.3l8.3,1.9a11.59,11.59,0,0,1,7.1,4.2,9.52,9.52,0,0,1,1.2,8.2,11.73,11.73,0,0,1-2.7,5.6,6.92,6.92,0,0,1-4.5,2,25.26,25.26,0,0,1-6.7-.5,19.67,19.67,0,0,1-7.3-3.1Z"/><path class="a" d="M134.05,83.65l-4.6-1.1a4.57,4.57,0,0,1-3.3-3.4c-.5-2.2-.5-5.9,1-12.1l8.8-36,.1-.4c.4-2.4,3.3-24.8-12.5-28.7h0c-15.8-3.8-23.6,17.5-24.3,19.7l-.1.4L90.35,58c-1.5,6.2-3.3,9.5-4.7,11.2a4.4,4.4,0,0,1-4.4,1.5l-4.6-1.1a8.17,8.17,0,0,0-9.5,4,4.18,4.18,0,0,0-.4,1l-6.6,27a4.26,4.26,0,0,0,3.2,5.3h0l32.6,7.9h0l32.6,7.9a4.49,4.49,0,0,0,5.4-3.2h0l6.6-27a4.1,4.1,0,0,0,.1-1.1A8,8,0,0,0,134.05,83.65Z"/><line class="a" x1="77.85" y1="69.95" x2="134.05" y2="83.55"/><ellipse class="e" cx="71.86" cy="88.94" rx="14.1" ry="0.3" transform="translate(-31.57 137.7) rotate(-76.3)"/><ellipse class="e" cx="81.26" cy="91.23" rx="14.1" ry="0.3" transform="translate(-26.61 148.57) rotate(-76.3)"/><ellipse class="e" cx="91.14" cy="93.58" rx="14.1" ry="0.3" transform="translate(-21.37 159.97) rotate(-76.3)"/><ellipse class="e" cx="100.14" cy="95.79" rx="14.1" ry="0.3" transform="translate(-16.64 170.4) rotate(-76.3)"/><ellipse class="e" cx="109.16" cy="98" rx="14.1" ry="0.3" transform="translate(-11.91 180.84) rotate(-76.3)"/><ellipse class="e" cx="120.88" cy="100.89" rx="14.1" ry="0.3" transform="translate(-5.77 194.45) rotate(-76.3)"/><ellipse class="e" cx="129.03" cy="102.92" rx="14.1" ry="0.3" transform="translate(-1.52 203.91) rotate(-76.3)"/><path class="b" d="M114.75,9.15a11.68,11.68,0,0,0-5.7,3.5"/><path class="b" d="M107.05,16.65s-3.4,7.9-4.1,10.6"/><line class="b" x1="102.25" y1="30.05" x2="101.55" y2="32.75"/><line class="b" x1="100.85" y1="35.65" x2="96.65" y2="52.75"/></svg>