<?xml version="1.0" encoding="UTF-8"?><svg xmlns="http://www.w3.org/2000/svg" viewBox="0 0 653 354"><defs><style>.d{stroke:#fff;stroke-miterlimit:10;stroke-width:2px;}.d,.e{fill:#9b532b;}</style></defs><g id="a"/><g id="b"><g id="c"><g><path class="d" d="M211.79,1h243.12c16.06,0,29.1,13.04,29.1,29.1V306H207.65c-15.81,0-28.65-12.84-28.65-28.65V33.79c0-18.09,14.69-32.79,32.79-32.79Z"/><path class="d" d="M652,154.87v133.63c0,9.67-7.12,17.51-15.9,17.51h-152.1V79l95.6,.94c3.95,.04,7.75,1.61,10.75,4.45l53.29,50.42c5.31,5.02,8.37,12.35,8.37,20.06Z"/><circle class="d" cx="283.5" cy="305.5" r="47.5"/><circle class="d" cx="560.5" cy="305.5" r="47.5"/><rect class="e" y="48" width="142" height="7" rx="2.81" ry="2.81"/><rect class="e" x="37" y="72" width="111" height="7" rx="2.66" ry="2.66"/></g></g></g></svg>