<svg xmlns="http://www.w3.org/2000/svg" viewBox="0 0 381.69 373.21"><defs><style>.a{fill:none;stroke:#000;stroke-linecap:round;stroke-miterlimit:10;stroke-width:15px;}</style></defs><path class="a" d="M228.5,102.21,69,101.71A61.48,61.48,0,0,0,7.5,163.19V304.24A61.47,61.47,0,0,0,69,365.71H250a61.47,61.47,0,0,0,61.48-61.47V151.34"/><rect x="183.21" y="81.1" width="195.48" height="57.43" transform="translate(12.85 248.07) rotate(-48.63)"/><path d="M346.91,4a12.6,12.6,0,0,1,8.33,3.15l18.17,16a12.6,12.6,0,0,1,1.13,17.79l-7.87,8.94-37.1-32.67,7.88-8.94A12.62,12.62,0,0,1,346.91,4m0-4a16.54,16.54,0,0,0-12.46,5.63L323.93,17.57l43.1,38,10.51-11.94a16.6,16.6,0,0,0-1.48-23.44l-18.18-16a16.57,16.57,0,0,0-11-4.14Z"/><path d="M197.07,170.9,214,185.82l17,14.92-28,13.62-24.74,12,8.83-26.06,10-29.45m-1.86-7L183.3,199.06,171.4,234.2,204.75,218l33.36-16.25-21.45-18.89-21.45-18.9Z"/><polygon points="196.22 206.02 206.7 215.25 190.4 223.19 174.11 231.13 179.92 213.96 185.74 196.79 196.22 206.02"/></svg>