<svg xmlns="http://www.w3.org/2000/svg" viewBox="0 0 476.33 485.7"><defs><style>.a{fill:none;stroke:#875231;stroke-linecap:round;stroke-linejoin:round;stroke-width:20px;}.b{fill:#9b532b;}.c{fill:#875231;}.d{fill:#f2f3fa;}</style></defs><polygon class="a" points="389 413.31 25 413.31 10 187.31 404 187.31 389 413.31"/><path class="a" d="M45,187.35s167-399,320,0"/><path class="b" d="M314.32,358c-2.3,1.73-7.12,4.35-17.13,3.82-11.58-.62-17.08,3.82-18.12,4.77-.72.65-4.9,5.44-2.81,10.21l-.67,0a15.25,15.25,0,0,1-9.35-3,33.9,33.9,0,0,1-8-9.28q-3.9-6.27-10.09-18.63-2.35-4.58-6.77-13.7Q235.23,319.5,231,312.06A55.5,55.5,0,0,0,220.58,299a28.84,28.84,0,0,0-14.07-7.29q16.2-1.47,27.47-7.66t11.27-18.71q0-13.4-10.31-20.25t-29.31-6.85H169.68c-1.27,0-2.89-.1-4.86-.29l-5-.15q-6.19,0-9.21,3.31a12.53,12.53,0,0,0-3,8.77q0,8.53,5.67,17.3a51.8,51.8,0,0,0,15.25,15.1v36.24q0,10.3-1.11,14.87c-.74,3.05-2,5-3.9,5.9s-5,1.37-9.28,1.47c-.49,0-.74.17-.74.52s.25.51.74.51q6.76,0,11.49-.29c1-.1,2.3-.15,4-.15h9.58c2.36,0,4.22.05,5.6.15q6.48.29,16,.29c.79,0,1.18-.2,1.18-.59,0-.1-.12-.19-.37-.29a2.09,2.09,0,0,0-.81-.15q-9-.15-13-1.69t-5.52-6.56q-1.56-5-1.55-16.35V288.57A59.16,59.16,0,0,0,200.17,292q5.9,0,10.68,5.45a56,56,0,0,1,8.47,13.33q3.69,7.89,8.55,20.55.58,1.62,3.38,8.77t5.46,12.3a50.41,50.41,0,0,0,16,18.63,38.34,38.34,0,0,0,22.54,7.14c.58,0,1.14,0,1.7,0,1.22,1.74,3.4,3.43,7,4.87,14.43,5.67,26.18-13,27.89-15.61a17.89,17.89,0,0,0,2.33-5.33l.73-3.61A.42.42,0,0,0,314.32,358ZM168.51,280.61A50.11,50.11,0,0,1,154.22,266q-5.31-8.4-5.3-16.2,0-5,2.65-7.88t8.25-2.88c2.74,0,4.88,1.65,6.4,4.94s2.29,7.73,2.29,13.33Zm12.37,6.48V256.45q0-7.06.22-10.82a34.68,34.68,0,0,1,.81-6.11h21.36q12.07,0,19.74,6.7t7.66,19.07q0,10-3.54,15.4a18.53,18.53,0,0,1-9.94,7.51,63,63,0,0,1-16.72,2.58A53.24,53.24,0,0,1,180.88,287.09Z"/><circle class="c" cx="388.83" cy="398.2" r="87.5"/><path class="d" d="M423.5,397.1C423.5,431.84,410.61,451,388,451c-20,0-33.49-18.71-33.8-52.52,0-34.27,14.78-53.14,35.53-53.14C411.23,345.37,423.5,364.55,423.5,397.1ZM368,398.67c0,26.57,8.18,41.67,20.76,41.67,14.15,0,20.91-16.51,20.91-42.61,0-25.16-6.45-41.67-20.76-41.67C376.8,356.06,368,370.84,368,398.67Z"/></svg>