<svg xmlns="http://www.w3.org/2000/svg" viewBox="0 0 40 40"><defs><style>.f67b6cda-79b8-4a0a-bccd-f6be1467b5be{fill:#875231;}</style></defs><g id="e9a8f4d2-d9c8-43d1-944e-8cea29fa2946" data-name="Capa 2"><g id="b41f0a8b-5a35-4294-bb33-c4d9481eda71" data-name="Media icons"><g id="ab912378-7347-4e0e-8c86-2da3d1cd2eaf" data-name="logotipo-de-la-aplicacion-de-facebook"><path id="af430cb5-9305-4d09-a3ce-d22ae3612467" data-name="Trazado 39" class="f67b6cda-79b8-4a0a-bccd-f6be1467b5be" d="M37.79,0H2.21A2.21,2.21,0,0,0,0,2.21H0V37.79A2.21,2.21,0,0,0,2.21,40H21.37V24.51H16.15v-6h5.21V14c0-5.17,3.16-8,7.77-8a45.11,45.11,0,0,1,4.65.24v5.4h-3.2c-2.5,0-3,1.19-3,2.94v3.85h6l-.77,6H27.6V40H37.79A2.21,2.21,0,0,0,40,37.79V2.21A2.21,2.21,0,0,0,37.79,0Z"/></g></g></g></svg>