<svg xmlns="http://www.w3.org/2000/svg" viewBox="0 0 40 40"><defs><style>.acc9ead5-d4b3-4e33-9800-9b5150ae3473{fill:#875231;}</style></defs><g id="ab950db1-270b-44df-a37b-fa4676cde6bb" data-name="Capa 2"><g id="a52ff26c-b3f8-47f2-bf72-88c581d930d1" data-name="Media icons"><path id="bdd3c497-2f3b-471e-8a6e-0e0f60ee07d6" data-name="Trazado 36" class="acc9ead5-d4b3-4e33-9800-9b5150ae3473" d="M29,0H11A11.06,11.06,0,0,0,0,11V29A11.06,11.06,0,0,0,11,40H29A11.06,11.06,0,0,0,40,29V11A11.06,11.06,0,0,0,29,0Zm7.49,29A7.49,7.49,0,0,1,29,36.45H11A7.5,7.5,0,0,1,3.55,29V11A7.5,7.5,0,0,1,11,3.55H29A7.49,7.49,0,0,1,36.45,11Z"/><path id="e5497da8-3a02-4b5d-a509-b13266750389" data-name="Trazado 37" class="acc9ead5-d4b3-4e33-9800-9b5150ae3473" d="M20,10.18A9.82,9.82,0,1,0,29.82,20h0A9.84,9.84,0,0,0,20,10.18Zm0,16.26A6.44,6.44,0,1,1,26.44,20h0A6.46,6.46,0,0,1,20,26.44Z"/><path id="ef45227c-8a7c-4061-87fa-cdd8a7b5d24f" data-name="Trazado 38" class="acc9ead5-d4b3-4e33-9800-9b5150ae3473" d="M30.66,6.63a2.73,2.73,0,1,0,1.93.8A2.74,2.74,0,0,0,30.66,6.63Z"/></g></g></svg>