<?xml version="1.0" encoding="UTF-8"?><svg id="b" xmlns="http://www.w3.org/2000/svg" viewBox="0 0 379.79 331.82"><g id="c"><path id="d" d="M378.24,272.75c-5.21,3.93-16.15,9.88-38.85,8.67-26.28-1.4-38.75,8.68-41.11,10.83-1.62,1.47-11.11,12.33-6.37,23.17-.51,.01-1.01,.03-1.52,.03-8.02,0-15.09-2.29-21.22-6.85-6.13-4.57-12.14-11.59-18.04-21.05-5.91-9.47-13.53-23.56-22.89-42.27-3.57-6.91-8.69-17.26-15.37-31.08-9.36-19.16-17.27-34.36-23.73-45.61-6.46-11.25-14.32-21.16-23.56-29.74-9.25-8.57-19.88-14.09-31.91-16.54,24.5-2.22,45.28-8.02,62.32-17.38,17.04-9.36,25.56-23.5,25.56-42.44,0-20.27-7.8-35.59-23.39-45.95C182.56,6.18,160.4,1,131.66,1H50.12c-2.9,0-6.57-.22-11.03-.67l-11.36-.33C18.38,0,11.41,2.51,6.85,7.52,2.28,12.53,0,19.16,0,27.4c0,12.92,4.29,26.01,12.87,39.26,8.57,13.26,20.1,24.68,34.59,34.25v82.2c0,15.6-.84,26.85-2.51,33.75-1.67,6.91-4.63,11.36-8.86,13.37-4.23,2.01-11.25,3.12-21.05,3.34-1.12,0-1.67,.39-1.67,1.17s.55,1.17,1.67,1.17c10.24,0,18.93-.22,26.06-.67,2.22-.23,5.23-.33,9.02-.33h21.72c5.35,0,9.58,.11,12.7,.33,9.8,.44,21.94,.67,36.42,.67,1.78,0,2.67-.45,2.67-1.34,0-.22-.28-.44-.84-.67-.56-.22-1.17-.33-1.84-.33-13.59-.22-23.39-1.5-29.41-3.84-6.01-2.34-10.19-7.29-12.53-14.87-2.34-7.57-3.51-19.93-3.51-37.09v-62.49c14.92,5.13,29.52,7.69,43.77,7.69,8.91,0,16.98,4.13,24.23,12.36,7.24,8.24,13.64,18.33,19.21,30.24,5.57,11.92,12.03,27.46,19.38,46.62,.89,2.45,3.45,9.08,7.69,19.88,4.23,10.8,8.35,20.1,12.36,27.9,8.91,17.38,21.05,31.46,36.42,42.27,15.37,10.8,32.41,16.21,51.13,16.21,1.32,0,2.6-.04,3.86-.09,2.76,3.95,7.72,7.79,15.97,11.03,32.73,12.88,59.41-29.44,63.28-35.4,3.96-6.09,5.28-12.11,5.28-12.11l1.66-8.18c.18-.87-.81-1.51-1.52-.97ZM47.45,97.24c-13.59-9.36-24.39-20.38-32.41-33.08S3.01,39.21,3.01,27.4c0-7.57,2-13.53,6.01-17.88C13.03,5.18,19.27,3.01,27.74,3.01c6.23,0,11.08,3.73,14.54,11.19,3.45,7.47,5.18,17.54,5.18,30.24v52.8Zm28.07,14.7V42.44c0-10.69,.17-18.88,.5-24.56,.33-5.68,.95-10.3,1.84-13.87h48.45c18.26,0,33.19,5.07,44.78,15.2,11.58,10.14,17.38,24.56,17.38,43.27,0,15.15-2.67,26.79-8.02,34.92-5.35,8.13-12.86,13.82-22.56,17.04-9.69,3.23-22.34,5.18-37.93,5.85-15.37,0-30.19-2.78-44.44-8.35Z"/></g></svg>