<svg width="688" height="868" viewBox="0 0 688 868" fill="none" xmlns="http://www.w3.org/2000/svg">
<path d="M-101.824 561.796C-64.7058 544.324 -35.0111 516.826 -1.36035 494.008C15.1211 482.836 32.4824 472.535 51.0733 465.269C71.5324 457.267 93.1593 452.447 114.655 448.124C136.174 443.794 157.83 439.254 179.47 435.661C199.276 432.375 219.588 433.694 239.454 430.482C279.132 424.048 305.569 397.006 330.901 368.177C342.775 354.645 354.8 341.724 371.796 334.735C387.926 328.101 405.343 326.421 422.628 326.598C459.809 326.971 496.25 335.972 533.358 337.36C573.842 338.885 614.613 332.201 650.555 312.923C663.848 305.799 676.18 296.846 687.324 286.993L167.256 0L-153 580.344C-135.343 575.507 -118.577 569.67 -101.824 561.796Z" fill="#F7F4F3" fill-opacity="0.1"/>
<path d="M388.84 305.394C390.068 309.645 387.62 314.082 383.377 315.294C379.125 316.522 374.688 314.074 373.476 309.831C372.248 305.579 374.696 301.142 378.94 299.93C383.191 298.702 387.612 301.142 388.84 305.394ZM411.7 227.537C397.084 231.758 388.648 247.045 392.869 261.661C397.09 276.276 412.377 284.712 426.992 280.491C441.608 276.27 450.044 260.983 445.823 246.368C441.602 231.752 426.339 223.309 411.7 227.537ZM624.666 252.416C607.252 262.444 591.814 273.786 562.342 266.62C522.831 257.001 497.161 221.492 461.758 204.575C346.407 149.49 376.854 311.695 301.354 339.545C240.251 362.099 192.842 303.2 134.951 346.393C99.161 373.086 76.4323 410.704 36.3767 433.683C-0.289179 454.715 -42.6191 469.818 -83.3821 454.188L-61.2872 414.149C-60.7595 414.481 -60.2077 414.806 -59.6784 415.098C-47.4684 421.897 -32.7625 420.934 -19.5644 418.104C1.48486 413.596 21.9901 405.436 41.2533 395.921C50.9659 391.127 60.1756 386.177 67.9822 378.544C71.5127 375.091 88.3615 356.445 89.4792 349.304C90.5782 342.234 86.368 334.996 79.4045 333.042C65.2181 329.052 57.9298 346.455 48.8004 353.54C34.157 364.914 14.5304 368.685 -3.56574 365.928C-13.2703 364.452 -22.758 362.141 -32.3043 361.665L167.271 0.00858583L547.188 209.661C530.384 206.44 513.658 201.495 498.236 194.446C494.267 192.621 491.182 197.844 493.693 200.469C495.975 205.241 500.163 207.735 504.014 211.281C506.706 213.762 533.228 235.952 543.525 242.427C556.274 250.457 573.316 257.222 588.507 253.725C594.002 252.452 599.55 250.274 602.241 244.956C602.899 243.653 603.345 242.255 603.666 240.828L624.666 252.416ZM129.117 316.631C131.235 306.021 123.516 297.598 112.865 298.463C108.274 298.833 103.376 300.68 100.873 304.7C100.449 304.954 100.039 305.255 99.665 305.638C91.7757 313.347 98.1715 325.162 106.795 328.966C116.748 333.342 127.029 327.075 129.117 316.631Z" fill="#F7F4F3" fill-opacity="0.1"/>
</svg>
