<svg width="792" height="738" viewBox="0 0 792 738" fill="none" xmlns="http://www.w3.org/2000/svg">
<path d="M804.39 0C795.728 7.56874 786.356 14.4817 775.618 20.411C749.933 34.5648 717.882 34.5649 692.198 50.0302C617.822 94.7869 618.204 175.365 590.17 247.746C546.097 361.523 469.371 340.593 366.715 350.894C287.339 358.846 196.022 398.465 195.366 492.186C194.956 553.337 263.512 593.832 210.586 638.725C180.857 663.945 128.013 648.288 93.9124 659.628C46.7786 675.284 20.7389 704.193 0 738.457L804.335 736.818L804.39 0ZM627.959 193.481C631.539 185.038 633.724 176.103 637.304 167.632C640.583 159.9 644.19 152.304 647.304 144.489C653.507 128.887 660.037 114.05 670.339 100.662C683.891 83.0376 704.193 59.0198 728.784 61.6156C730.096 61.7522 731.271 63.3096 731.298 64.5665C731.326 74.1846 722.254 80.8516 715.751 86.6443C704.74 96.4263 693.919 106.755 683.7 117.356C672.005 129.516 662.305 142.522 656.212 158.342C653.425 165.556 651.239 173.097 647.988 180.12C644.709 187.196 639.818 192.361 634.298 197.826C632.878 199.219 631.047 198.946 629.845 197.935C628.342 197.252 627.112 195.476 627.959 193.481ZM446.665 380.896C451.911 373.464 464.808 370.868 472.759 375.021C475.355 376.36 477.595 378.655 479.016 381.36C483.088 386.224 482.131 393.547 476.912 397.345C471.42 401.362 462.513 402.892 456.01 400.87C447.539 398.219 440.653 389.394 446.665 380.896ZM230.778 505.876C222.472 488.662 226.215 468.223 237.746 453.496C245.369 443.741 255.37 434.888 264.441 426.445C272.529 418.931 281.136 411.936 290.426 405.925C308.405 394.285 328.625 386.197 349.801 382.781C371.934 379.202 394.476 381.552 416.663 383.082C418.876 383.246 420.652 384.093 421.991 385.35C429.833 389.585 428.03 399.722 422.046 405.023C414.532 411.663 404.039 411.854 394.94 414.914C384.53 418.412 375.021 424.642 366.359 431.336C346.632 446.583 330.647 466.42 314.307 485.082C302.148 498.963 289.115 517.079 271.218 523.937C254.714 530.221 238.156 521.177 230.778 505.876ZM174.846 593.285C161.512 606.619 139.871 606.619 126.537 593.285C113.203 579.951 113.203 558.31 126.537 544.976C139.871 531.642 161.512 531.642 174.846 544.976C188.18 558.31 188.18 579.951 174.846 593.285ZM524.538 278.349C495.192 307.695 447.621 307.695 418.275 278.349C388.929 249.003 388.929 201.432 418.275 172.086C447.621 142.74 495.192 142.74 524.538 172.086C553.884 201.432 553.884 249.003 524.538 278.349ZM585.416 147.932C574.732 158.616 557.436 158.616 546.78 147.932C536.096 137.248 536.096 119.952 546.78 109.296C557.463 98.6122 574.759 98.6122 585.416 109.296C596.072 119.952 596.072 137.276 585.416 147.932Z" fill="white" fill-opacity="0.1"/>
</svg>
