<?xml version="1.0" encoding="UTF-8"?><svg xmlns="http://www.w3.org/2000/svg" viewBox="0 0 1127.74 287.82"><defs><style>.e{fill:#9b532b;}</style></defs><g id="a"/><g id="b"><g id="c"><g id="d"><path class="e" d="M240.56,196.59c-9.64-5.61-17.35-13.24-23.13-22.88-5.78-9.64-8.67-20.07-8.67-31.3,0-13.41,3.35-25.6,10.06-36.58,6.7-10.97,15.79-19.61,27.28-25.89,11.48-6.28,24.01-9.43,37.58-9.43,11.73,0,22.29,2.98,31.67,8.92,9.38,5.95,16.76,13.91,22.12,23.88,5.36,9.97,8.04,20.66,8.04,32.05,0,13.24-3.14,25.18-9.43,35.82-6.28,10.64-15,18.94-26.14,24.89-11.15,5.95-23.92,8.92-38.34,8.92-11.06,0-21.41-2.81-31.05-8.42Zm69.51-3.77c6.03-3.94,10.68-9.3,13.95-16.09,3.27-6.79,4.9-14.2,4.9-22.25,0-11.73-2.81-23.5-8.42-35.32-5.62-11.82-13.32-21.58-23.13-29.29-9.8-7.71-20.74-11.56-32.81-11.56-7.54,0-14.25,2.01-20.11,6.03-5.87,4.02-10.48,9.47-13.83,16.34-3.35,6.87-5.03,14.5-5.03,22.88,0,11.56,3.02,23.17,9.05,34.82,6.03,11.65,13.99,21.29,23.88,28.91,9.89,7.63,20.28,11.44,31.17,11.44,7.54,0,14.33-1.97,20.36-5.91Z"/><path class="e" d="M818.46,76.51c.67,0,1.05,.21,1.13,.63,.08,.42-.04,.8-.38,1.13-9.22,5.37-15.25,12.03-18.1,19.99-2.85,7.96-4.27,17.97-4.27,30.04l.25,48.77c.17,7.54,.59,13.03,1.26,16.47,.67,3.44,2.39,5.95,5.15,7.54,2.76,1.6,7.25,2.39,13.45,2.39,.84,0,1.26,.29,1.26,.88s-.42,.88-1.26,.88c-5.87,.16-11.06,.08-15.59-.25-1.17-.17-2.93-.25-5.28-.25h-17.35c-2.51,0-4.44,.08-5.78,.25-4.36,.33-9.39,.5-15.08,.5-.67,0-1.01-.29-1.01-.88s.33-.88,1.01-.88c6.2,0,10.68-.84,13.45-2.51,2.76-1.67,4.48-4.23,5.15-7.67,.67-3.43,1.01-8.92,1.01-16.47v-50.78c0-7.54,1.97-15.04,5.91-22.5,3.94-7.45,10.68-14.37,20.24-20.74-9.72,3.86-18.69,8.51-26.9,13.95-8.21,5.45-14.16,10.27-17.85,14.45-.17,.5-.59,.75-1.26,.75-.5,0-.84-.25-1.01-.75-.17-.5,0-1.01,.5-1.51,5.36-6.37,13.91-12.82,25.64-19.36,11.73-6.54,23.38-11.23,34.94-14.08h.75Zm-34.19-26.52c-2.51-2.43-3.77-5.49-3.77-9.18s1.21-6.54,3.65-9.05c2.43-2.51,5.49-3.77,9.18-3.77s6.79,1.22,9.3,3.65c2.51,2.43,3.77,5.49,3.77,9.18s-1.17,6.75-3.52,9.18c-2.35,2.43-5.53,3.65-9.55,3.65-3.52,0-6.54-1.21-9.05-3.65Z"/><path class="e" d="M1012.74,203.72c0,.59-.42,.88-1.26,.88-5.7,0-10.73-.17-15.08-.5-1.34-.17-3.27-.25-5.78-.25h-17.35c-2.51,0-4.44,.08-5.78,.25-4.36,.33-9.39,.5-15.08,.5-.67,0-1.01-.29-1.01-.88s.33-.88,1.01-.88c6.87-.17,11.56-1.21,14.08-3.14,2.51-1.92,3.77-5.24,3.77-9.93,0-1.84-.5-6.28-1.51-13.32l-7.79-49.02c-2.85-17.43-6.28-29.41-10.31-35.95-4.02-6.54-9.47-9.8-16.34-9.8-8.04,0-15.55,4.36-22.5,13.07-6.96,8.72-12.91,20.91-17.85,36.58-4.95,15.67-8.42,33.65-10.43,53.92,.33,6.54,1.76,11.06,4.27,13.58,2.51,2.51,7.54,3.86,15.08,4.02,.84,0,1.26,.29,1.26,.88s-.42,.88-1.26,.88c-5.7,0-10.73-.17-15.08-.5-1.34-.17-3.27-.25-5.78-.25h-17.09c-2.51,0-4.44,.08-5.78,.25-4.36,.33-9.39,.5-15.08,.5-.67,0-1.01-.29-1.01-.88s.33-.88,1.01-.88c6.2,0,10.68-.84,13.45-2.51,2.76-1.67,4.48-4.23,5.15-7.67,.67-3.43,1.01-8.92,1.01-16.47V49.24c0-7.37-1.34-12.86-4.02-16.47-2.68-3.6-7.71-5.15-15.08-4.65-.67,.17-1.01,0-1.01-.5s.33-.84,1.01-1.01c5.19-1.51,11.6-3.68,19.23-6.54,7.62-2.85,13.61-5.44,17.97-7.79,.33-.33,.67-.38,1.01-.13,.33,.25,.5,.63,.5,1.13V49.24l.25,51.79-4.27,87.73h1.26c2.85-26.14,7.33-47.64,13.45-64.48,6.12-16.84,13.24-29.16,21.37-36.95,8.13-7.79,16.72-11.69,25.77-11.69s15.67,2.01,20.87,6.03c5.19,4.02,9.26,9.93,12.19,17.72,2.93,7.79,5.4,18.39,7.42,31.8l7.04,45.25c1.17,7.88,2.3,13.41,3.39,16.59,1.09,3.19,3.06,5.62,5.91,7.29,2.85,1.68,7.37,2.51,13.58,2.51,.84,0,1.26,.29,1.26,.88Z"/><path class="e" d="M1126.95,142.66c.75,.25,.96,.8,.63,1.63-4.19,11.9-8.59,22.12-13.2,30.67-4.61,8.55-10.6,15.63-17.97,21.24-7.38,5.62-16.26,8.42-26.65,8.42-12.24,0-22.46-3.6-30.67-10.81-8.21-7.2-12.32-17.1-12.32-29.66V77.42h-19.11c-.67,0-1.01-.33-1.01-1.01s.33-1.09,1.01-1.26c10.56-3.52,18.98-8.59,25.26-15.21,6.28-6.62,10.51-15.46,12.7-26.52,.16-.5,.42-.71,.75-.63,.33,.09,.5,.29,.5,.63v41.73h55.31c1.01,0,1.55,.38,1.63,1.13,.08,.75-.46,1.13-1.63,1.13h-55.56v79.44c0,12.07,2.51,22.29,7.54,30.67,5.03,8.38,12.32,12.57,21.87,12.57,11.23,0,20.7-4.94,28.41-14.83,7.71-9.89,14.66-23.8,20.86-41.73,.33-.84,.88-1.13,1.63-.88Z"/><path class="e" d="M721.2,81.1c-1.21-1.04-2.2-2.03-2.98-2.98-.78-.95-.91-1.68-.39-2.2,1.04-1.43,7.91-2.33,20.6-2.68v-1.98h-57.89c-.87,0-1.29,.3-1.29,.91s.43,.91,1.29,.91c7.25,0,14.93,1.04,23.05,3.11,8.11,2.07,15.19,6,21.24,11.78,6.04,5.79,9.06,13.68,9.06,23.7s-2.81,19.68-8.42,30.04c-5.61,10.36-13.85,23.31-24.73,38.84l-5.18,7.51-33.93-77.17c-5.01-11.91-7.51-20.54-7.51-25.9,0-4.14,1.42-7.12,4.27-8.93,2.85-1.81,7.47-2.8,13.85-2.98,.86,0,1.29-.3,1.29-.91s-.43-.91-1.29-.91c-8.12,0-14.94,.17-20.46,.52-1.73,.17-4.14,.26-7.25,.26h-18.65c-1.55,0-3.93-.13-7.12-.39-3.2-.26-7.3-.39-12.3-.39-.69,0-1.04,.3-1.04,.91s.34,.91,1.04,.91c4.83,.17,8.89,1.38,12.17,3.63,3.28,2.25,6.47,5.92,9.58,11.01,3.11,5.09,6.9,12.82,11.39,23.18l40.66,93.75h6.73l9.58-13.98,5.18-7.51c11.39-16.4,19.98-30,25.77-40.79,5.78-10.79,8.68-20.93,8.68-30.43,0-7.77-1.42-13.94-4.27-18.52-2.85-4.57-6.43-8.68-10.75-12.3Z"/><path class="e" d="M632.9,186.91c-.6-.26-1.07-.13-1.41,.39-2.74,4.11-5.01,7.11-6.81,8.99-1.8,1.89-4.07,2.83-6.81,2.83-2.57,0-4.71-1.45-6.42-4.37-1.71-2.91-2.91-6.42-3.6-10.53l-12.84-72.18c-3.08-17.12-8.78-28.6-17.08-34.42-8.31-5.82-18.88-8.73-31.73-8.73s-24.15,2.7-33.39,8.09c-9.25,5.39-17.13,13.32-23.63,23.76-6.51,10.45-15.28,30.05-21.1,46.66-.05,.1-.08,.2-.1,.3-.9,2.66-7.81,22.81-13.69,29.7-3.7,4.33-7.67,7.64-12.64,9.34-4.97,1.7-12.05,2.55-21.23,2.55-4.4,0-8.27-.28-11.6-.85-3.33-.57-7.2-1.42-11.6-2.55-4.28-1.01-7.83-1.76-10.66-2.26-2.83-.5-6.07-.75-9.72-.75-4.78,0-9.31,1.45-13.58,4.34,.38-.38,2.2-2.08,5.47-5.09,4.02-3.52,11.63-9.87,22.83-19.06,5.03-3.9,10.63-8.49,16.79-13.77l4.53-3.96c10.69-9.18,18.77-16.76,24.24-22.73,5.47-5.97,9.9-13.27,13.3-21.89,3.4-8.61,5.09-19.27,5.09-31.98,.12-.12,.16-.25,.09-.38-.06-.12-.16-.19-.28-.19h-57.54c-11.32,0-18.87-2.14-22.64-6.41-.13-.25-.32-.38-.57-.38s-.38,.13-.38,.38l-7.97,35.44h1.81l.12-.54c1.01-4.27,4.21-8.49,9.62-12.64,5.41-4.15,11.95-7.55,19.62-10.19,7.67-2.64,15.22-3.96,22.64-3.96h18.49c0,12.96-.82,23.77-2.45,32.45-1.64,8.68-4.72,16.67-9.24,23.96-4.53,7.3-11.13,14.59-19.81,21.89-2.01,1.64-4.31,3.52-6.89,5.66-2.58,2.14-5.44,4.47-8.58,6.98l-23.77,19.81c-4.28,3.65-7.58,6.98-9.9,10-2.33,3.02-4.31,6.48-5.94,10.38-.12,.63,.06,.97,.57,1.04,.5,.06,.88-.16,1.13-.66,.63-1.38,1.57-3.21,2.83-5.47,1.89-3.02,4.65-5.66,8.3-7.92,3.65-2.26,7.61-3.4,11.89-3.4,3.27,0,6.19,.76,8.77,2.26,2.58,1.51,5.75,3.84,9.53,6.98,4.27,3.65,8.14,6.41,11.6,8.3,3.46,1.89,7.51,2.83,12.17,2.83,8.42,0,15.41-1.76,20.94-5.28,5.53-3.52,10.22-8.55,14.06-15.09,0,0,10.52-19.63,15.07-32.75,.55-1.59,1.25-3.17,1.67-4.59,7.88-22.82,19.59-45.96,30.15-57.79,10.7-11.99,24.7-17.98,42-17.98,7.02,0,13.4,3.34,19.14,10.02,5.74,6.68,9.89,16.02,12.46,28,.34,5.14-1.46,9.63-5.39,13.49-3.94,3.85-8.86,7.11-14.77,9.76-5.91,2.66-13.92,5.78-24.02,9.38-10.62,3.94-19.05,7.37-25.3,10.28-6.25,2.91-11.56,6.47-15.93,10.66-4.37,4.2-6.55,9.12-6.55,14.77,0,8.22,3.08,14.77,9.25,19.65,6.16,4.88,13.96,7.32,23.38,7.32,12.16,0,22.99-3.34,32.5-10.02,9.51-6.68,16.99-15.28,22.48-25.82,5.48-10.53,8.56-21.45,9.25-32.75l8.73,46.75c1.2,5.82,3.55,10.79,7.06,14.9,3.51,4.11,8.86,6.16,16.06,6.16,5.48,0,9.85-1.28,13.1-3.85,3.25-2.57,6.42-6.51,9.5-11.82,.17-.68-.04-1.16-.64-1.41Zm-61.78-26.97c-4.28,10.53-9.98,19.14-17.08,25.82-7.11,6.68-14.77,10.02-22.99,10.02s-14.3-1.84-19.27-5.52c-4.97-3.68-7.45-8.69-7.45-15.03,0-5.99,1.75-11.13,5.27-15.41,3.51-4.28,7.79-7.79,12.84-10.53,5.05-2.74,11.86-5.91,20.42-9.5,9.59-3.94,17.04-7.58,22.35-10.92,5.31-3.34,8.73-7.41,10.27-12.2l2.05,10.79c0,11.13-2.14,21.96-6.42,32.5Z"/><path class="e" d="M328.09,236.58c-4.52,3.41-14.01,8.57-33.7,7.52-22.8-1.21-33.61,7.53-35.66,9.39-1.41,1.28-9.64,10.7-5.52,20.1-.44,.01-.88,.03-1.32,.03-6.96,0-13.09-1.98-18.41-5.94-5.32-3.96-10.53-10.05-15.65-18.26-5.12-8.22-11.74-20.43-19.86-36.67-3.09-5.99-7.54-14.97-13.33-26.96-8.12-16.62-14.98-29.81-20.58-39.57-5.61-9.76-12.42-18.36-20.43-25.8-8.02-7.44-17.25-12.22-27.68-14.35,21.25-1.93,39.28-6.96,54.06-15.07,14.78-8.12,22.17-20.39,22.17-36.81,0-17.58-6.77-30.87-20.29-39.86C158.36,5.36,139.13,.87,114.2,.87H43.48c-2.51,0-5.7-.19-9.57-.58l-9.86-.29C15.94,0,9.9,2.17,5.94,6.52,1.98,10.87,0,16.62,0,23.77c0,11.21,3.72,22.56,11.16,34.06,7.44,11.5,17.44,21.4,30,29.71v71.3c0,13.53-.72,23.29-2.17,29.28-1.45,5.99-4.01,9.86-7.68,11.59-3.67,1.74-9.76,2.71-18.26,2.9-.97,0-1.45,.34-1.45,1.01s.48,1.01,1.45,1.01c8.89,0,16.42-.19,22.61-.58,1.93-.2,4.54-.29,7.83-.29h18.84c4.64,0,8.31,.09,11.01,.29,8.5,.38,19.03,.58,31.59,.58,1.54,0,2.32-.39,2.32-1.16,0-.19-.24-.38-.72-.58-.48-.19-1.01-.29-1.59-.29-11.79-.19-20.29-1.3-25.51-3.33-5.22-2.03-8.84-6.33-10.87-12.9-2.03-6.57-3.04-17.29-3.04-32.17v-54.2c12.94,4.45,25.6,6.67,37.97,6.67,7.73,0,14.73,3.58,21.01,10.72,6.28,7.15,11.83,15.9,16.67,26.23,4.83,10.34,10.43,23.82,16.81,40.44,.77,2.13,2.99,7.88,6.67,17.25,3.67,9.37,7.25,17.44,10.72,24.2,7.73,15.07,18.26,27.29,31.59,36.67,13.33,9.37,28.12,14.06,44.35,14.06,1.14,0,2.25-.03,3.35-.08,2.4,3.43,6.69,6.75,13.85,9.57,28.39,11.17,51.53-25.54,54.89-30.7,3.44-5.28,4.58-10.5,4.58-10.5l1.44-7.09c.15-.76-.71-1.31-1.32-.84ZM41.16,84.35c-11.79-8.12-21.16-17.68-28.12-28.7C6.09,44.64,2.61,34.01,2.61,23.77c0-6.57,1.74-11.74,5.22-15.51,3.48-3.77,8.89-5.65,16.23-5.65,5.41,0,9.61,3.24,12.61,9.71,2.99,6.48,4.49,15.22,4.49,26.23v45.8Zm24.35,12.75V36.81c0-9.28,.15-16.38,.43-21.3,.29-4.93,.82-8.94,1.59-12.03h42.03c15.84,0,28.79,4.4,38.84,13.19,10.05,8.8,15.07,21.3,15.07,37.54,0,13.14-2.32,23.24-6.96,30.29-4.64,7.06-11.16,11.98-19.57,14.78-8.41,2.8-19.38,4.49-32.9,5.07-13.33,0-26.19-2.41-38.55-7.25Z"/></g></g></g></svg>
