<svg xmlns="http://www.w3.org/2000/svg" viewBox="0 0 865.66 298.82">
  <defs>
    <style>
      .cls-1 {
        fill: #9b532b
      }
    </style>
  </defs>
  <g id="Capa_2" data-name="Capa 2">
    <g id="Capa_1-2" data-name="Capa 1">
      <g id="tagline">
        <path class="cls-1"
          d="M75.59 266.14a16.78 16.78 0 0 0-.52-4.22 4.37 4.37 0 0 0-1.65-2.51 5.67 5.67 0 0 0-3.42-.8h-3.65v25.44a10 10 0 0 1-.11 1.39l1.79-.08 1.78-.09v1.89H59.64v-1.42a3 3 0 0 0 2.21-.77 3.11 3.11 0 0 0 .65-1.87c0-.79.06-1.67.06-2.65v-21.79h-4.42a4.14 4.14 0 0 0-3.83 1.8 11 11 0 0 0-1.12 5.64h-1.55l.26-9.08H77l.25 9.08ZM88.4 287.85a10.42 10.42 0 0 1-5.35-1.4 9.94 9.94 0 0 1-3.76-3.95 12.56 12.56 0 0 1-1.38-6 12 12 0 0 1 1.36-5.64 11 11 0 0 1 3.8-4.23 10.08 10.08 0 0 1 5.68-1.63 9.55 9.55 0 0 1 3.37.58 7.69 7.69 0 0 1 2.78 1.76 8.32 8.32 0 0 1 1.89 3 11.57 11.57 0 0 1 .69 4.19l-15.14.26a21.05 21.05 0 0 0 .71 5.74 7.57 7.57 0 0 0 2.3 3.82 6 6 0 0 0 4.09 1.36 8.71 8.71 0 0 0 2.73-.47 11.26 11.26 0 0 0 2.6-1.29 8 8 0 0 0 1.93-1.81l1 .86a9.61 9.61 0 0 1-2.79 2.88 11.89 11.89 0 0 1-3.35 1.55 12.32 12.32 0 0 1-3.16.42Zm-5.93-14.92h11a10 10 0 0 0-.45-3 5.1 5.1 0 0 0-1.48-2.36 3.9 3.9 0 0 0-2.71-.93 6 6 0 0 0-4.15 1.49 7.81 7.81 0 0 0-2.21 4.8ZM123.1 287.85a11 11 0 0 1-5.31-1.31 9.9 9.9 0 0 1-3.87-3.78 12.55 12.55 0 0 1-.62-10.3 12.56 12.56 0 0 1 2.3-3.81 11 11 0 0 1 3.55-2.69 10.51 10.51 0 0 1 4.56-1 11 11 0 0 1 4.19.73 6.8 6.8 0 0 1 2.77 1.93 4 4 0 0 1 1 2.62 2.54 2.54 0 0 1-.52 1.62 1.78 1.78 0 0 1-1.5.66 1.59 1.59 0 0 1-1.53-.66 2.48 2.48 0 0 1-.45-1.27 3 3 0 0 1 .13-.88 2 2 0 0 1 .52-.84 2.68 2.68 0 0 0-1.21-1.53 5.23 5.23 0 0 0-1.78-.64 10 10 0 0 0-1.53-.15 6.22 6.22 0 0 0-4.92 2.34c-1.34 1.56-2 3.83-2 6.82a13.38 13.38 0 0 0 .92 5.11 8.34 8.34 0 0 0 2.6 3.51 6.29 6.29 0 0 0 3.87 1.27 7.55 7.55 0 0 0 3.87-1.08 8.44 8.44 0 0 0 2.88-2.62l1.12.86a9.93 9.93 0 0 1-2.68 2.92 11.29 11.29 0 0 1-3.23 1.63 10.29 10.29 0 0 1-3.13.54ZM144.56 287.85a8 8 0 0 1-3.89-.86 5.35 5.35 0 0 1-2.37-2.92 16 16 0 0 1-.79-5.59V269.45a8.91 8.91 0 0 1 .15-1.42c-.49 0-1 .05-1.48.06l-1.49.07v-1.77h1.34a7.29 7.29 0 0 0 2.68-.36 4.54 4.54 0 0 0 1.31-.8h1.25v13.12a11.23 11.23 0 0 0 1.06 5.52 3.71 3.71 0 0 0 3.59 1.79 6 6 0 0 0 3.11-1 8.35 8.35 0 0 0 2.39-2.3V269.51a14.57 14.57 0 0 1 .17-1.48c-.51 0-1 .05-1.54.06l-1.55.07v-1.77h1.33a7.35 7.35 0 0 0 2.69-.36 4.68 4.68 0 0 0 1.31-.8h1.25v18.19c0 .83-.07 1.54-.13 2.11l1.55-.09 1.55-.08v1.8h-6.15c-.09-.48-.15-.94-.19-1.37s-.08-.83-.11-1.21a12.6 12.6 0 0 1-3.23 2.3 8.17 8.17 0 0 1-3.81.97ZM161.16 285.87a2.21 2.21 0 0 0 1.84-.66 3.36 3.36 0 0 0 .61-1.85c0-.79.08-1.7.08-2.73v-9.81c0-.45 0-.89.05-1.31s.07-.91.13-1.48l-1.53.08-1.53.09v-1.81a18.43 18.43 0 0 0 2.93-.17 6.12 6.12 0 0 0 1.57-.43 3.07 3.07 0 0 0 .83-.56h1.25v18.9a10.12 10.12 0 0 1-.15 1.4l1.35-.07 1.36-.06v1.76h-8.77Zm4.17-24.87a2.14 2.14 0 0 1-1.59-.73 2.72 2.72 0 0 1 0-3.64 2.16 2.16 0 0 1 3.27 0 2.67 2.67 0 0 1 .66 1.83 2.47 2.47 0 0 1-.71 1.81 2.25 2.25 0 0 1-1.63.73ZM182.44 287.85a8.79 8.79 0 0 1-4.73-1.31 9.13 9.13 0 0 1-3.33-3.76 12.73 12.73 0 0 1-1.23-5.76 13.2 13.2 0 0 1 1.42-6.24 10.8 10.8 0 0 1 3.94-4.26 10.62 10.62 0 0 1 5.69-1.52 11.24 11.24 0 0 1 2.82.36 8.68 8.68 0 0 1 2.21.84V259c0-.41 0-.91.1-1.49l-1.52.09-1.53.09v-1.81a19.47 19.47 0 0 0 2.92-.17 6.42 6.42 0 0 0 1.57-.43 3 3 0 0 0 .84-.56h1.25V284c0 .46-.08 1-.13 1.55l1.52-.09 1.53-.08v1.8h-6.15c-.09-.43-.15-.82-.19-1.18s-.08-.71-.11-1.05a8.76 8.76 0 0 1-3 2.13 9.39 9.39 0 0 1-3.89.77Zm1.55-2.11a5.82 5.82 0 0 0 2.86-.81 8.11 8.11 0 0 0 2.38-2v-14.75A6.93 6.93 0 0 0 187 267a8.93 8.93 0 0 0-2.52-.37 5.9 5.9 0 0 0-3.74 1.25 7.65 7.65 0 0 0-2.41 3.48 14.14 14.14 0 0 0-.73 5.25 15.25 15.25 0 0 0 .84 4.69 7.53 7.53 0 0 0 2.15 3.24 5.1 5.1 0 0 0 3.41 1.2ZM212 287.16c-.08-.48-.14-.91-.17-1.29s-.07-.76-.13-1.16a11.82 11.82 0 0 1-3.16 2.3 8 8 0 0 1-3.59.84 6.91 6.91 0 0 1-4.86-1.48 4.78 4.78 0 0 1-1.59-3.64 5.09 5.09 0 0 1 1.23-3.41 9.27 9.27 0 0 1 3.18-2.37 18.18 18.18 0 0 1 4.26-1.38 20.81 20.81 0 0 1 4.45-.4v-2.67a15.14 15.14 0 0 0-.26-2.84 4.11 4.11 0 0 0-1.12-2.19 3.91 3.91 0 0 0-2.75-.9 6.39 6.39 0 0 0-2.49.43 3.41 3.41 0 0 0-2 1.8 1.65 1.65 0 0 1 .45.8 3.69 3.69 0 0 1 .1.84 2.25 2.25 0 0 1-.43 1.18 1.56 1.56 0 0 1-1.5.62 1.65 1.65 0 0 1-1.38-.62 2.42 2.42 0 0 1-.47-1.48 3.75 3.75 0 0 1 1.1-2.63 7.62 7.62 0 0 1 3-1.85 13 13 0 0 1 4.38-.68c2.41 0 4.19.63 5.34 1.91s1.7 3.29 1.67 6v11.05c0 .46-.07 1-.13 1.55l1.52-.09 1.53-.08v1.8Zm-.38-10.53a19.19 19.19 0 0 0-3.08.36 13.09 13.09 0 0 0-3 1 6.15 6.15 0 0 0-2.19 1.7 3.77 3.77 0 0 0-.79 2.56 3.09 3.09 0 0 0 1 2.38 3.45 3.45 0 0 0 2.3.8 6.62 6.62 0 0 0 3.07-.67 11 11 0 0 0 2.61-1.87v-3.54c0-.78.1-1.72.1-2.72ZM230 287.85a11.53 11.53 0 0 1-3.82-.58 11.86 11.86 0 0 1-2.76-1.31l.18 1.5h-1.81l-.26-7.39h1.33a6.34 6.34 0 0 0 1 3.16 6.45 6.45 0 0 0 2.33 2.17 6.2 6.2 0 0 0 3.05.77 6.88 6.88 0 0 0 2.19-.36 4.48 4.48 0 0 0 1.81-1.12 2.66 2.66 0 0 0 .73-1.91 2.89 2.89 0 0 0-.71-2 6.44 6.44 0 0 0-1.87-1.4c-.78-.4-1.61-.77-2.5-1.12s-1.72-.7-2.58-1.07a12.82 12.82 0 0 1-2.38-1.34 5.81 5.81 0 0 1-1.74-1.89 5.41 5.41 0 0 1-.65-2.75 6.57 6.57 0 0 1 .35-2 5.9 5.9 0 0 1 3.39-3.63 9 9 0 0 1 3.61-.62 9.7 9.7 0 0 1 2.58.38 7.7 7.7 0 0 1 2.76 1.46l-.09-1.63h1.81v7.53h-1.38a8.6 8.6 0 0 0-.69-2.91 6 6 0 0 0-1.76-2.32 4.66 4.66 0 0 0-3-.92 4.53 4.53 0 0 0-3.1 1 3 3 0 0 0-1.11 2.27 3.13 3.13 0 0 0 .83 2.22 7.22 7.22 0 0 0 2.18 1.52c.88.44 1.83.85 2.83 1.25s2.15 1 3.19 1.51a7.9 7.9 0 0 1 2.53 2 4.88 4.88 0 0 1 1 3.16 5.63 5.63 0 0 1-1.1 3.57 6.43 6.43 0 0 1-2.79 2.08 9.49 9.49 0 0 1-3.58.72ZM244.23 294.86l-1.16-.86a9.27 9.27 0 0 0 1-1.72 13.26 13.26 0 0 0 .83-2.47 7 7 0 0 0 .15-2.65 4.17 4.17 0 0 1-.55.2 2.37 2.37 0 0 1-.52.06 1.89 1.89 0 0 1-1.4-.6 2.11 2.11 0 0 1-.58-1.51 2.32 2.32 0 0 1 2.37-2.49 2.59 2.59 0 0 1 2.28 1.14 4.85 4.85 0 0 1 .77 2.77 10.79 10.79 0 0 1-.41 2.63 16.54 16.54 0 0 1-1.12 3 9.34 9.34 0 0 1-1.66 2.5ZM286.24 266.14a16.78 16.78 0 0 0-.52-4.22 4.41 4.41 0 0 0-1.65-2.51 5.67 5.67 0 0 0-3.42-.8H277v25.44a11.89 11.89 0 0 1-.11 1.39l1.78-.08 1.79-.09v1.89h-10.18v-1.42a2.47 2.47 0 0 0 2.86-2.64c.05-.79.07-1.67.07-2.65v-21.79h-4.43a4.13 4.13 0 0 0-3.82 1.8 11 11 0 0 0-1.12 5.64h-1.59l.25-9.08h25.07l.26 9.08ZM299.05 287.85a10.39 10.39 0 0 1-5.35-1.4 9.88 9.88 0 0 1-3.76-3.95 12.56 12.56 0 0 1-1.38-6 12.15 12.15 0 0 1 1.35-5.64 11.1 11.1 0 0 1 3.81-4.23 10 10 0 0 1 5.67-1.61 9.6 9.6 0 0 1 3.38.58 7.57 7.57 0 0 1 2.77 1.76 8.21 8.21 0 0 1 1.9 3 11.8 11.8 0 0 1 .68 4.19l-15.13.26a20.67 20.67 0 0 0 .71 5.74 7.57 7.57 0 0 0 2.3 3.82 6 6 0 0 0 4.08 1.36 8.61 8.61 0 0 0 2.73-.47 11.07 11.07 0 0 0 2.6-1.29 7.9 7.9 0 0 0 1.94-1.81l1 .86a9.61 9.61 0 0 1-2.79 2.88 11.82 11.82 0 0 1-3.36 1.55 12.19 12.19 0 0 1-3.15.4Zm-5.93-14.92h11a10 10 0 0 0-.45-3 5.19 5.19 0 0 0-1.48-2.36 3.9 3.9 0 0 0-2.71-.93 6 6 0 0 0-4.15 1.49 7.81 7.81 0 0 0-2.21 4.8ZM333.75 287.85a11 11 0 0 1-5.31-1.31 9.9 9.9 0 0 1-3.87-3.78 12.55 12.55 0 0 1-.62-10.3 12.56 12.56 0 0 1 2.3-3.81 11 11 0 0 1 3.54-2.69 10.57 10.57 0 0 1 4.56-1 10.94 10.94 0 0 1 4.19.73 6.84 6.84 0 0 1 2.78 1.93 4 4 0 0 1 1 2.62 2.54 2.54 0 0 1-.52 1.62 1.78 1.78 0 0 1-1.5.66 1.59 1.59 0 0 1-1.53-.66 2.48 2.48 0 0 1-.45-1.27 3 3 0 0 1 .13-.88 2 2 0 0 1 .51-.84 2.66 2.66 0 0 0-1.2-1.53 5.2 5.2 0 0 0-1.79-.64 9.76 9.76 0 0 0-1.52-.15 6.22 6.22 0 0 0-4.92 2.34c-1.34 1.56-2 3.83-2 6.82a13.19 13.19 0 0 0 .92 5.11 8.26 8.26 0 0 0 2.6 3.51 6.29 6.29 0 0 0 3.87 1.27 7.55 7.55 0 0 0 3.87-1.08 8.63 8.63 0 0 0 2.88-2.62l1.12.86a10 10 0 0 1-2.69 2.92 11.12 11.12 0 0 1-3.22 1.63 10.39 10.39 0 0 1-3.13.54ZM355.21 287.85a8 8 0 0 1-3.89-.86 5.35 5.35 0 0 1-2.37-2.92 16 16 0 0 1-.79-5.59V269.45a8.91 8.91 0 0 1 .15-1.42c-.49 0-1 .05-1.49.06l-1.48.07v-1.77h1.33a7.31 7.31 0 0 0 2.69-.36 4.54 4.54 0 0 0 1.31-.8h1.25v13.12a11.36 11.36 0 0 0 1.05 5.52 3.72 3.72 0 0 0 3.59 1.79 6 6 0 0 0 3.12-1 8.48 8.48 0 0 0 2.39-2.3V269.51a14.57 14.57 0 0 1 .17-1.48c-.51 0-1 .05-1.55.06l-1.54.07v-1.77h1.33a7.35 7.35 0 0 0 2.69-.36 4.68 4.68 0 0 0 1.31-.8h1.24v18.19c0 .83-.07 1.54-.13 2.11l1.55-.09 1.55-.08v1.8h-6.15c-.09-.48-.15-.94-.2-1.37s-.08-.83-.1-1.21a12.6 12.6 0 0 1-3.23 2.3 8.17 8.17 0 0 1-3.8.97ZM371.8 285.87a2.22 2.22 0 0 0 1.85-.66 3.28 3.28 0 0 0 .6-1.85q.09-1.19.09-2.73V269.51c0-.42.07-.91.13-1.48l-1.52.08-1.53.09v-1.81a18.21 18.21 0 0 0 2.92-.17 6 6 0 0 0 1.57-.43 3 3 0 0 0 .84-.56H378v18.9a11.93 11.93 0 0 1-.15 1.4l1.35-.07 1.36-.06v1.76h-8.76ZM376 261a2.15 2.15 0 0 1-1.59-.73 2.53 2.53 0 0 1-.68-1.81 2.57 2.57 0 0 1 .7-1.83 2.2 2.2 0 0 1 1.62-.75 2.11 2.11 0 0 1 1.65.75 2.63 2.63 0 0 1 .67 1.83 2.51 2.51 0 0 1-.71 1.81 2.27 2.27 0 0 1-1.66.73ZM393.09 287.85a8.79 8.79 0 0 1-4.73-1.31 9.15 9.15 0 0 1-3.34-3.76 12.86 12.86 0 0 1-1.22-5.78 13.2 13.2 0 0 1 1.42-6.24 10.55 10.55 0 0 1 9.63-5.8 11.3 11.3 0 0 1 2.82.36 8.68 8.68 0 0 1 2.21.84V258.96c0-.41.05-.91.11-1.49l-1.53.09-1.52.09v-1.81a19.56 19.56 0 0 0 2.92-.17 6.42 6.42 0 0 0 1.57-.43 3 3 0 0 0 .84-.56h1.25v27.91c0 .45 0 .91-.05 1.37s-.07 1-.13 1.55l1.53-.09 1.53-.08v1.8h-6.15c-.09-.43-.15-.82-.2-1.18s-.07-.71-.1-1.05a8.85 8.85 0 0 1-3 2.13 9.42 9.42 0 0 1-3.86.81Zm1.55-2.11a5.78 5.78 0 0 0 2.85-.81 8.15 8.15 0 0 0 2.39-2v-14.75a7 7 0 0 0-2.26-1.14 8.81 8.81 0 0 0-2.51-.37 5.88 5.88 0 0 0-3.74 1.25 7.57 7.57 0 0 0-2.41 3.48 13.93 13.93 0 0 0-.73 5.25 15 15 0 0 0 .84 4.69 7.53 7.53 0 0 0 2.15 3.24 5.1 5.1 0 0 0 3.42 1.16ZM422.67 287.16a12.12 12.12 0 0 1-.17-1.29c0-.37-.07-.76-.13-1.16a12 12 0 0 1-3.16 2.3 8 8 0 0 1-3.59.84 6.91 6.91 0 0 1-4.86-1.48 4.78 4.78 0 0 1-1.59-3.64 5.13 5.13 0 0 1 1.22-3.41 9.41 9.41 0 0 1 3.19-2.37 18.25 18.25 0 0 1 4.25-1.38 20.92 20.92 0 0 1 4.45-.4v-2.67a14.35 14.35 0 0 0-.26-2.84 4.1 4.1 0 0 0-1.11-2.19 3.93 3.93 0 0 0-2.75-.9 6.36 6.36 0 0 0-2.56.47 3.43 3.43 0 0 0-1.92 1.76 1.65 1.65 0 0 1 .45.8 3.23 3.23 0 0 1 .11.84 2.25 2.25 0 0 1-.43 1.18 1.57 1.57 0 0 1-1.5.62 1.65 1.65 0 0 1-1.38-.62 2.42 2.42 0 0 1-.47-1.48 3.71 3.71 0 0 1 1.1-2.63 7.62 7.62 0 0 1 3-1.85A13 13 0 0 1 419 265c2.41 0 4.19.63 5.33 1.91s1.71 3.29 1.68 6v9.68c0 .45 0 .91-.05 1.37s-.07 1-.12 1.55l1.52-.09 1.53-.08v1.8Zm-.39-10.53a19.07 19.07 0 0 0-3.07.36 12.77 12.77 0 0 0-3 1 6.15 6.15 0 0 0-2.19 1.7 3.78 3.78 0 0 0-.8 2.56 3.13 3.13 0 0 0 1.06 2.38 3.45 3.45 0 0 0 2.3.8 6.62 6.62 0 0 0 3.07-.67 11 11 0 0 0 2.6-1.87v-3.54c0-.78.03-1.72.03-2.72ZM431.79 287.16v-1.29a2.21 2.21 0 0 0 1.84-.66 3.36 3.36 0 0 0 .61-1.85c.05-.79.08-1.7.08-2.73v-11.18a12 12 0 0 1 .15-1.42l-1.52.08-1.53.09v-1.81a17.06 17.06 0 0 0 2.86-.17 4.78 4.78 0 0 0 1.44-.43 3.48 3.48 0 0 0 .78-.56h1.24a6.79 6.79 0 0 1 .11 1q0 .57.06 1.29a11.11 11.11 0 0 1 3-1.82 8.46 8.46 0 0 1 3.36-.71 7.62 7.62 0 0 1 3.61.77 5.88 5.88 0 0 1 2.28 2.11 14.1 14.1 0 0 1 3.37-2.05 9.31 9.31 0 0 1 3.76-.83c2.5 0 4.33.75 5.51 2.25s1.73 4 1.67 7.38v9.52a8.79 8.79 0 0 1-.15 1.4l1.35-.07 1.36-.06v1.76h-8.77v-1.29a2.25 2.25 0 0 0 1.85-.66 3.44 3.44 0 0 0 .6-1.85c.05-.79.08-1.7.08-2.73v-6a10.41 10.41 0 0 0-1.18-5.55 4 4 0 0 0-3.72-1.81 6.25 6.25 0 0 0-2.66.61 8.8 8.8 0 0 0-2.33 1.5 9.43 9.43 0 0 1 .33 1.48 12.87 12.87 0 0 1 .1 1.66v11.6a11.93 11.93 0 0 1-.15 1.4l1.35-.07 1.36-.06v1.76h-8.78v-1.29a2.16 2.16 0 0 0 1.83-.66 3.62 3.62 0 0 0 .6-1.85c.07-.79.11-1.7.11-2.73v-6a11 11 0 0 0-1.07-5.59 3.85 3.85 0 0 0-3.66-1.85 6.27 6.27 0 0 0-2.62.58 7.34 7.34 0 0 0-2.19 1.48v14.9a11.93 11.93 0 0 1-.15 1.4l1.35-.07 1.36-.06v1.76ZM480.89 287.85a10.82 10.82 0 0 1-5.46-1.4 10.39 10.39 0 0 1-3.89-3.87 11 11 0 0 1-1.44-5.65 12.92 12.92 0 0 1 1.42-6.11 11 11 0 0 1 3.87-4.28 10 10 0 0 1 5.5-1.56 10.56 10.56 0 0 1 5.46 1.44 10.88 10.88 0 0 1 3.91 3.89 10.65 10.65 0 0 1 1.47 5.59 12.73 12.73 0 0 1-1.44 6 11.4 11.4 0 0 1-3.9 4.32 9.86 9.86 0 0 1-5.5 1.63Zm.34-1.72a5 5 0 0 0 3.62-1.29 7.42 7.42 0 0 0 1.91-3.35 15.92 15.92 0 0 0 .58-4.35 20.06 20.06 0 0 0-.36-3.8 13.09 13.09 0 0 0-1.15-3.4 6.69 6.69 0 0 0-2-2.43 4.85 4.85 0 0 0-2.95-.9 5.24 5.24 0 0 0-3.66 1.29 7.59 7.59 0 0 0-2.08 3.35 14.52 14.52 0 0 0-.67 4.43 17.37 17.37 0 0 0 .73 5.05 9.28 9.28 0 0 0 2.24 3.9 5.12 5.12 0 0 0 3.79 1.5ZM504.2 287.85a11.8 11.8 0 0 1-6.58-1.89l.17 1.5H496l-.25-7.39h1.33a6.14 6.14 0 0 0 1 3.16 6.35 6.35 0 0 0 2.32 2.17 6.2 6.2 0 0 0 3.05.77 6.79 6.79 0 0 0 2.19-.36 4.48 4.48 0 0 0 1.81-1.12 2.62 2.62 0 0 0 .73-1.91 2.89 2.89 0 0 0-.71-2 6.44 6.44 0 0 0-1.87-1.4 26.21 26.21 0 0 0-2.49-1.12c-.86-.34-1.72-.7-2.58-1.07a12.91 12.91 0 0 1-2.39-1.34 5.81 5.81 0 0 1-1.74-1.89 5.41 5.41 0 0 1-.64-2.75 6.54 6.54 0 0 1 .34-2 5.88 5.88 0 0 1 3.4-3.63 8.93 8.93 0 0 1 3.61-.62 9.82 9.82 0 0 1 2.58.38 7.74 7.74 0 0 1 2.75 1.46l-.09-1.63h1.81v7.53h-1.38a8.15 8.15 0 0 0-.69-2.91 5.86 5.86 0 0 0-1.76-2.32 4.66 4.66 0 0 0-3-.92 4.48 4.48 0 0 0-3.09 1 2.94 2.94 0 0 0-1.12 2.27 3.1 3.1 0 0 0 .84 2.22 7.17 7.17 0 0 0 2.17 1.52c.89.44 1.83.85 2.84 1.25s2.15 1 3.18 1.51a7.9 7.9 0 0 1 2.53 2 4.88 4.88 0 0 1 1 3.16 5.68 5.68 0 0 1-1.09 3.57 6.46 6.46 0 0 1-2.8 2.08 9.48 9.48 0 0 1-3.59.72ZM529.91 298.82a4 4 0 0 1-2.28-.65 2.24 2.24 0 0 1-1-2 2.21 2.21 0 0 1 .52-1.42 1.62 1.62 0 0 1 1.33-.64 1.38 1.38 0 0 1 1.4.64 2.68 2.68 0 0 1 .36 1.21v.28a1.27 1.27 0 0 1 0 .32.88.88 0 0 0 .47.09 2 2 0 0 0 1.12-.43 4.09 4.09 0 0 0 1.08-1.25 21.88 21.88 0 0 0 1.31-2.84c.5-1.26 1.07-2.77 1.7-4.51l-6.71-14.37c-.75-1.6-1.28-2.88-1.61-3.82s-.56-1.65-.67-2.11l-2.06.09v-1.77h8.9V267h-.18c-1.2.09-1.86.54-2 1.36a7.4 7.4 0 0 0 1 3.72l5 10.79c.66-1.83 1.29-3.65 1.89-5.44l1.8-5.35.71-2c.25-.67.49-1.27.73-1.81a2.91 2.91 0 0 1 .67-1l-3 .18v-1.77h6.75V267a4.5 4.5 0 0 0-2.38 2 24.66 24.66 0 0 0-1.61 3.59l-5.38 15q-1.29 3.61-2.36 6.13a12.43 12.43 0 0 1-2.37 3.82 4.31 4.31 0 0 1-3.13 1.28ZM561.08 287.16v-1.42a3.11 3.11 0 0 0 2.23-.75 2.83 2.83 0 0 0 .67-1.85c0-.79.07-1.68.07-2.69v-20.23c0-.53.06-1 .09-1.44l-1.55.09-1.55.09v-1.9h9.67v1.42a3 3 0 0 0-2.21.73 2.88 2.88 0 0 0-.69 1.85c0 .78-.06 1.68-.06 2.71v20.45a11.69 11.69 0 0 1-.11 1.37l8-.13a5.18 5.18 0 0 0 4.11-1.72c.93-1.11 1.39-2.94 1.39-5.46h1.46l-.25 8.9ZM596.12 287.85a10.88 10.88 0 0 1-5.46-1.4 10.39 10.39 0 0 1-3.89-3.87 11 11 0 0 1-1.44-5.65 12.92 12.92 0 0 1 1.42-6.11 11 11 0 0 1 3.87-4.28 10 10 0 0 1 5.5-1.56 10.56 10.56 0 0 1 5.46 1.44 10.91 10.91 0 0 1 3.92 3.89 10.74 10.74 0 0 1 1.5 5.59 12.73 12.73 0 0 1-1.44 6 11.38 11.38 0 0 1-3.89 4.32 9.92 9.92 0 0 1-5.55 1.63Zm.35-1.72a5 5 0 0 0 3.61-1.29 7.33 7.33 0 0 0 1.91-3.35 15.92 15.92 0 0 0 .58-4.35 20.06 20.06 0 0 0-.36-3.8 13.46 13.46 0 0 0-1.14-3.4 6.71 6.71 0 0 0-2-2.43 4.85 4.85 0 0 0-3-.9 5.2 5.2 0 0 0-3.65 1.29 7.61 7.61 0 0 0-2.09 3.35 14.52 14.52 0 0 0-.66 4.43 17 17 0 0 0 .73 5.05 9.16 9.16 0 0 0 2.23 3.9 5.16 5.16 0 0 0 3.84 1.5ZM632.41 287.85a11 11 0 0 1-5.31-1.31 9.9 9.9 0 0 1-3.87-3.78 12.55 12.55 0 0 1-.62-10.3 12.56 12.56 0 0 1 2.3-3.81 11 11 0 0 1 3.55-2.69 10.49 10.49 0 0 1 4.55-1 11 11 0 0 1 4.2.73 6.8 6.8 0 0 1 2.77 1.93 4 4 0 0 1 1 2.62 2.54 2.54 0 0 1-.52 1.62 1.78 1.78 0 0 1-1.5.66 1.59 1.59 0 0 1-1.53-.66 2.48 2.48 0 0 1-.45-1.27 3 3 0 0 1 .13-.88 2 2 0 0 1 .52-.84 2.68 2.68 0 0 0-1.21-1.53 5.23 5.23 0 0 0-1.78-.64 10 10 0 0 0-1.53-.15 6.22 6.22 0 0 0-4.92 2.34c-1.34 1.56-2 3.83-2 6.82a13.19 13.19 0 0 0 .92 5.11 8.34 8.34 0 0 0 2.6 3.51 6.29 6.29 0 0 0 3.87 1.27 7.55 7.55 0 0 0 3.87-1.08 8.44 8.44 0 0 0 2.88-2.62l1.12.86a9.83 9.83 0 0 1-2.69 2.92 11.12 11.12 0 0 1-3.22 1.63 10.29 10.29 0 0 1-3.13.54ZM653.87 287.85A8 8 0 0 1 650 287a5.35 5.35 0 0 1-2.37-2.92 16 16 0 0 1-.79-5.59V269.46A8.91 8.91 0 0 1 647 268c-.49 0-1 .05-1.48.06l-1.49.07v-1.77h1.33A7.31 7.31 0 0 0 648 266a4.54 4.54 0 0 0 1.31-.8h1.25v13.12a11.36 11.36 0 0 0 1 5.52 3.73 3.73 0 0 0 3.59 1.79 6 6 0 0 0 3.12-1 8.35 8.35 0 0 0 2.39-2.3v-12.82A14.57 14.57 0 0 1 661 268c-.51 0-1 .05-1.54.06l-1.55.07v-1.77h1.33a7.35 7.35 0 0 0 2.69-.36 4.68 4.68 0 0 0 1.31-.8h1.25l-.05 16.26v1.93c0 .83-.07 1.54-.13 2.11l1.55-.09 1.55-.08v1.8h-6.15c-.09-.48-.15-.94-.2-1.37s-.07-.83-.1-1.21a12.6 12.6 0 0 1-3.23 2.3 8.17 8.17 0 0 1-3.86 1ZM670.47 285.87a2.21 2.21 0 0 0 1.84-.66 3.36 3.36 0 0 0 .61-1.85c.05-.79.08-1.7.08-2.73V269.51c0-.42.07-.91.12-1.48l-1.52.08-1.53.09v-1.81a18.43 18.43 0 0 0 2.93-.17 5.91 5.91 0 0 0 1.56-.43 3 3 0 0 0 .84-.56h1.25v18.9a11.93 11.93 0 0 1-.15 1.4l1.35-.07 1.36-.06v1.76h-8.77Zm4.17-24.87a2.12 2.12 0 0 1-1.59-.73 2.72 2.72 0 0 1 0-3.64 2.16 2.16 0 0 1 3.27 0 2.67 2.67 0 0 1 .66 1.83 2.47 2.47 0 0 1-.71 1.81 2.25 2.25 0 0 1-1.63.73ZM691.75 287.85a8.79 8.79 0 0 1-4.73-1.31 9.06 9.06 0 0 1-3.33-3.76 12.73 12.73 0 0 1-1.23-5.76 13.32 13.32 0 0 1 1.42-6.24 10.85 10.85 0 0 1 3.93-4.26 10.68 10.68 0 0 1 5.7-1.54 11.24 11.24 0 0 1 2.82.36 8.68 8.68 0 0 1 2.21.84V258.98c0-.41.05-.91.11-1.49l-1.52.09-1.53.09v-1.81a19.56 19.56 0 0 0 2.92-.17 6.42 6.42 0 0 0 1.57-.43 3 3 0 0 0 .84-.56h1.25v27.91c0 .45 0 .91-.05 1.37s-.07 1-.12 1.55l1.52-.09 1.53-.08v1.8h-6.15c-.09-.43-.15-.82-.19-1.18s-.08-.71-.11-1.05a8.76 8.76 0 0 1-3 2.13 9.39 9.39 0 0 1-3.86.79Zm1.55-2.11a5.82 5.82 0 0 0 2.86-.81 8.11 8.11 0 0 0 2.38-2v-14.75a7 7 0 0 0-2.25-1.14 8.93 8.93 0 0 0-2.52-.37 5.9 5.9 0 0 0-3.77 1.23 7.65 7.65 0 0 0-2.41 3.48 14.14 14.14 0 0 0-.73 5.25 15.25 15.25 0 0 0 .84 4.69 7.53 7.53 0 0 0 2.15 3.24 5.1 5.1 0 0 0 3.45 1.18ZM721.33 287.16c-.08-.48-.14-.91-.17-1.29s-.07-.76-.13-1.16a11.82 11.82 0 0 1-3.16 2.3 8 8 0 0 1-3.59.84 6.91 6.91 0 0 1-4.86-1.48 4.78 4.78 0 0 1-1.59-3.64 5.09 5.09 0 0 1 1.23-3.41 9.27 9.27 0 0 1 3.18-2.37 18.25 18.25 0 0 1 4.25-1.38 20.92 20.92 0 0 1 4.45-.4v-2.67a15.16 15.16 0 0 0-.25-2.84 4.11 4.11 0 0 0-1.12-2.19 3.91 3.91 0 0 0-2.75-.9 6.39 6.39 0 0 0-2.56.47 3.41 3.41 0 0 0-1.91 1.76 1.73 1.73 0 0 1 .45.8 3.69 3.69 0 0 1 .1.84 2.25 2.25 0 0 1-.43 1.18 1.56 1.56 0 0 1-1.5.62 1.65 1.65 0 0 1-1.38-.62 2.42 2.42 0 0 1-.47-1.48 3.75 3.75 0 0 1 1.1-2.63 7.62 7.62 0 0 1 3-1.85 13 13 0 0 1 4.38-.68c2.41 0 4.19.63 5.34 1.91s1.7 3.29 1.67 6v11.05c0 .46-.08 1-.13 1.55l1.52-.09 1.53-.08v1.8Zm-.39-10.53a19.2 19.2 0 0 0-3.07.36 13.09 13.09 0 0 0-3 1 6.15 6.15 0 0 0-2.19 1.7 3.77 3.77 0 0 0-.79 2.56 3.09 3.09 0 0 0 1.11 2.35 3.45 3.45 0 0 0 2.3.8 6.62 6.62 0 0 0 3.07-.67 10.79 10.79 0 0 0 2.6-1.87v-3.54c0-.78-.03-1.69-.03-2.69ZM730.45 287.16v-1.29a2.23 2.23 0 0 0 1.85-.66 3.44 3.44 0 0 0 .6-1.85c.06-.79.08-1.7.08-2.73v-11.18a8.91 8.91 0 0 1 .15-1.42l-1.53.08-1.53.09v-1.81a17.06 17.06 0 0 0 2.86-.17 4.78 4.78 0 0 0 1.44-.43 3.26 3.26 0 0 0 .78-.56h1.24a5.64 5.64 0 0 1 .11 1c0 .38 0 .81.07 1.29a11.06 11.06 0 0 1 3-1.82 8.46 8.46 0 0 1 3.36-.71 7.62 7.62 0 0 1 3.61.77 5.88 5.88 0 0 1 2.28 2.11 14.1 14.1 0 0 1 3.37-2.05A9.32 9.32 0 0 1 756 265q3.74 0 5.5 2.25t1.68 7.38v9.52a8.79 8.79 0 0 1-.15 1.4l1.36-.07 1.35-.06v1.76h-8.77v-1.29a2.23 2.23 0 0 0 1.85-.66 3.44 3.44 0 0 0 .6-1.85q.09-1.19.09-2.73v-6a10.4 10.4 0 0 0-1.19-5.55 4 4 0 0 0-3.72-1.81 6.28 6.28 0 0 0-2.66.61 8.58 8.58 0 0 0-2.32 1.5 9.43 9.43 0 0 1 .32 1.48 12.86 12.86 0 0 1 .11 1.66v11.6a11.93 11.93 0 0 1-.15 1.4l1.35-.07 1.36-.06v1.76h-9.01v-1.29a2.16 2.16 0 0 0 1.83-.66 3.62 3.62 0 0 0 .6-1.85c.07-.79.11-1.7.11-2.73l.05-6a11.05 11.05 0 0 0-1.08-5.59 3.84 3.84 0 0 0-3.66-1.85 6.3 6.3 0 0 0-2.62.58 7.34 7.34 0 0 0-2.19 1.48v14.9a8.79 8.79 0 0 1-.15 1.4l1.35-.07 1.36-.06v1.76ZM779.55 287.85a10.82 10.82 0 0 1-5.46-1.4 10.39 10.39 0 0 1-3.89-3.87 11 11 0 0 1-1.44-5.65 12.92 12.92 0 0 1 1.42-6.11 11 11 0 0 1 3.87-4.28 10 10 0 0 1 5.5-1.56 10.56 10.56 0 0 1 5.46 1.44 10.91 10.91 0 0 1 3.92 3.89 10.74 10.74 0 0 1 1.46 5.59 12.73 12.73 0 0 1-1.44 6 11.38 11.38 0 0 1-3.89 4.32 9.92 9.92 0 0 1-5.51 1.63Zm.34-1.72a5 5 0 0 0 3.62-1.29 7.42 7.42 0 0 0 1.91-3.35 15.92 15.92 0 0 0 .58-4.35 20.06 20.06 0 0 0-.36-3.8 13.46 13.46 0 0 0-1.14-3.4 6.81 6.81 0 0 0-2-2.43 4.85 4.85 0 0 0-3-.9 5.2 5.2 0 0 0-3.65 1.29 7.61 7.61 0 0 0-2.09 3.35 14.52 14.52 0 0 0-.67 4.43 17 17 0 0 0 .74 5.05 9.16 9.16 0 0 0 2.23 3.9 5.14 5.14 0 0 0 3.83 1.5ZM802.86 287.85a11.8 11.8 0 0 1-6.58-1.89l.17 1.5h-1.81l-.25-7.39h1.33a6.37 6.37 0 0 0 3.28 5.33 6.23 6.23 0 0 0 3.05.77 6.9 6.9 0 0 0 2.2-.36 4.51 4.51 0 0 0 1.8-1.12 2.62 2.62 0 0 0 .73-1.91 2.85 2.85 0 0 0-.71-2 6.31 6.31 0 0 0-1.87-1.4 26.21 26.21 0 0 0-2.49-1.12c-.86-.34-1.72-.7-2.58-1.07a12.91 12.91 0 0 1-2.39-1.34A5.81 5.81 0 0 1 795 274a5.41 5.41 0 0 1-.64-2.75 6.54 6.54 0 0 1 .34-2 6.09 6.09 0 0 1 1.16-2 6 6 0 0 1 2.24-1.59 8.93 8.93 0 0 1 3.61-.62 9.82 9.82 0 0 1 2.58.38 7.74 7.74 0 0 1 2.75 1.46l-.09-1.63h1.81v7.53h-1.38a8.36 8.36 0 0 0-.68-2.91 6 6 0 0 0-1.77-2.32 4.64 4.64 0 0 0-3-.92 4.5 4.5 0 0 0-3.09 1 2.94 2.94 0 0 0-1.12 2.27 3.1 3.1 0 0 0 .84 2.22 7.17 7.17 0 0 0 2.17 1.52c.89.44 1.83.85 2.84 1.25s2.15 1 3.18 1.51a7.94 7.94 0 0 1 2.54 2 4.88 4.88 0 0 1 1 3.16 5.69 5.69 0 0 1-1.1 3.57 6.4 6.4 0 0 1-2.8 2.08 9.48 9.48 0 0 1-3.53.64Z" />
      </g>
      <g id="Logo">
        <g id="Logo-2" data-name="Logo">
          <path class="cls-1"
            d="M184.64 150.88a49.37 49.37 0 0 1-17.75-17.56 45.82 45.82 0 0 1-6.66-24 52.8 52.8 0 0 1 7.77-28.1 55.06 55.06 0 0 1 20.94-19.88 59.11 59.11 0 0 1 28.85-7.23A44.44 44.44 0 0 1 242.05 61a48.63 48.63 0 0 1 17 18.33 51.15 51.15 0 0 1 6.18 24.6 53.09 53.09 0 0 1-7.24 27.5 50.4 50.4 0 0 1-20.09 19.07q-12.84 6.84-29.43 6.85a46.56 46.56 0 0 1-23.83-6.47ZM238 148a29.9 29.9 0 0 0 10.71-12.35 38.82 38.82 0 0 0 3.76-17.08A62.74 62.74 0 0 0 246 91.45 61.88 61.88 0 0 0 228.25 69a39.72 39.72 0 0 0-25.18-8.88 26.62 26.62 0 0 0-15.44 4.63A31.74 31.74 0 0 0 177 77.26a39.44 39.44 0 0 0-3.86 17.56 57.59 57.59 0 0 0 7 26.73 65.76 65.76 0 0 0 18.33 22.19q11.38 8.79 23.93 8.78A28 28 0 0 0 238 148ZM628.25 58.7q.76 0 .87.48a.94.94 0 0 1-.29.87q-10.62 6.18-13.9 15.34t-3.28 23.06l.19 37.44a82.29 82.29 0 0 0 1 12.64 8.06 8.06 0 0 0 4 5.79q3.18 1.83 10.32 1.83c.64 0 1 .23 1 .68s-.32.67-1 .67a117.17 117.17 0 0 1-12-.19 31 31 0 0 0-4-.19h-13.4a38.25 38.25 0 0 0-4.44.19c-3.35.26-7.21.38-11.58.38-.51 0-.77-.22-.77-.67s.26-.68.77-.68q7.14 0 10.32-1.93a8.38 8.38 0 0 0 4-5.88 73.85 73.85 0 0 0 .77-12.64v-39a36.57 36.57 0 0 1 4.54-17.27q4.53-8.58 15.53-15.92a111.82 111.82 0 0 0-20.65 10.71q-9.45 6.27-13.7 11.09a.89.89 0 0 1-1 .58.74.74 0 0 1-.77-.58 1.09 1.09 0 0 1 .38-1.15q6.18-7.34 19.68-14.86a108.64 108.64 0 0 1 26.83-10.79ZM602 38.34a9.36 9.36 0 0 1-2.89-7 9.63 9.63 0 0 1 2.8-6.95 9.36 9.36 0 0 1 7-2.89 9.86 9.86 0 0 1 7.14 2.8 9.36 9.36 0 0 1 2.89 7 10 10 0 0 1-17 7ZM777.38 156.35c0 .45-.32.68-1 .68q-6.57 0-11.58-.39a38.25 38.25 0 0 0-4.44-.19h-13.27a38.25 38.25 0 0 0-4.44.19q-5 .39-11.58.39c-.51 0-.77-.23-.77-.68s.26-.67.77-.67q7.9-.19 10.81-2.41t2.89-7.63a99.09 99.09 0 0 0-1.16-10.22l-6-37.63q-3.28-20.07-7.91-27.6t-12.54-7.52q-9.27 0-17.27 10t-13.7 28.08a205 205 0 0 0-8 41.39q.38 7.53 3.28 10.42t11.58 3.09c.64 0 1 .22 1 .67s-.32.68-1 .68q-6.57 0-11.58-.39a38.25 38.25 0 0 0-4.44-.19h-13.11a38.25 38.25 0 0 0-4.44.19q-5 .39-11.58.39c-.51 0-.77-.23-.77-.68s.26-.67.77-.67q7.14 0 10.32-1.93a8.39 8.39 0 0 0 4-5.89 73.76 73.76 0 0 0 .77-12.64V37.77q0-8.49-3.09-12.64t-11.57-3.57c-.52.13-.78 0-.78-.38s.26-.64.78-.77q6-1.74 14.76-5a116.88 116.88 0 0 0 13.8-6 .53.53 0 0 1 .77-.1 1 1 0 0 1 .38.87v27.59l.2 39.76-3.28 67.34h1q3.29-30.11 10.33-49.49T702.61 67q9.36-9 19.78-9 10 0 16 4.63t9.36 13.6q3.38 9 5.7 24.41l5.4 34.74a82.86 82.86 0 0 0 2.6 12.73 10.07 10.07 0 0 0 4.54 5.6q3.27 1.94 10.42 1.93c.65.04.97.26.97.71ZM865.06 109.48q.87.28.48 1.26a166.67 166.67 0 0 1-10.13 23.54 50 50 0 0 1-13.8 16.3q-8.49 6.48-20.45 6.47-14.08 0-23.54-8.3T788.16 126V59.41h-14.67a.69.69 0 0 1-.77-.78.91.91 0 0 1 .77-1q12.16-4.05 19.4-11.68t9.74-20.35c.13-.39.32-.55.58-.49a.47.47 0 0 1 .39.49v32h42.45q1.16 0 1.26.87t-1.26.87H803.4v61q0 13.91 5.79 23.55t16.81 9.68q12.93 0 21.81-11.38t16-32c.25-.68.67-.9 1.25-.71ZM553.59 62.23a19 19 0 0 1-2.29-2.29c-.59-.73-.69-1.29-.29-1.69q1.2-1.65 15.81-2.06v-1.52h-44.44c-.66 0-1 .23-1 .7s.33.69 1 .69a71.6 71.6 0 0 1 17.69 2.39 36.1 36.1 0 0 1 16.3 9q7 6.67 7 18.19 0 11.14-6.46 23.06a323.39 323.39 0 0 1-19 29.82l-4 5.77-26-59.24q-5.78-13.73-5.77-19.88c0-3.18 1.1-5.47 3.28-6.86s5.73-2.15 10.64-2.29q1 0 1-.69c0-.47-.33-.7-1-.7q-9.34 0-15.71.4c-1.32.13-3.18.2-5.56.2h-14.35c-1.2 0-3-.1-5.47-.3s-5.6-.3-9.44-.3c-.54 0-.8.23-.8.7s.26.69.8.69a17.38 17.38 0 0 1 9.34 2.79 27.16 27.16 0 0 1 7.35 8.44A154.19 154.19 0 0 1 491 85.09l31.21 72h5.17l7.36-10.74 4-5.76a336 336 0 0 0 19.78-31.31q6.66-12.42 6.66-23.36 0-8.94-3.28-14.21a39.82 39.82 0 0 0-8.31-9.48ZM485.81 143.45a.79.79 0 0 0-1.09.3 54 54 0 0 1-5.22 6.9 6.92 6.92 0 0 1-5.23 2.17c-2 0-3.62-1.12-4.93-3.36a23.38 23.38 0 0 1-2.76-8.08L456.72 86q-3.56-19.73-13.11-26.43t-24.36-6.7q-15 0-25.63 6.21a52.85 52.85 0 0 0-18.14 18.24c-5 8-11.73 23.07-16.2 35.82a1 1 0 0 0-.07.23c-.69 2-6 17.51-10.52 22.8-2.84 3.32-5.89 5.86-9.7 7.16s-9.25 2-16.29 2a54.31 54.31 0 0 1-8.91-.65q-3.84-.66-8.91-2-4.92-1.16-8.18-1.74a43.56 43.56 0 0 0-7.46-.58 18.34 18.34 0 0 0-10.43 3.34c.29-.29 1.69-1.6 4.2-3.91q4.64-4.06 17.53-14.63 5.79-4.48 12.89-10.57l3.47-3a223 223 0 0 0 18.61-17.45 53.48 53.48 0 0 0 10.21-16.8q3.91-9.92 3.91-24.55a.24.24 0 0 0 .08-.29.25.25 0 0 0-.22-.14h-44.17q-13 0-17.38-4.92a.46.46 0 0 0-.44-.29.25.25 0 0 0-.29.29l-6.11 27.2h1.39l.09-.41q1.16-4.92 7.39-9.7A52.67 52.67 0 0 1 305 56.62a53.36 53.36 0 0 1 17.38-3h14.22a138.24 138.24 0 0 1-1.88 24.91 53.24 53.24 0 0 1-7.1 18.4q-5.21 8.4-15.21 16.8-2.31 1.88-5.28 4.34t-6.59 5.36l-18.25 15.17a53.55 53.55 0 0 0-7.6 7.67 35.6 35.6 0 0 0-4.57 8c-.09.48.05.74.44.79a.81.81 0 0 0 .87-.5q.72-1.59 2.17-4.2a19.36 19.36 0 0 1 6.37-6.09 17 17 0 0 1 9.13-2.6 13.05 13.05 0 0 1 6.73 1.74 57 57 0 0 1 7.32 5.35 53.85 53.85 0 0 0 8.9 6.38 19.21 19.21 0 0 0 9.34 2.17q9.71 0 16.08-4.06a33.4 33.4 0 0 0 10.79-11.58s8.08-15.07 11.57-25.14c.42-1.22 1-2.44 1.28-3.53 6.05-17.51 15-35.28 23.14-44.35s19-13.81 32.24-13.81q8.08 0 14.69 7.69T440.75 84a12.78 12.78 0 0 1-4.14 10.35 38.65 38.65 0 0 1-11.34 7.49q-6.81 3.06-18.44 7.2-12.22 4.54-19.42 7.89a44.55 44.55 0 0 0-12.23 8.18 15.24 15.24 0 0 0-5 11.34 18.24 18.24 0 0 0 7.1 15.08q7.1 5.63 17.95 5.62a42.28 42.28 0 0 0 24.94-7.69 54.64 54.64 0 0 0 17.26-19.81 62.16 62.16 0 0 0 7.09-25.15l6.71 35.89a25.07 25.07 0 0 0 5.42 11.44c2.7 3.16 6.8 4.73 12.33 4.73q6.3 0 10.05-2.95a31.88 31.88 0 0 0 7.3-9.08.83.83 0 0 0-.52-1.08Zm-47.43-20.71a55.28 55.28 0 0 1-13.11 19.82q-8.19 7.69-17.65 7.69-9.08 0-14.79-4.24a13.59 13.59 0 0 1-5.72-11.53 18.07 18.07 0 0 1 4-11.83 33 33 0 0 1 9.86-8.09q5.82-3.15 15.68-7.3a115.87 115.87 0 0 0 17.16-8.38q6.19-3.88 7.92-9.36l1.58 8.28a65.54 65.54 0 0 1-4.93 24.94Z" />
        </g>
        <path class="cls-1"
          d="M194.37 210h-1a23 23 0 0 1-14.12-4.56q-6.14-4.56-12-14T152 163.32q-3.57-6.9-10.24-20.7-9.34-19.12-15.79-30.37a84 84 0 0 0-15.69-19.8A43.51 43.51 0 0 0 89 81.44q24.48-2.23 41.5-11.57t17-28.26q0-20.25-15.58-30.6T87.67.67H33.38Q30.49.67 26 .22L18.47 0Q9.13 0 4.56 5C1.52 8.34 0 12.76 0 18.24q0 12.92 8.57 26.15a78.28 78.28 0 0 0 23 22.81v54.73q0 15.58-1.67 22.47t-5.9 8.9q-4.23 2-14 2.23-1.11 0-1.11.78t1.11.78q10.23 0 17.36-.45 2.22-.22 6-.22h14.48c3.56 0 6.37.07 8.45.22q9.8.45 24.26.45c1.18 0 1.78-.3 1.78-.89 0-.15-.19-.3-.56-.45a3.44 3.44 0 0 0-1.22-.22Q67 155.31 61 153t-8.35-9.9q-2.34-7.56-2.33-24.7V76.76a89.19 89.19 0 0 0 29.14 5.12q8.89 0 16.13 8.23a84.77 84.77 0 0 1 12.8 20.14q5.55 11.91 12.9 31 .88 2.44 5.12 13.24t8.23 18.58a76.27 76.27 0 0 0 24.26 28.14 57.81 57.81 0 0 0 34 10.79c.88 0 1.73 0 2.57-.06M31.6 64.75A76.07 76.07 0 0 1 10 42.72Q2 30 2 18.24q0-7.56 4-11.9T18.47 2q6.23 0 9.68 7.46t3.45 20.13Zm18.69 9.79V28.26q0-10.68.33-16.36a51.87 51.87 0 0 1 1.22-9.23h32.27q18.24 0 29.81 10.12t11.57 28.82q0 15.14-5.34 23.25a28 28 0 0 1-15 11.35q-9.67 3.23-25.25 3.89a80.55 80.55 0 0 1-29.61-5.56Z" />
      </g>
      <path id="leaf" class="cls-1"
        d="M248.59 182.72a.61.61 0 0 1 1 .57l-.82 5.22a25.67 25.67 0 0 1-3 7.8c-2.28 3.87-18 31.38-39 24.15s-9.59-21.75-8.16-23.17 9-8.15 25.7-8c14.35.13 21.1-3.93 24.28-6.57Z" />
    </g>
  </g>
</svg>