<?xml version="1.0" encoding="UTF-8"?><svg id="b" xmlns="http://www.w3.org/2000/svg" viewBox="0 0 143.1 332.61"><defs><style>.d,.e{stroke-width:2px;}.d,.e,.f,.g{fill:none;stroke:#9b532b;stroke-miterlimit:10;}.e,.g{stroke-linecap:round;}.h{fill:#9b532b;}.f,.g{stroke-width:4px;}</style></defs><g id="c"><path class="f" d="M66.45,108.95l-1.3,3.8-.3,1.1-.6-.1c-.5-.12-1.02-.08-1.5,.1-2.4,.8-8.9,3.9-2.2,11l-1,4.2s-1,4.5-12,8.8c0,0-7.2,1.9-9.7,10.9,0,0-35.3,134.8-35.8,149,0,0-3.3,18.2,45.4,29,48.6,11.5,53.6-6.4,53.6-6.4,5.7-13,32.4-149.8,32.4-149.8,1.6-9.2-4-14.1-4-14.1-8-8.6-7-13.1-7-13.1l1-4.2c8.7-3.4,4.9-8.6,3-10.6-.53-.52-1.19-.89-1.9-1.1l-.3-.1,.3-1.1,.9-3.5"/><path class="f" d="M64.45,113.85s26.7,15,60.8,13.9"/><path class="f" d="M60.5,125.35s27.3,15.2,62.1,14.2"/><path class="f" d="M36.6,153.35s30-1.2,40.6,12.2,39.8,5.9,39.8,5.9c0,0,10.3-5.8,15.5,3.1"/><path class="e" d="M51,143.75s-5.3,.8-8.2,13.5"/><line class="e" x1="41" y1="164.65" x2="27.2" y2="225.35"/><line class="e" x1="25.6" y1="232.25" x2="22.9" y2="244.05"/><line class="e" x1="21.4" y1="250.75" x2="12.6" y2="289.35"/><path class="e" d="M11.45,294.5c-1,5.75,1.83,11.49,7,14.2"/><path class="g" d="M52.3,187.25s32.7,17.4,73.8,16.9"/><path class="g" d="M29.8,284.75s33.5,17.5,75.8,17.3"/><line class="f" x1="51.8" y1="188.05" x2="29.7" y2="284.85"/><path class="e" d="M123.5,158.25s5.9,5.5,3.7,15.2"/><line class="e" x1="126.2" y1="178.05" x2="125.4" y2="181.55"/><path class="e" d="M119,151.05c.43,1.62,1.11,3.17,2,4.6"/><path class="h" d="M106.1,277.05c-1.1,.5-3.2,1.1-7,0-4.5-1.3-7,0-7.5,.2-1.35,.72-2.14,2.18-2,3.7h-.3c-1.31-.3-2.5-1-3.4-2-1-1.28-1.75-2.74-2.2-4.3-.6-1.9-1.4-4.6-2.2-8.1-.4-1.3-.8-3.3-1.4-5.9-.8-3.6-1.6-6.6-2.2-8.7-.66-2.17-1.64-4.22-2.9-6.1-1.2-1.77-2.86-3.19-4.8-4.1,3.8,.58,7.67,.41,11.4-.5,3.08-.72,5.43-3.19,6-6.3,.87-3.12,.03-6.46-2.2-8.8-2.2-2.4-5.8-4.1-10.8-5.3l-14-3.2c-.64-.12-1.28-.29-1.9-.5l-1.9-.5c-1.31-.39-2.73-.21-3.9,.5-1.09,.73-1.82,1.9-2,3.2-.52,2.41-.28,4.93,.7,7.2,1,2.7,2.57,5.16,4.6,7.2l-3.2,14.1c-.4,1.96-1.01,3.87-1.8,5.7-.37,.89-1.09,1.58-2,1.9-1.23,.19-2.49,.12-3.7-.2-.2,0-.3,0-.3,.1s0,.2,.2,.3c1.8,.4,3.2,.7,4.5,.9,.55,.01,1.09,.11,1.6,.3l3.7,.8c.74,.16,1.48,.36,2.2,.6,1.7,.5,3.7,1,6.2,1.5,.3,.1,.5,0,.5-.1s0-.1-.1-.1l-.3-.1c-1.73-.3-3.39-.91-4.9-1.8-1.01-.7-1.58-1.88-1.5-3.1,.01-2.19,.28-4.37,.8-6.5l2.4-10.7c2.21,1.4,4.65,2.42,7.2,3,1.66,.44,3.03,1.59,3.75,3.15,.98,1.86,1.69,3.84,2.1,5.9,.5,2.2,1,5.2,1.5,8.8,0,.4,.2,1.7,.5,3.7,.24,1.78,.57,3.55,1,5.3,.82,3.22,2.4,6.21,4.6,8.7,2.13,2.41,4.96,4.09,8.1,4.8l.7,.1c.52,1.03,1.31,1.9,2.3,2.5,5.1,3.5,11.3-2.7,12.2-3.6,.58-.55,1.05-1.19,1.4-1.9l.6-1.3c-.07-.15-.18-.29-.3-.4l-.05-.05Zm-49.8-43c-1.86-2.01-3.32-4.35-4.3-6.9-.85-2.16-1.06-4.52-.6-6.8,.2-1.11,.81-2.11,1.7-2.8,1.05-.63,2.33-.78,3.5-.4,1.12,.33,1.92,1.33,2,2.5,.3,1.8,.2,3.64-.3,5.4l-2,9Zm4.2,3.6l2.7-11.8c.4-1.8,.8-3.2,1.1-4.2,.21-.79,.47-1.56,.8-2.3l8.3,1.9c2.8,.48,5.33,1.98,7.1,4.2,1.63,2.41,2.07,5.43,1.2,8.2-.38,2.08-1.31,4.01-2.7,5.6-1.2,1.2-2.81,1.91-4.5,2-2.25,.13-4.5-.04-6.7-.5-2.62-.53-5.1-1.58-7.3-3.1h0Z"/><path class="f" d="M134.5,84.15l-4.6-1.1c-1.65-.43-2.92-1.74-3.3-3.4-.5-2.2-.5-5.9,1-12.1l8.8-36,.1-.4c.4-2.4,3.3-24.8-12.5-28.7h0c-15.8-3.8-23.6,17.5-24.3,19.7l-.1,.4-8.8,35.95c-1.5,6.2-3.3,9.5-4.7,11.2-1.06,1.3-2.77,1.88-4.4,1.5l-4.6-1.1c-3.71-1.08-7.68,.59-9.5,4-.18,.31-.31,.65-.4,1l-6.6,27c-.63,2.27,.7,4.61,2.97,5.24,.08,.02,.15,.04,.23,.06h0l32.6,7.9h0l32.6,7.9c2.37,.58,4.77-.84,5.4-3.2h0l6.6-27c.08-.36,.12-.73,.1-1.1-.06-3.83-2.83-7.08-6.6-7.75Z"/><line class="f" x1="78.3" y1="70.45" x2="134.5" y2="84.05"/><ellipse class="d" cx="72.31" cy="89.45" rx="14.1" ry=".3" transform="translate(-31.73 138.51) rotate(-76.3)"/><ellipse class="d" cx="81.72" cy="91.73" rx="14.1" ry=".3" transform="translate(-26.76 149.4) rotate(-76.3)"/><ellipse class="d" cx="91.58" cy="94.09" rx="14.1" ry=".3" transform="translate(-21.52 160.78) rotate(-76.3)"/><ellipse class="d" cx="100.59" cy="96.3" rx="14.1" ry=".3" transform="translate(-16.79 171.22) rotate(-76.3)"/><ellipse class="d" cx="109.6" cy="98.5" rx="14.1" ry=".3" transform="translate(-12.05 181.65) rotate(-76.3)"/><ellipse class="d" cx="121.33" cy="101.41" rx="14.1" ry=".3" transform="translate(-5.93 195.26) rotate(-76.3)"/><ellipse class="d" cx="129.48" cy="103.43" rx="14.1" ry=".3" transform="translate(-1.67 204.73) rotate(-76.3)"/><path class="e" d="M115.2,9.65c-2.2,.59-4.18,1.8-5.7,3.5"/><path class="e" d="M107.5,17.15s-3.4,7.9-4.1,10.6"/><line class="e" x1="102.7" y1="30.55" x2="102" y2="33.25"/><line class="e" x1="101.3" y1="36.15" x2="97.1" y2="53.25"/></g></svg>