<?xml version="1.0" encoding="UTF-8"?><svg xmlns="http://www.w3.org/2000/svg" viewBox="0 0 401 583.04"><defs><style>.d,.e{fill:#fff;}.f{fill:#9b532b;}.f,.e,.g{stroke:#fff;stroke-miterlimit:10;stroke-width:2px;}.g{fill:none;}</style></defs><g id="a"/><g id="b"><g id="c"><g><g><polygon class="f" points="352 480.56 352 277.91 176.5 176.58 1 277.91 1 480.56 176.5 581.88 352 480.56"/><line class="g" x1="1" y1="277.73" x2="177" y2="378.73"/><line class="g" x1="350.97" y1="278.4" x2="177" y2="378.73"/><line class="g" x1="177" y1="580.73" x2="177" y2="378.73"/><g><polygon class="g" points="47.02 303.15 219.58 202.76 306.21 252.98 133.71 352.46 47.02 303.15"/><polygon class="d" points="47.02 303.15 219.58 202.76 306.21 252.98 133.71 352.46 47.02 303.15"/></g><polygon class="e" points="133 417.02 88 365.73 46 367.09 46 303.56 133 353.48 133 417.02"/></g><path class="f" d="M400,192.73c0-83.64-116.31-171.53-252-167.77V1.73l-43.65,25.2-43.65,25.2,43.65,25.2,43.65,25.2v-23.49c126.66,5.03,227,73.25,227,156.69,0,11.43-1.9,22.57-5.48,33.31,19.4-22.59,30.48-48.61,30.48-76.31Z"/></g></g></g></svg>