<?xml version="1.0" encoding="UTF-8"?><svg xmlns="http://www.w3.org/2000/svg" viewBox="0 0 653 553.67"><defs><style>.n{stroke:#666;}.n,.o,.p,.q{fill:none;}.n,.o,.p,.q,.r,.s{stroke-miterlimit:10;}.n,.o,.q,.r{stroke-width:2px;}.n,.o,.r{stroke-linecap:round;}.o,.p,.q,.r,.s{stroke:#000;}.t{fill:#8c6239;opacity:.61;}.p,.s{stroke-width:3px;}.r{fill:#f0f7fa;}.s{fill:#fff;}.u{fill:#666;}</style></defs><g id="a"/><g id="b"><g id="c"><g><g id="d"><path class="q" d="M253.82,456.97c-2.2-3.62-4.52-4.47-4.36-8.19l.34-7.84c.07-1.61,.57-3.18,1.42-4.58,1.47-2.4,3.68-6.5,3.91-9.75h.01l10.38-240.2-26.77-1.16-10.38,240.2h.01c-.05,3.26,1.79,7.53,3.05,10.05,.73,1.46,1.09,3.07,1.02,4.68l-.34,7.84c-.16,3.72-2.55,4.36-5.05,7.78s-.25,5.69-.25,5.69c4.26,3.73,8.8,5.12,12.96,5.32h0c.07,0,.14,0,.21,0,.07,0,.14,0,.21,0h0c4.16,.16,8.8-.83,13.37-4.18,0,0,2.45-2.06,.25-5.69Z"/></g><g id="e"><g id="f"><g id="g"><path d="M303.04,131.57l-7.97-.28c-2.78-.13-5.36-1.84-6.59-4.52-1.56-3.47-2.79-9.59-2.38-20.34l2.54-62.44,.03-.69c-.14-4.1-2.82-42.1-30.24-43.27h0c-27.39-1.01-33.17,36.8-33.6,40.67l-.03,.69-2.57,62.28c-.41,10.75-2.29,16.8-4.03,20.08-1.38,2.52-3.99,4.07-6.77,3.95l-7.97-.28c-6.48-.58-12.53,3.56-14.37,9.78-.23,.56-.26,1.26-.33,1.79l-1.9,46.83c-.19,4.17,2.92,7.67,7.06,7.69h0l56.52,2.18h0l56.52,2.18c4.17,.19,7.63-3.09,7.86-7.09h0l1.9-46.83c.03-.69-.07-1.19-.2-1.85-1.23-6.12-6.96-10.64-13.48-10.53Z"/><line x1="205.57" y1="127.67" x2="303" y2="131.4"/></g><ellipse class="u" cx="202.02" cy="161.06" rx="23.78" ry=".51" transform="translate(33.02 356.5) rotate(-87.71)"/><ellipse class="u" cx="218.36" cy="161.71" rx="23.78" ry=".51" transform="translate(48.07 373.44) rotate(-87.71)"/><ellipse class="u" cx="235.38" cy="162.26" rx="23.78" ry=".51" transform="translate(63.85 390.97) rotate(-87.71)"/><ellipse class="u" cx="250.98" cy="162.92" rx="23.78" ry=".51" transform="translate(78.17 407.2) rotate(-87.71)"/><ellipse class="u" cx="266.6" cy="163.58" rx="23.78" ry=".51" transform="translate(92.51 423.44) rotate(-87.71)"/><ellipse class="u" cx="286.97" cy="164.5" rx="23.78" ry=".51" transform="translate(111.14 444.67) rotate(-87.71)"/><ellipse class="u" cx="301.24" cy="165.05" rx="23.78" ry=".51" transform="translate(124.3 459.46) rotate(-87.71)"/></g><path class="n" d="M246.28,14.86c-3.44,1.73-6.34,4.38-8.25,7.69"/><path class="n" d="M236.06,29.82s-2.99,14.19-3.24,18.89"/><line class="n" x1="232.59" y1="53.58" x2="232.33" y2="58.27"/><line class="n" x1="232.14" y1="63.3" x2="230.91" y2="92.97"/></g></g><g><g id="h"><path class="t" d="M45.69,185.62l-.88,6.72-.13,1.92-1.03,.03c-.86,0-1.69,.17-2.45,.67-3.7,2.12-13.41,9.42,.03,18.92l-.25,7.28s-.15,7.77-16.9,18.55c0,0-11.27,5.54-12.4,21.25,0,0-13.39,234.6-9.48,258.24,0,0,.62,31.19,84.72,32.79,84.17,2.8,86.47-28.46,86.47-28.46,5.09-23.39,3.59-258.43,3.59-258.43-.42-15.74-11.32-21.97-11.32-21.97-16.09-11.55-15.94-19.32-15.94-19.32l.25-7.28c13.25-8.52,5.23-15.85,1.42-18.52-.99-.66-2.28-1.09-3.51-1.18l-.53-.07,.13-1.92,.32-6.09"/><path class="p" d="M45.69,185.62l-.88,6.72-.13,1.92-1.03,.03c-.86,0-1.69,.17-2.45,.67-3.7,2.12-13.41,9.42,.03,18.92l-.25,7.28s-.15,7.77-16.9,18.55c0,0-11.27,5.54-12.4,21.25,0,0-13.39,234.6-9.48,258.24,0,0,.62,31.19,84.72,32.79,84.17,2.8,86.47-28.46,86.47-28.46,5.09-23.39,3.59-258.43,3.59-258.43-.42-15.74-11.32-21.97-11.32-21.97-16.09-11.55-15.94-19.32-15.94-19.32l.25-7.28c13.25-8.52,5.23-15.85,1.42-18.52-.99-.66-2.28-1.09-3.51-1.18l-.53-.07,.13-1.92,.32-6.09"/><path class="p" d="M44.02,194.39s49.14,15.89,105.14,2.7"/><path class="p" d="M41.41,214.7s50.2,16.02,107.39,2.76"/><path class="o" d="M31.84,248.28s-8.49,3.09-9.05,25.05"/><line class="o" x1="22.28" y1="286.17" x2="19.72" y2="391.11"/><line class="o" x1="19.38" y1="403.05" x2="18.85" y2="423.46"/><line class="o" x1="18.61" y1="435.03" x2="16.94" y2="501.77"/><path class="o" d="M16.65,510.6c.25,9.76,6.81,18.41,16.31,21.14"/><path class="o" d="M156.52,248.07s11.59,7.12,11.19,23.89"/><line class="o" x1="167.59" y1="279.9" x2="167.44" y2="285.95"/><path class="r" d="M146.68,237.67c1.19,2.51,2.85,4.76,4.84,6.94"/><path class="s" d="M113.14,317.84c-27.61,0-51.29-3.4-61.38-8.25-.86-.41-1.85,.2-1.85,1.15v174.05c0,2.79,28.31,5.06,63.24,5.06s63.24-2.27,63.24-5.06v-174.05c0-.96-.99-1.57-1.85-1.15-10.1,4.85-33.77,8.25-61.38,8.25Z"/><path id="i" d="M166.38,436.68c-1.44,1.04-4.28,2.51-10.06,2.03-6.84-.56-10.06,2.03-10.72,2.46-1.81,1.41-2.38,3.77-1.8,5.9l-.43,.09c-1.95-.05-3.88-.71-5.46-1.89-1.81-1.58-3.4-3.5-4.41-5.54-1.41-2.56-3.35-6.2-5.51-11-.95-1.75-2.11-4.51-3.72-8.07-2.19-4.94-4.21-9.02-5.68-11.86-1.64-2.96-3.52-5.57-5.94-7.92-2.25-2.24-5.09-3.76-8.08-4.5,5.63-.24,11.04-1.63,16.23-4.02,4.25-1.9,6.83-6.16,6.79-10.79,.39-4.71-1.88-9.34-5.71-12.01-3.86-2.81-9.52-4.21-17.05-4.48l-21.04-.54c-.89,.03-1.95-.05-2.87-.17l-2.87-.17c-1.98-.2-3.94,.5-5.46,1.85-1.38,1.32-2.04,3.25-1.95,5.18-.02,3.59,.99,7.13,3.09,10.14,2.22,3.59,5.24,6.72,8.7,9.01l-.51,21.19c-.02,2.85-.31,5.89-.93,8.71-.31,1.41-1.12,2.62-2.32,3.31-1.81,.66-3.56,.87-5.37,.79-.29,.06-.43,.09-.4,.23s.06,.29,.37,.37c2.7,.05,4.8,.08,6.73-.01,.72-.14,1.47-.15,2.39-.03l5.55,.08c1.35,.03,2.41,.11,3.33,.22,2.59,.23,5.61,.36,9.34,.36,.46,.06,.72-.14,.69-.29s-.03-.14-.17-.11l-.46-.06c-2.53,.06-5.15-.31-7.56-1.17-1.64-.72-2.85-2.27-3.05-4.02-.64-3.16-.84-6.41-.74-9.57l.35-16.07c3.57,1.37,7.3,2.11,11.21,2.22,2.41,.11,4.77,1.43,6.21,3.38,1.99,2.44,3.57,5.11,4.73,7.87,1.36,3.02,2.94,7.18,4.71,12.21,.12,.57,.78,2.38,1.79,5.17,.81,2.53,1.88,4.85,2.97,7.32,2.08,4.37,5.25,8.21,9.13,11.17,3.71,2.84,8.37,4.44,13.03,4.55l1.03-.06c1.01,1.29,2.42,2.35,4.03,2.92,8.34,3.55,15.45-7.16,16.48-8.71,.72-.89,1.09-2.01,1.46-3.14l.49-2.04c-.2-.26-.37-.37-.55-.49q.03,.14,0,0h0Zm-84.02-47.34c-3.31-2.32-6.02-5.36-8.18-8.67-1.76-2.79-2.89-6.15-2.83-9.6-.03-1.64,.54-3.25,1.63-4.52,1.26-1.15,3.07-1.82,4.91-1.59,1.67,.11,3.11,1.32,3.6,3.01,.95,2.5,1.33,5.11,1.13,7.85l-.26,13.51Zm7.08,3.95l.46-17.74c.05-2.7,.22-4.83,.36-6.35,.06-1.21,.25-2.44,.48-3.54l12.48,.32c4.17-.09,8.34,1.31,11.42,3.98,2.99,2.98,4.58,7.15,4.1,11.43,.03,3.13-.71,6.12-2.26,8.83-1.38,2.07-3.47,3.54-5.89,4.18-3.13,.78-6.47,1.3-9.77,1.22-3.88,.04-7.79-.82-11.39-2.34h0Z"/></g><path class="t" d="M150.19,188.27c0,1.86-24.71,1.69-53.12,1.69s-53.12-3.2-53.12-5.06,24.71-1.69,53.12-1.69,53.12,3.2,53.12,5.06Z"/><path class="q" d="M150.19,188.27c0,1.86-23.87,3.37-52.28,3.37s-53.96-4.88-53.96-6.75,25.56-3.37,53.96-3.37,52.28,4.88,52.28,6.75Z"/></g><g id="j"><path class="q" d="M595.67,471.39c-2.73-2.47-4.87-2.6-5.66-5.73l-1.66-6.61c-.34-1.36-.32-2.79,.05-4.16,.63-2.36,1.45-6.32,.83-9.08h.01l-50.94-202.42-22.56,5.68,50.94,202.42h.01c.76,2.72,3.36,5.82,5.03,7.6,.97,1.04,1.67,2.28,2.01,3.64l1.66,6.61c.79,3.13-1.04,4.26-2.27,7.73-1.24,3.47,1.21,4.79,1.21,4.79,4.47,2.05,8.59,2.08,12.1,1.21h0c.06-.01,.12-.03,.18-.05,.06-.02,.12-.03,.18-.05h0c3.5-.9,7.12-2.87,10.09-6.8,0,0,1.52-2.32-1.21-4.79Z"/></g><g id="k"><g id="l"><g id="m"><path d="M531.84,140.87l-6.72,1.66c-2.35,.55-4.91-.27-6.58-2.21-2.13-2.53-4.61-7.34-6.82-16.41l-12.72-52.75-.14-.59c-1.09-3.39-12.35-34.48-35.53-28.95h0c-23.11,5.66-18.96,38.61-18.39,41.94l.14,.59,12.65,52.62c2.21,9.07,2.08,14.58,1.4,17.73-.56,2.43-2.37,4.35-4.72,4.91l-6.72,1.66c-5.55,1.05-9.62,5.95-9.68,11.58-.06,.52,.08,1.11,.15,1.57l9.54,39.56c.83,3.53,4.26,5.71,7.72,4.75h0l47.72-11.61h0l47.72-11.61c3.53-.83,5.64-4.39,4.88-7.79h0l-9.54-39.56c-.14-.59-.34-.98-.61-1.5-2.48-4.81-8.34-7.23-13.76-5.59Z"/><line x1="449.52" y1="160.77" x2="531.77" y2="140.74"/></g><ellipse class="u" cx="454.5" cy="189.5" rx=".44" ry="20.64" transform="translate(-31.81 112.14) rotate(-13.59)"/><ellipse class="u" cx="468.3" cy="186.16" rx=".44" ry="20.64" transform="translate(-30.64 115.29) rotate(-13.59)"/><ellipse class="u" cx="482.63" cy="182.57" rx=".44" ry="20.64" transform="translate(-29.39 118.56) rotate(-13.59)"/><ellipse class="u" cx="495.82" cy="179.42" rx=".44" ry="20.64" transform="translate(-28.28 121.57) rotate(-13.59)"/><ellipse class="u" cx="509.02" cy="176.26" rx=".44" ry="20.64" transform="translate(-27.17 124.58) rotate(-13.59)"/><ellipse class="u" cx="526.24" cy="172.19" rx=".44" ry="20.64" transform="translate(-25.73 128.52) rotate(-13.59)"/><ellipse class="u" cx="538.29" cy="169.25" rx=".44" ry="20.64" transform="translate(-24.7 131.27) rotate(-13.59)"/></g><path class="n" d="M456.72,56.9c-2.46,2.26-4.26,5.16-5.07,8.38"/><path class="n" d="M451.73,71.82s.88,12.56,1.78,16.54"/><line class="n" x1="454.48" y1="92.48" x2="455.39" y2="96.46"/><line class="n" x1="456.42" y1="100.71" x2="462.44" y2="125.77"/></g><path d="M650.01,243.17l-9.58,2.83-13.19-52.4c-.6-2.39-3.02-3.83-5.41-3.23l-4.31,1.09c-2.39,.6-3.83,3.02-3.23,5.41l13.32,52.93-10.47,3.09c-1.72,.51-2.25,2.69-.95,3.92l12.42,11.8,12.42,11.8c1.3,1.24,3.45,.6,3.87-1.14l4.01-16.65,4.01-16.65c.42-1.74-1.2-3.29-2.93-2.78Z"/></g></g></svg>