<?xml version="1.0" encoding="UTF-8"?><svg xmlns="http://www.w3.org/2000/svg" viewBox="0 0 532.66 677.5"><defs><style>.n{fill:#ab584f;}.o{opacity:.7;}.p{stroke:#666;}.p,.q,.r,.s,.t{fill:none;}.p,.r,.s,.t,.u,.v,.w{stroke-miterlimit:10;}.p,.r,.t,.u,.v{stroke-width:2px;}.p,.r,.u{stroke-linecap:round;}.q{stroke:#b66c63;stroke-width:0px;}.x{fill:#b66c63;}.r,.s,.t,.u,.v,.w{stroke:#000;}.y{fill:#8c6239;opacity:.61;}.s,.w{stroke-width:3px;}.a`{opacity:.4;}.u{fill:#f0f7fa;}.v,.w{fill:#fff;}.aa{fill:#666;}</style></defs><g id="a"/><g id="b"><g id="c"><g id="d"><g id="e"><g id="f"><g id="g"><g id="h"><path class="y" d="M410.87,302.44l-.81,6.14-.12,1.75-.94,.03c-.79,0-1.54,.15-2.24,.61-3.38,1.94-12.27,8.61,.03,17.3l-.23,6.66s-.14,7.11-15.46,16.97c0,0-10.31,5.07-11.34,19.44,0,0-12.24,214.6-8.67,236.22,0,0,.56,28.53,77.5,30,76.99,2.56,79.09-26.03,79.09-26.03,4.65-21.4,3.28-236.39,3.28-236.39-.39-14.4-10.35-20.1-10.35-20.1-14.72-10.56-14.58-17.67-14.58-17.67l.23-6.66c12.12-7.8,4.78-14.5,1.3-16.94-.91-.6-2.09-.99-3.21-1.08l-.48-.06,.12-1.75,.29-5.57"/><path class="s" d="M410.87,302.44l-.81,6.14-.12,1.75-.94,.03c-.79,0-1.54,.15-2.24,.61-3.38,1.94-12.27,8.61,.03,17.3l-.23,6.66s-.14,7.11-15.46,16.97c0,0-10.31,5.07-11.34,19.44,0,0-12.24,214.6-8.67,236.22,0,0,.56,28.53,77.5,30,76.99,2.56,79.09-26.03,79.09-26.03,4.65-21.4,3.28-236.39,3.28-236.39-.39-14.4-10.35-20.1-10.35-20.1-14.72-10.56-14.58-17.67-14.58-17.67l.23-6.66c12.12-7.8,4.78-14.5,1.3-16.94-.91-.6-2.09-.99-3.21-1.08l-.48-.06,.12-1.75,.29-5.57"/><path class="s" d="M409.34,310.46s44.95,14.53,96.17,2.47"/><path class="s" d="M406.95,329.04s45.92,14.65,98.23,2.52"/><path class="r" d="M398.2,359.76s-7.77,2.83-8.28,22.91"/><line class="r" x1="389.46" y1="394.41" x2="387.11" y2="490.4"/><line class="r" x1="386.8" y1="501.32" x2="386.32" y2="519.99"/><line class="r" x1="386.09" y1="530.58" x2="384.56" y2="591.63"/><path class="r" d="M384.31,599.71c.23,8.92,6.23,16.84,14.92,19.34"/><path class="r" d="M512.25,359.56s10.6,6.52,10.23,21.85"/><line class="r" x1="522.37" y1="388.67" x2="522.23" y2="394.21"/><path class="u" d="M503.25,350.05c1.09,2.3,2.61,4.35,4.43,6.35"/><path class="w" d="M472.57,423.38c-25.26,0-46.91-3.11-56.15-7.55-.79-.38-1.7,.18-1.7,1.06v159.2c0,2.56,25.9,4.63,57.85,4.63s57.85-2.07,57.85-4.63v-159.2c0-.88-.91-1.44-1.7-1.06-9.24,4.43-30.89,7.55-56.15,7.55Z"/><path id="i" d="M521.27,532.08c-1.31,.95-3.91,2.29-9.2,1.86-6.26-.52-9.2,1.86-9.8,2.25-1.65,1.29-2.18,3.45-1.65,5.39l-.39,.08c-1.79-.05-3.55-.65-5-1.73-1.66-1.44-3.11-3.2-4.03-5.07-1.29-2.34-3.06-5.67-5.04-10.06-.87-1.6-1.93-4.12-3.4-7.38-2.01-4.52-3.85-8.25-5.2-10.85-1.5-2.71-3.22-5.1-5.43-7.25-2.05-2.05-4.66-3.44-7.4-4.12,5.15-.22,10.09-1.49,14.85-3.68,3.89-1.74,6.25-5.64,6.21-9.87,.36-4.31-1.72-8.54-5.22-10.98-3.53-2.57-8.71-3.85-15.6-4.1l-19.25-.49c-.82,.03-1.79-.05-2.63-.15l-2.63-.15c-1.81-.18-3.6,.45-4.99,1.69-1.26,1.21-1.86,2.97-1.78,4.74-.02,3.29,.91,6.52,2.83,9.28,2.03,3.28,4.8,6.14,7.95,8.24l-.47,19.38c-.02,2.6-.28,5.39-.85,7.97-.29,1.29-1.02,2.39-2.12,3.03-1.66,.61-3.26,.79-4.92,.72-.26,.05-.39,.08-.37,.21s.05,.26,.34,.34c2.47,.05,4.39,.07,6.15-.01,.66-.13,1.34-.13,2.18-.03l5.07,.07c1.24,.02,2.21,.1,3.05,.21,2.37,.21,5.13,.33,8.55,.33,.42,.05,.66-.13,.63-.26s-.03-.13-.16-.1l-.42-.05c-2.31,.06-4.71-.28-6.92-1.07-1.5-.65-2.61-2.07-2.79-3.68-.58-2.89-.77-5.86-.67-8.75l.32-14.7c3.26,1.26,6.68,1.93,10.26,2.03,2.21,.1,4.37,1.31,5.68,3.09,1.82,2.23,3.27,4.67,4.32,7.2,1.24,2.76,2.69,6.57,4.31,11.17,.11,.53,.71,2.18,1.64,4.73,.74,2.31,1.72,4.44,2.72,6.7,1.9,3.99,4.8,7.51,8.35,10.21,3.4,2.6,7.66,4.06,11.92,4.16l.95-.05c.92,1.18,2.21,2.15,3.69,2.68,7.63,3.25,14.13-6.55,15.08-7.97,.66-.82,1-1.84,1.34-2.87l.44-1.87c-.18-.24-.34-.34-.5-.45q.03,.13,0,0h0Zm-76.85-43.3c-3.03-2.12-5.5-4.91-7.48-7.93-1.61-2.55-2.64-5.62-2.59-8.78-.03-1.5,.49-2.97,1.49-4.13,1.16-1.05,2.81-1.66,4.49-1.45,1.53,.1,2.84,1.2,3.29,2.76,.87,2.29,1.22,4.68,1.04,7.18l-.24,12.36Zm6.47,3.62l.42-16.22c.05-2.47,.2-4.42,.33-5.81,.05-1.1,.23-2.24,.44-3.23l11.41,.3c3.81-.09,7.63,1.2,10.44,3.64,2.74,2.73,4.19,6.54,3.75,10.46,.03,2.87-.65,5.6-2.06,8.08-1.26,1.9-3.18,3.24-5.38,3.82-2.86,.71-5.91,1.19-8.94,1.12-3.55,.03-7.13-.75-10.42-2.14h0Z"/></g><g id="j"><g id="k"><g id="l"><path d="M506.27,244.16l-7.29-.26c-2.54-.12-4.9-1.69-6.03-4.13-1.43-3.17-2.56-8.77-2.18-18.6l2.32-57.12,.03-.64c-.13-3.75-2.58-38.51-27.66-39.58h0c-25.05-.92-30.34,33.66-30.73,37.2l-.03,.64-2.35,56.97c-.38,9.83-2.09,15.37-3.69,18.37-1.27,2.3-3.65,3.73-6.2,3.61l-7.29-.26c-5.93-.53-11.46,3.26-13.14,8.95-.21,.51-.24,1.15-.3,1.63l-1.74,42.84c-.17,3.81,2.67,7.01,6.46,7.04h0l51.7,2h0l51.7,2c3.81,.17,6.98-2.83,7.19-6.49h0l1.74-42.84c.03-.64-.06-1.09-.18-1.69-1.13-5.59-6.37-9.73-12.33-9.63Z"/><line x1="417.11" y1="240.59" x2="506.24" y2="244.01"/></g><ellipse class="aa" cx="413.87" cy="271.14" rx="21.75" ry=".46" transform="translate(126.43 673.86) rotate(-87.71)"/><ellipse class="aa" cx="428.82" cy="271.73" rx="21.75" ry=".46" transform="translate(140.19 689.36) rotate(-87.71)"/><ellipse class="aa" cx="444.38" cy="272.23" rx="21.75" ry=".46" transform="translate(154.62 705.39) rotate(-87.71)"/><ellipse class="aa" cx="458.66" cy="272.84" rx="21.75" ry=".46" transform="translate(167.72 720.23) rotate(-87.71)"/><ellipse class="aa" cx="472.95" cy="273.44" rx="21.75" ry=".46" transform="translate(180.84 735.09) rotate(-87.71)"/><ellipse class="aa" cx="491.57" cy="274.28" rx="21.75" ry=".46" transform="translate(197.89 754.51) rotate(-87.71)"/><ellipse class="aa" cx="504.63" cy="274.78" rx="21.75" ry=".46" transform="translate(209.92 768.04) rotate(-87.71)"/></g><path class="p" d="M454.36,137.4c-3.14,1.58-5.8,4-7.55,7.03"/><path class="p" d="M445,151.09s-2.73,12.98-2.97,17.28"/><line class="p" x1="441.83" y1="172.82" x2="441.6" y2="177.11"/><line class="p" x1="441.43" y1="181.71" x2="440.29" y2="208.85"/></g></g></g></g></g><g><rect class="v" x="41.77" y="138.76" width="224.61" height="537.74"/><path class="v" d="M61.05,1H243.86c12.43,0,22.53,10.09,22.53,22.53v115.78H41.77V20.28c0-10.64,8.64-19.28,19.28-19.28Z"/><polygon class="v" points="266.66 130.95 266.66 139.8 307.6 85.09 302.07 67.88 266.66 130.95"/><line class="t" x1="42.05" y1="128.24" x2="266.66" y2="128.24"/><polygon class="v" points="42.05 130.01 42.05 138.86 1.11 84.15 6.64 66.94 42.05 130.01"/><g class="a`"><g class="o"><g><g><path class="x" d="M79.02,299.55c1.32,.93,2.7,1.81,4.09,2.63,1.38,.84,2.77,1.61,4.15,2.33,5.81,3.07,10.12,6.71,16.09,9.2,7.46,3.07,14.37,7.1,22.43,9.62,7.37,2.3,15.14,4.2,23.12,4.7,7.99,.57,16.05-.68,23.58-3.03,3.57-1.09,6.99-2.51,10.25-4.14,3.26-1.63,6.39-3.45,9.37-5.44,2.97-2,5.81-4.14,8.54-6.39,1.35-1.14,2.7-2.28,3.98-3.48,1.32-1.17,2.58-2.39,3.82-3.63,5-4.94,9.54-10.31,13.62-16.08,4.07-5.78,7.72-11.95,10.77-18.58,1.75-3.87,3.33-7.99,4.6-12.32,1.2-4.35,2.23-8.84,2.74-13.5,1.06-9.28,.48-18.85-1.74-27.66-.74-3.24-1.99-7.24-3.63-11.53-1.72-4.26-4.01-8.75-6.78-12.91-2.75-4.17-6.16-7.87-9.5-10.81-.86-.71-1.7-1.39-2.51-2.05-.83-.63-1.71-1.16-2.52-1.69-1.59-1.1-3.18-1.81-4.53-2.42,.86,.48,1.73,.96,2.6,1.44,.83,.54,1.64,1.12,2.47,1.69,1.7,1.1,3.11,2.47,4.64,3.76,.75,.66,1.4,1.4,2.11,2.11,.68,.72,1.41,1.4,2.02,2.19,1.25,1.53,2.54,3.05,3.61,4.7,2.3,3.21,4.09,6.7,5.72,10.17,.72,1.78,1.49,3.53,2.1,5.32,.58,1.8,1.23,3.56,1.65,5.36-2.38-7.76-6.15-15.22-11.17-21.88-.64-.83-1.33-1.61-2-2.41l-1.01-1.2c-.35-.39-.73-.75-1.09-1.13l-2.21-2.24-2.39-2.06c-.4-.34-.79-.69-1.21-1.02l-1.3-.93c-.88-.6-1.72-1.26-2.62-1.81-1.85-1.05-3.65-2.17-5.62-2.97-1.9-.94-3.93-1.56-5.93-2.24-1-.32-2.04-.52-3.06-.78l-1.54-.36c-.52-.1-1.04-.16-1.56-.24-1.04-.14-2.08-.31-3.12-.43l-3.14-.16c-1.04-.09-2.09,0-3.13,.04l-1.56,.07-.78,.04-.77,.11-3.09,.43c-1.03,.15-2.03,.46-3.04,.68l-1.51,.37c-.5,.13-.98,.33-1.47,.49-.97,.34-1.95,.67-2.91,1.03-1.85,.9-3.77,1.65-5.48,2.79-.86,.55-1.77,1.01-2.58,1.64l-2.41,1.85c5.91-4.72,13.14-7.9,20.68-8.88,.94-.12,1.88-.27,2.83-.35l2.85-.11c.47-.01,.95-.05,1.43-.04l1.42,.08,2.85,.17,2.82,.42,1.41,.21c.46,.1,.92,.22,1.39,.33l2.77,.69c.91,.27,1.8,.61,2.7,.92,1.82,.56,3.51,1.45,5.25,2.23,.87,.38,1.66,.93,2.49,1.39,.81,.5,1.67,.92,2.43,1.5,1.52,1.13,3.13,2.18,4.49,3.48l2.1,1.87,1.94,2.03c5.15,5.45,8.98,11.9,11.74,18.63,5.55,13.49,6.77,28.22,4.47,41.87-2.31,13.68-8.17,26.16-15.74,36.6l1.54-2.39c.48-.82,.96-1.65,1.45-2.48,1.01-1.64,1.84-3.39,2.77-5.11,.42-.88,.84-1.77,1.26-2.66,.43-.89,.84-1.79,1.21-2.71,.38-.92,.77-1.84,1.15-2.77,.34-.94,.68-1.89,1.03-2.84,.36-.94,.67-1.91,.96-2.88,.29-.97,.61-1.95,.89-2.93,.49-1.99,1.06-3.98,1.42-6.02,.87-4.06,1.32-8.25,1.52-12.5,.21-4.25-.05-8.54-.5-12.85-.57-4.29-1.41-8.58-2.66-12.79-1.31-4.18-2.88-8.33-4.95-12.26-2.1-3.9-4.51-7.68-7.43-11.08-2.94-3.37-6.24-6.44-9.97-8.98-3.78-2.45-7.88-4.36-12.15-5.67-4.29-1.27-8.74-1.83-13.15-1.84-1.1,.04-2.2,.08-3.3,.11-1.09,.14-2.18,.28-3.27,.42-1.09,.1-2.15,.43-3.21,.65l-1.59,.37c-.53,.13-1.03,.34-1.55,.5-4.16,1.25-8.01,3.31-11.42,5.81-.83,.66-1.72,1.23-2.48,1.96-.76,.72-1.52,1.44-2.28,2.16-.39,.34-.72,.75-1.05,1.15l-1,1.19c-.66,.79-1.33,1.57-1.89,2.44-2.27,3.43-3.77,7.26-4.31,11.14-.26,1.93-.31,3.89,.02,5.75,.33,1.85,1.01,3.6,2.06,5.04,.16,.22,.31,.44,.48,.65l.57,.58c.36,.41,.8,.73,1.22,1.06,.89,.61,1.85,1.08,2.86,1.37,2.01,.57,4.07,.52,5.83,.25-1.71,.2-3.44,.2-5.08-.2-1.64-.38-3.21-1.15-4.47-2.39-1.29-1.2-2.27-2.79-2.81-4.59-.55-1.79-.73-3.74-.61-5.7,.22-3.93,1.55-7.87,3.61-11.41,.51-.89,1.1-1.75,1.73-2.57,.67-.79,1.33-1.59,2-2.38,.64-.83,1.45-1.49,2.2-2.23,.77-.71,1.5-1.48,2.38-2.07,.85-.63,1.7-1.27,2.55-1.9,.92-.54,1.83-1.08,2.75-1.62,.9-.59,1.91-.96,2.88-1.42l1.47-.66c.49-.23,1.01-.36,1.52-.54,4.04-1.52,8.39-2.23,12.74-2.4,2.18-.15,4.37,.07,6.55,.21,2.16,.35,4.35,.63,6.46,1.26,4.24,1.13,8.37,2.82,12.08,5.21,3.71,2.37,7.15,5.19,10.02,8.5,.77,.78,1.43,1.66,2.11,2.51,.67,.86,1.39,1.69,1.97,2.61l1.83,2.71,1.62,2.83c2.06,3.82,3.84,7.77,5.09,11.88l.5,1.53,.41,1.55c.26,1.04,.57,2.06,.8,3.1,.42,2.09,.89,4.16,1.13,6.26,1.24,8.36,.96,16.77-.38,24.74-1.49,7.97-3.93,15.55-7.24,22.46-5.98,12.74-14.71,24.1-25.06,33.63-2.58,2.4-5.3,4.64-8.09,6.77-2.79,2.13-5.69,4.11-8.69,5.88-5.99,3.56-12.38,6.41-19.04,7.97-3.63,.79-7.31,1.18-10.99,1.19-3.68-.02-7.41-.48-11.11-1.22-7.6-1.54-15.2-4.33-22.72-7.32-7.51-3-14.85-6.42-21.99-10.17-3.18-1.64-6.91-3.75-10.79-6.03-3.88-2.28-7.86-4.8-11.62-7.17-7.49-4.79-13.95-9.2-16.99-9.89,3.51,3.07,7.76,6.01,11.24,8.83-1.5-.82-3.26-1.72-4.94-2.83,1.5,1.19,3.17,2.51,4.68,3.47-1.27-.77-2.58-1.54-3.21-1.65,.9,.72,2.06,1.5,3.2,2.21,1.15,.67,2.26,1.31,3.05,1.77,.91,.56,5.31,2.77,6.41,3.62-1.66-.76-3.48-1.74-5.26-2.62-1.76-.92-3.46-1.79-4.85-2.4,1,.76,2.04,1.45,2.99,2.22-1.38-.67-3.84-2.33-4.64-2.54,1.26,.94,2.49,1.75,3.73,2.59,1.24,.84,2.48,1.68,3.83,2.59,2.15,1.52,4.12,2.84,6.31,4.1-1.32-.73-2.87-1.59-4.31-2.39-1.44-.82-2.79-1.56-3.78-1.96,1.09,.88,2.33,1.67,3.55,2.43-.17-.06-.29-.07-.35-.05,.53,.35,1.2,.87,1.77,1.22-.03,.07,.05,.22-.1,.21,.05-.04,.08-.08,.12-.12"/><path class="x" d="M78.38,292.62c2.53,1.72,6.2,4.03,8.5,5.63"/><path class="q" d="M228.24,264.25s.24-.59,.69-1.71c.49-1.11,1.02-2.8,1.78-4.94,.35-1.08,.68-2.3,1.08-3.63,.41-1.32,.69-2.79,1.09-4.35,.38-1.56,.63-3.26,.97-5.05,.12-.9,.24-1.82,.36-2.77,.12-.95,.26-1.92,.3-2.93,.07-1,.14-2.03,.21-3.08,.05-1.05,.03-2.12,.05-3.21,0-.55,0-1.1,.01-1.66l-.08-1.68c-.07-1.13-.07-2.29-.2-3.46-.37-4.68-1.27-9.62-2.69-14.65-1.43-5.03-3.46-10.14-6.24-15.04-2.77-4.89-6.32-9.56-10.66-13.52-4.32-3.99-9.51-7.14-15.17-9.1-5.65-1.97-11.72-2.78-17.66-2.35-5.94,.39-11.71,2.18-16.71,4.99-1.22,.75-2.5,1.4-3.6,2.31-1.13,.85-2.29,1.66-3.26,2.67l-1.52,1.43c-.52,.46-.91,1.04-1.37,1.55l-1.32,1.57c-.46,.51-.78,1.08-1.18,1.62-1.44,2.23-2.52,4.65-3.22,7.08-.7,2.43-1.01,4.91-.77,7.18,.22,2.27,.98,4.31,2.2,5.8,1.26,1.49,2.87,2.41,4.61,2.8,1.76,.4,3.66,.35,5.52,.06,1.87-.28,3.7-.78,5.47-1.35,.93-.28,1.63-.56,1.9-.8,.07-.06,.12-.11,.12-.15,.01-.02,0-.04,0-.05,0,0-.01-.02,0,0l.06,.08,.12,.15c.09,.1,.12,.14,.19,.22,.05,.05,.07,.08,.12,.11l.04,.03-.03-.02h-.02c-.28-.17,2.46,1.42,1.28,.74-.23-.15-.73-.26-1.02-.25-.3,0-.28,.06,.06-.07,.32-.12,.9-.48,1.16-.84,.29-.37,.13-.54,.23-.14"/></g><path class="q" d="M225.98,192.57l-.37-.63c-.25-.41-.67-.99-1.2-1.76-1.02-1.55-2.65-3.73-4.96-6.26-.59-.62-1.22-1.27-1.87-1.95-.64-.7-1.43-1.3-2.18-1.99-1.49-1.41-3.35-2.65-5.27-4.02-3.98-2.53-8.86-4.72-14.38-5.97-5.51-1.26-11.66-1.55-17.84-.47-6.18,1.03-12.34,3.67-17.52,7.65-.64,.51-1.3,.99-1.93,1.52l-1.76,1.71c-1.22,1.09-2.2,2.41-3.24,3.67-2.08,2.52-3.54,5.5-4.53,8.54-.45,1.54-.85,3.08-.99,4.65-.12,.78-.1,1.56-.14,2.33,.05,.77,.04,1.54,.18,2.29,.19,1.5,.64,2.93,1.32,4.17,.63,1.27,1.59,2.29,2.63,3.11"/></g></g></g><g id="m"><path class="n" d="M110,267.33c-1.16-.67-2.08-1.59-2.77-2.74-.69-1.15-1.04-2.4-1.04-3.75,0-1.61,.4-3.07,1.21-4.38,.8-1.32,1.89-2.35,3.27-3.1,1.38-.75,2.88-1.13,4.5-1.13,1.41,0,2.67,.36,3.8,1.07,1.12,.71,2.01,1.67,2.65,2.86,.64,1.2,.96,2.48,.96,3.84,0,1.59-.38,3.02-1.13,4.29-.75,1.28-1.8,2.27-3.13,2.98-1.34,.71-2.87,1.07-4.59,1.07-1.33,0-2.57-.34-3.72-1.01Zm8.33-.45c.72-.47,1.28-1.11,1.67-1.93,.39-.81,.59-1.7,.59-2.67,0-1.41-.34-2.82-1.01-4.23-.67-1.42-1.6-2.59-2.77-3.51-1.17-.92-2.49-1.39-3.93-1.39-.9,0-1.71,.24-2.41,.72-.7,.48-1.26,1.13-1.66,1.96-.4,.82-.6,1.74-.6,2.74,0,1.39,.36,2.78,1.08,4.17,.72,1.4,1.68,2.55,2.86,3.46,1.18,.91,2.43,1.37,3.74,1.37,.9,0,1.72-.24,2.44-.71Z"/><path class="n" d="M179.26,252.94c.08,0,.13,.03,.14,.08,0,.05,0,.1-.05,.14-1.1,.64-1.83,1.44-2.17,2.4-.34,.95-.51,2.15-.51,3.6l.03,5.84c.02,.9,.07,1.56,.15,1.97,.08,.41,.29,.71,.62,.9,.33,.19,.87,.29,1.61,.29,.1,0,.15,.04,.15,.11s-.05,.11-.15,.11c-.7,.02-1.33,0-1.87-.03-.14-.02-.35-.03-.63-.03h-2.08c-.3,0-.53,0-.69,.03-.52,.04-1.13,.06-1.81,.06-.08,0-.12-.04-.12-.11s.04-.11,.12-.11c.74,0,1.28-.1,1.61-.3,.33-.2,.54-.51,.62-.92,.08-.41,.12-1.07,.12-1.97v-6.09c0-.9,.24-1.8,.71-2.7,.47-.89,1.28-1.72,2.43-2.49-1.17,.46-2.24,1.02-3.22,1.67-.98,.65-1.7,1.23-2.14,1.73-.02,.06-.07,.09-.15,.09-.06,0-.1-.03-.12-.09-.02-.06,0-.12,.06-.18,.64-.76,1.67-1.54,3.07-2.32,1.41-.78,2.8-1.35,4.19-1.69h.09Zm-4.1-3.18c-.3-.29-.45-.66-.45-1.1s.15-.78,.44-1.08c.29-.3,.66-.45,1.1-.45s.81,.15,1.11,.44c.3,.29,.45,.66,.45,1.1s-.14,.81-.42,1.1c-.28,.29-.66,.44-1.14,.44-.42,0-.78-.15-1.08-.44Z"/><path class="n" d="M202.54,268.19c0,.07-.05,.11-.15,.11-.68,0-1.29-.02-1.81-.06-.16-.02-.39-.03-.69-.03h-2.08c-.3,0-.53,0-.69,.03-.52,.04-1.13,.06-1.81,.06-.08,0-.12-.04-.12-.11s.04-.11,.12-.11c.82-.02,1.39-.15,1.69-.38,.3-.23,.45-.63,.45-1.19,0-.22-.06-.75-.18-1.6l-.93-5.87c-.34-2.09-.75-3.52-1.24-4.31-.48-.78-1.13-1.17-1.96-1.17-.96,0-1.86,.52-2.7,1.57-.83,1.04-1.55,2.51-2.14,4.38-.59,1.88-1.01,4.03-1.25,6.46,.04,.78,.21,1.33,.51,1.63,.3,.3,.9,.46,1.81,.48,.1,0,.15,.04,.15,.11s-.05,.11-.15,.11c-.68,0-1.29-.02-1.81-.06-.16-.02-.39-.03-.69-.03h-2.05c-.3,0-.53,0-.69,.03-.52,.04-1.13,.06-1.81,.06-.08,0-.12-.04-.12-.11s.04-.11,.12-.11c.74,0,1.28-.1,1.61-.3,.33-.2,.54-.51,.62-.92,.08-.41,.12-1.07,.12-1.97v-15.21c0-.88-.16-1.54-.48-1.97-.32-.43-.92-.62-1.81-.56-.08,.02-.12,0-.12-.06s.04-.1,.12-.12c.62-.18,1.39-.44,2.3-.78,.91-.34,1.63-.65,2.15-.93,.04-.04,.08-.05,.12-.02,.04,.03,.06,.08,.06,.14v4.31l.03,6.21-.51,10.51h.15c.34-3.13,.88-5.71,1.61-7.73,.73-2.02,1.59-3.49,2.56-4.43,.97-.93,2-1.4,3.09-1.4s1.88,.24,2.5,.72c.62,.48,1.11,1.19,1.46,2.12,.35,.93,.65,2.2,.89,3.81l.84,5.42c.14,.94,.28,1.61,.41,1.99,.13,.38,.37,.67,.71,.87,.34,.2,.88,.3,1.63,.3,.1,0,.15,.04,.15,.11Z"/><path class="n" d="M216.23,260.87c.09,.03,.12,.1,.08,.2-.5,1.43-1.03,2.65-1.58,3.68-.55,1.02-1.27,1.87-2.15,2.55-.88,.67-1.95,1.01-3.19,1.01-1.47,0-2.69-.43-3.68-1.3-.98-.86-1.48-2.05-1.48-3.56v-10.39h-2.29c-.08,0-.12-.04-.12-.12s.04-.13,.12-.15c1.27-.42,2.27-1.03,3.03-1.82,.75-.79,1.26-1.85,1.52-3.18,.02-.06,.05-.09,.09-.08,.04,.01,.06,.04,.06,.08v5h6.63c.12,0,.19,.05,.2,.14,0,.09-.06,.14-.2,.14h-6.66v9.52c0,1.45,.3,2.67,.9,3.68,.6,1,1.48,1.51,2.62,1.51,1.35,0,2.48-.59,3.4-1.78,.92-1.18,1.76-2.85,2.5-5,.04-.1,.11-.14,.2-.11Z"/><path class="n" d="M167.6,253.49c-.14-.12-.26-.24-.36-.36-.09-.11-.11-.2-.05-.26,.13-.17,.95-.28,2.47-.32v-.24h-6.94c-.1,0-.16,.04-.16,.11s.05,.11,.16,.11c.87,0,1.79,.12,2.76,.37,.97,.25,1.82,.72,2.54,1.41,.72,.69,1.09,1.64,1.09,2.84s-.34,2.36-1.01,3.6c-.67,1.24-1.66,2.79-2.96,4.66l-.62,.9-4.07-9.25c-.6-1.43-.9-2.46-.9-3.1,0-.5,.17-.85,.51-1.07,.34-.22,.89-.34,1.66-.36,.1,0,.16-.04,.16-.11s-.05-.11-.16-.11c-.97,0-1.79,.02-2.45,.06-.21,.02-.5,.03-.87,.03h-2.23c-.19,0-.47-.02-.85-.05-.38-.03-.87-.05-1.47-.05-.08,0-.12,.04-.12,.11s.04,.11,.12,.11c.58,.02,1.07,.17,1.46,.43,.39,.27,.78,.71,1.15,1.32,.37,.61,.83,1.54,1.37,2.78l4.87,11.24h.81l1.15-1.68,.62-.9c1.37-1.97,2.39-3.59,3.09-4.89,.69-1.29,1.04-2.51,1.04-3.65,0-.93-.17-1.67-.51-2.22-.34-.55-.77-1.04-1.29-1.47Z"/><path class="n" d="M157.02,266.17c-.07-.03-.13-.02-.17,.05-.33,.49-.6,.85-.82,1.08-.22,.23-.49,.34-.82,.34-.31,0-.56-.17-.77-.52-.21-.35-.35-.77-.43-1.26l-1.54-8.65c-.37-2.05-1.05-3.43-2.05-4.13-1-.7-2.26-1.05-3.8-1.05s-2.89,.32-4,.97c-1.11,.65-2.05,1.6-2.83,2.85-.78,1.25-1.83,3.6-2.53,5.59,0,.01,0,.02-.01,.04-.11,.32-.94,2.73-1.64,3.56-.44,.52-.92,.92-1.51,1.12-.6,.2-1.44,.31-2.54,.31-.53,0-.99-.03-1.39-.1-.4-.07-.86-.17-1.39-.31-.51-.12-.94-.21-1.28-.27-.34-.06-.73-.09-1.16-.09-.57,0-1.12,.17-1.63,.52,.05-.05,.26-.25,.66-.61,.48-.42,1.39-1.18,2.74-2.28,.6-.47,1.27-1.02,2.01-1.65l.54-.47c1.28-1.1,2.25-2.01,2.91-2.72,.66-.72,1.19-1.59,1.59-2.62,.41-1.03,.61-2.31,.61-3.83,.01-.01,.02-.03,.01-.05,0-.01-.02-.02-.03-.02h-6.9c-1.36,0-2.26-.26-2.71-.77-.02-.03-.04-.05-.07-.05s-.05,.02-.05,.05l-.96,4.25h.22v-.06c.14-.51,.52-1.02,1.17-1.51,.65-.5,1.43-.9,2.35-1.22,.92-.32,1.82-.47,2.71-.47h2.22c0,1.55-.1,2.85-.29,3.89-.2,1.04-.57,2-1.11,2.87-.54,.87-1.33,1.75-2.37,2.62-.24,.2-.52,.42-.83,.68-.31,.26-.65,.54-1.03,.84l-2.85,2.37c-.51,.44-.91,.84-1.19,1.2-.28,.36-.52,.78-.71,1.24-.01,.08,0,.12,.07,.12,.06,0,.11-.02,.14-.08,.08-.17,.19-.38,.34-.66,.23-.36,.56-.68,.99-.95,.44-.27,.91-.41,1.42-.41,.39,0,.74,.09,1.05,.27,.31,.18,.69,.46,1.14,.84,.51,.44,.98,.77,1.39,.99,.41,.23,.9,.34,1.46,.34,1.01,0,1.85-.21,2.51-.63,.66-.42,1.22-1.02,1.68-1.81,0,0,1.26-2.35,1.81-3.93,.07-.19,.15-.38,.2-.55,.94-2.73,2.35-5.51,3.61-6.93,1.28-1.44,2.96-2.16,5.03-2.16,.84,0,1.61,.4,2.29,1.2,.69,.8,1.19,1.92,1.49,3.36,.04,.62-.17,1.15-.65,1.62-.47,.46-1.06,.85-1.77,1.17-.71,.32-1.67,.69-2.88,1.12-1.27,.47-2.28,.88-3.03,1.23-.75,.35-1.39,.77-1.91,1.28-.52,.5-.79,1.09-.79,1.77,0,.99,.37,1.77,1.11,2.36,.74,.58,1.67,.88,2.8,.88,1.46,0,2.76-.4,3.89-1.2,1.14-.8,2.04-1.83,2.69-3.09,.66-1.26,1.03-2.57,1.11-3.93l1.05,5.6c.14,.7,.43,1.29,.85,1.79,.42,.49,1.06,.74,1.92,.74,.66,0,1.18-.15,1.57-.46,.39-.31,.77-.78,1.14-1.42,.02-.08,0-.14-.08-.17Zm-7.4-3.23c-.51,1.26-1.2,2.29-2.05,3.09-.85,.8-1.77,1.2-2.76,1.2s-1.71-.22-2.31-.66c-.6-.44-.89-1.04-.89-1.8,0-.72,.21-1.33,.63-1.85,.42-.51,.93-.93,1.54-1.26,.61-.33,1.42-.71,2.45-1.14,1.15-.47,2.04-.91,2.68-1.31,.64-.4,1.05-.89,1.23-1.46l.25,1.29c0,1.33-.26,2.63-.77,3.89Z"/><path class="n" d="M120.49,272.13c-.54,.41-1.68,1.03-4.04,.9-2.73-.15-4.03,.9-4.27,1.13-.17,.15-1.15,1.28-.66,2.41-.05,0-.11,0-.16,0-.83,0-1.57-.24-2.21-.71-.64-.48-1.26-1.2-1.88-2.19-.61-.98-1.41-2.45-2.38-4.39-.37-.72-.9-1.79-1.6-3.23-.97-1.99-1.79-3.57-2.47-4.74-.67-1.17-1.49-2.2-2.45-3.09-.96-.89-2.07-1.46-3.32-1.72,2.55-.23,4.71-.83,6.48-1.81,1.77-.97,2.66-2.44,2.66-4.41,0-2.11-.81-3.7-2.43-4.78-1.62-1.08-3.93-1.62-6.91-1.62h-8.48c-.3,0-.68-.02-1.15-.07l-1.18-.03c-.97,0-1.7,.26-2.17,.78-.47,.52-.71,1.21-.71,2.07,0,1.34,.45,2.7,1.34,4.08,.89,1.38,2.09,2.57,3.6,3.56v8.55c0,1.62-.09,2.79-.26,3.51-.17,.72-.48,1.18-.92,1.39-.44,.21-1.17,.32-2.19,.35-.12,0-.17,.04-.17,.12s.06,.12,.17,.12c1.06,0,1.97-.02,2.71-.07,.23-.02,.54-.03,.94-.03h2.26c.56,0,1,.01,1.32,.03,1.02,.05,2.28,.07,3.79,.07,.19,0,.28-.05,.28-.14,0-.02-.03-.05-.09-.07-.06-.02-.12-.03-.19-.03-1.41-.02-2.43-.16-3.06-.4-.63-.24-1.06-.76-1.3-1.55-.24-.79-.36-2.07-.36-3.86v-6.5c1.55,.53,3.07,.8,4.55,.8,.93,0,1.77,.43,2.52,1.29,.75,.86,1.42,1.91,2,3.14,.58,1.24,1.25,2.85,2.01,4.85,.09,.26,.36,.94,.8,2.07,.44,1.12,.87,2.09,1.29,2.9,.93,1.81,2.19,3.27,3.79,4.39,1.6,1.12,3.37,1.68,5.31,1.68,.14,0,.27,0,.4,0,.29,.41,.8,.81,1.66,1.15,3.4,1.34,6.18-3.06,6.58-3.68,.41-.63,.55-1.26,.55-1.26l.17-.85c.02-.09-.08-.16-.16-.1Zm-34.39-18.24c-1.41-.97-2.54-2.12-3.37-3.44-.83-1.32-1.25-2.59-1.25-3.82,0-.79,.21-1.41,.63-1.86,.42-.45,1.06-.68,1.95-.68,.65,0,1.15,.39,1.51,1.16,.36,.78,.54,1.82,.54,3.14v5.49Zm2.92,1.53v-7.23c0-1.11,.02-1.96,.05-2.55,.03-.59,.1-1.07,.19-1.44h5.04c1.9,0,3.45,.53,4.65,1.58,1.2,1.05,1.81,2.55,1.81,4.5,0,1.58-.28,2.79-.83,3.63-.56,.85-1.34,1.44-2.34,1.77-1.01,.34-2.32,.54-3.94,.61-1.6,0-3.14-.29-4.62-.87Z"/></g><path class="n" d="M180.12,195.66c.21-.19,.5,.03,.44,.34l-.48,2.87s-.39,2.11-1.54,4.24c-1.13,2.09-8.91,16.92-18.46,12.41-9.55-4.51-3.98-12.27-3.29-13.02s4.33-4.29,11.99-3.8c6.62,.42,9.81-1.66,11.33-3.04Z"/><g><path class="n" d="M49.78,414.45v-1.04c.63,0,1.11-.17,1.44-.5,.33-.34,.61-.79,.83-1.38,.22-.58,.48-1.26,.77-2.04l6.46-17.58h.75l6.99,17.83c.17,.44,.35,1,.56,1.69,.21,.69,.29,1.27,.25,1.75,.36-.02,.71-.04,1.07-.06,.35-.02,.71-.04,1.07-.06v1.38h-7.18v-1.04c.79-.02,1.32-.2,1.57-.53,.25-.34,.35-.73,.28-1.19-.06-.46-.17-.88-.31-1.25l-1.1-2.94-8.15,.19-1.09,3.35c-.15,.5-.28,.9-.39,1.19-.12,.29-.25,.61-.39,.97,.42-.02,.83-.04,1.24-.06,.41-.02,.81-.04,1.21-.06v1.38h-5.86Zm5.77-8.12h7.24l-2.22-5.99c-.23-.65-.46-1.29-.71-1.93-.24-.64-.47-1.28-.7-1.93h-.06c-.21,.58-.42,1.17-.64,1.75s-.45,1.18-.67,1.78l-2.22,6.3Z"/><path class="n" d="M78.61,414.95c-1.4,0-2.69-.32-3.87-.96s-2.12-1.56-2.82-2.76-1.05-2.65-1.05-4.34c0-1.09,.2-2.14,.59-3.17,.4-1.02,.96-1.95,1.68-2.77,.72-.83,1.58-1.48,2.58-1.96,1-.48,2.11-.72,3.32-.72s2.19,.18,3.05,.53c.87,.35,1.54,.83,2.02,1.41,.48,.59,.72,1.22,.72,1.91,0,.46-.13,.85-.37,1.17-.25,.32-.62,.49-1.1,.49-.52,.02-.89-.14-1.11-.49s-.33-.65-.33-.93c0-.21,.03-.42,.09-.64s.19-.42,.38-.61c-.17-.5-.46-.87-.88-1.11-.42-.24-.85-.4-1.3-.47-.45-.07-.82-.11-1.11-.11-1.42,0-2.62,.57-3.59,1.71-.97,1.14-1.46,2.8-1.46,4.97,0,1.4,.23,2.64,.67,3.73s1.08,1.94,1.89,2.55c.82,.61,1.76,.92,2.82,.92,.98,0,1.92-.26,2.82-.78,.9-.52,1.6-1.16,2.1-1.91l.81,.63c-.54,.88-1.2,1.59-1.96,2.13-.76,.55-1.55,.94-2.35,1.19-.81,.25-1.56,.38-2.27,.38Z"/><path class="n" d="M95.06,414.95c-1.44,0-2.74-.34-3.9-1.02-1.16-.68-2.07-1.64-2.74-2.88-.67-1.24-1-2.71-1-4.4,0-1.46,.33-2.83,.98-4.11,.66-1.27,1.58-2.3,2.77-3.08,1.19-.78,2.57-1.18,4.14-1.18,.88,0,1.7,.14,2.46,.42s1.43,.71,2.02,1.28c.58,.58,1.04,1.3,1.38,2.16,.34,.87,.5,1.89,.5,3.05l-11.03,.19c0,1.59,.17,2.98,.52,4.18s.9,2.13,1.68,2.79c.77,.66,1.76,.98,2.97,.98,.65,0,1.31-.11,1.99-.34,.68-.23,1.31-.55,1.89-.94,.58-.4,1.05-.83,1.41-1.32l.75,.63c-.56,.88-1.24,1.58-2.04,2.1-.79,.52-1.61,.9-2.44,1.13-.84,.23-1.61,.35-2.32,.35Zm-4.33-10.87h7.99c0-.75-.11-1.48-.33-2.18-.22-.7-.58-1.27-1.08-1.73-.5-.45-1.16-.67-1.97-.67-1.21,0-2.22,.36-3.02,1.08-.81,.72-1.33,1.89-1.58,3.49Z"/><path class="n" d="M104.46,413.51c.65,0,1.1-.16,1.35-.48,.25-.33,.4-.77,.44-1.35,.04-.57,.06-1.24,.06-1.99v-7.15c0-.33,0-.65,.03-.95,.02-.3,.05-.67,.09-1.08-.38,.02-.75,.04-1.11,.06-.36,.02-.74,.04-1.11,.06v-1.31c.92,0,1.63-.04,2.13-.13,.5-.08,.88-.19,1.14-.31,.26-.13,.46-.26,.61-.41h.91v12.66c0,.42,0,.79-.02,1.11-.01,.32-.05,.66-.11,1.02,.33-.02,.66-.03,.99-.05,.32,0,.65-.03,.98-.05v1.29h-6.39v-.94Zm3.04-18.14c-.44,0-.83-.18-1.16-.53-.34-.35-.5-.79-.5-1.31s.17-.97,.52-1.33c.35-.36,.74-.55,1.17-.55,.48,0,.88,.19,1.21,.55,.32,.37,.49,.81,.49,1.33s-.17,.96-.52,1.31c-.35,.36-.75,.53-1.21,.53Z"/><path class="n" d="M119.66,414.95c-.48,0-.97-.07-1.47-.2s-.97-.4-1.4-.8c-.43-.4-.77-.98-1.02-1.74s-.38-1.77-.38-3.02l.06-9.09-2.41,.03v-1.35c.54-.02,1.09-.23,1.66-.61s1.07-.91,1.52-1.58c.45-.67,.76-1.4,.92-2.2h1.07v4.39h5.26v1.22l-5.26,.06-.06,8.71c0,.94,.08,1.74,.24,2.4s.41,1.15,.77,1.49c.35,.33,.81,.5,1.38,.5s1.13-.17,1.64-.5c.51-.34,.97-.79,1.36-1.38l.85,.69c-.46,.69-.92,1.23-1.36,1.63-.45,.4-.88,.7-1.3,.89-.42,.2-.81,.32-1.16,.38-.35,.05-.66,.08-.91,.08Z"/><path class="n" d="M133.47,414.95c-1.44,0-2.74-.34-3.9-1.02-1.16-.68-2.07-1.64-2.74-2.88-.67-1.24-1-2.71-1-4.4,0-1.46,.33-2.83,.98-4.11,.66-1.27,1.58-2.3,2.77-3.08,1.19-.78,2.57-1.18,4.14-1.18,.88,0,1.7,.14,2.46,.42s1.43,.71,2.02,1.28c.58,.58,1.04,1.3,1.38,2.16,.34,.87,.5,1.89,.5,3.05l-11.03,.19c0,1.59,.17,2.98,.52,4.18s.9,2.13,1.68,2.79c.77,.66,1.76,.98,2.97,.98,.65,0,1.31-.11,1.99-.34,.68-.23,1.31-.55,1.89-.94,.58-.4,1.05-.83,1.41-1.32l.75,.63c-.56,.88-1.24,1.58-2.04,2.1-.79,.52-1.61,.9-2.44,1.13-.84,.23-1.61,.35-2.32,.35Zm-4.33-10.87h7.99c0-.75-.11-1.48-.33-2.18-.22-.7-.58-1.27-1.08-1.73-.5-.45-1.16-.67-1.97-.67-1.21,0-2.22,.36-3.02,1.08-.81,.72-1.33,1.89-1.58,3.49Z"/><path class="n" d="M157.82,414.95c-1.27,0-2.42-.32-3.45-.96s-1.83-1.55-2.43-2.74c-.6-1.19-.89-2.59-.89-4.2,0-1.71,.34-3.23,1.03-4.55,.69-1.31,1.65-2.35,2.87-3.1,1.22-.75,2.61-1.13,4.15-1.13,.69,0,1.37,.09,2.05,.27,.68,.18,1.22,.38,1.61,.61v-4.29c0-.33,0-.65,.02-.95,0-.3,.04-.67,.08-1.08-.38,.02-.75,.04-1.11,.06-.37,.02-.74,.04-1.11,.06v-1.32c.92,0,1.63-.04,2.13-.13,.5-.08,.88-.19,1.14-.31,.26-.13,.46-.26,.61-.41h.91v20.33c0,.34,0,.67-.03,1-.02,.33-.05,.71-.09,1.13,.38-.02,.75-.04,1.11-.06,.36-.02,.74-.04,1.11-.06v1.32h-4.48c-.06-.31-.11-.6-.14-.86-.03-.26-.06-.51-.08-.77-.58,.65-1.3,1.16-2.16,1.55s-1.81,.58-2.85,.58Zm1.13-1.54c.69,0,1.38-.2,2.08-.59,.7-.4,1.28-.89,1.74-1.47-.02-.25-.03-.52-.03-.8v-.92l.03-9.02c-.5-.38-1.05-.65-1.64-.83-.6-.18-1.21-.27-1.84-.27-1.04,0-1.95,.3-2.73,.91-.77,.61-1.36,1.45-1.75,2.54-.4,1.09-.57,2.36-.53,3.82,.04,1.27,.25,2.41,.61,3.42,.37,1,.89,1.79,1.57,2.37,.68,.57,1.51,.86,2.49,.86Z"/><path class="n" d="M177.43,414.95c-1.44,0-2.74-.34-3.9-1.02-1.16-.68-2.07-1.64-2.74-2.88-.67-1.24-1-2.71-1-4.4,0-1.46,.33-2.83,.98-4.11,.66-1.27,1.58-2.3,2.77-3.08,1.19-.78,2.57-1.18,4.14-1.18,.88,0,1.7,.14,2.46,.42s1.43,.71,2.02,1.28c.58,.58,1.04,1.3,1.38,2.16,.34,.87,.5,1.89,.5,3.05l-11.03,.19c0,1.59,.17,2.98,.52,4.18s.9,2.13,1.68,2.79c.77,.66,1.76,.98,2.97,.98,.65,0,1.31-.11,1.99-.34,.68-.23,1.31-.55,1.89-.94,.58-.4,1.05-.83,1.41-1.32l.75,.63c-.56,.88-1.24,1.58-2.04,2.1-.79,.52-1.61,.9-2.44,1.13-.84,.23-1.61,.35-2.32,.35Zm-4.33-10.87h7.99c0-.75-.11-1.48-.33-2.18-.22-.7-.58-1.27-1.08-1.73-.5-.45-1.16-.67-1.97-.67-1.21,0-2.22,.36-3.02,1.08-.81,.72-1.33,1.89-1.58,3.49Z"/><path class="n" d="M212.74,399.51c-.21-1.96-.89-3.49-2.05-4.57-1.16-1.09-2.65-1.63-4.47-1.63-1.11,0-2.15,.24-3.11,.71-.97,.47-1.83,1.14-2.56,2.02-.73,.88-1.3,1.93-1.72,3.17s-.63,2.62-.63,4.17c0,1.96,.38,3.7,1.13,5.2,.75,1.51,1.77,2.68,3.04,3.51s2.68,1.25,4.23,1.25c1.36,0,2.69-.31,4.01-.92,1.31-.62,2.39-1.51,3.23-2.68l.81,.66c-.9,1.23-1.87,2.18-2.91,2.85-1.04,.67-2.08,1.12-3.11,1.36-1.04,.24-1.98,.36-2.84,.36-1.57,0-3.01-.28-4.31-.85s-2.43-1.35-3.38-2.37-1.68-2.19-2.19-3.54c-.51-1.35-.77-2.8-.77-4.37,0-1.48,.23-2.92,.67-4.33,.45-1.4,1.12-2.66,2.02-3.79,.9-1.13,2.03-2.03,3.4-2.69s2.96-1,4.78-1c1.17,0,2.28,.16,3.32,.47s2.05,.79,3.01,1.44l-.16-1.69h1.69v7.27h-1.13Z"/><path class="n" d="M217.32,414.45v-1.04c.79-.02,1.34-.2,1.63-.55,.29-.35,.45-.82,.49-1.41s.05-1.28,.05-2.05v-13.16c0-.56,0-1.05,.03-1.46,.02-.41,.04-.75,.06-1.02-.38,.02-.75,.04-1.13,.06-.38,.02-.75,.04-1.13,.06v-1.38c1.15-.02,2.31-.03,3.46-.05,1.16,0,2.37-.02,3.62-.02,2.42,0,4.32,.43,5.69,1.29,1.37,.86,2.03,2.21,1.99,4.07,0,.67-.19,1.34-.58,2-.39,.67-.96,1.26-1.72,1.77s-1.72,.87-2.87,1.08v.06c2.3,0,4.03,.53,5.2,1.58s1.75,2.39,1.75,3.99c0,1.28-.32,2.37-.97,3.29-.65,.92-1.53,1.62-2.63,2.11-1.11,.49-2.37,.74-3.79,.74h-9.15Zm4.8-1.25c.33,.02,.73,.04,1.2,.05,.47,.01,.91,.02,1.32,.02h.8c1.61,0,2.91-.4,3.9-1.2s1.49-1.99,1.49-3.56c0-1.27-.25-2.26-.75-2.98-.5-.71-1.16-1.21-1.98-1.5-.81-.29-1.7-.44-2.66-.44-.62,0-1.2,0-1.71,.02s-1.02,.04-1.52,.08v7.08c0,.56,0,1.04-.02,1.44-.01,.4-.04,.73-.08,1Zm.09-10.75l2.29-.06c1.19-.02,2.13-.26,2.82-.73,.69-.47,1.19-1.06,1.49-1.77,.3-.71,.45-1.45,.42-2.22-.02-1.13-.28-1.98-.77-2.57-.49-.58-1.09-.98-1.8-1.19-.71-.21-1.41-.31-2.1-.31s-1.2,.09-1.54,.28c-.33,.19-.55,.5-.66,.94-.11,.44-.16,1.04-.16,1.82v5.83Z"/><path class="n" d="M236.52,413.42c.79-.04,1.34-.22,1.63-.55,.29-.33,.45-.77,.49-1.35s.05-1.23,.05-1.96v-13.54c0-.42,0-.82,.03-1.21,.02-.39,.04-.74,.06-1.05-.38,.02-.75,.04-1.13,.06-.38,.02-.75,.04-1.13,.06v-1.38l7.4-.03c1.88,0,3.6,.22,5.17,.66,1.57,.44,2.92,1.11,4.06,2.02s2.02,2.06,2.63,3.45c.62,1.39,.93,3.02,.93,4.9,0,1.44-.25,2.82-.75,4.13-.5,1.32-1.25,2.48-2.26,3.49s-2.25,1.82-3.75,2.41c-1.49,.6-3.22,.89-5.19,.89h-8.24v-1.04Zm4.89-2.66c0,.56,0,1.04-.02,1.44-.01,.4-.04,.73-.08,1,.56,.02,1.08,.04,1.55,.05,.47,.01,.87,.02,1.19,.02h.61c1.36,0,2.58-.25,3.68-.75s2.04-1.2,2.82-2.09c.78-.88,1.39-1.93,1.82-3.13,.43-1.2,.64-2.5,.64-3.9,0-1.98-.36-3.7-1.08-5.15-.72-1.45-1.82-2.58-3.3-3.38-1.48-.8-3.38-1.2-5.67-1.2-.77,0-1.31,.16-1.62,.47-.3,.31-.47,.75-.5,1.32s-.05,1.22-.05,1.97v13.35Z"/></g><path class="n" d="M176.3,507.88c-.55,.35-.37,1.18,.27,1.28l5.98,.95s4.42,.63,9.57-.51c5.03-1.12,40.58-8.48,40.16-34.01-.43-25.53-20.32-18.17-22.38-17.11-2.06,1.06-12.08,6.97-17.82,25.19-4.95,15.74-11.78,21.66-15.78,24.2Z"/><path class="n" d="M128.1,639.82c.41,.26,.28,.9-.21,.97l-4.54,.72s-3.36,.48-7.27-.39-30.81-6.44-30.48-25.82c.32-19.38,15.43-13.79,16.99-12.99,1.57,.81,9.17,5.29,13.53,19.12,3.76,11.95,8.94,16.44,11.98,18.37Z"/><path class="n" d="M205.25,601.48c-.21,.13-.14,.45,.1,.49l2.3,.37s1.7,.24,3.68-.2c1.93-.43,15.61-3.26,15.44-13.08-.16-9.82-7.81-6.99-8.61-6.58s-4.65,2.68-6.85,9.69c-1.9,6.05-4.53,8.33-6.07,9.31Z"/><path class="n" d="M121.04,349.31c.34,.16,.3,.65-.06,.76l-3.37,1.02s-2.5,.71-5.56,.46-24.06-1.71-25.82-16.46c-1.75-14.75,10.29-12.07,11.57-11.62s7.51,3.07,12.25,13.13c4.09,8.69,8.49,11.57,10.99,12.72Z"/></g></g></g></svg>