<?xml version="1.0" encoding="UTF-8"?><svg xmlns="http://www.w3.org/2000/svg" viewBox="0 0 539.05 637.34"><defs><style>.e{fill:#ab584f;}.f{opacity:.7;}.g{stroke-width:4px;}.g,.h,.i{fill:none;}.g,.j,.i,.k{stroke:#000;stroke-miterlimit:10;}.l{fill:#164332;}.h{stroke:#b66c63;stroke-width:0px;}.j{fill:#29abe2;stroke-width:3px;}.m{fill:#b66c63;}.n{opacity:.4;}.i,.k{stroke-width:2px;}.k{fill:#fff;}</style></defs><g id="a"/><g id="b"><g id="c"><path class="j" d="M19.52,240.32H284.5v376.77c0,10.35-8.4,18.75-18.75,18.75H39.43c-10.99,0-19.91-8.92-19.91-19.91V240.32h0Z"/><path class="l" d="M91.97,519.44l6.98,5.46-6.57,12.59c-3.29,5.81,2.36,11.46,5.96,13.43,3.54,1.94,9.04,2.17,14.17,2.1l9.24-15.11,6.98,3.78-12.12-22.46-24.65,.21Zm1.03,30.83l15,27.71c3.01,3.85,8.7,4.76,14.59,4.62h15.82v-26.24l-29.99-.21c-4.66,.28-10.75-.7-15.41-5.88Zm94.35-51.06l-8.16,3.46-7.83-11.85c-3.49-5.69-11.17-3.49-14.64-1.3-3.41,2.16-6.28,6.85-8.71,11.38l8.74,15.41-6.69,4.28,25.52,.29,11.77-21.66Zm-27.46-14.05l-31.5-.32c-4.83,.77-8.38,5.3-11.11,10.52l-7.67,13.83,22.95,12.72,14.72-26.13c2.01-4.21,5.82-9.06,12.61-10.63Zm1.37,106.9l.93-8.82,14.16-1.1c6.67-.29,8.47-8.08,8.23-12.17-.23-4.03-2.95-8.81-5.73-13.13l-17.71,.17-.5-7.93-12.62,22.18,13.24,20.79Zm25.6-17.21l15.55-27.4c1.67-4.59-.57-9.9-3.81-14.82l-8.38-13.41-22.25,13.9,15.72,25.55c2.71,3.8,5.1,9.49,3.18,16.18Z"/><g><ellipse class="g" cx="125.02" cy="135.04" rx="34.1" ry="20.22" transform="translate(-43.13 60.27) rotate(-23.23)"/><path class="j" d="M.18,135.17H259.3c4.73,0,8.57,3.84,8.57,8.57v16.71H-6.86v-18.24c0-3.88,3.15-7.04,7.04-7.04Z" transform="translate(-47.73 63.47) rotate(-23.23)"/></g><g><path d="M67.57,358.11c-4.68,0-8.24-1.58-11.17-4.52-4.23-4.23-4.06-9.88-4.06-15.91s-.17-11.68,4.06-15.91c2.93-2.94,6.49-4.52,11.17-4.52,7.62,0,13.77,4.23,15.24,13.09h-10.05c-.62-2.26-1.86-4.29-5.14-4.29-1.81,0-3.16,.73-3.89,1.69-.9,1.18-1.52,2.6-1.52,9.93s.62,8.75,1.52,9.93c.73,.96,2.09,1.69,3.89,1.69,3.27,0,4.51-2.03,5.14-4.29h10.05c-1.47,8.86-7.62,13.09-15.24,13.09Z"/><path d="M109.9,357.77l-1.86-5.98h-12.36l-1.98,5.98h-10.33l14.62-40.18h7.62l14.62,40.18h-10.33Zm-7.84-24.95l-3.61,10.72h7l-3.39-10.72Z"/><path d="M144.61,357.77l-7.11-14.96h-3.33v14.96h-9.88v-40.18h15.92c8.92,0,13.71,6.32,13.71,12.92,0,5.47-3.39,8.92-6.55,10.5l8.69,16.76h-11.46Zm-4.85-31.32h-5.59v8.13h5.59c2.71,0,4.29-1.97,4.29-4.06s-1.58-4.06-4.29-4.06Z"/><path d="M178.48,326.39v31.38h-9.88v-31.38h-9.88v-8.8h29.63v8.8h-9.88Z"/><path d="M218.22,353.59c-2.93,2.94-6.32,4.52-11.23,4.52s-8.3-1.58-11.23-4.52c-4.23-4.23-4.06-9.88-4.06-15.91s-.17-11.68,4.06-15.91c2.93-2.94,6.32-4.52,11.23-4.52s8.3,1.58,11.23,4.52c4.23,4.23,4.06,9.88,4.06,15.91s.17,11.68-4.06,15.91Zm-7.28-25.79c-.73-.96-2.14-1.75-3.95-1.75s-3.22,.79-3.95,1.75c-.9,1.19-1.47,2.54-1.47,9.88s.56,8.63,1.47,9.82c.73,.96,2.14,1.81,3.95,1.81s3.22-.85,3.95-1.81c.9-1.19,1.47-2.48,1.47-9.82s-.56-8.69-1.47-9.88Z"/><path d="M251.86,357.77l-12.87-20.21v20.21h-9.88v-40.18h8.63l12.87,20.2v-20.2h9.88v40.18h-8.63Z"/><path d="M88.54,411.17h-6.04v14.34h-9.88v-40.18h15.92c8.92,0,13.71,6.32,13.71,12.92s-4.8,12.92-13.71,12.92Zm-.45-16.99h-5.59v8.13h5.59c2.71,0,4.29-1.98,4.29-4.06s-1.58-4.06-4.29-4.06Z"/><path d="M127.66,425.51l-1.86-5.98h-12.36l-1.98,5.98h-10.33l14.62-40.18h7.62l14.62,40.18h-10.33Zm-7.84-24.95l-3.61,10.72h7l-3.39-10.72Z"/><path d="M157.97,411.17h-6.04v14.34h-9.88v-40.18h15.92c8.92,0,13.71,6.32,13.71,12.92s-4.8,12.92-13.71,12.92Zm-.45-16.99h-5.59v8.13h5.59c2.71,0,4.29-1.98,4.29-4.06s-1.58-4.06-4.29-4.06Z"/><path d="M177.45,425.51v-40.18h27.32v8.8h-17.44v6.72h14.9v8.8h-14.9v7.05h17.44v8.8h-27.32Z"/><path d="M211.77,425.51v-40.18h9.88v31.38h16.88v8.8h-26.75Z"/></g><g><rect class="k" x="353.36" y="24.31" width="86.94" height="208.13" transform="translate(250.92 -262.35) rotate(51.6)"/><path class="k" d="M475,20.47h45.13c12.43,0,22.53,10.09,22.53,22.53v31h-86.94V39.75c0-10.64,8.64-19.28,19.28-19.28Z" transform="translate(226.11 -373.3) rotate(51.6)"/><polygon class="k" points="507.82 96 505.14 98.13 531.57 97.39 535.46 91.57 507.82 96"/><line class="i" x1="454.64" y1="27.22" x2="508.64" y2="95.35"/><polygon class="k" points="454.1 27.65 451.42 29.77 458.17 4.2 464.72 1.74 454.1 27.65"/><g class="n"><g class="f"><g><g><path class="m" d="M410.19,79.74c.03,1.27,.27,2.55,.59,3.73,.67,2.5-.07,4.84,.86,7.25,1.17,2.98,1.06,6.25,2.45,9.31,1.27,2.79,2.81,5.62,4.77,8.2,1.95,2.61,4.39,4.78,6.93,6.68,2.41,1.81,5.08,3.09,7.78,4.06,2.71,.96,5.47,1.59,8.25,2.01,5.57,.84,11.26,.79,17.21-.2,3.46-.6,7.11-1.8,10.54-3.78,3.42-1.98,6.48-4.66,8.8-7.74,.87-1.11,1.88-2.57,2.89-4.26,.99-1.7,1.9-3.67,2.57-5.74,.67-2.07,1-4.26,1.03-6.23,0-.5-.02-.97-.04-1.43-.03-.46-.11-.93-.18-1.35-.12-.86-.37-1.61-.62-2.23,.78,3.47,.43,7.07-.64,10.28-1.05,3.23-2.77,6.08-4.74,8.46,1.88-2.81,3.33-6,4.19-9.42,.37-1.73,.68-3.49,.67-5.31,.04-.89-.06-1.84-.14-2.75-.15-.91-.27-1.82-.54-2.7-.91-3.54-2.84-6.74-5.4-9.22-1.27-1.25-2.75-2.26-4.29-3.1-1.58-.77-3.24-1.37-4.94-1.64,6.39,1.16,11.8,6.19,13.81,12.35,1.09,3.05,1.26,6.47,.73,9.54-.5,3.11-1.68,5.99-3.22,8.54-3.09,5.12-7.69,8.95-12.71,11.23-5.03,2.28-10.4,2.96-15.36,2.52,5.69-.22,11.97-1.73,17.5-5.36,1.39-.9,2.68-1.96,3.94-3.09,1.22-1.16,2.39-2.42,3.43-3.8,2.07-2.76,3.7-5.96,4.47-9.47,.36-1.75,.54-3.55,.43-5.39-.15-1.82-.56-3.61-1.22-5.3-1.36-3.35-3.72-6.28-6.7-8.16-2.95-1.92-6.5-2.7-9.74-2.3-1.64,.23-3.16,.82-4.41,1.71-1.26,.87-2.18,2.08-2.34,3.36-.11,.77,.08,1.59,.49,2.2,.41,.61,.98,1.01,1.45,1.21-.83-.45-1.71-1.43-1.77-2.68-.11-1.25,.61-2.53,1.73-3.46,1.15-.97,2.64-1.63,4.22-1.95,1.61-.31,3.26-.21,4.92,.08,3.3,.64,6.44,2.53,8.68,5.19,.59,.65,1.06,1.38,1.56,2.1,.43,.76,.87,1.52,1.19,2.34,.68,1.61,1.15,3.33,1.28,5.08,.32,3.51-.5,6.98-1.92,10.04-1.44,3.06-3.48,5.76-5.85,7.99-2.34,2.25-5.04,4-7.79,5.31-2.8,1.27-5.66,2.14-8.48,2.61-5.18,.9-10.49,.68-15.57-.34-5.07-1.03-9.95-2.83-13.61-5.72-1.91-1.68-3.31-3.58-4.47-5.99-1.19-2.42-2.11-5.28-2.99-8.2-.87-2.9-1.6-5.83-2.23-8.79-.58-2.63-1.12-6.32-1.71-9.64-.6-3.32-1.27-6.27-2.66-7.38-.15,1.79,.2,3.77,.06,5.49-.27-.64-.61-1.38-.79-2.16,0,.74-.05,1.56,.13,2.24-.16-.56-.36-1.14-.65-1.36-.06,.9,.4,2.15,.61,2.84,.11,.41,.91,2.23,.85,2.77-.66-1.34-1.25-3.07-1.95-4.2,0,.49,.06,.97,.02,1.45-.28-.58-.44-1.72-.77-2.02,.07,1.22,.31,2.3,.38,3.56,.05,1.03,.1,1.95,.34,2.91-.37-1.14-.67-2.7-1.19-3.49-.07,.55,.03,1.13,.13,1.68-.05-.06-.11-.1-.17-.11,.03,.25-.01,.59,.03,.84-.08,.01-.15,.08-.23,.03h.17"/><path class="m" d="M415.44,77.63c.11,1.15,.31,2.78,.29,3.85"/><path class="h" d="M457.89,115.54s.94-.2,2.58-.74c1.62-.57,3.98-1.45,6.55-3.09,2.57-1.63,5.41-4,7.78-7.22,2.37-3.19,4.31-7.29,4.63-11.79,.38-4.47-1.3-9.17-4.43-12.42-1.54-1.64-3.46-2.87-5.46-3.61-2-.75-4.15-.94-6.05-.72-.93,.15-1.83,.44-2.62,.84-.79,.39-1.5,.93-1.82,1.39-.38,.49-.59,1.04-.6,1.56,0,.53,.2,1,.5,1.34,.15,.17,.31,.3,.48,.41,.19,.13,.28,.12,.57,.32,.51,.31,1.1,.6,1.73,.87,.16,.07,.31,.13,.38,.12,.02,0,.03,0,.04-.01,0,0,.03-.04,0,.01l-.23,.34c-.25,.36-.43,.68-.56,.9-.26,.47-.35,.76-.39,.94-.02,.09-.02,.14-.03,.17v.02h0v-.02h0c-.02-.13,.16,1.09,.08,.57-.01-.11-.1-.28-.17-.37-.07-.09-.09-.07,.04,0,.11,.07,.36,.16,.53,.15,.18,0,.2-.09,.1,.04"/></g><path class="h" d="M480.32,98.81s.17-.37,.39-1.09c.25-.71,.55-1.77,.78-3.14,.24-1.38,.36-3.06,.19-5.01-.21-1.93-.76-4.06-1.8-6.13-1.03-2.07-2.55-4.08-4.52-5.71-1.95-1.64-4.4-2.83-6.98-3.31l-.97-.17-.98-.06c-.65-.07-1.3,0-1.94,.04-1.29,.07-2.55,.46-3.66,1-1.09,.56-2.12,1.32-2.69,2.18-.61,.84-.82,1.85-.59,2.7"/></g></g></g><g id="d"><path class="e" d="M428.79,81.27c-.07-.51-.02-1.01,.17-1.5,.18-.49,.48-.89,.89-1.22,.49-.39,1.03-.62,1.62-.69,.59-.07,1.17,0,1.73,.25,.56,.24,1.03,.6,1.43,1.09,.34,.43,.53,.9,.59,1.41,.05,.51-.02,1.01-.23,1.49-.21,.48-.52,.89-.93,1.22-.48,.38-1.01,.61-1.57,.69-.57,.08-1.12,0-1.66-.23-.54-.23-1.01-.61-1.43-1.14-.32-.4-.51-.86-.59-1.37Zm2.14,2.42c.32,.11,.65,.12,.99,.04,.34-.08,.66-.23,.95-.46,.43-.34,.77-.78,1.04-1.32,.27-.54,.4-1.11,.4-1.68,0-.58-.18-1.09-.52-1.53-.22-.27-.48-.46-.8-.56-.32-.1-.65-.11-.99-.03-.35,.08-.67,.23-.98,.48-.42,.33-.76,.78-1,1.33-.25,.55-.37,1.12-.36,1.7,0,.58,.17,1.07,.48,1.46,.22,.27,.48,.46,.8,.57Z"/><path class="e" d="M449.8,98.82s.02,.04,0,.06c-.01,.02-.03,.02-.05,.02-.46-.18-.88-.21-1.25-.08-.37,.13-.78,.36-1.22,.71l-1.77,1.41c-.27,.22-.46,.4-.56,.52-.11,.12-.15,.26-.13,.4,.02,.15,.12,.33,.3,.56,.02,.03,.03,.05,0,.07s-.04,.01-.07-.02c-.18-.21-.32-.4-.44-.57-.03-.05-.08-.11-.14-.2l-.5-.63c-.07-.09-.13-.16-.18-.2-.14-.15-.29-.33-.45-.53-.02-.02-.02-.05,0-.06s.04-.01,.06,.01c.18,.23,.34,.36,.48,.42,.14,.05,.28,.04,.43-.03,.14-.07,.35-.22,.63-.44l1.85-1.46c.27-.22,.6-.36,.99-.43,.38-.07,.83-.03,1.34,.14-.42-.24-.85-.43-1.28-.58-.43-.14-.78-.22-1.04-.23-.02,0-.04,0-.06-.02-.01-.02-.02-.04,0-.06,.01-.02,.04-.03,.07-.03,.39,.01,.87,.14,1.44,.37,.58,.24,1.08,.53,1.52,.86l.02,.03Zm-.02-2.01c.02-.16,.09-.3,.22-.4s.27-.14,.43-.13c.16,.02,.3,.09,.4,.22s.15,.28,.14,.44c-.02,.16-.09,.3-.22,.4s-.28,.15-.43,.14c-.16-.02-.29-.1-.41-.24-.1-.13-.14-.27-.13-.43Z"/><path class="e" d="M450.78,109.55s-.04,.01-.07-.02c-.16-.21-.3-.39-.42-.56-.03-.05-.09-.13-.16-.22l-.5-.63c-.07-.09-.13-.16-.18-.2-.14-.15-.29-.33-.45-.53-.02-.02-.02-.05,0-.06s.04-.01,.06,.01c.2,.24,.38,.39,.52,.42,.14,.04,.3-.01,.47-.15,.07-.05,.21-.2,.44-.44l1.56-1.7c.55-.61,.89-1.08,1.01-1.41,.12-.33,.08-.63-.11-.88-.23-.29-.61-.44-1.12-.44-.52,0-1.13,.13-1.84,.41-.71,.27-1.47,.66-2.26,1.17-.23,.2-.35,.38-.37,.55-.02,.16,.08,.39,.29,.66,.02,.03,.03,.05,0,.07s-.04,.01-.07-.02c-.16-.21-.3-.39-.42-.56-.03-.05-.09-.13-.16-.22l-.49-.62c-.07-.09-.13-.16-.18-.2-.14-.15-.29-.33-.45-.53-.02-.02-.02-.05,0-.06s.04-.01,.06,.01c.18,.23,.34,.36,.48,.42,.14,.05,.28,.04,.43-.03,.14-.07,.35-.22,.63-.44l4.61-3.66c.27-.21,.43-.42,.48-.62,.05-.2-.03-.43-.27-.68-.03-.02-.03-.04-.01-.05s.04-.01,.07,0c.2,.15,.47,.32,.79,.51,.32,.2,.59,.34,.8,.43,.02,0,.03,.01,.03,.03,0,.02,0,.04-.03,.05l-1.31,1.04-1.88,1.5-3.31,2.37,.04,.05c1.03-.65,1.94-1.11,2.73-1.37,.79-.26,1.44-.36,1.96-.29,.52,.07,.91,.27,1.17,.6s.38,.63,.38,.93c0,.3-.09,.62-.29,.95-.2,.33-.51,.73-.94,1.19l-1.44,1.56c-.25,.27-.42,.47-.51,.6-.08,.13-.12,.27-.09,.42,.02,.15,.12,.34,.3,.57,.02,.03,.03,.05,0,.07Z"/><path class="e" d="M456.29,111.94s0,.06-.04,.07c-.55,.19-1.05,.33-1.5,.4-.44,.08-.87,.06-1.29-.04-.42-.11-.77-.35-1.07-.73-.35-.44-.52-.92-.49-1.43,.03-.51,.27-.94,.72-1.3l3.15-2.5-.55-.69s-.02-.05,0-.07,.05-.02,.07,0c.43,.28,.86,.44,1.28,.48,.42,.04,.86-.06,1.33-.3,.02,0,.04,0,.04,0,0,.01,0,.03,0,.04l-1.52,1.2,1.59,2.01s.03,.07,0,.09c-.03,.02-.05,.02-.09-.03l-1.6-2.02-2.89,2.29c-.44,.35-.74,.73-.9,1.16-.16,.42-.1,.81,.17,1.16,.32,.41,.78,.61,1.36,.61,.58,0,1.29-.15,2.12-.44,.04-.01,.07,0,.08,.03Z"/><path class="e" d="M446.83,95.42c0-.07,.01-.14,.02-.19,.01-.06,.04-.08,.07-.08,.08,0,.31,.22,.69,.67l.07-.06-.75-.95-.1-.13-.81-1.03s-.05-.04-.07-.02-.02,.04,0,.07c.21,.26,.39,.57,.55,.93,.16,.35,.22,.73,.18,1.11-.04,.39-.24,.72-.6,1.01s-.8,.47-1.33,.56c-.54,.09-1.25,.17-2.12,.22l-.42,.03,1.83-3.46c.29-.53,.53-.86,.72-1.02,.15-.12,.3-.15,.45-.1,.15,.05,.32,.19,.51,.42,.02,.03,.05,.04,.07,.02s.02-.04,0-.07c-.23-.3-.44-.54-.61-.73-.06-.06-.13-.14-.22-.26l-.54-.68c-.04-.06-.11-.15-.19-.27-.08-.12-.2-.28-.34-.46-.02-.03-.04-.03-.06-.01s-.02,.04,0,.06c.13,.18,.21,.36,.22,.55,.01,.18-.03,.41-.12,.67-.1,.26-.27,.62-.51,1.08l-2.24,4.18,.19,.24,.78-.05,.42-.03c.92-.06,1.67-.14,2.23-.24,.56-.1,1.01-.29,1.36-.56,.28-.22,.47-.45,.55-.69,.08-.24,.13-.48,.14-.75Z"/><path class="e" d="M440.44,95.26s-.03-.04-.05-.04c-.23,.02-.4,.02-.52,.01-.12-.01-.22-.07-.3-.17-.07-.09-.08-.21-.03-.36,.06-.15,.15-.29,.28-.43l2.25-2.55c.53-.61,.79-1.14,.76-1.61-.03-.47-.23-.94-.6-1.4s-.79-.8-1.26-.98c-.46-.18-.98-.24-1.54-.17-.57,.06-1.53,.31-2.3,.58h-.01c-.12,.05-1.05,.38-1.47,.36-.26,0-.5-.06-.7-.19-.2-.13-.44-.36-.7-.7-.13-.16-.23-.31-.3-.45-.08-.14-.16-.3-.24-.5-.09-.18-.16-.34-.22-.45-.06-.12-.15-.24-.25-.37-.14-.17-.32-.3-.55-.37,.02,0,.14,.02,.34,.05,.24,.04,.69,.14,1.35,.28,.29,.07,.61,.14,.98,.21l.27,.05c.64,.12,1.15,.2,1.52,.23,.37,.03,.77-.02,1.18-.15,.41-.12,.85-.37,1.31-.74,0,0,.01,0,.02,0,0,0,0-.01,0-.02l-1.66-2.09c-.33-.41-.47-.75-.42-1.01,0-.01,0-.02,0-.03s-.02-.01-.02,0l-1.52,.73,.05,.07h.02c.18-.1,.43-.1,.74-.03,.31,.08,.62,.22,.94,.42,.32,.2,.58,.44,.8,.71l.53,.67c-.47,.37-.89,.66-1.25,.85-.36,.19-.74,.31-1.14,.35-.4,.05-.85,.02-1.37-.09-.12-.03-.25-.06-.4-.09-.15-.03-.32-.07-.5-.11l-1.41-.29c-.26-.05-.47-.07-.65-.07-.18,0-.36,.03-.55,.08-.03,.01-.03,.03-.02,.05,.01,.02,.03,.03,.06,.02,.07-.02,.16-.04,.28-.05,.16-.02,.34,0,.53,.07,.19,.07,.34,.18,.47,.33,.09,.12,.15,.25,.17,.38,.02,.14,.03,.32,.02,.55,0,.26,0,.48,.03,.66,.03,.18,.11,.35,.25,.52,.24,.31,.51,.51,.8,.61,.29,.1,.61,.12,.95,.08,0,0,1.02-.18,1.62-.4,.07-.03,.15-.05,.22-.07,1.06-.37,2.24-.61,2.97-.57,.74,.04,1.37,.38,1.86,1.01,.2,.26,.26,.58,.19,.98-.08,.4-.3,.82-.66,1.26-.18,.16-.39,.22-.65,.19-.25-.03-.51-.12-.78-.26-.27-.14-.61-.34-1.03-.6-.45-.27-.82-.48-1.1-.62-.29-.14-.57-.23-.85-.27-.28-.04-.52,.02-.73,.19-.3,.24-.45,.54-.45,.9,0,.36,.14,.72,.41,1.06,.35,.44,.78,.74,1.3,.89,.52,.15,1.05,.18,1.59,.07,.54-.1,1.03-.31,1.46-.61l-1.45,1.66c-.18,.21-.29,.44-.34,.69-.05,.25,.03,.5,.24,.76,.16,.2,.33,.32,.52,.37,.19,.04,.42,.05,.7,0,.03-.01,.04-.03,.03-.06Zm-.8-3.02c-.51,.15-.98,.19-1.43,.12-.45-.07-.79-.25-1.03-.55s-.35-.57-.35-.86c0-.29,.1-.52,.33-.7,.22-.17,.46-.26,.71-.25,.26,0,.51,.06,.75,.16,.25,.1,.56,.26,.93,.47,.42,.24,.77,.4,1.04,.5,.27,.1,.52,.1,.74,.02l-.33,.39c-.4,.32-.86,.55-1.37,.7Z"/><path class="e" d="M429.86,85.61c-.25-.07-.72-.26-1.24-1.01-.61-.86-1.24-1-1.37-1.03-.09-.01-.67-.04-.89,.38-.01-.02-.03-.03-.04-.05-.2-.25-.31-.53-.31-.84,0-.31,.06-.67,.21-1.1,.15-.42,.4-1.02,.76-1.78,.13-.29,.33-.71,.6-1.26,.37-.77,.65-1.4,.85-1.89,.19-.48,.31-.98,.35-1.49,.04-.51-.05-.98-.28-1.42,.68,.72,1.38,1.23,2.11,1.53,.72,.3,1.38,.22,1.98-.25,.64-.51,.93-1.14,.86-1.89-.06-.75-.45-1.58-1.17-2.49l-2.04-2.57c-.07-.09-.16-.21-.25-.36l-.27-.37c-.23-.3-.49-.45-.76-.47-.27-.02-.54,.08-.8,.28-.41,.32-.71,.79-.92,1.39-.2,.6-.28,1.25-.22,1.95l-2.59,2.05c-.49,.39-.87,.64-1.13,.76-.26,.12-.47,.14-.64,.05-.17-.08-.38-.28-.63-.58-.03-.04-.05-.04-.08-.02s-.02,.05,0,.08c.26,.32,.48,.59,.67,.81,.06,.06,.14,.16,.24,.28l.54,.68c.13,.17,.24,.3,.31,.41,.23,.32,.53,.71,.89,1.17,.04,.06,.08,.07,.11,.05,0,0,0-.02,0-.04,0-.02-.02-.05-.04-.07-.33-.43-.54-.78-.61-1.02-.08-.25-.02-.5,.16-.77,.18-.26,.54-.61,1.08-1.04l1.97-1.56c.21,.6,.5,1.12,.85,1.57,.22,.28,.29,.64,.22,1.07-.08,.43-.24,.89-.47,1.36-.24,.47-.57,1.07-.99,1.78-.06,.09-.2,.34-.43,.74-.23,.4-.43,.77-.57,1.09-.33,.72-.47,1.45-.42,2.2,.04,.75,.3,1.43,.77,2.02,.03,.04,.07,.08,.1,.12-.06,.19-.05,.44,.05,.78,.41,1.35,2.41,1.14,2.7,1.11,.29-.03,.51-.14,.51-.14l.3-.15s.03-.06,0-.07Zm-2.73-14.82c-.04-.66,.03-1.28,.23-1.85s.49-1,.86-1.3c.24-.19,.48-.28,.71-.26,.24,.02,.46,.16,.67,.43,.16,.2,.16,.44,.01,.74-.15,.3-.42,.6-.82,.92l-1.66,1.32Zm.24,1.25l2.19-1.74c.34-.27,.6-.47,.79-.6,.19-.13,.35-.23,.48-.29l1.21,1.53c.46,.58,.67,1.17,.64,1.79-.03,.62-.34,1.16-.93,1.63-.48,.38-.91,.59-1.3,.62-.39,.03-.76-.06-1.1-.29-.34-.22-.72-.57-1.13-1.05-.38-.48-.67-1.02-.85-1.61Z"/></g><path class="e" d="M467.38,85.31c.11,.02,.11,.16,0,.22l-.99,.54s-.73,.39-1.66,.55-7.27,1.37-8.2-2.61c-.93-3.98,2.77-4.16,3.16-4.13s2.34,.28,4.03,2.72c1.46,2.11,2.86,2.58,3.65,2.71Z"/><g><path class="e" d="M369.69,98.38l.31-.25c.15,.19,.32,.3,.5,.32,.18,.02,.39,0,.62-.08,.23-.07,.5-.16,.8-.26l6.88-2.27,.18,.23-3.73,6.41c-.09,.16-.22,.35-.38,.58-.16,.23-.32,.39-.47,.5,.09,.1,.18,.21,.28,.31,.09,.1,.18,.21,.27,.31l-.42,.33-1.73-2.18,.31-.25c.2,.24,.38,.35,.54,.35,.16,0,.3-.07,.43-.2,.12-.13,.23-.26,.31-.4l.63-1.04-2.01-2.43-1.28,.47c-.19,.08-.34,.13-.46,.17-.12,.03-.25,.07-.39,.11,.11,.12,.21,.24,.32,.36,.1,.12,.21,.24,.31,.35l-.42,.33-1.41-1.78Zm3.85-.2l1.74,2.2,1.28-2.11c.14-.22,.28-.45,.41-.68,.14-.23,.27-.45,.42-.68l-.02-.02c-.23,.08-.46,.15-.69,.23s-.46,.15-.7,.22l-2.45,.84Z"/><path class="e" d="M376.46,107.25c-.34-.43-.55-.89-.64-1.4s-.04-1.02,.16-1.52,.55-.95,1.06-1.36c.33-.26,.7-.46,1.1-.58,.41-.13,.82-.18,1.24-.16,.42,.02,.83,.12,1.22,.31,.39,.19,.73,.47,1.02,.83s.47,.71,.57,1.05c.1,.35,.12,.67,.06,.95-.06,.29-.2,.51-.41,.68-.14,.11-.29,.17-.45,.17-.16,0-.3-.07-.41-.22-.13-.15-.17-.31-.12-.45s.12-.26,.2-.32c.06-.05,.14-.09,.22-.13s.17-.04,.28-.03c.11-.17,.15-.35,.13-.53-.03-.18-.09-.35-.17-.51-.09-.15-.16-.27-.23-.36-.34-.43-.8-.66-1.38-.68-.58-.02-1.2,.23-1.86,.75-.42,.34-.75,.7-.97,1.1s-.33,.79-.32,1.19c0,.4,.14,.75,.4,1.08,.24,.3,.54,.52,.91,.67,.38,.15,.74,.21,1.09,.18v.4c-.39,.05-.76,.02-1.11-.08-.35-.1-.66-.24-.93-.43-.27-.18-.49-.38-.66-.6Z"/><path class="e" d="M380.42,112.23c-.35-.44-.56-.91-.63-1.43-.07-.51,0-1.02,.22-1.52,.22-.5,.58-.96,1.09-1.36,.44-.35,.94-.58,1.48-.69,.54-.11,1.08-.07,1.6,.1,.52,.17,.97,.5,1.35,.97,.21,.27,.37,.55,.46,.85s.13,.61,.1,.92c-.03,.32-.14,.63-.33,.94-.18,.31-.45,.61-.81,.89l-2.71-3.3c-.48,.38-.86,.77-1.14,1.16s-.43,.79-.44,1.18c-.01,.39,.13,.77,.42,1.14,.16,.2,.35,.37,.58,.52,.23,.15,.48,.27,.74,.35,.26,.08,.51,.12,.74,.11v.38c-.41,.04-.79,0-1.14-.11-.35-.11-.66-.27-.93-.47-.27-.2-.49-.41-.66-.62Zm2.26-3.93l1.92,2.42c.23-.18,.42-.39,.58-.62,.16-.23,.25-.48,.26-.74,.02-.26-.07-.51-.27-.76-.29-.37-.64-.59-1.06-.66-.41-.07-.89,.05-1.44,.36Z"/><path class="e" d="M383.12,114.74c.16,.2,.31,.29,.47,.29,.16,0,.33-.07,.51-.19,.18-.13,.39-.28,.62-.46l2.17-1.72c.1-.08,.2-.15,.3-.22,.1-.07,.21-.14,.35-.23-.1-.11-.19-.22-.29-.32-.09-.11-.19-.21-.29-.32l.4-.32c.22,.28,.4,.48,.55,.62,.15,.13,.27,.22,.37,.27,.1,.05,.19,.08,.27,.09l.22,.28-3.84,3.04c-.13,.1-.24,.19-.34,.26-.1,.07-.21,.14-.33,.21,.09,.1,.17,.19,.25,.29,.08,.1,.16,.19,.25,.29l-.39,.31-1.54-1.94,.29-.23Zm6.23-3.44c-.1-.13-.15-.29-.12-.48,.03-.19,.12-.34,.28-.47s.33-.18,.53-.16c.19,.02,.34,.09,.45,.22,.12,.15,.16,.31,.12,.5-.03,.19-.13,.34-.29,.47s-.33,.18-.52,.16c-.19-.02-.34-.1-.45-.24Z"/><path class="e" d="M386.33,119.69c-.12-.15-.21-.31-.29-.5s-.11-.39-.09-.62c.02-.22,.11-.47,.28-.73s.45-.54,.83-.84l2.77-2.17-.59-.72,.41-.32c.14,.16,.33,.28,.58,.36s.53,.1,.85,.08c.31-.02,.61-.11,.89-.25l.26,.32-1.33,1.06,1.27,1.6-.37,.29-1.28-1.58-2.66,2.08c-.29,.23-.51,.44-.67,.65s-.25,.4-.27,.59c-.02,.19,.04,.37,.18,.54s.32,.3,.55,.38c.22,.07,.47,.1,.75,.08v.42c-.33,.03-.6,.02-.83-.02-.23-.04-.42-.1-.58-.18-.16-.08-.29-.17-.39-.26-.1-.1-.18-.18-.24-.26Z"/><path class="e" d="M389.66,123.89c-.35-.44-.56-.91-.63-1.43-.07-.51,0-1.02,.22-1.52,.22-.5,.58-.96,1.09-1.36,.44-.35,.94-.58,1.48-.69,.54-.11,1.08-.07,1.6,.1,.52,.17,.97,.5,1.35,.97,.21,.27,.37,.55,.46,.85s.13,.61,.1,.92c-.03,.32-.14,.63-.33,.94-.18,.31-.45,.61-.81,.89l-2.71-3.3c-.48,.38-.86,.77-1.14,1.16s-.43,.79-.44,1.18c-.01,.39,.13,.77,.42,1.14,.16,.2,.35,.37,.58,.52,.23,.15,.48,.27,.74,.35,.26,.08,.51,.12,.74,.11v.38c-.41,.04-.79,0-1.14-.11-.35-.11-.66-.27-.93-.47-.27-.2-.49-.41-.66-.62Zm2.26-3.93l1.92,2.42c.23-.18,.42-.39,.58-.62,.16-.23,.25-.48,.26-.74,.02-.26-.07-.51-.27-.76-.29-.37-.64-.59-1.06-.66-.41-.07-.89,.05-1.44,.36Z"/><path class="e" d="M395.51,131.27c-.31-.39-.49-.81-.54-1.28s.03-.93,.25-1.4c.22-.47,.57-.89,1.06-1.28,.52-.41,1.06-.67,1.63-.78,.56-.11,1.11-.07,1.63,.12,.52,.19,.97,.52,1.34,.99,.17,.21,.3,.44,.41,.69,.11,.25,.18,.46,.2,.64l1.3-1.03c.1-.08,.2-.15,.29-.22,.09-.07,.21-.15,.35-.24-.1-.11-.19-.22-.29-.32-.09-.11-.19-.21-.29-.32l.4-.32c.22,.28,.4,.48,.55,.62,.15,.13,.27,.22,.37,.27,.1,.05,.19,.08,.27,.09l.22,.27-6.17,4.89c-.1,.08-.2,.16-.31,.23-.11,.07-.23,.16-.36,.24,.1,.11,.19,.22,.29,.32,.09,.11,.19,.21,.29,.32l-.4,.32-1.08-1.36c.08-.09,.16-.18,.23-.25,.07-.07,.14-.14,.21-.21-.34-.02-.67-.12-.99-.28s-.61-.41-.86-.73Zm.74-.03c.17,.21,.39,.37,.68,.49,.29,.12,.58,.17,.87,.17,.07-.07,.15-.13,.24-.2l.28-.22,2.74-2.16c0-.24-.05-.47-.14-.7-.09-.22-.21-.43-.36-.62-.25-.32-.56-.52-.93-.61-.37-.09-.77-.06-1.19,.08-.43,.14-.85,.39-1.29,.76-.38,.32-.67,.66-.89,1.01-.22,.35-.33,.7-.34,1.04-.01,.34,.1,.66,.34,.96Z"/><path class="e" d="M400.23,137.22c-.35-.44-.56-.91-.63-1.43-.07-.51,0-1.02,.22-1.52,.22-.5,.58-.96,1.09-1.36,.44-.35,.94-.58,1.48-.69,.54-.11,1.08-.07,1.6,.1,.52,.17,.97,.5,1.35,.97,.21,.27,.37,.55,.46,.85s.13,.61,.1,.92c-.03,.32-.14,.63-.33,.94-.18,.31-.45,.61-.81,.89l-2.71-3.3c-.48,.38-.86,.77-1.14,1.16s-.43,.79-.44,1.18c-.01,.39,.13,.77,.42,1.14,.16,.2,.35,.37,.58,.52,.23,.15,.48,.27,.74,.35,.26,.08,.51,.12,.74,.11v.38c-.41,.04-.79,0-1.14-.11-.35-.11-.66-.27-.93-.47-.27-.2-.49-.41-.66-.62Zm2.26-3.93l1.92,2.42c.23-.18,.42-.39,.58-.62,.16-.23,.25-.48,.26-.74,.02-.26-.07-.51-.27-.76-.29-.37-.64-.59-1.06-.66-.41-.07-.89,.05-1.44,.36Z"/><path class="e" d="M413.4,144.21c.54-.54,.84-1.11,.89-1.72,.05-.61-.14-1.19-.58-1.75-.27-.34-.59-.59-.96-.78-.38-.18-.79-.28-1.23-.29-.44-.01-.9,.07-1.37,.24s-.95,.44-1.41,.81c-.6,.47-1.03,1-1.31,1.59-.28,.59-.39,1.18-.33,1.77s.27,1.11,.64,1.58c.33,.41,.74,.74,1.24,1,.5,.25,1.03,.36,1.59,.33v.4c-.59,.02-1.12-.04-1.57-.2-.45-.16-.84-.36-1.16-.62-.32-.26-.59-.51-.79-.77-.38-.48-.64-.98-.78-1.51s-.18-1.06-.1-1.6,.26-1.04,.55-1.52c.29-.48,.67-.91,1.14-1.28,.45-.36,.94-.63,1.47-.84,.53-.2,1.08-.3,1.64-.3,.56,0,1.1,.13,1.63,.38s1.02,.66,1.45,1.21c.28,.35,.5,.73,.66,1.12s.25,.81,.29,1.26l.48-.45,.41,.51-2.2,1.75-.27-.34Z"/><path class="e" d="M409.97,149.2l.31-.25c.2,.24,.38,.36,.56,.36,.17,0,.36-.06,.55-.19s.4-.29,.63-.48l3.99-3.16c.17-.14,.32-.25,.45-.34,.13-.09,.24-.17,.32-.23-.1-.11-.19-.22-.29-.33-.1-.11-.19-.22-.29-.33l.42-.33c.28,.34,.56,.69,.85,1.04,.28,.35,.57,.71,.88,1.09,.58,.73,.91,1.41,.98,2.03,.07,.62-.18,1.15-.76,1.58-.2,.16-.45,.26-.75,.31-.3,.04-.61,.01-.95-.1s-.68-.31-1.02-.61l-.02,.02c.55,.7,.81,1.35,.77,1.96s-.3,1.11-.79,1.49c-.39,.31-.8,.47-1.23,.5-.43,.02-.86-.07-1.27-.29-.42-.22-.79-.54-1.14-.97l-2.2-2.78Zm1.53,1.15c.07,.11,.17,.23,.28,.38,.11,.15,.21,.28,.31,.4l.19,.24c.39,.49,.82,.79,1.3,.89s.96-.03,1.44-.4c.39-.31,.63-.62,.72-.94,.09-.32,.09-.64-.02-.96-.11-.32-.28-.62-.51-.91-.15-.19-.29-.36-.42-.51s-.26-.3-.39-.44l-2.15,1.7c-.17,.14-.32,.25-.44,.34-.12,.09-.23,.16-.32,.22Zm3.28-2.56l.57,.68c.29,.36,.59,.58,.9,.68,.31,.1,.61,.1,.9,.02,.29-.08,.55-.21,.78-.41,.34-.28,.53-.56,.59-.85,.06-.29,.04-.57-.07-.83-.11-.27-.24-.5-.41-.71s-.32-.34-.46-.4c-.14-.06-.28-.05-.44,.03-.16,.07-.35,.2-.59,.39l-1.77,1.4Z"/><path class="e" d="M414.9,154.77c.2,.23,.39,.35,.56,.36,.17,.01,.34-.05,.53-.18s.38-.28,.61-.46l4.11-3.25c.13-.1,.25-.19,.37-.28,.12-.09,.23-.16,.33-.23-.1-.11-.19-.22-.29-.33-.1-.11-.19-.22-.29-.33l.42-.33,1.79,2.24c.45,.57,.8,1.15,1.04,1.73,.24,.58,.36,1.15,.36,1.72s-.14,1.11-.41,1.63c-.27,.52-.69,1.01-1.26,1.46-.44,.35-.92,.6-1.44,.77-.52,.16-1.05,.22-1.6,.16s-1.09-.25-1.63-.56c-.54-.31-1.05-.76-1.52-1.36l-1.98-2.5,.31-.25Zm1.98,.84c-.17,.14-.32,.25-.44,.34-.12,.09-.23,.16-.32,.22,.13,.18,.25,.34,.36,.48,.11,.15,.2,.27,.28,.37l.15,.18c.33,.41,.7,.72,1.11,.94s.85,.33,1.31,.35c.46,.03,.92-.04,1.39-.2,.47-.16,.91-.41,1.34-.74,.6-.48,1.04-1,1.3-1.57,.27-.57,.34-1.17,.23-1.82-.11-.64-.45-1.31-1-2.01-.19-.24-.36-.36-.53-.38-.17-.02-.34,.04-.52,.17s-.38,.28-.61,.46l-4.05,3.21Z"/></g><path class="e" d="M371.77,159.22c-.24-.08-.45,.17-.32,.39l1.15,2.04s.87,1.49,2.46,2.78c1.55,1.26,12.33,10.27,19.97,4,7.64-6.27,.63-10.53-.19-10.9s-5.02-1.99-11.92,.65c-5.96,2.28-9.4,1.64-11.13,1.03Z"/><path class="e" d="M320.16,176.32c.02,.19-.2,.3-.34,.17l-1.31-1.2s-.95-.9-1.63-2.3-5.45-10.89,.5-15.45,7.89,1.36,8.02,2.03,.6,4.05-2.55,8.7c-2.72,4.01-2.84,6.67-2.69,8.05Z"/><path class="e" d="M350.34,190.5c-.09-.03-.17,.07-.12,.15l.44,.79s.34,.57,.94,1.07,4.74,3.95,7.68,1.54c2.94-2.41,.24-4.05-.07-4.19s-1.93-.76-4.59,.25c-2.29,.88-3.62,.63-4.28,.4Z"/><path class="e" d="M406.58,104.33c.03,.14-.12,.25-.24,.17l-1.12-.78s-.82-.59-1.47-1.58-5.27-7.71-1.21-11.79c4.05-4.08,6.14,.22,6.3,.71s.87,3.02-1.04,6.87c-1.65,3.33-1.47,5.36-1.21,6.39Z"/></g></g></g></svg>