<?xml version="1.0" encoding="UTF-8"?><svg xmlns="http://www.w3.org/2000/svg" viewBox="0 0 645.15 435"><defs><style>.h,.i,.j,.k,.l,.m,.n,.o,.p,.q{stroke:#000;stroke-miterlimit:10;}.h,.i,.j,.l,.m,.q{fill:none;}.i,.j,.k,.n,.q{stroke-linecap:round;}.j,.m,.n,.o{stroke-width:2px;}.k,.n{fill:#f0f7fa;}.r{fill:#8c6239;opacity:.61;}.l,.p,.q{stroke-width:3px;}.o,.p{fill:#fff;}</style></defs><g id="a"/><g id="b"><g id="c"><g><path class="l" d="M29.52,229.25v158.93c0,25.03,20.29,45.32,45.32,45.32h209.42c25.03,0,45.32-20.29,45.32-45.32V229.25"/><ellipse class="l" cx="179.54" cy="229.25" rx="150.03" ry="21.69"/><path class="l" d="M28.61,269.92H12.11c-5.86,0-10.61,4.75-10.61,10.61v.48c0,5.86,4.75,10.61,10.61,10.61H28.61v-21.69Z"/><path class="l" d="M330.47,266.3h16.51c5.86,0,10.61,4.75,10.61,10.61v.48c0,5.86-4.75,10.61-10.61,10.61h-16.51v-21.69Z"/></g><g><path class="q" d="M181.4,1.5s-25.93,26.42-5.8,49.59c20.13,23.17,5.8,55.42,5.8,55.42"/><path class="q" d="M218.69,23.96s-18.93,19.29-4.24,36.21c14.7,16.92,4.24,40.47,4.24,40.47"/><path class="q" d="M144.05,39.92s-16.35,16.66-3.66,31.27c12.69,14.61,3.66,34.95,3.66,34.95"/></g><g><g id="d"><path class="r" d="M10.5,42.05l.85,2.78,.29,.77-.39,.2c-.34,.15-.63,.37-.84,.7-1.07,1.49-3.57,6.07,3.38,7.4l1.2,2.89s1.33,3.07-3.31,10.27c0,0-3.42,4.18-1.06,10.52,0,0,36.57,94.17,42.31,102.72,0,0,5.8,12.09,38.99-2.27,33.43-13.91,28.76-26.54,28.76-26.54-2.18-10.06-44.65-101.75-44.65-101.75-2.97-6.08-8.34-6.58-8.34-6.58-8.35-1.65-9.68-4.72-9.68-4.72l-1.2-2.89c3.66-5.7-.78-7.13-2.74-7.5-.51-.08-1.09-.02-1.58,.16l-.22,.07-.29-.77-.96-2.44"/><path class="m" d="M10.5,42.05l.85,2.78,.29,.77-.39,.2c-.34,.15-.63,.37-.84,.7-1.07,1.49-3.57,6.07,3.38,7.4l1.2,2.89s1.33,3.07-3.31,10.27c0,0-3.42,4.18-1.06,10.52,0,0,36.57,94.17,42.31,102.72,0,0,5.8,12.09,38.99-2.27,33.43-13.91,28.76-26.54,28.76-26.54-2.18-10.06-44.65-101.75-44.65-101.75-2.97-6.08-8.34-6.58-8.34-6.58-8.35-1.65-9.68-4.72-9.68-4.72l-1.2-2.89c3.66-5.7-.78-7.13-2.74-7.5-.51-.08-1.09-.02-1.58,.16l-.22,.07-.29-.77-.96-2.44"/><path class="m" d="M11.41,45.77s22.06-2.54,41.61-17.68"/><path class="m" d="M14,54.19s22.49-2.68,42.51-18.06"/><path class="i" d="M16.25,69.03s-2.77,2.72,.92,11.41"/><line class="i" x1="19.26" y1="85.55" x2="36.96" y2="127.07"/><line class="i" x1="38.95" y1="131.8" x2="42.38" y2="139.88"/><line class="i" x1="44.35" y1="144.45" x2="55.59" y2="170.86"/><path class="i" d="M57.05,174.37c1.84,3.77,5.95,5.99,10.15,5.36"/><path class="i" d="M64.99,46.73s5.8,.72,8.63,7.35"/><line class="i" x1="74.99" y1="57.21" x2="76.01" y2="59.6"/><path class="k" d="M59.28,44.41c.92,.77,1.96,1.35,3.13,1.85"/><path class="o" d="M60.45,81.75c-10.8,4.92-20.67,7.81-25.49,7.71-.41,0-.69,.41-.52,.78l31.02,68.09c.5,1.09,11.98-3.07,25.64-9.29,13.66-6.22,24.34-12.16,23.84-13.25l-31.02-68.09c-.17-.37-.67-.44-.93-.12-3.09,3.7-11.74,9.25-22.54,14.17Z"/><path id="e" d="M102.46,118.76c-.38,.66-1.23,1.74-3.57,2.59-2.78,1-3.57,2.59-3.75,2.87-.46,.87-.26,1.9,.35,2.63l-.15,.11c-.77,.33-1.65,.41-2.47,.24-.99-.29-1.95-.76-2.71-1.38-1.01-.75-2.41-1.83-4.12-3.32-.68-.52-1.63-1.39-2.89-2.49-1.74-1.54-3.26-2.78-4.34-3.63-1.17-.86-2.37-1.55-3.73-2.04-1.28-.48-2.66-.56-3.96-.32,2.16-1.1,4.03-2.6,5.63-4.47,1.32-1.5,1.57-3.63,.73-5.43-.69-1.91-2.4-3.32-4.37-3.68-2.01-.41-4.48,.05-7.47,1.29l-8.33,3.54c-.34,.17-.77,.33-1.15,.45l-1.15,.45c-.81,.28-1.45,.9-1.81,1.7-.3,.76-.22,1.63,.16,2.37,.63,1.41,1.66,2.61,3.02,3.42,1.51,1.01,3.25,1.69,5.01,1.98l3.58,8.38c.5,1.12,.93,2.36,1.19,3.57,.13,.61,.03,1.22-.32,1.71-.59,.58-1.24,.97-1.96,1.26-.1,.07-.15,.11-.12,.16s.07,.1,.21,.08c1.07-.46,1.89-.82,2.63-1.2,.26-.18,.55-.32,.93-.44l2.18-.96c.53-.23,.96-.39,1.34-.51,1.05-.37,2.26-.86,3.72-1.53,.19-.06,.26-.18,.22-.24s-.04-.05-.09-.01l-.19,.06c-.98,.47-2.07,.8-3.17,.89-.77,.01-1.52-.38-1.91-1.03-.81-1.12-1.47-2.36-1.99-3.61l-2.73-6.35c1.64-.1,3.23-.47,4.78-1.13,.96-.39,2.12-.29,3.03,.22,1.21,.6,2.31,1.36,3.25,2.24,1.07,.94,2.43,2.28,4.02,3.94,.15,.2,.73,.79,1.62,1.7,.77,.84,1.6,1.56,2.47,2.34,1.59,1.34,3.52,2.28,5.56,2.74,1.96,.45,4.07,.25,5.91-.54l.39-.21c.62,.33,1.37,.49,2.1,.43,3.9-.1,4.77-5.55,4.9-6.34,.12-.48,.07-.98,.01-1.49l-.17-.89c-.12-.07-.21-.08-.3-.09q.04,.05,0,0h0Zm-41.31-3.55c-1.71-.32-3.31-1.03-4.74-1.93-1.18-.78-2.22-1.89-2.82-3.25-.3-.64-.37-1.37-.17-2.06,.29-.68,.88-1.26,1.64-1.5,.67-.25,1.45-.04,1.94,.54,.82,.81,1.43,1.76,1.84,2.87l2.3,5.33Zm3.47,.29l-2.98-7.02c-.46-1.07-.77-1.93-.99-2.55-.19-.48-.34-1-.44-1.47l4.94-2.1c1.61-.78,3.5-.97,5.18-.48,1.7,.63,3.07,1.98,3.64,3.74,.57,1.22,.81,2.52,.69,3.86-.17,1.06-.73,2-1.56,2.68-1.09,.86-2.3,1.66-3.6,2.22-1.51,.71-3.19,1.07-4.87,1.11h0Z"/></g><path class="r" d="M51.85,24.46c.33,.73-9.37,5.06-20.48,10.13-11.11,5.06-21.35,8.22-21.68,7.49-.33-.73,9.37-5.06,20.48-10.13,11.11-5.06,21.35-8.22,21.68-7.49Z"/><path class="h" d="M51.85,24.46c.33,.73-8.74,5.57-19.85,10.64-11.11,5.06-21.98,7.71-22.31,6.98-.33-.73,9.4-5.87,20.51-10.94,11.11-5.06,21.32-7.41,21.65-6.68Z"/></g><g><path class="l" d="M178.11,225.63c-65.59,0-118.77,7.69-118.77,17.17"/><path class="l" d="M177.32,225.63c65.59,0,118.77,7.69,118.77,17.17"/></g><g><g id="f"><path class="r" d="M475.65,18.88l-.94,7.17-.14,2.05-1.09,.04c-.92,0-1.8,.18-2.61,.71-3.95,2.27-14.32,10.05,.03,20.19l-.27,7.77s-.16,8.3-18.04,19.8c0,0-12.03,5.92-13.23,22.69,0,0-14.29,250.42-10.11,275.65,0,0,.66,33.29,90.43,35,89.85,2.99,92.3-30.38,92.3-30.38,5.43-24.97,3.83-275.85,3.83-275.85-.45-16.8-12.08-23.45-12.08-23.45-17.18-12.33-17.02-20.62-17.02-20.62l.27-7.77c14.14-9.1,5.58-16.92,1.52-19.77-1.06-.7-2.44-1.16-3.74-1.26l-.56-.07,.14-2.05,.34-6.5"/><path class="l" d="M475.65,18.88l-.94,7.17-.14,2.05-1.09,.04c-.92,0-1.8,.18-2.61,.71-3.95,2.27-14.32,10.05,.03,20.19l-.27,7.77s-.16,8.3-18.04,19.8c0,0-12.03,5.92-13.23,22.69,0,0-14.29,250.42-10.11,275.65,0,0,.66,33.29,90.43,35,89.85,2.99,92.3-30.38,92.3-30.38,5.43-24.97,3.83-275.85,3.83-275.85-.45-16.8-12.08-23.45-12.08-23.45-17.18-12.33-17.02-20.62-17.02-20.62l.27-7.77c14.14-9.1,5.58-16.92,1.52-19.77-1.06-.7-2.44-1.16-3.74-1.26l-.56-.07,.14-2.05,.34-6.5"/><path class="p" d="M579.86,158.51s35.67-4.02,35.29,14.32c-.38,18.34-39.88,18.34-39.88,18.34l-5.28-16.52,9.87-16.15Z"/><path class="l" d="M473.86,28.24s52.45,16.96,112.23,2.88"/><path class="l" d="M471.08,49.92s53.58,17.1,114.63,2.94"/><path class="j" d="M460.86,85.76s-9.07,3.3-9.66,26.74"/><line class="j" x1="450.66" y1="126.2" x2="447.93" y2="238.22"/><line class="j" x1="447.56" y1="250.96" x2="447" y2="272.75"/><line class="j" x1="446.74" y1="285.1" x2="444.95" y2="356.34"/><path class="j" d="M444.65,365.77c.27,10.41,7.27,19.65,17.41,22.56"/><path class="j" d="M593.95,85.53s12.37,7.6,11.94,25.5"/><line class="j" x1="605.77" y1="119.51" x2="605.6" y2="125.97"/><path class="n" d="M583.45,74.43c1.28,2.68,3.04,5.08,5.17,7.4"/><path class="p" d="M615.15,172.83v165.38c0,2.98-30.22,5.4-67.5,5.4s-67.5-2.42-67.5-5.4V152.43c0-1.01,1.05-1.68,1.95-1.25,10.76,5.18,36.05,8.82,65.55,8.82,11.32,0,22.01-.54,31.51-1.49,1.87-.19,3.65,.83,4.43,2.54,2.1,4.65,5.45,14.16,2.37,22.63,0,0,25.31-23.87,29.2-10.87Z"/><path id="g" d="M604.47,286.86c-1.53,1.11-4.57,2.68-10.74,2.17-7.3-.6-10.74,2.17-11.44,2.63-1.93,1.51-2.54,4.02-1.92,6.29l-.46,.09c-2.09-.06-4.14-.76-5.83-2.01-1.94-1.68-3.63-3.74-4.7-5.91-1.51-2.73-3.57-6.62-5.88-11.74-1.02-1.87-2.25-4.81-3.97-8.61-2.34-5.27-4.5-9.63-6.07-12.66-1.75-3.16-3.75-5.95-6.34-8.46-2.4-2.39-5.44-4.01-8.63-4.8,6.01-.26,11.78-1.74,17.33-4.29,4.54-2.03,7.29-6.58,7.25-11.52,.42-5.03-2.01-9.97-6.1-12.81-4.12-3-10.16-4.49-18.2-4.79l-22.46-.57c-.95,.03-2.09-.06-3.07-.18l-3.07-.18c-2.12-.21-4.2,.53-5.83,1.97-1.47,1.41-2.17,3.47-2.08,5.53-.02,3.84,1.06,7.61,3.3,10.83,2.37,3.83,5.6,7.17,9.28,9.62l-.54,22.61c-.03,3.04-.33,6.29-1,9.3-.33,1.5-1.19,2.79-2.48,3.53-1.93,.71-3.8,.93-5.74,.84-.31,.06-.46,.09-.43,.25s.06,.31,.4,.4c2.88,.06,5.12,.08,7.18-.01,.77-.15,1.56-.16,2.55-.04l5.92,.08c1.44,.03,2.58,.12,3.56,.24,2.76,.24,5.98,.39,9.97,.38,.49,.06,.77-.15,.74-.31s-.03-.15-.18-.12l-.49-.06c-2.7,.07-5.49-.33-8.07-1.24-1.75-.76-3.04-2.42-3.26-4.29-.68-3.37-.9-6.84-.78-10.22l.37-17.15c3.81,1.47,7.8,2.26,11.97,2.37,2.58,.12,5.1,1.53,6.63,3.61,2.12,2.6,3.81,5.45,5.05,8.4,1.45,3.22,3.14,7.67,5.02,13.03,.12,.61,.83,2.55,1.91,5.52,.86,2.7,2,5.18,3.17,7.82,2.22,4.66,5.6,8.77,9.75,11.92,3.96,3.03,8.94,4.74,13.91,4.85l1.1-.06c1.08,1.38,2.58,2.51,4.3,3.12,8.9,3.79,16.49-7.64,17.6-9.3,.77-.95,1.16-2.15,1.56-3.35l.52-2.18c-.22-.28-.4-.4-.58-.52q.03,.15,0,0h0Zm-89.68-50.53c-3.53-2.48-6.42-5.73-8.73-9.25-1.88-2.97-3.08-6.56-3.02-10.24-.03-1.75,.58-3.47,1.74-4.82,1.35-1.23,3.28-1.94,5.24-1.7,1.78,.12,3.32,1.41,3.84,3.21,1.02,2.67,1.42,5.46,1.21,8.37l-.28,14.42Zm7.56,4.22l.49-18.93c.06-2.88,.24-5.16,.39-6.78,.06-1.29,.27-2.61,.52-3.77l13.32,.35c4.45-.1,8.9,1.4,12.19,4.24,3.2,3.19,4.89,7.63,4.38,12.2,.04,3.34-.76,6.54-2.41,9.42-1.47,2.21-3.71,3.78-6.28,4.46-3.34,.83-6.9,1.39-10.43,1.31-4.14,.04-8.32-.88-12.15-2.49h0Z"/></g><path class="r" d="M587.19,21.7c0,1.99-26.38,1.8-56.7,1.8s-56.7-3.41-56.7-5.4,26.38-1.8,56.7-1.8,56.7,3.41,56.7,5.4Z"/><path class="m" d="M587.19,21.7c0,1.99-25.48,3.6-55.8,3.6s-57.6-5.21-57.6-7.2,27.28-3.6,57.6-3.6,55.8,5.21,55.8,7.2Z"/></g><path d="M629.39,138.88l-4.97-3.53,20.16-26.09c.92-1.19,.7-2.89-.49-3.81l-2.15-1.66c-1.19-.92-2.89-.7-3.81,.49l-20.37,26.35-5.43-3.86c-.89-.63-2.14-.06-2.24,1.03l-.98,10.41-.98,10.41c-.1,1.09,1.01,1.88,2.01,1.43l9.5-4.36,9.5-4.36c.99-.46,1.12-1.82,.23-2.45Z"/></g></g></svg>