<?xml version="1.0" encoding="UTF-8"?><svg xmlns="http://www.w3.org/2000/svg" viewBox="0 0 687.53 489.91"><defs><style>.j{stroke-width:4px;}.j,.k,.l,.m,.n,.o,.p,.q,.r{stroke-miterlimit:10;}.j,.k,.l,.m,.n,.o,.q,.r{stroke:#000;}.j,.k,.l,.o,.p{fill:none;}.s{fill:#164332;}.l,.m,.p,.r{stroke-linecap:round;}.m{fill:#f0f7fa;}.n{fill:#79bc47;}.n,.q{stroke-width:3px;}.t{fill:#8c6239;opacity:.61;}.o,.r{stroke-width:2px;}.p{stroke:#666;}.q{fill:#d9e021;}.r{fill:#fff;}.u{fill:#666;}</style></defs><g id="a"/><g id="b"><g id="c"><path class="n" d="M16.59,150.11H243.24V469.66c0,10.35-8.4,18.75-18.75,18.75H36.51c-10.99,0-19.91-8.92-19.91-19.91V150.11h0Z"/><path class="q" d="M373.82,152.54h222.01V465.16c0,10.35-8.4,18.75-18.75,18.75h-183.34c-10.99,0-19.91-8.92-19.91-19.91V152.54h0Z"/><path class="s" d="M78.56,388.85l5.97,4.67-5.62,10.77c-2.81,4.97,2.02,9.81,5.1,11.49,3.03,1.66,7.73,1.86,12.12,1.8l7.91-12.93,5.97,3.23-10.37-19.21-21.08,.18Zm.88,26.37l12.83,23.7c2.58,3.29,7.44,4.07,12.48,3.95h13.53v-22.44l-25.65-.18c-3.98,.24-9.2-.6-13.18-5.03Zm80.7-43.67l-6.98,2.96-6.7-10.14c-2.98-4.87-9.55-2.99-12.52-1.11-2.92,1.85-5.37,5.86-7.45,9.73l7.47,13.18-5.72,3.66,21.83,.25,10.07-18.53Zm-23.49-12.01l-26.94-.27c-4.13,.66-7.17,4.53-9.5,9l-6.56,11.83,19.63,10.88,12.59-22.35c1.72-3.6,4.98-7.75,10.79-9.09Zm1.17,91.44l.79-7.54,12.11-.94c5.7-.25,7.25-6.91,7.04-10.41-.2-3.45-2.52-7.54-4.9-11.23l-15.15,.14-.43-6.78-10.8,18.97,11.33,17.79Zm21.9-14.72l13.3-23.43c1.43-3.93-.49-8.46-3.26-12.67l-7.17-11.47-19.03,11.89,13.44,21.85c2.31,3.25,4.37,8.12,2.72,13.84Z"/><path class="s" d="M443.57,393.02l5.85,4.57-5.51,10.55c-2.75,4.87,1.98,9.6,4.99,11.25,2.97,1.62,7.57,1.82,11.88,1.76l7.74-12.66,5.85,3.17-10.15-18.82-20.65,.18Zm.86,25.83l12.56,23.21c2.52,3.22,7.29,3.99,12.22,3.87h13.25v-21.98l-25.13-.18c-3.9,.23-9.01-.59-12.91-4.92Zm79.05-42.78l-6.84,2.9-6.56-9.93c-2.92-4.77-9.36-2.93-12.26-1.09-2.86,1.81-5.26,5.74-7.3,9.53l7.32,12.91-5.61,3.58,21.38,.24,9.86-18.15Zm-23.01-11.77l-26.39-.26c-4.04,.64-7.02,4.44-9.31,8.81l-6.42,11.59,19.23,10.66,12.34-21.89c1.69-3.53,4.88-7.59,10.56-8.9Zm1.15,89.57l.78-7.39,11.87-.92c5.58-.24,7.1-6.77,6.9-10.2-.2-3.38-2.47-7.39-4.8-11l-14.84,.14-.42-6.64-10.58,18.58,11.09,17.42Zm21.45-14.42l13.03-22.96c1.4-3.85-.48-8.29-3.19-12.41l-7.02-11.24-18.64,11.65,13.17,21.4c2.27,3.18,4.28,7.95,2.66,13.56Z"/><g><path d="M70.83,276.88h-6.22l-11.24-34.06h8.66l5.74,19.04,5.64-19.04h8.71l-11.29,34.06Z"/><path d="M85.57,276.88v-34.06h8.37v34.06h-8.37Z"/><path d="M122.64,273.54c-2.34,2.34-5.64,3.35-9.18,3.35h-12.63v-34.06h12.63c3.54,0,6.84,1,9.18,3.35,3.97,3.97,3.54,8.32,3.54,13.68s.43,9.71-3.54,13.68Zm-5.74-21.33c-.76-1.15-1.91-1.91-4.02-1.91h-3.68v19.13h3.68c2.1,0,3.25-.76,4.02-1.91,.67-.96,.91-1.87,.91-7.65s-.24-6.7-.91-7.65Z"/><path d="M149.19,276.88l-6.03-12.68h-2.82v12.68h-8.37v-34.06h13.49c7.56,0,11.62,5.36,11.62,10.95,0,4.64-2.87,7.56-5.55,8.9l7.37,14.21h-9.71Zm-4.11-26.55h-4.74v6.89h4.74c2.3,0,3.64-1.67,3.64-3.44s-1.34-3.44-3.64-3.44Z"/><path d="M163.16,276.88v-34.06h8.37v34.06h-8.37Z"/><path d="M199.8,273.34c-2.49,2.49-5.36,3.83-9.52,3.83s-7.03-1.34-9.52-3.83c-3.59-3.59-3.44-8.37-3.44-13.49s-.14-9.9,3.44-13.49c2.49-2.49,5.36-3.83,9.52-3.83s7.03,1.34,9.52,3.83c3.59,3.59,3.44,8.37,3.44,13.49s.14,9.9-3.44,13.49Zm-6.17-21.86c-.62-.81-1.82-1.48-3.35-1.48s-2.73,.67-3.35,1.48c-.77,1-1.24,2.15-1.24,8.37s.48,7.32,1.24,8.32c.62,.81,1.82,1.53,3.35,1.53s2.73-.72,3.35-1.53c.77-1,1.24-2.1,1.24-8.32s-.48-7.37-1.24-8.37Z"/></g><g><path d="M403.09,265.54h-4.62v10.96h-7.55v-30.73h12.17c6.82,0,10.49,4.84,10.49,9.89s-3.67,9.89-10.49,9.89Zm-.35-12.99h-4.27v6.22h4.27c2.07,0,3.28-1.51,3.28-3.11s-1.21-3.11-3.28-3.11Z"/><path d="M417.99,276.51v-30.73h7.55v24h12.91v6.73h-20.46Z"/><path d="M460.04,276.51l-1.43-4.58h-9.45l-1.51,4.58h-7.9l11.18-30.73h5.83l11.18,30.73h-7.9Zm-6-19.08l-2.76,8.2h5.35l-2.59-8.2Zm1.55-14.68h-4.27l2.12-7.77h7.25l-5.09,7.77Z"/><path d="M479.81,276.76c-4.7,0-8.55-.86-11.65-4.06l4.84-4.84c1.6,1.6,4.4,2.16,6.86,2.16,2.98,0,4.4-.99,4.4-2.76,0-.73-.17-1.34-.61-1.81-.39-.39-1.03-.69-2.03-.82l-3.71-.52c-2.72-.39-4.79-1.3-6.17-2.72-1.43-1.47-2.12-3.54-2.12-6.17,0-5.61,4.23-9.71,11.22-9.71,4.4,0,7.73,1.04,10.36,3.67l-4.75,4.75c-1.94-1.94-4.49-1.81-5.83-1.81-2.63,0-3.71,1.51-3.71,2.85,0,.39,.13,.95,.6,1.43,.39,.39,1.04,.78,2.12,.91l3.71,.52c2.76,.39,4.75,1.25,6.04,2.55,1.64,1.6,2.29,3.88,2.29,6.73,0,6.26-5.4,9.67-11.87,9.67Z"/><path d="M509.95,252.51v24h-7.55v-24h-7.55v-6.74h22.66v6.74h-7.55Z"/><path d="M521.91,276.51v-30.73h7.55v30.73h-7.55Z"/><path d="M546.34,276.76c-3.58,0-6.3-1.21-8.55-3.45-3.24-3.24-3.11-7.55-3.11-12.17s-.13-8.94,3.11-12.17c2.25-2.24,4.96-3.45,8.55-3.45,5.83,0,10.53,3.24,11.65,10.01h-7.68c-.48-1.73-1.42-3.28-3.93-3.28-1.38,0-2.42,.56-2.98,1.29-.69,.91-1.17,1.99-1.17,7.6s.48,6.69,1.17,7.6c.56,.73,1.6,1.29,2.98,1.29,2.5,0,3.45-1.55,3.93-3.28h7.68c-1.12,6.78-5.83,10.01-11.65,10.01Z"/><path d="M581.27,273.31c-2.25,2.24-4.84,3.45-8.59,3.45s-6.34-1.21-8.59-3.45c-3.24-3.24-3.11-7.55-3.11-12.17s-.13-8.94,3.11-12.17c2.25-2.24,4.84-3.45,8.59-3.45s6.34,1.21,8.59,3.45c3.24,3.24,3.11,7.55,3.11,12.17s.13,8.94-3.11,12.17Zm-5.57-19.73c-.56-.73-1.64-1.34-3.02-1.34s-2.46,.6-3.02,1.34c-.69,.91-1.12,1.94-1.12,7.55s.43,6.6,1.12,7.51c.56,.73,1.64,1.38,3.02,1.38s2.46-.65,3.02-1.38c.69-.91,1.12-1.9,1.12-7.51s-.43-6.65-1.12-7.55Z"/></g><g><ellipse class="j" cx="106.83" cy="60.06" rx="29.16" ry="17.3" transform="translate(-15.03 47.02) rotate(-23.23)"/><path class="n" d="M1.07,60.17H220.44c4.73,0,8.57,3.84,8.57,8.57v13.05H-5.97v-14.58c0-3.88,3.15-7.04,7.04-7.04Z" transform="translate(-18.96 49.75) rotate(-23.23)"/></g><g><ellipse class="j" cx="473.77" cy="43.25" rx="28.57" ry="16.94" transform="translate(21.36 190.41) rotate(-23.23)"/><path class="q" d="M370.32,43.36h214.56c4.73,0,8.57,3.84,8.57,8.57v12.61h-230.17v-14.14c0-3.88,3.15-7.04,7.04-7.04Z" transform="translate(17.52 193.09) rotate(-23.23)"/></g><g id="d"><g id="e"><g id="f"><path d="M606.01,61.94l-1.78-2.13c-.61-.75-.77-1.81-.36-2.75,.54-1.21,1.83-2.95,4.71-5.33l16.74-13.83,.19-.15c1.03-.99,10.23-10.49,4.18-17.86h0c-6.09-7.32-17.21-.04-18.31,.75l-.19,.15-16.7,13.78c-2.88,2.39-4.88,3.31-6.13,3.62-.97,.23-1.98-.09-2.59-.84l-1.78-2.13c-1.35-1.81-3.83-2.41-5.86-1.45-.2,.07-.39,.22-.54,.33l-12.55,10.37c-1.12,.92-1.3,2.53-.35,3.61h0l12.55,15.12h0l12.55,15.12c.92,1.12,2.57,1.26,3.66,.39h0l12.55-10.37c.19-.15,.29-.29,.43-.48,1.3-1.74,1.14-4.27-.4-5.93Z"/><line x1="584.41" y1="35.83" x2="606.05" y2="61.9"/></g><ellipse class="u" cx="574.95" cy="42.66" rx="8.26" ry=".18" transform="translate(104.79 376.34) rotate(-39.61)"/><ellipse class="u" cx="578.58" cy="47.04" rx="8.26" ry=".18" transform="translate(102.84 379.66) rotate(-39.61)"/><ellipse class="u" cx="582.38" cy="51.57" rx="8.26" ry=".18" transform="translate(100.82 383.12) rotate(-39.61)"/><ellipse class="u" cx="585.83" cy="55.76" rx="8.26" ry=".18" transform="translate(98.95 386.28) rotate(-39.61)"/><ellipse class="u" cx="589.28" cy="59.95" rx="8.26" ry=".18" transform="translate(97.07 389.45) rotate(-39.61)"/><ellipse class="u" cx="593.77" cy="65.43" rx="8.26" ry=".18" transform="translate(94.6 393.57) rotate(-39.61)"/><ellipse class="u" cx="596.94" cy="69.24" rx="8.26" ry=".18" transform="translate(92.9 396.46) rotate(-39.61)"/></g><path class="p" d="M623.03,20.19c-1.24-.49-2.6-.62-3.9-.35"/><path class="p" d="M616.78,21.02s-4.36,2.52-5.64,3.54"/><line class="p" x1="609.84" y1="25.63" x2="608.56" y2="26.66"/><line class="p" x1="607.22" y1="27.77" x2="599.26" y2="34.34"/></g><g><rect class="r" x="584.78" y="86.11" width="97.21" height="41.66" transform="translate(4.27 236.64) rotate(-21.23)"/><path id="g" d="M650.1,108.63c-.26,.46-.86,1.22-2.5,1.81-1.94,.7-2.5,1.81-2.62,2.01-.32,.61-.18,1.33,.24,1.84l-.11,.08c-.54,.23-1.15,.29-1.73,.16-.69-.21-1.36-.53-1.89-.97-.7-.52-1.69-1.28-2.87-2.32-.48-.36-1.14-.97-2.02-1.74-1.21-1.08-2.27-1.94-3.03-2.53-.82-.6-1.65-1.08-2.61-1.43-.89-.33-1.86-.39-2.77-.22,1.51-.77,2.81-1.82,3.94-3.12,.92-1.05,1.1-2.53,.51-3.79-.48-1.34-1.68-2.32-3.06-2.57-1.4-.29-3.13,.04-5.22,.9l-5.82,2.47c-.24,.12-.54,.23-.81,.31l-.81,.31c-.57,.19-1.01,.63-1.26,1.18-.21,.53-.15,1.14,.11,1.66,.44,.98,1.16,1.82,2.11,2.39,1.05,.7,2.27,1.18,3.5,1.38l2.5,5.85c.35,.78,.65,1.65,.83,2.5,.09,.42,.02,.85-.22,1.19-.41,.41-.87,.68-1.37,.88-.07,.05-.11,.08-.08,.11s.05,.07,.15,.06c.74-.32,1.32-.58,1.84-.84,.18-.13,.38-.22,.65-.31l1.53-.67c.37-.16,.67-.27,.94-.35,.74-.26,1.58-.6,2.6-1.07,.13-.04,.18-.13,.15-.16s-.03-.04-.06,0l-.13,.04c-.68,.33-1.44,.56-2.21,.62-.54,0-1.06-.26-1.33-.72-.57-.78-1.03-1.65-1.39-2.52l-1.91-4.43c1.15-.07,2.26-.33,3.34-.79,.67-.27,1.48-.2,2.12,.15,.85,.42,1.61,.95,2.27,1.56,.75,.66,1.7,1.6,2.81,2.75,.1,.14,.51,.55,1.13,1.19,.54,.59,1.12,1.09,1.72,1.63,1.11,.93,2.46,1.59,3.88,1.91,1.37,.31,2.84,.17,4.13-.38l.28-.14c.44,.23,.95,.34,1.47,.3,2.72-.07,3.33-3.88,3.42-4.43,.08-.33,.05-.69,0-1.04l-.12-.62c-.09-.05-.15-.06-.21-.07t0,0h0Zm-28.85-2.48c-1.19-.22-2.31-.72-3.31-1.35-.83-.54-1.55-1.32-1.97-2.27-.21-.44-.26-.96-.12-1.44,.2-.47,.61-.88,1.14-1.05,.47-.18,1.01-.03,1.36,.38,.57,.56,1,1.23,1.29,2l1.61,3.72Zm2.43,.2l-2.08-4.9c-.32-.74-.54-1.35-.69-1.78-.14-.34-.23-.7-.31-1.03l3.45-1.46c1.13-.54,2.44-.68,3.62-.33,1.19,.44,2.14,1.38,2.54,2.61,.4,.85,.57,1.76,.48,2.69-.12,.74-.51,1.4-1.09,1.87-.76,.6-1.6,1.16-2.52,1.55-1.06,.49-2.23,.75-3.4,.78h0Z"/></g><g id="h"><path class="o" d="M216.56,77.48c.19-1.14-.14-1.73,.55-2.47l1.46-1.57c.3-.32,.68-.56,1.11-.7,.73-.24,1.91-.69,2.54-1.33h0l44.75-47.96-5.35-4.99-44.75,47.96h0c-.59,.67-.96,1.88-1.15,2.63-.11,.43-.32,.83-.62,1.15l-1.46,1.57c-.69,.74-1.3,.45-2.43,.72s-1.06,1.14-1.06,1.14c.22,1.53,.92,2.62,1.74,3.4h0s.03,.03,.04,.04c.01,.01,.03,.03,.04,.04h0c.83,.77,1.97,1.39,3.51,1.5,0,0,.87,0,1.06-1.14Z"/></g><g><g id="i"><path class="t" d="M312.71,51.52l-1.59,.84-.44,.27-.17-.22c-.13-.19-.3-.34-.52-.43-1.03-.48-4.11-1.46-4.1,2.91l-1.62,1.06s-1.71,1.16-6.63-.82c0,0-2.94-1.59-6.52,.57,0,0-53,33.15-57.53,37.63,0,0-6.68,4.93,5.9,23.44,12.33,18.71,19.47,14.4,19.47,14.4,5.86-2.49,56.67-38.94,56.67-38.94,3.35-2.51,3.03-5.83,3.03-5.83,.03-5.27,1.75-6.43,1.75-6.43l1.62-1.06c3.89,1.57,4.25-1.3,4.24-2.54,0-.32-.11-.66-.28-.94l-.07-.12,.44-.27,1.37-.87"/><path class="o" d="M312.71,51.52l-1.59,.84-.44,.27-.17-.22c-.13-.19-.3-.34-.52-.43-1.03-.48-4.11-1.46-4.1,2.91l-1.62,1.06s-1.71,1.16-6.63-.82c0,0-2.94-1.59-6.52,.57,0,0-53,33.15-57.53,37.63,0,0-6.68,4.93,5.9,23.44,12.33,18.71,19.47,14.4,19.47,14.4,5.86-2.49,56.67-38.94,56.67-38.94,3.35-2.51,3.03-5.83,3.03-5.83,.03-5.27,1.75-6.43,1.75-6.43l1.62-1.06c3.89,1.57,4.25-1.3,4.24-2.54,0-.32-.11-.66-.28-.94l-.07-.12,.44-.27,1.37-.87"/><path class="o" d="M310.55,52.5s4.1,13.11,15.57,23.24"/><path class="o" d="M305.74,55.05s4.24,13.36,15.91,23.74"/><path class="l" d="M296.98,58.14s-1.98-1.37-6.83,1.88"/><line class="l" x1="287.28" y1="61.89" x2="264.1" y2="77.46"/><line class="l" x1="261.46" y1="79.22" x2="256.94" y2="82.24"/><line class="l" x1="254.39" y1="83.97" x2="239.64" y2="93.86"/><path class="l" d="M237.68,95.16c-2.08,1.55-2.95,4.31-2.08,6.79"/><path class="l" d="M316.19,85.18s.23,3.61-3.47,6.1"/><line class="l" x1="310.98" y1="92.47" x2="309.64" y2="93.37"/><path class="m" d="M316.93,81.44c-.36,.65-.59,1.35-.76,2.12"/></g><path class="t" d="M328.2,74.61c-.4,.29-4.16-5.11-8.53-11.28s-7.47-12.03-7.07-12.31,4.16,5.11,8.53,11.28c4.37,6.17,7.47,12.03,7.07,12.31Z"/><path class="k" d="M328.2,74.61c-.4,.29-4.4-4.66-8.77-10.83-4.37-6.17-7.23-12.47-6.83-12.75s4.66,5.03,9.03,11.2c4.37,6.17,6.97,12.1,6.57,12.39Z"/></g></g></g></svg>