<?xml version="1.0" encoding="UTF-8"?><svg xmlns="http://www.w3.org/2000/svg" viewBox="0 0 592.35 131.15"><defs><style>.n{fill:#9b532b;}</style></defs><g id="a"/><g id="b"><g id="c"><g id="d"><g id="e"><g id="f"><g id="g"><g id="h"><g id="i"><g><g id="j" transform="translate(-102.044 -60.744)"><g id="k" transform="translate(102.044 60.744)"><path id="l" class="n" d="M111.27,90.92c-4.41-2.55-8.1-6.19-10.7-10.58-2.65-4.36-4.04-9.37-4.01-14.47-.07-5.96,1.55-11.82,4.65-16.92,3.07-5.04,7.42-9.18,12.62-11.98,5.33-2.91,11.31-4.41,17.38-4.36,5.18-.07,10.27,1.36,14.65,4.13,4.32,2.73,7.84,6.53,10.23,11.04,2.46,4.55,3.74,9.65,3.72,14.82,.08,5.82-1.43,11.54-4.36,16.57-2.87,4.89-7.06,8.88-12.09,11.51-5.48,2.83-11.57,4.25-17.73,4.13-5.05,.02-10.01-1.33-14.36-3.9h0Zm32.15-1.71c2.8-1.83,5.04-4.41,6.45-7.44,1.53-3.21,2.3-6.73,2.27-10.29-.06-5.67-1.39-11.25-3.9-16.33-2.46-5.29-6.12-9.93-10.7-13.54-4.29-3.48-9.65-5.37-15.17-5.35-3.31-.05-6.56,.92-9.3,2.79-2.76,1.91-4.96,4.52-6.4,7.56-1.58,3.3-2.37,6.92-2.33,10.58,.07,5.63,1.51,11.15,4.19,16.1,2.65,5.22,6.42,9.78,11.04,13.37,4.07,3.34,9.15,5.21,14.42,5.29,3.34,.04,6.62-.91,9.42-2.73h0Z"/><path id="m" class="n" d="M292.72,86.44c-.23-.13-.52-.05-.65,.18h0c-.94,1.47-1.99,2.86-3.15,4.16-.81,.86-1.96,1.34-3.15,1.31-1.29-.06-2.44-.84-2.97-2.02-.85-1.51-1.41-3.16-1.66-4.87l-5.94-33.38c-1.43-7.92-4.06-13.23-7.9-15.92-3.84-2.69-8.73-4.04-14.67-4.04-5.39-.16-10.72,1.14-15.44,3.74-4.49,2.71-8.25,6.48-10.93,10.99-3.01,4.83-7.07,13.9-9.76,21.58-.02,.04-.04,.09-.05,.14-.41,1.23-3.61,10.55-6.33,13.73-1.52,1.95-3.54,3.44-5.85,4.32-3.19,.9-6.5,1.3-9.82,1.18-1.8,.02-3.59-.11-5.37-.39-1.54-.26-3.33-.65-5.36-1.18-1.98-.47-3.62-.82-4.93-1.05-1.49-.25-2.99-.36-4.49-.35-2.25,.01-4.45,.71-6.29,2,.17-.17,1.02-.96,2.53-2.36,1.86-1.63,5.38-4.57,10.56-8.81,2.33-1.8,4.91-3.92,7.77-6.37l2.09-1.83c3.93-3.29,7.68-6.8,11.21-10.51,2.66-2.97,4.74-6.4,6.15-10.12,1.7-4.74,2.5-9.76,2.36-14.79,.06-.05,.07-.14,.02-.21-.03-.03-.07-.05-.11-.06h-26.61c-5.23,0-8.73-.99-10.47-2.97-.04-.11-.15-.17-.26-.17-.08-.01-.16,.05-.17,.13v.04l-3.69,16.39h.84l.06-.25c.47-1.98,1.95-3.93,4.45-5.85,5.69-4.14,12.51-6.42,19.55-6.54h8.55c.08,5.03-.3,10.05-1.13,15.01-.72,3.93-2.17,7.69-4.28,11.08-2.5,3.83-5.6,7.25-9.16,10.12-.93,.76-1.99,1.63-3.18,2.62s-2.51,2.06-3.97,3.23l-11,9.16c-1.68,1.38-3.21,2.93-4.58,4.62-1.12,1.47-2.05,3.09-2.75,4.8-.06,.29,.03,.45,.26,.48,.22,.03,.44-.09,.52-.31,.29-.64,.73-1.48,1.31-2.53,.98-1.5,2.29-2.75,3.84-3.66,1.65-1.04,3.55-1.58,5.5-1.57,1.42-.02,2.82,.34,4.06,1.05,1.55,.96,3.03,2.04,4.41,3.23,1.65,1.46,3.45,2.74,5.37,3.84,1.73,.9,3.67,1.35,5.63,1.31,3.4,.13,6.76-.72,9.69-2.44,2.69-1.77,4.92-4.17,6.5-6.98,2.63-4.9,4.96-9.96,6.97-15.15,.26-.74,.58-1.47,.77-2.12,3.64-10.55,9.06-21.26,13.94-26.72,4.95-5.54,11.42-8.31,19.42-8.32,3.25,0,6.2,1.54,8.85,4.63s4.58,7.41,5.76,12.95c.17,2.35-.75,4.65-2.49,6.24-1.99,1.9-4.31,3.43-6.83,4.51-2.73,1.23-6.44,2.67-11.11,4.34-4.91,1.82-8.81,3.41-11.7,4.75-2.71,1.22-5.2,2.89-7.37,4.93-1.93,1.74-3.03,4.23-3.03,6.83-.12,3.54,1.47,6.93,4.28,9.09,3.11,2.34,6.92,3.54,10.81,3.39,5.37,.08,10.63-1.54,15.03-4.63,4.39-3.08,7.96-7.17,10.4-11.94,2.48-4.69,3.94-9.85,4.28-15.15l4.04,21.62c.48,2.54,1.61,4.91,3.27,6.89,1.62,1.9,4.1,2.85,7.42,2.85,2.16,.11,4.3-.52,6.06-1.78,1.79-1.54,3.28-3.39,4.4-5.47,.1-.26-.03-.55-.29-.65h-.04Zm-28.57-12.48c-1.74,4.51-4.43,8.58-7.9,11.94-3.29,3.09-6.83,4.63-10.63,4.63-3.17,.14-6.3-.76-8.91-2.55-2.24-1.59-3.54-4.2-3.45-6.95-.06-2.59,.8-5.12,2.44-7.13,1.64-2,3.66-3.65,5.94-4.87,2.33-1.27,5.48-2.73,9.45-4.4,3.58-1.4,7.04-3.09,10.34-5.05,2.21-1.25,3.9-3.25,4.75-5.64l.95,4.99c0,5.16-1.01,10.26-2.97,15.03h-.01Z"/><path class="n" d="M153.49,105.02c-1.76,1.82-5.59,4.75-14.36,5.65-10.15,1.04-14.32,5.64-15.1,6.61-.5,.62-3.15,4.81-1.44,8.52-1.96,.55-4,.82-6.08,.75-3.06,.05-6.06-.92-8.51-2.75-2.91-2.35-5.36-5.21-7.24-8.45-2.37-3.8-5.43-9.45-9.18-16.96-1.43-2.77-3.48-6.93-6.17-12.47-3.75-7.69-6.93-13.79-9.52-18.3-2.53-4.43-5.72-8.45-9.45-11.93-3.56-3.36-8-5.66-12.8-6.63,9.83-.9,18.16-3.22,25-6.97s10.26-9.43,10.26-17.03c0-8.13-3.13-14.28-9.39-18.43C73.25,2.48,64.36,.4,52.83,.4H20.12c-1.16,0-2.64-.09-4.42-.27l-4.56-.13C7.38,0,4.59,1.01,2.76,3.02,.86,5.22-.13,8.08,.01,10.99,.01,16.17,1.73,21.42,5.17,26.74c3.62,5.5,8.34,10.18,13.87,13.74v32.98c0,6.26-.33,10.77-1.01,13.54s-1.85,4.56-3.55,5.36c-1.7,.81-4.51,1.25-8.45,1.34-.45,0-.67,.16-.67,.47s.22,.47,.67,.47c4.11,0,7.6-.09,10.46-.27,.89-.09,2.1-.13,3.62-.13h8.71c2.14,0,3.84,.04,5.09,.13,3.93,.18,8.8,.27,14.61,.27,.71,0,1.07-.18,1.07-.54,0-.09-.11-.18-.34-.27s-.49-.14-.74-.13c-5.45-.09-9.39-.6-11.8-1.54s-4.09-2.93-5.03-5.97-1.41-8-1.41-14.88v-25.07c5.64,2,11.58,3.04,17.56,3.08,3.57,0,6.81,1.66,9.72,4.96,3.13,3.66,5.72,7.74,7.71,12.13,2.23,4.78,4.83,11.02,7.77,18.7,.36,.98,1.38,3.64,3.08,7.98,1.46,3.81,3.12,7.55,4.96,11.19,3.4,6.77,8.42,12.59,14.61,16.96,5.98,4.27,13.16,6.55,20.51,6.5,2.37,.06,4.72-.23,7-.86,1.2,1.63,3.44,3.07,7.34,3.94,13.31,2.97,20.99-14.83,22.12-17.35,1.15-2.57,1.3-4.95,1.3-4.95l.15-3.23c.02-.34-.4-.53-.64-.28h.03ZM19.04,39.01c-5.19-3.49-9.62-8.01-13-13.27C2.83,20.64,1.22,15.73,1.21,10.99c-.15-2.61,.72-5.18,2.41-7.17,1.6-1.74,4.11-2.61,7.51-2.61,2.5,0,4.45,1.5,5.83,4.49,1.38,2.99,2.08,7.04,2.08,12.13v21.18Zm11.26,5.9V17.02c0-4.29,.07-7.57,.2-9.85,.08-1.87,.32-3.73,.74-5.56h19.44c7.33,0,13.32,2.03,17.96,6.1,4.65,4.07,6.97,9.85,6.97,17.36,0,6.08-1.07,10.75-3.22,14.01-2.14,3.26-5.33,5.67-9.05,6.84-4.94,1.47-10.06,2.26-15.21,2.35-6.1,0-12.15-1.12-17.83-3.35h0Z"/></g></g><g><path class="n" d="M378.29,93.32c0,.27-.19,.4-.57,.4-2.83,0-5.23-.08-7.22-.23-.54-.08-1.38-.11-2.52-.11h-5.84c-1.22,0-2.14,.04-2.75,.11-1.83,.15-4.16,.23-6.99,.23-.31,0-.46-.13-.46-.4s.15-.4,.46-.4c3.21-.08,5.4-.53,6.59-1.38,1.18-.84,1.78-2.33,1.78-4.47,0-.69-.23-2.63-.69-5.84l-3.78-22.8c-1.3-7.87-2.94-13.25-4.93-16.16-1.99-2.9-4.62-4.35-7.91-4.35-3.74,0-7.39,1.91-10.94,5.73s-6.63,9.3-9.23,16.44-4.39,15.41-5.39,24.81c.08,2.06,.36,3.65,.86,4.76s1.38,1.93,2.64,2.46c1.26,.54,3.11,.8,5.56,.8,.38,0,.57,.13,.57,.4s-.19,.4-.57,.4c-2.83,0-5.23-.08-7.22-.23-.54-.08-1.38-.11-2.52-.11h-5.73c-1.22,0-2.14,.04-2.75,.11-1.83,.15-4.16,.23-6.99,.23-.31,0-.46-.13-.46-.4s.15-.4,.46-.4c2.9,0,4.98-.36,6.25-1.09,1.26-.73,2.06-1.85,2.41-3.38,.34-1.53,.52-3.97,.52-7.33v-27.04c0-4.51-.54-7.89-1.6-10.14-1.07-2.25-3.09-3.38-6.07-3.38-.15-.08-.23-.21-.23-.4s.08-.32,.23-.4c5.19-.99,9.82-2.64,13.87-4.93,.08-.08,.19-.13,.34-.17,.15-.04,.27,.02,.34,.17v20.74l-1.83,30.94h.57c1.3-11.76,3.53-21.5,6.7-29.22s6.8-13.37,10.89-16.96c4.09-3.59,8.23-5.39,12.43-5.39,3.59,0,6.45,.9,8.59,2.69,2.14,1.8,3.82,4.47,5.04,8.02s2.33,8.39,3.32,14.5l3.55,21.09c.61,3.52,1.16,5.98,1.66,7.39,.5,1.41,1.39,2.48,2.69,3.21,1.3,.73,3.4,1.09,6.3,1.09,.38,0,.57,.13,.57,.4h0Z"/><path class="n" d="M439.83,65.22c.15,0,.27,.08,.34,.23,.08,.15,.08,.34,0,.57-3.13,8.86-7.47,15.66-13.01,20.4s-12.32,7.11-20.34,7.11c-5.43,0-10.28-1.28-14.55-3.84-4.28-2.56-7.6-6-9.97-10.31-2.37-4.32-3.55-9-3.55-14.04,0-5.42,1.22-10.56,3.67-15.41,2.44-4.85,5.94-8.77,10.49-11.75,4.54-2.98,9.84-4.47,15.87-4.47,3.82,0,7.43,.52,10.83,1.55s6.13,2.48,8.19,4.35,3.09,4.03,3.09,6.47c0,3.06-1.05,5.48-3.15,7.28s-4.64,3.09-7.62,3.9c-2.98,.8-6.95,1.62-11.92,2.46-3.36,.54-6,1.03-7.91,1.49-4.2,.92-7.39,2.2-9.57,3.84s-3.08,3.99-2.69,7.05c1.83,5.04,4.76,9.13,8.77,12.26,4.01,3.13,9.03,4.7,15.07,4.7,6.34,0,11.84-2.02,16.5-6.07s8.29-9.82,10.89-17.3c.08-.3,.27-.46,.57-.46h0Zm-52.71,2.98c.46-2.44,1.81-4.37,4.07-5.79,2.25-1.41,5.25-2.5,9-3.27l4.24-.92c4.05-.76,7.29-1.53,9.74-2.29,2.44-.76,4.51-1.99,6.19-3.67s2.52-3.97,2.52-6.88c0-3.28-1.17-6.05-3.5-8.31-2.33-2.25-5.86-3.38-10.6-3.38-4.43,0-8.37,1.09-11.8,3.27-3.44,2.18-6.11,5.23-8.02,9.17s-2.86,8.46-2.86,13.58c0,2.9,.34,5.73,1.03,8.48h-.01Z"/><path class="n" d="M547.43,35.02c0,.27-.19,.4-.57,.4-5.81,0-10.83,.08-15.07,.23-4.24,.15-6.59,.61-7.05,1.38-.23,.31-.21,.63,.06,.97s.78,.82,1.55,1.43c1.76,1.6,3.23,3.38,4.41,5.33,1.18,1.95,1.78,4.53,1.78,7.74s-.82,6.99-2.46,10.89-3.61,7.64-5.9,11.23c-2.29,3.59-5.35,8.14-9.17,13.64l-3.44,5.16h-1.95l-21.31-52.6h-.69c.15,.46,.5,1.38,1.03,2.75,.53,1.38,.95,2.83,1.26,4.35,.3,1.53,.46,3.09,.46,4.7,0,5.81-1.3,11.86-3.9,18.16s-5.96,12.28-10.08,17.93l-3.44,4.7h-2.06l-17.42-42.17c-1.76-4.28-3.27-7.51-4.53-9.68-1.26-2.18-2.62-3.74-4.07-4.7-1.45-.95-3.29-1.43-5.5-1.43-.31,0-.46-.13-.46-.4s.15-.4,.46-.4c2.21,0,3.99,.06,5.33,.17,1.34,.11,2.39,.17,3.15,.17h5.84c1.3,0,2.33-.04,3.09-.11,2.44-.15,5.46-.23,9.05-.23,.38,0,.57,.13,.57,.4s-.19,.4-.57,.4c-2.83,0-4.87,.4-6.13,1.2s-1.89,2.12-1.89,3.95c0,2.29,.99,5.84,2.98,10.66l15.01,36.21c9.01-12.76,13.52-24.45,13.52-35.07,0-1.83-.17-3.48-.52-4.93-.34-1.45-.94-3.17-1.78-5.16-.99-2.6-2.25-4.39-3.78-5.39-1.53-.99-3.51-1.49-5.96-1.49-.31,0-.46-.13-.46-.4s.15-.4,.46-.4l6.19,.11c2.44,.15,4.74,.23,6.88,.23h30.14l10.77-.11c7.33-.15,12.53-.23,15.58-.23,.38,0,.57,.13,.57,.4h.02Zm-23.78,3.98c-5.23-2.14-9.99-3.21-14.27-3.21h-6.07c-2.29,0-3.94,.34-4.93,1.03s-1.49,1.87-1.49,3.55c0,2.22,.92,5.62,2.75,10.2l14.9,36.56c4.97-6.95,9.03-13.27,12.2-18.97,3.17-5.69,4.76-10.94,4.76-15.76,0-6.8-2.62-11.27-7.85-13.41h0Z"/><path class="n" d="M588.11,67.8c2.83,2.71,4.24,6.09,4.24,10.14,0,4.74-2.23,8.5-6.7,11.29-4.47,2.79-9.91,4.18-16.33,4.18-5.27,0-10.22-1.09-14.84-3.27-4.62-2.18-7.7-4.72-9.22-7.62,2.83-3.51,4.79-6.15,5.9-7.91,1.11-1.76,2.5-4.43,4.18-8.02,.23-.38,.46-.57,.69-.57,.15,0,.27,.1,.34,.29,.08,.19,.08,.4,0,.63-2.06,4.2-3.63,7.18-4.7,8.94,.69,5.04,2.46,9.05,5.33,12.03s6.93,4.47,12.2,4.47c4.28,.15,8.12-.76,11.52-2.75s5.1-4.81,5.1-8.48c0-2.9-.88-5.46-2.64-7.68-1.76-2.21-4.2-3.97-7.33-5.27-2.68-1.07-5.27-2.02-7.79-2.86-.69-.23-1.59-.53-2.69-.92-1.11-.38-2.39-.88-3.84-1.49-3.97-1.76-7.01-3.84-9.11-6.25s-3.15-5.44-3.15-9.11c0-2.83,1.03-5.29,3.09-7.39s4.62-3.7,7.68-4.81c3.05-1.11,5.96-1.66,8.71-1.66,4.58,0,9.03,.92,13.35,2.75,4.32,1.83,7.47,4.24,9.45,7.22-4.13,4.2-7.45,9.21-9.97,15.01-.08,.23-.23,.34-.46,.34s-.38-.09-.46-.29c-.08-.19-.04-.4,.11-.63,1.22-2.67,2.37-4.89,3.44-6.65,.08-.53,.11-1.34,.11-2.41,0-4.2-1.51-7.64-4.53-10.31-3.02-2.67-6.78-4.01-11.29-4.01-3.67,0-6.8,1.01-9.4,3.04-2.6,2.03-3.9,4.6-3.9,7.74,0,4.74,2.86,8.33,8.59,10.77,1.76,.76,4.62,1.83,8.6,3.21l4.01,1.49c4.97,1.83,8.86,4.11,11.69,6.82h.02Z"/></g></g></g></g></g></g></g></g></g></g></svg>