<svg width="1380" height="1080" viewBox="0 0 1380 1080" fill="none" xmlns="http://www.w3.org/2000/svg">
<path d="M1529.79 35.6968L629.675 -306.139L175.95 886.066L1076.07 1227.9L1529.79 35.6968Z" stroke="black" stroke-miterlimit="10"/>
<path d="M607.71 22.6375L697.025 56.5375" stroke="black" stroke-miterlimit="10" stroke-linecap="round"/>
<path d="M717.358 64.2804L861.891 119.17" stroke="black" stroke-miterlimit="10" stroke-linecap="round" stroke-dasharray="9.12 5.7 22.79 5.7"/>
<path d="M872.036 123.026L1240.45 262.976" stroke="black" stroke-miterlimit="10" stroke-linecap="round" stroke-dasharray="56.99 5.7 9.12 5.7 22.79 5.7"/>
<path d="M1250.63 266.826L1339.95 300.764" stroke="black" stroke-miterlimit="10" stroke-linecap="round"/>
<path d="M592.755 61.9105L607.063 67.3379" stroke="black" stroke-miterlimit="10" stroke-linecap="round"/>
<path d="M626.814 74.8267L933.204 191.211" stroke="black" stroke-miterlimit="10" stroke-linecap="round" stroke-dasharray="66.4 5.53 11.07 5.53"/>
<path d="M943.06 194.958L1300.83 330.824" stroke="black" stroke-miterlimit="10" stroke-linecap="round" stroke-dasharray="8.85 5.53 66.4 5.53 11.07 5.53"/>
<path d="M1310.69 334.609L1325 340.037" stroke="black" stroke-miterlimit="10" stroke-linecap="round"/>
<path d="M577.839 101.177L592.109 106.611" stroke="black" stroke-miterlimit="10" stroke-linecap="round"/>
<path d="M601.965 110.358L922.576 232.106" stroke="black" stroke-miterlimit="10" stroke-linecap="round" stroke-dasharray="9.21 4.6 73.64 4.6"/>
<path d="M930.783 235.23L1287.52 370.721" stroke="black" stroke-miterlimit="10" stroke-linecap="round" stroke-dasharray="7.36 2.76 9.21 4.6 73.64 4.6"/>
<path d="M1295.77 373.839L1310.04 379.272" stroke="black" stroke-miterlimit="10" stroke-linecap="round"/>
<path d="M562.878 140.413L687.912 187.928" stroke="black" stroke-miterlimit="10" stroke-linecap="round"/>
<path d="M706.427 194.959L789.892 226.67" stroke="black" stroke-miterlimit="10" stroke-linecap="round" stroke-dasharray="5.19 5.19 10.38 5.19"/>
<path d="M799.165 230.163L1160.81 367.53" stroke="black" stroke-miterlimit="10" stroke-linecap="round" stroke-dasharray="72.69 5.19 5.19 5.19 10.38 5.19"/>
<path d="M1170.09 371.061L1295.12 418.539" stroke="black" stroke-miterlimit="10" stroke-linecap="round"/>
<path d="M549.287 176.14L593.941 193.071" stroke="black" stroke-miterlimit="10" stroke-linecap="round"/>
<path d="M610.437 199.344L865.942 296.398" stroke="black" stroke-miterlimit="10" stroke-linecap="round" stroke-dasharray="27.69 4.62 36.92 4.62"/>
<path d="M874.187 299.516L1228.62 434.141" stroke="black" stroke-miterlimit="10" stroke-linecap="round" stroke-dasharray="23.08 4.62 27.69 4.62 36.92 4.62"/>
<path d="M1236.87 437.297L1281.52 454.228" stroke="black" stroke-miterlimit="10" stroke-linecap="round"/>
<path d="M534.326 215.375L543.274 218.766" stroke="black" stroke-miterlimit="10" stroke-linecap="round"/>
<path d="M557.87 224.302L885.873 348.918" stroke="black" stroke-miterlimit="10" stroke-linecap="round" stroke-dasharray="65.31 4.08 20.41 4.08"/>
<path d="M893.171 351.686L1250.36 487.336" stroke="black" stroke-miterlimit="10" stroke-linecap="round" stroke-dasharray="4.08 4.08 65.31 4.08 20.41 4.08"/>
<path d="M1257.66 490.104L1266.57 493.501" stroke="black" stroke-miterlimit="10" stroke-linecap="round"/>
<path d="M519.41 254.642L680.151 315.697" stroke="black" stroke-miterlimit="10" stroke-linecap="round"/>
<path d="M690.954 319.794L782.833 354.712" stroke="black" stroke-miterlimit="10" stroke-linecap="round" stroke-dasharray="6.05 3.03 15.13 3.03"/>
<path d="M788.231 356.742L1085.47 469.651" stroke="black" stroke-miterlimit="10" stroke-linecap="round" stroke-dasharray="54.47 3.03 6.05 3.03 15.13 3.03"/>
<path d="M1090.91 471.713L1251.61 532.774" stroke="black" stroke-miterlimit="10" stroke-linecap="round"/>
<path d="M504.455 293.915L549.116 310.884" stroke="black" stroke-miterlimit="10" stroke-linecap="round"/>
<path d="M567.054 317.698L816.702 412.525" stroke="black" stroke-miterlimit="10" stroke-linecap="round" stroke-dasharray="7.04 5.03 55.31 5.03"/>
<path d="M825.687 415.911L1183.05 551.649" stroke="black" stroke-miterlimit="10" stroke-linecap="round" stroke-dasharray="25.14 5.03 7.04 5.03 55.31 5.03"/>
<path d="M1192.04 555.072L1236.7 572.041" stroke="black" stroke-miterlimit="10" stroke-linecap="round"/>
<path d="M459.623 411.69L548.906 445.634" stroke="black" stroke-miterlimit="10" stroke-linecap="round"/>
<path d="M569.271 453.333L713.767 508.229" stroke="black" stroke-miterlimit="10" stroke-linecap="round" stroke-dasharray="9.12 5.7 22.79 5.7"/>
<path d="M723.956 512.116L1092.36 652.029" stroke="black" stroke-miterlimit="10" stroke-linecap="round" stroke-dasharray="56.99 5.7 9.12 5.7 22.79 5.7"/>
<path d="M1102.55 655.917L1191.83 689.823" stroke="black" stroke-miterlimit="10" stroke-linecap="round"/>
<path d="M444.669 450.963L458.977 456.391" stroke="black" stroke-miterlimit="10" stroke-linecap="round"/>
<path d="M478.733 463.917L785.08 580.269" stroke="black" stroke-miterlimit="10" stroke-linecap="round" stroke-dasharray="66.4 5.53 11.07 5.53"/>
<path d="M794.974 584.011L1152.75 719.915" stroke="black" stroke-miterlimit="10" stroke-linecap="round" stroke-dasharray="8.85 5.53 66.4 5.53 11.07 5.53"/>
<path d="M1162.6 723.662L1176.91 729.09" stroke="black" stroke-miterlimit="10" stroke-linecap="round"/>
<path d="M429.714 490.236L444.022 495.664" stroke="black" stroke-miterlimit="10" stroke-linecap="round"/>
<path d="M453.879 499.411L774.452 621.165" stroke="black" stroke-miterlimit="10" stroke-linecap="round" stroke-dasharray="9.21 4.6 73.64 4.6"/>
<path d="M782.697 624.283L1139.44 759.811" stroke="black" stroke-miterlimit="10" stroke-linecap="round" stroke-dasharray="7.36 2.76 9.21 4.6 73.64 4.6"/>
<path d="M1147.69 762.929L1161.96 768.363" stroke="black" stroke-miterlimit="10" stroke-linecap="round"/>
<path d="M414.798 529.503L539.788 576.987" stroke="black" stroke-miterlimit="10" stroke-linecap="round"/>
<path d="M558.341 584.011L641.805 615.722" stroke="black" stroke-miterlimit="10" stroke-linecap="round" stroke-dasharray="5.19 5.19 10.38 5.19"/>
<path d="M651.085 619.254L1012.73 756.621" stroke="black" stroke-miterlimit="10" stroke-linecap="round" stroke-dasharray="72.69 5.19 5.19 5.19 10.38 5.19"/>
<path d="M1022.01 760.114L1147 807.598" stroke="black" stroke-miterlimit="10" stroke-linecap="round"/>
<path d="M401.201 565.192L445.861 582.161" stroke="black" stroke-miterlimit="10" stroke-linecap="round"/>
<path d="M462.351 588.397L717.855 685.451" stroke="black" stroke-miterlimit="10" stroke-linecap="round" stroke-dasharray="27.69 4.62 36.92 4.62"/>
<path d="M726.106 688.607L1080.54 823.232" stroke="black" stroke-miterlimit="10" stroke-linecap="round" stroke-dasharray="23.08 4.62 27.69 4.62 36.92 4.62"/>
<path d="M1088.78 826.35L1133.44 843.319" stroke="black" stroke-miterlimit="10" stroke-linecap="round"/>
<path d="M386.246 604.465L395.193 607.857" stroke="black" stroke-miterlimit="10" stroke-linecap="round"/>
<path d="M409.752 613.398L737.786 737.971" stroke="black" stroke-miterlimit="10" stroke-linecap="round" stroke-dasharray="65.31 4.08 20.41 4.08"/>
<path d="M745.084 740.739L1102.27 876.389" stroke="black" stroke-miterlimit="10" stroke-linecap="round" stroke-dasharray="4.08 4.08 65.31 4.08 20.41 4.08"/>
<path d="M1109.53 879.163L1118.48 882.554" stroke="black" stroke-miterlimit="10" stroke-linecap="round"/>
<path d="M371.323 643.695L532.027 704.756" stroke="black" stroke-miterlimit="10" stroke-linecap="round"/>
<path d="M542.836 708.891L634.746 743.765" stroke="black" stroke-miterlimit="10" stroke-linecap="round" stroke-dasharray="6.05 3.03 15.13 3.03"/>
<path d="M640.151 745.832L937.387 858.742" stroke="black" stroke-miterlimit="10" stroke-linecap="round" stroke-dasharray="54.47 3.03 6.05 3.03 15.13 3.03"/>
<path d="M942.786 860.772L1103.53 921.827" stroke="black" stroke-miterlimit="10" stroke-linecap="round"/>
<path d="M356.369 682.968L401.029 699.937" stroke="black" stroke-miterlimit="10" stroke-linecap="round"/>
<path d="M418.967 706.751L668.615 801.578" stroke="black" stroke-miterlimit="10" stroke-linecap="round" stroke-dasharray="7.04 5.03 55.31 5.03"/>
<path d="M677.563 804.97L1034.96 940.74" stroke="black" stroke-miterlimit="10" stroke-linecap="round" stroke-dasharray="25.14 5.03 7.04 5.03 55.31 5.03"/>
<path d="M1043.95 944.125L1088.57 961.1" stroke="black" stroke-miterlimit="10" stroke-linecap="round"/>
<path d="M980.917 1125.68C975.594 1126.84 970.032 1126.03 965.26 1123.41C960.111 1120.61 954.066 1119.96 948.439 1121.6C947.639 1121.92 942.58 1124.63 942.794 1129.31L942.223 1129.14C939.37 1128.09 936.945 1126.13 935.323 1123.56C933.437 1120.37 932.162 1116.87 931.564 1113.22C930.859 1108.84 929.843 1102.55 929.052 1094.28C928.559 1091.23 928.25 1086.68 927.73 1080.57C926.946 1072.11 926.165 1065.35 925.344 1060.27C924.57 1055.27 923.044 1050.41 920.816 1045.87C918.711 1041.51 915.436 1037.82 911.354 1035.22C919.641 1037.75 928.362 1038.56 936.975 1037.58C940.459 1037.27 943.777 1035.95 946.527 1033.79C949.277 1031.63 951.342 1028.72 952.47 1025.41C953.926 1022.12 954.492 1018.51 954.112 1014.93C953.732 1011.35 952.419 1007.94 950.304 1005.03C944.409 997.912 936.584 992.647 927.767 989.866L897.459 978.357C896.389 977.962 895.003 977.373 893.303 976.59L889.153 974.862C887.781 974.208 886.284 973.855 884.764 973.827C883.244 973.799 881.735 974.096 880.339 974.698C877.791 976.071 875.874 978.376 874.99 981.131C873.133 986.395 872.854 992.085 874.186 997.505C875.612 1003.87 878.347 1009.87 882.216 1015.12L870.632 1045.54C869.146 1049.79 867.209 1053.88 864.856 1057.72C864.339 1058.7 863.604 1059.54 862.708 1060.19C861.813 1060.84 860.781 1061.27 859.691 1061.46C856.839 1061.4 854.024 1060.81 851.395 1059.7C851.018 1059.76 850.754 1059.81 850.603 1059.83C850.452 1059.85 850.688 1060.36 851.064 1060.53C854.857 1061.97 858.161 1063.25 860.828 1063.94C861.681 1064.19 862.822 1064.55 864.227 1065.1L872.459 1068.14C874.441 1068.9 876.014 1069.54 877.142 1070.05C880.721 1071.6 885.191 1073.4 890.62 1075.61C891.285 1075.89 891.662 1075.83 891.79 1075.43C891.918 1075.02 891.79 1075.43 891.729 1075.05C891.536 1074.88 891.318 1074.75 891.084 1074.65C887.342 1073.38 883.835 1071.5 880.703 1069.09C879.73 1068.16 878.989 1067.01 878.542 1065.74C878.095 1064.47 877.953 1063.11 878.129 1061.77C878.785 1056.85 880.106 1052.05 882.056 1047.48L890.894 1024.28C895.44 1028.13 900.579 1031.22 906.112 1033.43C907.838 1034.14 909.384 1035.23 910.638 1036.61C911.892 1038 912.823 1039.64 913.363 1041.43C914.991 1045.92 915.959 1050.62 916.235 1055.39C916.61 1060.59 916.838 1067.28 916.838 1075.45C916.996 1076.43 916.843 1079.31 916.887 1083.91C916.9 1087.95 917.126 1092 917.564 1096.02C918.31 1103.48 920.902 1110.64 925.105 1116.85C929.136 1122.92 934.994 1127.56 941.835 1130.09L943.271 1130.59C944.068 1133.1 945.583 1135.31 947.628 1136.97C958.007 1146.35 973.884 1134.39 976.174 1132.75C977.598 1131.7 978.844 1130.43 979.863 1128.98L981.618 1126.18C981.685 1126.09 981.712 1125.98 981.694 1125.86C981.676 1125.75 981.613 1125.65 981.52 1125.58C981.428 1125.51 981.312 1125.49 981.199 1125.5C981.085 1125.52 980.984 1125.59 980.917 1125.68ZM882.788 1013.87C879.2 1008.81 876.692 1003.07 875.421 996.997C874.193 991.913 874.448 986.583 876.156 981.639C876.941 979.17 878.642 977.096 880.911 975.843C882.157 975.351 883.49 975.119 884.829 975.163C886.168 975.206 887.483 975.524 888.694 976.096C889.885 976.617 890.886 977.491 891.564 978.599C892.241 979.707 892.561 980.996 892.481 982.293C892.583 986.406 891.789 990.494 890.155 994.271L882.788 1013.87ZM891.163 1023.31L900.969 997.478C902.474 993.367 903.714 990.498 904.655 988.412C905.38 986.713 906.257 985.083 907.276 983.542L925.296 990.381C931.458 992.422 936.634 996.691 939.807 1002.35C941.229 1005.22 941.996 1008.37 942.05 1011.57C942.105 1014.77 941.447 1017.95 940.123 1020.87C938.69 1025.5 935.937 1029.61 932.201 1032.7C929.08 1034.98 925.265 1036.1 921.409 1035.88C916.317 1035.47 911.301 1034.39 906.493 1032.67C900.821 1030.52 895.612 1027.3 891.145 1023.2L891.163 1023.31Z" fill="black"/>
</svg>
