<svg xmlns="http://www.w3.org/2000/svg" viewBox="0 0 536.69 587.41"><defs><style>.a00de1b1-838e-4831-8ceb-f81f7d2d1f4f,.a1dd4484-23ca-4dee-8ed7-cf2c610db4e1,.a1f633e0-9e21-4e8e-a1ad-1179bae369ea,.a4605fbb-0f3a-4b8d-9720-decae63b1bcb,.a4bf1022-c995-4d4c-99f3-c45854b2db60,.a5959948-2b4d-4845-963f-f12eedb27acc,.a597152b-da9f-4b12-9d68-24a16850de62,.a5a46ed9-a94c-4044-8ca7-9ffbd0c24d7b,.a5a7d34d-d0ec-4ad4-9481-f6d61fe50ecc,.a778b029-468b-4067-8d36-64ef95387c55,.a915fbc3-f54b-40e4-8ed7-ab68cbec7a1d,.aadc6187-d957-4510-a860-7f4ce2d072be,.af9f48fb-7fdc-4d7d-a1aa-7db7bea4fc78,.b117b0bf-ef48-405a-a7f8-957ef7d59d7f,.b1aa0144-af00-4c4d-9ab0-189fea2f5435,.b23e9b33-40f2-457a-8ac9-2a99f30513ab,.b273169d-ac8d-433e-9459-8837c13d233a,.b2f2126f-2ba4-4064-ab1d-7ea832610939,.b4c5ba29-9c3c-4b13-97a2-4d3397818de7,.b5aa227b-19a2-45b4-a1af-38d7114681b8,.b6bee90f-7b06-4262-9e8d-0a7bc6ffa2fa,.b77f6236-9e9a-4536-89d8-09656fab9d44,.bbe19390-9869-4e00-978b-5dab3741defe,.befa291c-bed3-473a-bf1c-fc0764a579af,.e191f713-edd6-4537-8493-4dbac61ba9bb,.e2384810-be17-4103-b774-67f72042a9f8,.e601971c-42d0-4dfc-b208-cf7e41b0085d,.e78b497d-2c1a-4d51-8292-dccb1c009e5f,.e7c4b61d-c163-4f35-b28b-a443b814b217,.ea756120-99eb-46b3-bf4a-12cf68b1d1c4,.eaf9f907-0d7f-4af3-b6fd-d6cf987809b8,.ec170a4e-f1cf-48bc-93b8-7799f7345809,.ed43f22f-5643-4f78-b3a7-1c7be8a17878,.ef0b17f5-cd45-42b8-a413-135bb2eebc0b,.efd29488-e49a-4a2e-a85d-2aa1b77421d4,.f0587f9c-b481-4d28-8cc9-766ef9006ab8,.f0b8e721-431b-4e02-aad6-19c802b104a9,.f54b7e3c-f42f-44fc-b551-1e6ae900abc6,.f5552c1f-e1be-4cd2-b21a-f6fbfb018d41,.f691fb32-a3d5-4941-bb7f-dff6ead3077f,.f69f4629-8c36-48fb-9e57-9acbe361907b,.fa2f4244-8712-4bb9-bfcf-62ca4abf5a0d,.fe8be6b8-6dd3-4a24-b468-bfdf2720974e,.ff205744-8de3-4afb-88d1-2a86a740cbc9{fill:none;stroke:#000;stroke-miterlimit:10;}.a00de1b1-838e-4831-8ceb-f81f7d2d1f4f,.a1dd4484-23ca-4dee-8ed7-cf2c610db4e1,.a1f633e0-9e21-4e8e-a1ad-1179bae369ea,.a4605fbb-0f3a-4b8d-9720-decae63b1bcb,.a4bf1022-c995-4d4c-99f3-c45854b2db60,.a5959948-2b4d-4845-963f-f12eedb27acc,.a597152b-da9f-4b12-9d68-24a16850de62,.a5a46ed9-a94c-4044-8ca7-9ffbd0c24d7b,.a5a7d34d-d0ec-4ad4-9481-f6d61fe50ecc,.a778b029-468b-4067-8d36-64ef95387c55,.a915fbc3-f54b-40e4-8ed7-ab68cbec7a1d,.aadc6187-d957-4510-a860-7f4ce2d072be,.af9f48fb-7fdc-4d7d-a1aa-7db7bea4fc78,.b117b0bf-ef48-405a-a7f8-957ef7d59d7f,.b1aa0144-af00-4c4d-9ab0-189fea2f5435,.b23e9b33-40f2-457a-8ac9-2a99f30513ab,.b273169d-ac8d-433e-9459-8837c13d233a,.b2f2126f-2ba4-4064-ab1d-7ea832610939,.b4c5ba29-9c3c-4b13-97a2-4d3397818de7,.b5aa227b-19a2-45b4-a1af-38d7114681b8,.b6bee90f-7b06-4262-9e8d-0a7bc6ffa2fa,.b77f6236-9e9a-4536-89d8-09656fab9d44,.bbe19390-9869-4e00-978b-5dab3741defe,.befa291c-bed3-473a-bf1c-fc0764a579af,.e191f713-edd6-4537-8493-4dbac61ba9bb,.e2384810-be17-4103-b774-67f72042a9f8,.e601971c-42d0-4dfc-b208-cf7e41b0085d,.e7c4b61d-c163-4f35-b28b-a443b814b217,.ea756120-99eb-46b3-bf4a-12cf68b1d1c4,.eaf9f907-0d7f-4af3-b6fd-d6cf987809b8,.ec170a4e-f1cf-48bc-93b8-7799f7345809,.ed43f22f-5643-4f78-b3a7-1c7be8a17878,.ef0b17f5-cd45-42b8-a413-135bb2eebc0b,.efd29488-e49a-4a2e-a85d-2aa1b77421d4,.f0587f9c-b481-4d28-8cc9-766ef9006ab8,.f0b8e721-431b-4e02-aad6-19c802b104a9,.f54b7e3c-f42f-44fc-b551-1e6ae900abc6,.f5552c1f-e1be-4cd2-b21a-f6fbfb018d41,.f691fb32-a3d5-4941-bb7f-dff6ead3077f,.f69f4629-8c36-48fb-9e57-9acbe361907b,.fa2f4244-8712-4bb9-bfcf-62ca4abf5a0d,.fe8be6b8-6dd3-4a24-b468-bfdf2720974e,.ff205744-8de3-4afb-88d1-2a86a740cbc9{stroke-linecap:round;}.efd29488-e49a-4a2e-a85d-2aa1b77421d4{stroke-dasharray:5.88 3.67 14.69 3.67;}.f0b8e721-431b-4e02-aad6-19c802b104a9{stroke-dasharray:36.72 3.67 5.88 3.67 14.69 3.67;}.f0587f9c-b481-4d28-8cc9-766ef9006ab8{stroke-dasharray:36.97 3.08 6.16 3.08;}.ff205744-8de3-4afb-88d1-2a86a740cbc9{stroke-dasharray:4.93 3.08 36.97 3.08 6.16 3.08;}.a4605fbb-0f3a-4b8d-9720-decae63b1bcb{stroke-dasharray:6.91 3.46 55.3 3.46;}.e2384810-be17-4103-b774-67f72042a9f8{stroke-dasharray:9.12 5.7 22.79 5.7;}.b23e9b33-40f2-457a-8ac9-2a99f30513ab{stroke-dasharray:56.99 5.7 9.12 5.7 22.79 5.7;}.b4c5ba29-9c3c-4b13-97a2-4d3397818de7{stroke-dasharray:66.4 5.53 11.07 5.53;}.aadc6187-d957-4510-a860-7f4ce2d072be{stroke-dasharray:8.85 5.53 66.4 5.53 11.07 5.53;}.a5a46ed9-a94c-4044-8ca7-9ffbd0c24d7b{stroke-dasharray:9.21 4.6 73.64 4.6;}.ed43f22f-5643-4f78-b3a7-1c7be8a17878{stroke-dasharray:7.36 2.76 9.21 4.6 73.64 4.6;}.a915fbc3-f54b-40e4-8ed7-ab68cbec7a1d{stroke-dasharray:5.19 5.19 10.38 5.19;}.b5aa227b-19a2-45b4-a1af-38d7114681b8{stroke-dasharray:72.69 5.19 5.19 5.19 10.38 5.19;}.a5a7d34d-d0ec-4ad4-9481-f6d61fe50ecc{stroke-dasharray:27.69 4.62 36.92 4.62;}.a5959948-2b4d-4845-963f-f12eedb27acc{stroke-dasharray:23.08 4.62 27.69 4.62 36.92 4.62;}.ea756120-99eb-46b3-bf4a-12cf68b1d1c4{stroke-dasharray:65.31 4.08 20.41 4.08;}.b6bee90f-7b06-4262-9e8d-0a7bc6ffa2fa{stroke-dasharray:4.08 4.08 65.31 4.08 20.41 4.08;}.a4bf1022-c995-4d4c-99f3-c45854b2db60{stroke-dasharray:6.05 3.03 15.13 3.03;}.a1dd4484-23ca-4dee-8ed7-cf2c610db4e1{stroke-dasharray:54.47 3.03 6.05 3.03 15.13 3.03;}.ef0b17f5-cd45-42b8-a413-135bb2eebc0b{stroke-dasharray:7.04 5.03 55.31 5.03;}.f691fb32-a3d5-4941-bb7f-dff6ead3077f{stroke-dasharray:25.14 5.03 7.04 5.03 55.31 5.03;}.af9f48fb-7fdc-4d7d-a1aa-7db7bea4fc78{stroke-dasharray:8.98 4.49 71.8 4.49;}.e7c4b61d-c163-4f35-b28b-a443b814b217{stroke-dasharray:7.18 2.69 8.98 4.49 71.8 4.49;}.e191f713-edd6-4537-8493-4dbac61ba9bb{stroke-dasharray:4.69 4.69 9.39 4.69;}.a00de1b1-838e-4831-8ceb-f81f7d2d1f4f{stroke-dasharray:65.71 4.69 4.69 4.69 9.39 4.69;}.f5552c1f-e1be-4cd2-b21a-f6fbfb018d41{stroke-dasharray:24.46 4.08 32.61 4.08;}.a597152b-da9f-4b12-9d68-24a16850de62{stroke-dasharray:20.38 4.08 24.46 4.08 32.61 4.08;}.b117b0bf-ef48-405a-a7f8-957ef7d59d7f{stroke-dasharray:56.76 3.55 17.74 3.55;}.f54b7e3c-f42f-44fc-b551-1e6ae900abc6{stroke-dasharray:3.55 3.55 56.76 3.55 17.74 3.55;}.e601971c-42d0-4dfc-b208-cf7e41b0085d{stroke-dasharray:15.32 7.66 38.31 7.66;}.fa2f4244-8712-4bb9-bfcf-62ca4abf5a0d{stroke-dasharray:5.27 3.76 41.38 3.76;}.ec170a4e-f1cf-48bc-93b8-7799f7345809{stroke-dasharray:18.81 3.76 5.27 3.76 41.38 3.76;}.a1f633e0-9e21-4e8e-a1ad-1179bae369ea{stroke-dasharray:4.47 2.79 11.16 2.79;}.fe8be6b8-6dd3-4a24-b468-bfdf2720974e{stroke-dasharray:27.91 2.79 4.47 2.79 11.16 2.79;}.b273169d-ac8d-433e-9459-8837c13d233a{stroke-dasharray:38.04 3.17 6.34 3.17;}.befa291c-bed3-473a-bf1c-fc0764a579af{stroke-dasharray:5.07 3.17 38.04 3.17 6.34 3.17;}.eaf9f907-0d7f-4af3-b6fd-d6cf987809b8{stroke-dasharray:9.88 4.94 79.01 4.94;}.b2f2126f-2ba4-4064-ab1d-7ea832610939{stroke-dasharray:5.43 5.43 10.86 5.43;}.bbe19390-9869-4e00-978b-5dab3741defe{stroke-dasharray:25.24 4.21 33.66 4.21;}.f69f4629-8c36-48fb-9e57-9acbe361907b{stroke-dasharray:56.32 3.52 17.6 3.52;}.b1aa0144-af00-4c4d-9ab0-189fea2f5435{stroke-dasharray:80.34;}.a778b029-468b-4067-8d36-64ef95387c55{stroke-dasharray:4.29 3.06 33.71 3.06;}</style></defs><g id="bb15f2b4-6293-4e4b-a140-d3ec59aedf17" data-name="Capa 2"><g id="a1115d05-86b6-4f09-9f2d-07a792a44b93" data-name="rozaday-ilustration"><line class="b77f6236-9e9a-4536-89d8-09656fab9d44" x1="124.09" y1="177.73" x2="146.77" y2="167.22"/><line class="efd29488-e49a-4a2e-a85d-2aa1b77421d4" x1="150.1" y1="165.68" x2="173.76" y2="154.72"/><line class="f0b8e721-431b-4e02-aad6-19c802b104a9" x1="175.43" y1="153.95" x2="235.74" y2="126.01"/><line class="b77f6236-9e9a-4536-89d8-09656fab9d44" x1="237.4" y1="125.24" x2="260.09" y2="114.73"/><line class="b77f6236-9e9a-4536-89d8-09656fab9d44" x1="151.09" y1="176.73" x2="154.72" y2="175.07"/><line class="f0587f9c-b481-4d28-8cc9-766ef9006ab8" x1="157.52" y1="173.78" x2="200.94" y2="153.9"/><line class="ff205744-8de3-4afb-88d1-2a86a740cbc9" x1="202.34" y1="153.26" x2="253.05" y2="130.04"/><line class="b77f6236-9e9a-4536-89d8-09656fab9d44" x1="254.45" y1="129.4" x2="258.09" y2="127.73"/><line class="b77f6236-9e9a-4536-89d8-09656fab9d44" x1="181.09" y1="175.73" x2="184.72" y2="174.07"/><line class="a4605fbb-0f3a-4b8d-9720-decae63b1bcb" x1="186.61" y1="173.2" x2="247.88" y2="145.12"/><line class="b77f6236-9e9a-4536-89d8-09656fab9d44" x1="249.45" y1="144.4" x2="253.09" y2="142.73"/><path d="M90,149.52a4.33,4.33,0,0,0-1.07-1.33,3.21,3.21,0,0,0-1.48-.72,3,3,0,0,0-1.8.29,2.25,2.25,0,0,0-1.31,1.29,2.11,2.11,0,0,0,.08,1.6,1.92,1.92,0,0,0,.93,1,4,4,0,0,0,1.4.35c.54,0,1.09.07,1.66.07s1,0,1.53,0a6.86,6.86,0,0,1,1.47.21,3.48,3.48,0,0,1,1.27.61,3.09,3.09,0,0,1,.93,1.22,3.24,3.24,0,0,1,.28,1.82,3.28,3.28,0,0,1-.8,1.72A5.48,5.48,0,0,1,91.17,159a6.32,6.32,0,0,1-1.63.49,5.05,5.05,0,0,1-1.69,0l.41.67-.86.39-1.71-3.46.65-.3a3.1,3.1,0,0,0,2,1.74,3.79,3.79,0,0,0,2.57-.26,3.22,3.22,0,0,0,1.08-.79,2.16,2.16,0,0,0,.54-1.09,2.07,2.07,0,0,0-.19-1.27,2.09,2.09,0,0,0-1-1.06,3.91,3.91,0,0,0-1.42-.39c-.52-.05-1.07-.08-1.65-.08s-1,0-1.51,0a6.76,6.76,0,0,1-1.44-.21,3.42,3.42,0,0,1-1.25-.59,3.13,3.13,0,0,1-.92-1.21,3.93,3.93,0,0,1-.28-1,3,3,0,0,1,.77-2.39,4.66,4.66,0,0,1,1.53-1,7.08,7.08,0,0,1,1.49-.47,4.35,4.35,0,0,1,1.76,0l-.39-.68.84-.38,1.66,3.63Z"/><path d="M100.47,154.77a4.34,4.34,0,0,1-2.3.41,4.22,4.22,0,0,1-2.13-.86,5.27,5.27,0,0,1-1.59-2.08,5.09,5.09,0,0,1-.47-2.39,4.68,4.68,0,0,1,.72-2.3,4.44,4.44,0,0,1,3.29-2,3.21,3.21,0,0,1,1.37.19,3.44,3.44,0,0,1,1.25.81,5.11,5.11,0,0,1,1,1.48l-5.76,2.76a8.33,8.33,0,0,0,1.28,2.07A3.19,3.19,0,0,0,98.68,154a2.56,2.56,0,0,0,1.8-.2,3.34,3.34,0,0,0,1-.66,4.39,4.39,0,0,0,.77-1,3.59,3.59,0,0,0,.43-1l.54.15a4,4,0,0,1-.56,1.59,5.42,5.42,0,0,1-1,1.19A4.85,4.85,0,0,1,100.47,154.77Zm-4.89-4.68,4.2-1.92a4.26,4.26,0,0,0-.69-1.07,2.28,2.28,0,0,0-1-.65,1.66,1.66,0,0,0-1.2.13,2.51,2.51,0,0,0-1.33,1.29A3.29,3.29,0,0,0,95.58,150.09Z"/><path d="M105.07,151.75a1,1,0,0,0,.6-.58,1.42,1.42,0,0,0-.1-.81c-.11-.31-.26-.67-.44-1.06l-1.72-3.77-.24-.53a4.76,4.76,0,0,1-.19-.57l-.57.29-.58.3-.31-.68.52-.23a2.75,2.75,0,0,0,.91-.59,2.48,2.48,0,0,0,.32-.51l.48-.22c.1.16.21.37.34.63l.48,1a4.41,4.41,0,0,1,.31-1.12,4.94,4.94,0,0,1,.66-1.1,2.84,2.84,0,0,1,1-.78,1.51,1.51,0,0,1,.93-.12,1,1,0,0,1,.7.63,1.09,1.09,0,0,1,.07.36,1,1,0,0,1-.11.45A.88.88,0,0,1,107,143a.88.88,0,0,1-.45-.56,1.84,1.84,0,0,0-.76.6,3.44,3.44,0,0,0-.52,1,4.86,4.86,0,0,0-.24,1.26l1.87,4.05c.1.22.19.41.26.59s.13.36.19.56l.5-.26.51-.27.31.68-3.38,1.55Z"/><path d="M119.94,145.61l-4.82-4.3c-.37-.33-.67-.63-.9-.88a6.17,6.17,0,0,1-.55-.65,4.56,4.56,0,0,1-.29-.44l-.69.37-.31-.67,3-1.39.22.49c-.33.15-.5.34-.52.55a1.09,1.09,0,0,0,.27.69,7,7,0,0,0,.71.77l2.6,2.32c.17.15.35.3.52.47s.35.34.53.52h0c0-.19,0-.4,0-.62s0-.43-.06-.63l-.34-4.22a5.88,5.88,0,0,1,0-.82c0-.24,0-.42,0-.54l-1,.53-.31-.67,2.6-1.2.23.5a.93.93,0,0,0-.5.53,2.75,2.75,0,0,0-.13,1c0,.4,0,.89,0,1.48l.39,6.56Z"/><path d="M129.14,141.66a4.46,4.46,0,0,1-2.3.41,4.25,4.25,0,0,1-2.14-.86,5.23,5.23,0,0,1-1.58-2.08,5,5,0,0,1-.47-2.4,4.63,4.63,0,0,1,.71-2.29,4.19,4.19,0,0,1,1.9-1.61,4,4,0,0,1,1.39-.37,3.26,3.26,0,0,1,1.38.19,3.51,3.51,0,0,1,1.24.8,4.92,4.92,0,0,1,1,1.49l-5.76,2.76a8.83,8.83,0,0,0,1.28,2.07,3.22,3.22,0,0,0,1.56,1.07,2.57,2.57,0,0,0,1.8-.2,3.74,3.74,0,0,0,1-.66,4.44,4.44,0,0,0,.78-.95,3.29,3.29,0,0,0,.42-1l.55.15a4.2,4.2,0,0,1-.57,1.59,4.87,4.87,0,0,1-1,1.18A5,5,0,0,1,129.14,141.66Zm-4.9-4.68,4.21-1.92a4,4,0,0,0-.7-1.07,2.17,2.17,0,0,0-1-.65,1.71,1.71,0,0,0-1.2.12,2.52,2.52,0,0,0-1.33,1.3A3.34,3.34,0,0,0,124.24,137Z"/><path d="M140,141.79a8,8,0,0,1-2.55.76,3.15,3.15,0,0,1-1.7-.24,1.84,1.84,0,0,1-.9-.86,1.92,1.92,0,0,1-.17-1,2.78,2.78,0,0,1,.29-.94,3,3,0,0,1,.5-.73,2.39,2.39,0,0,1-1.06-.1,1.22,1.22,0,0,1-.68-.68,1.78,1.78,0,0,1,0-1.29,2.18,2.18,0,0,1,.9-1.16,3.39,3.39,0,0,1-1.67-.45,2.8,2.8,0,0,1-1.14-1.3,3.3,3.3,0,0,1-.28-2,3.87,3.87,0,0,1,.8-1.73,3.91,3.91,0,0,1,1.47-1.16,4.15,4.15,0,0,1,2.37-.35,2.78,2.78,0,0,1,.1-1,2.48,2.48,0,0,1,.44-.89,1.89,1.89,0,0,1,.73-.59,1,1,0,0,1,.75-.07.91.91,0,0,1,.5.5,1.13,1.13,0,0,1,.06.31.65.65,0,0,1-.09.38.77.77,0,0,1-.37.31.79.79,0,0,1-.54,0,.86.86,0,0,1-.42-.31,1.08,1.08,0,0,0-.47.68,2.21,2.21,0,0,0,0,.85,3,3,0,0,1,1,.58,2.74,2.74,0,0,1,.73,1,3.06,3.06,0,0,1,.27,1.87,3.58,3.58,0,0,1-.76,1.71,3.92,3.92,0,0,1-1.53,1.19,3.07,3.07,0,0,1-.56.21,3.33,3.33,0,0,0-.58.22,1.69,1.69,0,0,0-.86.75.7.7,0,0,0,.06.83,1,1,0,0,0,1,.13c.49-.14,1.11-.36,1.89-.67a10.36,10.36,0,0,1,2.31-.7,3.22,3.22,0,0,1,1.75.13,2.15,2.15,0,0,1,1.13,1.18,2.26,2.26,0,0,1,.18,1.35,3.3,3.3,0,0,1-.54,1.29,5.63,5.63,0,0,1-1.06,1.13A6.66,6.66,0,0,1,140,141.79Zm-3.62-7.3a1.9,1.9,0,0,0,.88-.76,2,2,0,0,0,.24-1.09,3.33,3.33,0,0,0-.33-1.25,4.4,4.4,0,0,0-.83-1.25,2.48,2.48,0,0,0-1.09-.72,1.69,1.69,0,0,0-1.24.11,1.76,1.76,0,0,0-1.07,1.29,3,3,0,0,0,.27,1.88,4.17,4.17,0,0,0,.87,1.29,2.31,2.31,0,0,0,1.1.64A1.88,1.88,0,0,0,136.37,134.49Zm3.31,6.66a4.26,4.26,0,0,0,2-1.54,1.63,1.63,0,0,0,.23-1.6,1.25,1.25,0,0,0-.84-.74,2.64,2.64,0,0,0-1.32.07,11.33,11.33,0,0,0-1.7.6l-.89.36a8.86,8.86,0,0,1-.87.29,2.28,2.28,0,0,0-.36,1,2,2,0,0,0,.17,1,1.62,1.62,0,0,0,1.36.95A4.13,4.13,0,0,0,139.68,141.15Z"/><path d="M148.1,132.67c-.12-.17-.21-.33-.29-.46l-.25-.43a5.28,5.28,0,0,1-.81,1.44,3.46,3.46,0,0,1-1.23.95,2.91,2.91,0,0,1-2.13.28,2,2,0,0,1-1.24-1.11,2.09,2.09,0,0,1-.13-1.53,3.84,3.84,0,0,1,.8-1.46,7.77,7.77,0,0,1,1.39-1.28,9,9,0,0,1,1.64-.93l-.47-1a6.15,6.15,0,0,0-.6-1,1.66,1.66,0,0,0-.81-.64,1.62,1.62,0,0,0-1.21.13,2.72,2.72,0,0,0-.9.63,1.45,1.45,0,0,0-.43,1,.75.75,0,0,1,.32.23,1.19,1.19,0,0,1,.18.3,1,1,0,0,1,0,.53.65.65,0,0,1-.47.5.69.69,0,0,1-.64,0,1.05,1.05,0,0,1-.44-.49,1.6,1.6,0,0,1,0-1.2,3.22,3.22,0,0,1,.84-1.24,5.29,5.29,0,0,1,1.56-1,2.88,2.88,0,0,1,2.38-.2,3.61,3.61,0,0,1,1.7,2l.57,1.23c.19.41.37.82.55,1.24s.37.83.57,1.25c.08.17.15.35.22.53s.14.39.22.62l.57-.3.57-.3.32.69Zm-2-4a7.45,7.45,0,0,0-1.12.68,5.19,5.19,0,0,0-1,.89,2.56,2.56,0,0,0-.54,1,1.67,1.67,0,0,0,.14,1.13,1.36,1.36,0,0,0,.83.73,1.51,1.51,0,0,0,1-.1,2.83,2.83,0,0,0,1.06-.8,4.66,4.66,0,0,0,.67-1.17c-.07-.12-.13-.25-.2-.39l-.2-.45c0-.05-.1-.23-.23-.53S146.28,129.08,146.11,128.7Z"/><path d="M151.6,131.07l-.23-.49c.34-.16.54-.35.59-.58a1.35,1.35,0,0,0-.09-.82c-.12-.31-.26-.67-.44-1.06l-1.71-3.77c-.08-.18-.16-.35-.23-.53a3.47,3.47,0,0,1-.19-.57l-.57.3-.57.3-.32-.69a7.42,7.42,0,0,0,1.07-.57,2.29,2.29,0,0,0,.47-.42,1.41,1.41,0,0,0,.2-.35l.48-.22c.05.07.09.16.15.25l.17.32a3.87,3.87,0,0,1,.21.41,4.88,4.88,0,0,1,.54-.93,5.23,5.23,0,0,1,.74-.82,4,4,0,0,1,.9-.59,2.72,2.72,0,0,1,2.51-.06,5.19,5.19,0,0,1,1.93,2.5l1.41,3.07.26.59a4.09,4.09,0,0,1,.18.56l.51-.26.51-.27.31.68L157,128.59l-.23-.5a.91.91,0,0,0,.59-.58,1.4,1.4,0,0,0-.09-.81c-.12-.31-.27-.67-.45-1.06l-1-2.31a4.59,4.59,0,0,0-1.46-1.93,1.66,1.66,0,0,0-1.75-.06,2.84,2.84,0,0,0-1,.85,3.26,3.26,0,0,0-.6,1.19c.05.08.1.18.16.29l.15.34,1.91,4.22c.1.22.19.42.26.59s.13.36.19.56l.51-.26.5-.26.31.67Z"/><path d="M165.82,124.88a4.5,4.5,0,0,1-2.34.43,4.33,4.33,0,0,1-2.17-.81,4.58,4.58,0,0,1-1.54-1.91,5.39,5.39,0,0,1-.53-2.59,4.64,4.64,0,0,1,.73-2.32,4.28,4.28,0,0,1,1.84-1.57,4.5,4.5,0,0,1,2.35-.41,4.67,4.67,0,0,1,2.18.81,4.59,4.59,0,0,1,1.54,1.89,5.31,5.31,0,0,1,.51,2.57,4.75,4.75,0,0,1-.74,2.34A4.13,4.13,0,0,1,165.82,124.88Zm-.17-.72a2.06,2.06,0,0,0,1.16-1.12,3.14,3.14,0,0,0,.15-1.63,7.27,7.27,0,0,0-.54-1.76,8.8,8.8,0,0,0-.81-1.4,5.45,5.45,0,0,0-1-1.1,2.79,2.79,0,0,0-1.2-.58,1.93,1.93,0,0,0-1.28.17,2.18,2.18,0,0,0-1.18,1.13,3.23,3.23,0,0,0-.21,1.65,5.87,5.87,0,0,0,.52,1.82,7,7,0,0,0,1.17,1.81,3.8,3.8,0,0,0,1.54,1.1A2.13,2.13,0,0,0,165.65,124.16Z"/><path d="M172.56,117.73a1.93,1.93,0,0,1-1,.17,1,1,0,0,1-.81-.67,1.35,1.35,0,0,1-.1-.77,3.54,3.54,0,0,1,.29-.89l.43-1a9,9,0,0,0,.61-1.72,2.94,2.94,0,0,0-.18-1.88,3.22,3.22,0,0,0-.67-1,1.7,1.7,0,0,0-1-.51,2.64,2.64,0,0,0-2.14.84,2.08,2.08,0,0,0-.44.75,1.22,1.22,0,0,0-.05.67,1.94,1.94,0,0,1,.27.24,1.07,1.07,0,0,1,.22.32.8.8,0,0,1,.06.34,1,1,0,0,1-.12.4.81.81,0,0,1-1,.28,1.17,1.17,0,0,1-.45-.52,2,2,0,0,1-.06-1.2,3.45,3.45,0,0,1,.74-1.43,4.22,4.22,0,0,1,1.61-1.18,4.33,4.33,0,0,1,2.21-.5,2.74,2.74,0,0,1,1.54.61,3.14,3.14,0,0,1,.89,1.23,2.59,2.59,0,0,1,.13,1.43,5.92,5.92,0,0,1-.47,1.44c-.22.48-.45.92-.68,1.35a10.67,10.67,0,0,0-.55,1.16,1.11,1.11,0,0,0-.05.85.61.61,0,0,0,.33.3.77.77,0,0,0,.61-.08,1.71,1.71,0,0,0,.29-.16,1.18,1.18,0,0,0,.27-.23l.46.49a2.3,2.3,0,0,1-.52.51A3.54,3.54,0,0,1,172.56,117.73Zm1.64,3.32a1,1,0,0,1-.73,0,1.09,1.09,0,0,1-.61-.59,1.06,1.06,0,0,1,0-.82,1,1,0,0,1,.48-.57.94.94,0,0,1,.77,0,1.13,1.13,0,0,1,.57.57,1.15,1.15,0,0,1,.06.81A.91.91,0,0,1,174.2,121.05Z"/><polygon class="e78b497d-2c1a-4d51-8292-dccb1c009e5f" points="251.1 169.11 277.7 56.19 265.7 29.95 36.54 134.77 60.81 187.84 251.1 169.11"/><rect class="e78b497d-2c1a-4d51-8292-dccb1c009e5f" x="202.41" y="212.11" width="252" height="334" transform="translate(233.41 -113.39) rotate(29.98)"/><path d="M324.15,225.13a4.08,4.08,0,0,0,.29-2.89,3.63,3.63,0,0,0-1.77-2.11,4.12,4.12,0,0,0-1.76-.55,4.49,4.49,0,0,0-1.87.28,5.71,5.71,0,0,0-1.78,1.09,7.6,7.6,0,0,0-1.52,1.9,6.83,6.83,0,0,0-.94,2.94,5.25,5.25,0,0,0,.51,2.64,4.48,4.48,0,0,0,1.76,1.85,5.59,5.59,0,0,0,2.28.7,4.75,4.75,0,0,0,2.39-.41l.22.56a6.31,6.31,0,0,1-2.29.59,5.81,5.81,0,0,1-1.95-.22,7.26,7.26,0,0,1-1.53-.64,6.21,6.21,0,0,1-1.91-1.67,5.77,5.77,0,0,1-1-2.17,6.09,6.09,0,0,1-.07-2.41,6.91,6.91,0,0,1,.88-2.41,8.19,8.19,0,0,1,1.59-2,6.94,6.94,0,0,1,2.11-1.32,5.7,5.7,0,0,1,2.48-.37,6.31,6.31,0,0,1,2.69.88,7,7,0,0,1,1.53,1.2,6.68,6.68,0,0,1,1.09,1.59l.41-.89.85.49-2.11,3.64Z"/><path d="M326.72,236.6a4.42,4.42,0,0,1,.21-.51c.07-.14.13-.29.2-.45a5.2,5.2,0,0,1-1.64.18,3.54,3.54,0,0,1-1.49-.45,2.92,2.92,0,0,1-1.46-1.57,2,2,0,0,1,.18-1.66,2.1,2.1,0,0,1,1.17-1,3.9,3.9,0,0,1,1.66-.2,7.4,7.4,0,0,1,1.85.4,8.36,8.36,0,0,1,1.71.79l.56-1a5.87,5.87,0,0,0,.5-1.09,1.7,1.7,0,0,0,.06-1,1.65,1.65,0,0,0-.82-.91,2.8,2.8,0,0,0-1-.36,1.44,1.44,0,0,0-1.07.24.81.81,0,0,1,0,.38,1.72,1.72,0,0,1-.14.33,1,1,0,0,1-.41.34.63.63,0,0,1-.68-.09.66.66,0,0,1-.37-.51,1,1,0,0,1,.14-.64,1.54,1.54,0,0,1,.95-.73,3.24,3.24,0,0,1,1.5,0,5.76,5.76,0,0,1,1.75.67,2.88,2.88,0,0,1,1.54,1.83,3.68,3.68,0,0,1-.66,2.56l-.67,1.17-.69,1.17-.69,1.18c-.1.17-.2.34-.31.5l-.37.54.57.29.58.29-.38.66Zm2.08-3.93a7.34,7.34,0,0,0-1.2-.51,5.64,5.64,0,0,0-1.29-.28,2.6,2.6,0,0,0-1.16.16,1.63,1.63,0,0,0-.83.77,1.34,1.34,0,0,0-.12,1.09,1.52,1.52,0,0,0,.68.78,2.77,2.77,0,0,0,1.26.4,5,5,0,0,0,1.35-.13,3.64,3.64,0,0,1,.2-.39l.24-.42.3-.5C328.4,233.36,328.59,233,328.8,232.67Z"/><path d="M330.05,238.52l.27-.47a.94.94,0,0,0,.82.15,1.48,1.48,0,0,0,.61-.55c.19-.28.39-.6.61-1l2.06-3.58.3-.5a4,4,0,0,1,.35-.49l-.57-.29-.58-.29.38-.66a6.63,6.63,0,0,0,1.08.54,2.16,2.16,0,0,0,.62.15,1.59,1.59,0,0,0,.4,0l.46.26a3,3,0,0,1-.17.38c-.07.14-.16.3-.25.49a4.51,4.51,0,0,1,1.47,0,3.56,3.56,0,0,1,1.37.44,3.24,3.24,0,0,1,1.16,1.05,2.39,2.39,0,0,1,.39,1.25,6.09,6.09,0,0,1,1.66,0,4,4,0,0,1,1.55.49,2.76,2.76,0,0,1,1.54,2,5,5,0,0,1-.94,3l-1.7,2.92-.33.55a4.85,4.85,0,0,1-.35.48l.51.26.5.26-.37.65-3.2-1.85.27-.47a1,1,0,0,0,.82.14,1.34,1.34,0,0,0,.6-.55c.19-.27.39-.6.61-1l1.27-2.2a4.36,4.36,0,0,0,.74-2.27,1.71,1.71,0,0,0-1-1.45,2.78,2.78,0,0,0-1.1-.34,3.77,3.77,0,0,0-1.17.06,3.57,3.57,0,0,1-.19.61,6.11,6.11,0,0,1-.31.63q-.54.9-1.08,1.83c-.35.62-.72,1.23-1.08,1.84l-.33.56a4.85,4.85,0,0,1-.35.48l.51.26.51.26-.38.64-3.2-1.84.27-.48a.91.91,0,0,0,.81.15,1.62,1.62,0,0,0,.61-.55c.19-.28.4-.6.61-1l1.29-2.19a4.54,4.54,0,0,0,.78-2.27,1.59,1.59,0,0,0-.94-1.44,2.68,2.68,0,0,0-1.08-.34,3,3,0,0,0-1.12.08l-.22.4c-.08.15-.16.3-.25.45l-2.33,4c-.12.21-.23.39-.33.55a4.85,4.85,0,0,1-.35.48l.51.26.51.27-.37.64Z"/><path d="M350.26,237.1l.29-.48c.09-.15.21-.32.35-.52l-.58-.29-.57-.29.38-.66a8.19,8.19,0,0,0,1.11.56,2.41,2.41,0,0,0,.67.18,1.43,1.43,0,0,0,.43,0l.45.26-2.7,4.69a3.47,3.47,0,0,1,1.44-.09A4.21,4.21,0,0,1,353,241a3.88,3.88,0,0,1,1.53,1.53,4,4,0,0,1,.49,2.12,5.74,5.74,0,0,1-2.68,4.38,4.75,4.75,0,0,1-2.38.64,4.53,4.53,0,0,1-2.3-.61,4.62,4.62,0,0,1-1.06-.88,2.84,2.84,0,0,1-.7-1.42l-.78.49-.55-.31Zm-2.89,8.13a2.94,2.94,0,0,0-.47,1.43,1.67,1.67,0,0,0,.34,1,2.63,2.63,0,0,0,.79.69,2.4,2.4,0,0,0,1.55.33,3.17,3.17,0,0,0,1.53-.68,5.27,5.27,0,0,0,1.31-1.56,7.15,7.15,0,0,0,.82-2,3.33,3.33,0,0,0-.07-1.73,2.31,2.31,0,0,0-1.09-1.25,2.91,2.91,0,0,0-1.17-.35,3.21,3.21,0,0,0-1.24.15Z"/><path d="M353.51,251.43a.94.94,0,0,0,.82.15,1.48,1.48,0,0,0,.61-.55c.18-.28.39-.61.6-1l2.07-3.58c.1-.17.19-.33.29-.47l.36-.52-.57-.29-.58-.29.38-.66a6.93,6.93,0,0,0,1.11.55,2.54,2.54,0,0,0,.66.18,1.33,1.33,0,0,0,.42,0l.46.26-3.66,6.35-.33.55a4.85,4.85,0,0,1-.35.48l.51.26c.16.09.33.18.51.26l-.38.65-3.2-1.85Zm6.77-8.22a.86.86,0,0,1-.42-.6,1,1,0,0,1,.13-.81,1,1,0,0,1,.64-.51.89.89,0,0,1,1.19.69,1.09,1.09,0,0,1-.14.8,1,1,0,0,1-.64.51A.91.91,0,0,1,360.28,243.21Z"/><path d="M361.4,257a4.7,4.7,0,0,1-1.7-1.67,4.34,4.34,0,0,1-.6-2.23,4.68,4.68,0,0,1,.66-2.37,5.44,5.44,0,0,1,1.81-1.93,4.72,4.72,0,0,1,2.32-.75,4.21,4.21,0,0,1,2.34.59,4.47,4.47,0,0,1,1.69,1.68,4.62,4.62,0,0,1,.61,2.24,4.54,4.54,0,0,1-.65,2.35,5.34,5.34,0,0,1-1.8,1.91,4.75,4.75,0,0,1-2.33.75A4.13,4.13,0,0,1,361.4,257Zm.49-.56a2.09,2.09,0,0,0,1.59.29,3.1,3.1,0,0,0,1.41-.82,6.67,6.67,0,0,0,1.13-1.47,9.14,9.14,0,0,0,.67-1.46,5.8,5.8,0,0,0,.3-1.49,2.92,2.92,0,0,0-.22-1.3,2,2,0,0,0-.89-.95,2.14,2.14,0,0,0-1.6-.3,3.11,3.11,0,0,0-1.47.78,5.79,5.79,0,0,0-1.18,1.48,7.22,7.22,0,0,0-.8,2,3.77,3.77,0,0,0,0,1.89A2.16,2.16,0,0,0,361.89,256.39Z"/><path d="M374.66,264.6A4.72,4.72,0,0,1,373,263a4.2,4.2,0,0,1-.62-2.2,4.93,4.93,0,0,1,.73-2.48,5,5,0,0,1,1.22-1.41A5.38,5.38,0,0,1,376,256a4.5,4.5,0,0,1,1.86-.23,4.32,4.32,0,0,1,1.88.6,4.53,4.53,0,0,1,1.37,1.15,2.87,2.87,0,0,1,.61,1.29,1.73,1.73,0,0,1-.19,1.17,1,1,0,0,1-.53.47.72.72,0,0,1-.69-.07.67.67,0,0,1-.42-.56,1.1,1.1,0,0,1,.1-.56,1.13,1.13,0,0,1,.24-.3.78.78,0,0,1,.36-.19,1.15,1.15,0,0,0-.12-.82,2.33,2.33,0,0,0-.51-.61,6.4,6.4,0,0,0-.53-.38,2.62,2.62,0,0,0-2.29-.18,4.31,4.31,0,0,0-2.17,2.07,5.69,5.69,0,0,0-.74,2.07,3.47,3.47,0,0,0,.21,1.83,2.62,2.62,0,0,0,1.15,1.27,3.16,3.16,0,0,0,1.64.43,3.77,3.77,0,0,0,1.61-.35l.22.55a4.19,4.19,0,0,1-1.6.5,4.78,4.78,0,0,1-1.52-.09A4.5,4.5,0,0,1,374.66,264.6Z"/><path d="M379.45,266.39a.92.92,0,0,0,.81.15,1.36,1.36,0,0,0,.61-.55c.19-.27.39-.6.61-1l4.29-7.43.28-.47c.1-.15.21-.33.35-.52l-.57-.29-.58-.29.38-.66a7.93,7.93,0,0,0,1.12.55,2.32,2.32,0,0,0,.67.18,1.11,1.11,0,0,0,.42,0l.46.26-5.87,10.2a6,6,0,0,1-.34.55,4.85,4.85,0,0,1-.35.48l.5.26.51.26-.37.64-3.2-1.85Z"/><path d="M383.88,269a.92.92,0,0,0,.81.15,1.42,1.42,0,0,0,.61-.55c.19-.28.39-.61.61-1L388,264a4.19,4.19,0,0,1,.29-.47l.36-.52-.58-.29-.57-.29.38-.66a7.36,7.36,0,0,0,1.1.55,2.32,2.32,0,0,0,.67.18,1.36,1.36,0,0,0,.42,0l.46.26-3.66,6.35-.33.55a4.85,4.85,0,0,1-.35.48l.5.26.51.27-.37.64-3.2-1.85Zm5.68-8.24-.24-.62,2.55-1.36a1,1,0,0,1,.68-.13.68.68,0,0,1,.38.22.84.84,0,0,1,.13.2.79.79,0,0,1,0,.29.7.7,0,0,1-.18.41,1.31,1.31,0,0,1-.62.34Z"/><path d="M388,272l.27-.47a1,1,0,0,0,.82.14,1.41,1.41,0,0,0,.61-.55c.19-.27.39-.6.61-1l2.06-3.58.3-.5a4.85,4.85,0,0,1,.35-.48l-.57-.29-.58-.29.38-.66a8.85,8.85,0,0,0,1.08.54,2.08,2.08,0,0,0,.62.14,1.23,1.23,0,0,0,.4,0l.46.27a3.8,3.8,0,0,1-.17.38l-.25.48a4.8,4.8,0,0,1,1.47,0,3.41,3.41,0,0,1,1.37.45,3.22,3.22,0,0,1,1.16,1,2.44,2.44,0,0,1,.39,1.25,6.54,6.54,0,0,1,1.66,0,3.82,3.82,0,0,1,1.55.49,2.72,2.72,0,0,1,1.54,2,5,5,0,0,1-.94,3l-1.7,2.91c-.13.21-.23.4-.33.56s-.22.31-.35.47l.51.27.5.26-.37.64-3.2-1.85.27-.47a.93.93,0,0,0,.82.15,1.39,1.39,0,0,0,.6-.55c.19-.28.39-.6.61-1l1.27-2.2a4.39,4.39,0,0,0,.74-2.28,1.71,1.71,0,0,0-1-1.44,2.63,2.63,0,0,0-1.1-.34,3.77,3.77,0,0,0-1.17.06,3.87,3.87,0,0,1-.19.61,6.11,6.11,0,0,1-.31.63q-.54.9-1.08,1.83c-.35.61-.72,1.23-1.08,1.84l-.33.55a4.85,4.85,0,0,1-.35.48l.51.27.5.26-.37.64-3.2-1.85.27-.47a.88.88,0,0,0,.81.14,1.47,1.47,0,0,0,.61-.55,10.47,10.47,0,0,0,.61-1l1.29-2.19a4.57,4.57,0,0,0,.78-2.27,1.61,1.61,0,0,0-.94-1.45,2.85,2.85,0,0,0-1.08-.34,3.18,3.18,0,0,0-1.12.08l-.22.41-.25.45-2.33,4-.33.55a4.85,4.85,0,0,1-.35.48l.51.26c.16.09.33.18.51.26l-.37.65Z"/><path d="M406.84,282.83a4.42,4.42,0,0,1,.21-.51c.07-.14.13-.29.2-.45a4.91,4.91,0,0,1-1.64.17,3.28,3.28,0,0,1-1.49-.45,2.89,2.89,0,0,1-1.46-1.57,2,2,0,0,1,.18-1.66,2.18,2.18,0,0,1,1.17-1,3.92,3.92,0,0,1,1.66-.19,7.84,7.84,0,0,1,1.85.39,9.58,9.58,0,0,1,1.71.79l.56-1a7.08,7.08,0,0,0,.51-1.09,1.77,1.77,0,0,0,.05-1,1.65,1.65,0,0,0-.82-.91,2.58,2.58,0,0,0-1-.37,1.49,1.49,0,0,0-1.07.24.86.86,0,0,1,0,.39,2.52,2.52,0,0,1-.14.33,1,1,0,0,1-.41.34.67.67,0,0,1-.68-.09.69.69,0,0,1-.37-.52A1,1,0,0,1,406,274a1.58,1.58,0,0,1,.95-.73,3.25,3.25,0,0,1,1.5,0,5.51,5.51,0,0,1,1.75.67,2.89,2.89,0,0,1,1.54,1.82,3.68,3.68,0,0,1-.66,2.56l-.67,1.17-.69,1.18-.69,1.18c-.1.17-.2.33-.31.49s-.23.35-.37.54l.57.29.58.29-.38.66Zm2.08-3.93a7.35,7.35,0,0,0-1.2-.52,5.13,5.13,0,0,0-1.29-.27,2.62,2.62,0,0,0-1.16.16,1.61,1.61,0,0,0-.83.76,1.32,1.32,0,0,0-.11,1.1,1.4,1.4,0,0,0,.67.77,2.79,2.79,0,0,0,1.26.41,4.7,4.7,0,0,0,1.35-.14,2.81,2.81,0,0,1,.2-.38l.24-.43.3-.49Z"/><path d="M412.87,286.64a3.38,3.38,0,0,1-.68-.53,1.93,1.93,0,0,1-.47-.8,2.3,2.3,0,0,1,0-1.17,5.7,5.7,0,0,1,.68-1.62l2.66-4.54-1.22-.68.39-.68a1.82,1.82,0,0,0,1,.18,3.26,3.26,0,0,0,1.22-.36,3.44,3.44,0,0,0,1.1-.83l.53.31-1.26,2.2,2.64,1.52-.36.61-2.66-1.49-2.55,4.35a5.9,5.9,0,0,0-.57,1.27,1.73,1.73,0,0,0-.05,1,1.09,1.09,0,0,0,.55.65,1.68,1.68,0,0,0,1,.22,3,3,0,0,0,1.08-.29l.22.59a5,5,0,0,1-1.15.42,3.29,3.29,0,0,1-.91.07,2.2,2.2,0,0,1-.69-.15A3.7,3.7,0,0,1,412.87,286.64Z"/><path d="M416.41,287.72a.94.94,0,0,0,.82.15,1.41,1.41,0,0,0,.61-.55c.19-.28.39-.6.61-1l2.06-3.58c.1-.17.2-.33.3-.47s.21-.32.36-.52l-.58-.29-.58-.29.39-.66a8.18,8.18,0,0,0,1.1.56,2.65,2.65,0,0,0,.66.17,1.43,1.43,0,0,0,.43,0l.45.26-3.66,6.35-.33.56a4.38,4.38,0,0,1-.35.47l.51.27.51.26-.37.64-3.21-1.85Zm6.78-8.22a.85.85,0,0,1-.43-.6,1.09,1.09,0,0,1,.13-.8,1.06,1.06,0,0,1,.64-.52,1,1,0,0,1,.75.06.92.92,0,0,1,.45.63,1.18,1.18,0,0,1-.14.81,1.11,1.11,0,0,1-.64.51A1,1,0,0,1,423.19,279.5Z"/><path d="M424.24,293.2a4.63,4.63,0,0,1-1.66-1.6,4.16,4.16,0,0,1-.62-2.19,4.9,4.9,0,0,1,.73-2.48,5,5,0,0,1,1.22-1.42,5.15,5.15,0,0,1,1.64-.9,4.51,4.51,0,0,1,1.86-.24,4.45,4.45,0,0,1,1.88.6,4.67,4.67,0,0,1,1.37,1.15,2.82,2.82,0,0,1,.61,1.29,1.72,1.72,0,0,1-.19,1.17,1.07,1.07,0,0,1-.53.48.75.75,0,0,1-.69-.07.67.67,0,0,1-.42-.57,1,1,0,0,1,.11-.56,1.22,1.22,0,0,1,.23-.29.79.79,0,0,1,.36-.2,1.17,1.17,0,0,0-.11-.81,2.4,2.4,0,0,0-.52-.61,4.67,4.67,0,0,0-.53-.38,2.62,2.62,0,0,0-2.29-.18,4.31,4.31,0,0,0-2.17,2.07,5.71,5.71,0,0,0-.74,2.06,3.44,3.44,0,0,0,.21,1.83,2.64,2.64,0,0,0,1.15,1.28,3.16,3.16,0,0,0,1.64.42,3.63,3.63,0,0,0,1.61-.35l.22.55a4.15,4.15,0,0,1-1.59.5,4.68,4.68,0,0,1-2.78-.55Z"/><path d="M432.59,298a4.55,4.55,0,0,1-1.7-1.67,4.35,4.35,0,0,1-.61-2.23,4.64,4.64,0,0,1,.67-2.37,5.41,5.41,0,0,1,1.8-1.93,4.72,4.72,0,0,1,2.32-.75,4.19,4.19,0,0,1,2.34.59,4.4,4.4,0,0,1,1.69,1.68,4.53,4.53,0,0,1,0,4.59,5.51,5.51,0,0,1-1.8,1.91,4.82,4.82,0,0,1-2.34.75A4.15,4.15,0,0,1,432.59,298Zm.49-.56a2.08,2.08,0,0,0,1.59.29,3.12,3.12,0,0,0,1.4-.82,6.67,6.67,0,0,0,1.13-1.47,8.34,8.34,0,0,0,.67-1.46,5.88,5.88,0,0,0,.3-1.49,2.77,2.77,0,0,0-.22-1.3,2.08,2.08,0,0,0-.88-1,2.21,2.21,0,0,0-1.61-.29,3.11,3.11,0,0,0-1.47.78,6,6,0,0,0-1.18,1.48,7.41,7.41,0,0,0-.8,2,4,4,0,0,0,0,1.89A2.14,2.14,0,0,0,433.08,297.46Z"/><line class="b77f6236-9e9a-4536-89d8-09656fab9d44" x1="283.37" y1="255.57" x2="305.03" y2="268.06"/><line class="e2384810-be17-4103-b774-67f72042a9f8" x1="309.96" y1="270.91" x2="345.01" y2="291.13"/><line class="b23e9b33-40f2-457a-8ac9-2a99f30513ab" x1="347.47" y1="292.55" x2="436.81" y2="344.1"/><line class="b77f6236-9e9a-4536-89d8-09656fab9d44" x1="439.28" y1="345.52" x2="460.94" y2="358.02"/><line class="b77f6236-9e9a-4536-89d8-09656fab9d44" x1="277.87" y1="265.1" x2="281.34" y2="267.1"/><line class="b4c5ba29-9c3c-4b13-97a2-4d3397818de7" x1="286.13" y1="269.86" x2="360.43" y2="312.73"/><line class="aadc6187-d957-4510-a860-7f4ce2d072be" x1="362.82" y1="314.11" x2="449.58" y2="364.16"/><line class="b77f6236-9e9a-4536-89d8-09656fab9d44" x1="451.97" y1="365.55" x2="455.44" y2="367.55"/><line class="b77f6236-9e9a-4536-89d8-09656fab9d44" x1="272.38" y1="274.63" x2="275.84" y2="276.63"/><line class="a5a46ed9-a94c-4044-8ca7-9ffbd0c24d7b" x1="278.23" y1="278.01" x2="355.98" y2="322.86"/><line class="ed43f22f-5643-4f78-b3a7-1c7be8a17878" x1="357.97" y1="324.01" x2="444.48" y2="373.92"/><line class="b77f6236-9e9a-4536-89d8-09656fab9d44" x1="446.48" y1="375.07" x2="449.94" y2="377.07"/><line class="b77f6236-9e9a-4536-89d8-09656fab9d44" x1="266.88" y1="284.15" x2="297.2" y2="301.65"/><line class="a915fbc3-f54b-40e4-8ed7-ab68cbec7a1d" x1="301.69" y1="304.24" x2="321.93" y2="315.92"/><line class="b5aa227b-19a2-45b4-a1af-38d7114681b8" x1="324.18" y1="317.21" x2="411.88" y2="367.81"/><line class="b77f6236-9e9a-4536-89d8-09656fab9d44" x1="414.13" y1="369.11" x2="444.45" y2="386.6"/><line class="b77f6236-9e9a-4536-89d8-09656fab9d44" x1="261.88" y1="292.82" x2="272.71" y2="299.06"/><line class="a5a7d34d-d0ec-4ad4-9481-f6d61fe50ecc" x1="276.71" y1="301.37" x2="338.67" y2="337.12"/><line class="a5959948-2b4d-4845-963f-f12eedb27acc" x1="340.67" y1="338.27" x2="426.62" y2="387.86"/><line class="b77f6236-9e9a-4536-89d8-09656fab9d44" x1="428.62" y1="389.02" x2="439.45" y2="395.26"/><line class="b77f6236-9e9a-4536-89d8-09656fab9d44" x1="256.38" y1="302.34" x2="258.55" y2="303.59"/><line class="ea756120-99eb-46b3-bf4a-12cf68b1d1c4" x1="262.09" y1="305.63" x2="341.63" y2="351.53"/><line class="b6bee90f-7b06-4262-9e8d-0a7bc6ffa2fa" x1="343.4" y1="352.55" x2="430.02" y2="402.52"/><line class="b77f6236-9e9a-4536-89d8-09656fab9d44" x1="431.79" y1="403.54" x2="433.95" y2="404.79"/><line class="b77f6236-9e9a-4536-89d8-09656fab9d44" x1="250.89" y1="311.87" x2="289.87" y2="334.36"/><line class="a4bf1022-c995-4d4c-99f3-c45854b2db60" x1="292.49" y1="335.87" x2="314.77" y2="348.73"/><line class="a1dd4484-23ca-4dee-8ed7-cf2c610db4e1" x1="316.08" y1="349.48" x2="388.16" y2="391.07"/><line class="b77f6236-9e9a-4536-89d8-09656fab9d44" x1="389.48" y1="391.83" x2="428.45" y2="414.32"/><line class="b77f6236-9e9a-4536-89d8-09656fab9d44" x1="245.39" y1="321.4" x2="256.22" y2="327.65"/><line class="ef0b17f5-cd45-42b8-a413-135bb2eebc0b" x1="260.57" y1="330.16" x2="321.11" y2="365.09"/><line class="f691fb32-a3d5-4941-bb7f-dff6ead3077f" x1="323.29" y1="366.34" x2="409.95" y2="416.34"/><line class="b77f6236-9e9a-4536-89d8-09656fab9d44" x1="412.13" y1="417.6" x2="422.96" y2="423.85"/><line class="b77f6236-9e9a-4536-89d8-09656fab9d44" x1="228.9" y1="349.98" x2="250.55" y2="362.48"/><line class="e2384810-be17-4103-b774-67f72042a9f8" x1="255.49" y1="365.32" x2="290.53" y2="385.54"/><line class="b23e9b33-40f2-457a-8ac9-2a99f30513ab" x1="293" y1="386.97" x2="382.34" y2="438.51"/><line class="b77f6236-9e9a-4536-89d8-09656fab9d44" x1="384.81" y1="439.94" x2="406.46" y2="452.43"/><line class="b77f6236-9e9a-4536-89d8-09656fab9d44" x1="223.4" y1="359.51" x2="226.87" y2="361.51"/><line class="b4c5ba29-9c3c-4b13-97a2-4d3397818de7" x1="231.66" y1="364.28" x2="305.95" y2="407.14"/><line class="aadc6187-d957-4510-a860-7f4ce2d072be" x1="308.35" y1="408.52" x2="395.11" y2="458.58"/><line class="b77f6236-9e9a-4536-89d8-09656fab9d44" x1="397.5" y1="459.96" x2="400.97" y2="461.96"/><line class="b77f6236-9e9a-4536-89d8-09656fab9d44" x1="217.9" y1="369.04" x2="221.37" y2="371.04"/><line class="a5a46ed9-a94c-4044-8ca7-9ffbd0c24d7b" x1="223.76" y1="372.42" x2="301.5" y2="417.27"/><line class="ed43f22f-5643-4f78-b3a7-1c7be8a17878" x1="303.5" y1="418.42" x2="390.01" y2="468.34"/><line class="b77f6236-9e9a-4536-89d8-09656fab9d44" x1="392.01" y1="469.49" x2="395.47" y2="471.49"/><line class="b77f6236-9e9a-4536-89d8-09656fab9d44" x1="212.41" y1="378.57" x2="242.72" y2="396.06"/><line class="a915fbc3-f54b-40e4-8ed7-ab68cbec7a1d" x1="247.22" y1="398.65" x2="267.46" y2="410.33"/><line class="b5aa227b-19a2-45b4-a1af-38d7114681b8" x1="269.71" y1="411.63" x2="357.41" y2="462.23"/><line class="b77f6236-9e9a-4536-89d8-09656fab9d44" x1="359.66" y1="463.52" x2="389.97" y2="481.01"/><line class="b77f6236-9e9a-4536-89d8-09656fab9d44" x1="207.41" y1="387.23" x2="218.24" y2="393.48"/><line class="a5a7d34d-d0ec-4ad4-9481-f6d61fe50ecc" x1="222.24" y1="395.78" x2="284.2" y2="431.53"/><line class="a5959948-2b4d-4845-963f-f12eedb27acc" x1="286.2" y1="432.69" x2="372.15" y2="482.28"/><line class="b77f6236-9e9a-4536-89d8-09656fab9d44" x1="374.15" y1="483.43" x2="384.98" y2="489.68"/><line class="b77f6236-9e9a-4536-89d8-09656fab9d44" x1="201.91" y1="396.76" x2="204.08" y2="398.01"/><line class="ea756120-99eb-46b3-bf4a-12cf68b1d1c4" x1="207.61" y1="400.05" x2="287.16" y2="445.94"/><line class="b6bee90f-7b06-4262-9e8d-0a7bc6ffa2fa" x1="288.93" y1="446.96" x2="375.55" y2="496.93"/><line class="b77f6236-9e9a-4536-89d8-09656fab9d44" x1="377.31" y1="497.95" x2="379.48" y2="499.2"/><line class="b77f6236-9e9a-4536-89d8-09656fab9d44" x1="196.42" y1="406.28" x2="235.39" y2="428.77"/><line class="a4bf1022-c995-4d4c-99f3-c45854b2db60" x1="238.01" y1="430.29" x2="260.3" y2="443.14"/><line class="a1dd4484-23ca-4dee-8ed7-cf2c610db4e1" x1="261.61" y1="443.9" x2="333.69" y2="485.49"/><line class="b77f6236-9e9a-4536-89d8-09656fab9d44" x1="335" y1="486.24" x2="373.98" y2="508.73"/><line class="b77f6236-9e9a-4536-89d8-09656fab9d44" x1="190.92" y1="415.81" x2="201.75" y2="422.06"/><line class="ef0b17f5-cd45-42b8-a413-135bb2eebc0b" x1="206.1" y1="424.57" x2="266.64" y2="459.5"/><line class="f691fb32-a3d5-4941-bb7f-dff6ead3077f" x1="268.81" y1="460.75" x2="355.48" y2="510.76"/><line class="b77f6236-9e9a-4536-89d8-09656fab9d44" x1="357.66" y1="512.01" x2="368.48" y2="518.26"/><path id="f662870e-ccc6-49cc-a9b2-4093244025a0" data-name="Isotipo" d="M333.81,556.32a5.89,5.89,0,0,1-3.95-1.24,5.82,5.82,0,0,0-4.27-1.17c-.22.05-1.64.54-1.78,1.76l-.14-.07a3.61,3.61,0,0,1-1.55-1.73,7.78,7.78,0,0,1-.54-2.83c0-1.16,0-2.83.14-5,0-.81.11-2,.23-3.6.15-2.22.23-4,.23-5.35a13.12,13.12,0,0,0-.57-3.91,6.84,6.84,0,0,0-2-3.15,16.53,16.53,0,0,0,6.52,1.68,4.73,4.73,0,0,0,4.51-2.5,5.38,5.38,0,0,0,.29-5.36,12.57,12.57,0,0,0-5.19-4.86l-7.35-4.24q-.39-.22-1-.63l-1-.62a2.79,2.79,0,0,0-2.27-.41,2.93,2.93,0,0,0-1.65,1.44,7.51,7.51,0,0,0-.89,4.2,12.33,12.33,0,0,0,1.34,4.89L308.66,531a16.62,16.62,0,0,1-2,2.91,1.89,1.89,0,0,1-1.49.75,5.89,5.89,0,0,1-2.07-.8c-.1,0-.17,0-.21,0s0,.14.09.2c.92.53,1.72,1,2.38,1.29.21.1.49.24.83.44l2,1.13c.48.28.86.51,1.13.69.86.55,1.94,1.2,3.25,2,.16.1.26.1.31,0s0,0,0-.1a.64.64,0,0,0-.15-.13,9.44,9.44,0,0,1-2.45-1.87,2.25,2.25,0,0,1-.36-2,14.36,14.36,0,0,1,1.61-3.53l3.25-5.63a14.47,14.47,0,0,0,3.55,3,3.3,3.3,0,0,1,1.54,2.37,12.93,12.93,0,0,1,.16,3.73c-.12,1.36-.34,3.1-.68,5.21,0,.26-.16,1-.34,2.19a30.15,30.15,0,0,0-.33,3.16,11.84,11.84,0,0,0,1.08,5.7,9,9,0,0,0,3.77,4.12l.35.19a3.52,3.52,0,0,0,.86,1.83c2.29,2.86,6.89.43,7.55.1a4.3,4.3,0,0,0,1.11-.82l.57-.65A.1.1,0,0,0,333.81,556.32Zm-20.69-33a11.84,11.84,0,0,1-1.2-4.67,7.17,7.17,0,0,1,.83-3.94,2.65,2.65,0,0,1,1.47-1.3,2.56,2.56,0,0,1,2,.39,1.66,1.66,0,0,1,.72,1.76,7.44,7.44,0,0,1-1.1,3Zm1.77,2.79,3.61-6.27c.56-1,1-1.69,1.33-2.19a8,8,0,0,1,.88-1.15l4.37,2.52a6.81,6.81,0,0,1,3.25,3.7,5.66,5.66,0,0,1-.69,4.8,6.53,6.53,0,0,1-2.54,2.73,4.36,4.36,0,0,1-2.92.37,15.14,15.14,0,0,1-3.72-1.45A12.51,12.51,0,0,1,314.89,526.08Z"/><path d="M297.14,48.39a1.38,1.38,0,0,0,1-.09,1.23,1.23,0,0,0,.45-.7c.1-.32.19-.68.29-1.1l1.8-7.62c.05-.24.11-.46.17-.68s.12-.41.18-.58l-.65-.12-.64-.11.18-.78,1.93.43,2,.47a9.18,9.18,0,0,1,2.78,1.06,3.92,3.92,0,0,1,1.52,1.57,3.26,3.26,0,0,1,.22,2,4,4,0,0,1-.54,1.39,3.75,3.75,0,0,1-1.21,1.2,4.68,4.68,0,0,1-2.07.64,9.47,9.47,0,0,1-3.07-.29l-.27-.07-.37-.1-.6,2.56c-.07.32-.14.59-.2.82a4.67,4.67,0,0,1-.18.56l.55.1.55.1.54.1-.18.79L297,49ZM301,44.24l.57.18.57.14a4.21,4.21,0,0,0,1.93,0,3.33,3.33,0,0,0,1.59-.82,3.19,3.19,0,0,0,.91-1.65,3.48,3.48,0,0,0,.07-1.49,2.5,2.5,0,0,0-.52-1.13,3.55,3.55,0,0,0-1-.8,6.24,6.24,0,0,0-1.44-.51,1.14,1.14,0,0,0-.92.06,1.24,1.24,0,0,0-.44.67c-.09.31-.18.67-.28,1.1Z"/><path d="M311.64,52.72a4.65,4.65,0,0,1-2.11-1.1,4.44,4.44,0,0,1-1.22-2,4.65,4.65,0,0,1,0-2.46,5.51,5.51,0,0,1,1.17-2.37,4.64,4.64,0,0,1,2-1.38,4.2,4.2,0,0,1,2.41-.11A4.37,4.37,0,0,1,316,44.45a4.77,4.77,0,0,1,1.23,2,4.57,4.57,0,0,1,.06,2.44,5.52,5.52,0,0,1-1.18,2.34,4.83,4.83,0,0,1-2,1.4A4.11,4.11,0,0,1,311.64,52.72Zm.31-.67a2.17,2.17,0,0,0,1.61-.18,3.24,3.24,0,0,0,1.11-1.2,6.45,6.45,0,0,0,.65-1.72,8,8,0,0,0,.22-1.6,5.28,5.28,0,0,0-.14-1.51,3,3,0,0,0-.58-1.19A2.07,2.07,0,0,0,313.7,44a2.19,2.19,0,0,0-1.63.17,3.18,3.18,0,0,0-1.18,1.18,5.89,5.89,0,0,0-.7,1.75,7.21,7.21,0,0,0-.19,2.15,4,4,0,0,0,.54,1.81A2.16,2.16,0,0,0,312,52.05Z"/><path d="M317.78,53.31a1,1,0,0,0,.83-.1,1.44,1.44,0,0,0,.42-.7q.15-.48.3-1.11l.95-4c0-.19.09-.38.14-.57a5.61,5.61,0,0,1,.2-.57,6.38,6.38,0,0,1-.63-.12l-.64-.12.17-.72.55.13a2.48,2.48,0,0,0,1.09.09,2,2,0,0,0,.56-.21l.51.12c0,.2-.06.43-.11.71s-.12.63-.21,1.06a3.88,3.88,0,0,1,.93-.69A4.48,4.48,0,0,1,324,46a2.73,2.73,0,0,1,1.27,0,1.43,1.43,0,0,1,.8.46,1,1,0,0,1,.17.94.86.86,0,0,1-.16.32,1.06,1.06,0,0,1-.37.29.84.84,0,0,1-.55,0,.81.81,0,0,1-.54-.46.86.86,0,0,1,0-.72,1.85,1.85,0,0,0-1,0,3.56,3.56,0,0,0-1,.47,5.05,5.05,0,0,0-1,.85l-1,4.34q-.07.36-.15.63a4.74,4.74,0,0,1-.2.56l.56.1.57.11-.17.72-3.62-.85Z"/><path d="M329.64,61.41l.13-.53a.91.91,0,0,0,.82-.09,1.38,1.38,0,0,0,.43-.7q.15-.48.3-1.11l.62-2.65a3.23,3.23,0,0,1-1.32.55,3.94,3.94,0,0,1-4.51-3,5.05,5.05,0,0,1,0-2.5A5.26,5.26,0,0,1,327.35,49a4.54,4.54,0,0,1,4.48-1.39,4.77,4.77,0,0,1,1.3.51,3.32,3.32,0,0,0,1,.44,1.25,1.25,0,0,0,.38,0,.92.92,0,0,0,.36-.15l.5.12-2.73,11.63q-.08.36-.15.63a4.74,4.74,0,0,1-.2.56l.56.1.56.11-.17.72Zm.23-5.31a2.34,2.34,0,0,0,1.2-.05,3,3,0,0,0,1.08-.61l1.09-4.62a3.1,3.1,0,0,0,.08-1.22,1.45,1.45,0,0,0-.47-.86,2.75,2.75,0,0,0-1.14-.52,2.42,2.42,0,0,0-1.58.13,3.1,3.1,0,0,0-1.27,1.11,5.59,5.59,0,0,0-.81,1.93,6.23,6.23,0,0,0-.15,2.12,3.4,3.4,0,0,0,.61,1.69A2.22,2.22,0,0,0,329.87,56.1Z"/><path d="M339,59.17a3.44,3.44,0,0,1-1.51-.73A2.34,2.34,0,0,1,336.8,57a6.84,6.84,0,0,1,.22-2.38l.74-3.14c0-.19.09-.37.14-.56a3.23,3.23,0,0,1,.2-.57c-.21,0-.41-.07-.62-.12l-.61-.11.17-.73.54.13a3,3,0,0,0,1.14.11,1.81,1.81,0,0,0,.62-.2l.51.12L338.58,55a4.77,4.77,0,0,0-.1,2.37,1.56,1.56,0,0,0,1.3,1.08,2.63,2.63,0,0,0,1.38-.11,3.43,3.43,0,0,0,1.2-.72L343.43,53c.07-.28.13-.52.19-.72a3.89,3.89,0,0,1,.22-.6l-.65-.12c-.21,0-.42-.09-.64-.12l.17-.73.55.13a3,3,0,0,0,1.14.11,1.75,1.75,0,0,0,.61-.2l.52.12L344,57.57l-.21.79c-.09.34-.18.62-.26.85l.65.12.64.11-.17.74-2.53-.59a4.93,4.93,0,0,1,.06-.58c0-.18,0-.35.07-.51a5.25,5.25,0,0,1-1.55.63A3.43,3.43,0,0,1,339,59.17Z"/><path d="M350.09,61.78A4.41,4.41,0,0,1,348,60.69a4.21,4.21,0,0,1-1.16-2,5.17,5.17,0,0,1,0-2.62A5.07,5.07,0,0,1,348,53.9a4.6,4.6,0,0,1,2-1.37,4.49,4.49,0,0,1,3.82.45,3.16,3.16,0,0,1,1,1,3.29,3.29,0,0,1,.49,1.4,4.68,4.68,0,0,1-.12,1.79l-6.24-1.36a8.58,8.58,0,0,0-.26,2.42,3.18,3.18,0,0,0,.57,1.8,2.6,2.6,0,0,0,1.55.95,3.69,3.69,0,0,0,1.16.07,4.46,4.46,0,0,0,1.2-.28,3.38,3.38,0,0,0,1-.56l.34.46a4.08,4.08,0,0,1-1.43.91,5,5,0,0,1-1.53.31A5.2,5.2,0,0,1,350.09,61.78Zm-1-6.7,4.5,1.06a3.92,3.92,0,0,0,.1-1.27,2.12,2.12,0,0,0-.38-1.12,1.63,1.63,0,0,0-1-.64,2.54,2.54,0,0,0-1.85.21A3.26,3.26,0,0,0,349.1,55.08Z"/><path d="M360.22,63.31a1,1,0,0,0,.83-.1,1.44,1.44,0,0,0,.42-.7q.15-.48.3-1.11l1-4c0-.18.09-.37.14-.56a4.3,4.3,0,0,1,.2-.57l-.63-.12-.64-.12.17-.72.55.13a2.65,2.65,0,0,0,1.09.09,2,2,0,0,0,.56-.21l.51.12c0,.19-.06.43-.11.71s-.12.63-.21,1.06a3.88,3.88,0,0,1,.93-.69,4.17,4.17,0,0,1,1.2-.47,2.6,2.6,0,0,1,1.27,0,1.43,1.43,0,0,1,.8.46,1,1,0,0,1,.17.94.86.86,0,0,1-.16.32,1.06,1.06,0,0,1-.37.29.85.85,0,0,1-1.09-.43.86.86,0,0,1,0-.72,1.85,1.85,0,0,0-1,0,3.56,3.56,0,0,0-1,.47,5.37,5.37,0,0,0-1,.85l-1,4.34q-.08.36-.15.63a5.47,5.47,0,0,1-.2.56l.56.1.57.1-.17.73-3.62-.85Z"/><path d="M371.82,66.9a4.41,4.41,0,0,1-2.06-1.09,4.21,4.21,0,0,1-1.16-2,5.29,5.29,0,0,1,0-2.62,5.07,5.07,0,0,1,1.1-2.18,4.66,4.66,0,0,1,2-1.37,4.28,4.28,0,0,1,2.49-.11,4.17,4.17,0,0,1,1.33.56,3.31,3.31,0,0,1,1,1,3.58,3.58,0,0,1,.49,1.4,4.9,4.9,0,0,1-.13,1.79l-6.24-1.36a8.58,8.58,0,0,0-.26,2.42,3.29,3.29,0,0,0,.57,1.8,2.6,2.6,0,0,0,1.55.95,3.73,3.73,0,0,0,1.17.07,4.39,4.39,0,0,0,1.19-.28,3.38,3.38,0,0,0,1-.56l.34.46a4,4,0,0,1-1.43.91,4.9,4.9,0,0,1-1.52.31A5.24,5.24,0,0,1,371.82,66.9Zm-1-6.7,4.5,1.06a4.23,4.23,0,0,0,.11-1.27,2.2,2.2,0,0,0-.38-1.12,1.69,1.69,0,0,0-1-.64,2.51,2.51,0,0,0-1.84.21A3.32,3.32,0,0,0,370.83,60.2Z"/><path d="M381.34,69.14a4.72,4.72,0,0,1-2-1,4.22,4.22,0,0,1-1.23-1.93,5.35,5.35,0,0,1,.74-4.29,5.42,5.42,0,0,1,1.32-1.34,4.56,4.56,0,0,1,1.71-.76,4.25,4.25,0,0,1,2,0,4.62,4.62,0,0,1,1.65.7,2.93,2.93,0,0,1,.95,1.06,1.7,1.7,0,0,1,.15,1.18,1.08,1.08,0,0,1-.36.61.78.78,0,0,1-.69.13.69.69,0,0,1-.56-.42,1,1,0,0,1-.06-.57,1.28,1.28,0,0,1,.14-.35.8.8,0,0,1,.29-.29,1.11,1.11,0,0,0-.35-.75,2.08,2.08,0,0,0-.67-.43,4.05,4.05,0,0,0-.61-.21,2.63,2.63,0,0,0-2.25.48A4.33,4.33,0,0,0,380,63.56a5.69,5.69,0,0,0-.11,2.19,3.47,3.47,0,0,0,.73,1.69,2.61,2.61,0,0,0,1.46.89,3.24,3.24,0,0,0,1.69-.06,3.6,3.6,0,0,0,1.44-.8l.38.46a4.28,4.28,0,0,1-1.39.94,4.78,4.78,0,0,1-1.48.36A4.72,4.72,0,0,1,381.34,69.14Z"/><path d="M386.61,69.53a1,1,0,0,0,.83-.1,1.44,1.44,0,0,0,.42-.7q.15-.48.3-1.11l.95-4c.05-.19.09-.36.15-.53s.11-.37.19-.6l-.63-.11-.64-.11.18-.75a7.26,7.26,0,0,0,1.22.22,2.32,2.32,0,0,0,.68,0,1,1,0,0,0,.4-.15l.51.12-1.68,7.14c-.05.23-.11.44-.16.62a3.37,3.37,0,0,1-.19.56l.56.11.56.1-.17.72-3.6-.85Zm4.13-9.82a.9.9,0,0,1-.59-.46,1.07,1.07,0,0,1-.1-.81,1.05,1.05,0,0,1,.46-.68.92.92,0,0,1,.74-.15.9.9,0,0,1,.61.47,1.13,1.13,0,0,1,.09.81,1.07,1.07,0,0,1-.46.68A1,1,0,0,1,390.74,59.71Z"/><path d="M395.69,72.52a4.72,4.72,0,0,1-2.05-1,4.13,4.13,0,0,1-1.22-1.93,4.88,4.88,0,0,1,0-2.58,5.15,5.15,0,0,1,.76-1.71,5.38,5.38,0,0,1,1.31-1.34,4.6,4.6,0,0,1,1.72-.76,4.34,4.34,0,0,1,2,0,4.62,4.62,0,0,1,1.65.7,2.88,2.88,0,0,1,.95,1.07,1.67,1.67,0,0,1,.16,1.17,1.09,1.09,0,0,1-.37.61.76.76,0,0,1-.68.13.69.69,0,0,1-.57-.42,1.19,1.19,0,0,1-.06-.57,1.7,1.7,0,0,1,.14-.35.8.8,0,0,1,.29-.29,1.12,1.12,0,0,0-.34-.74,2.16,2.16,0,0,0-.67-.44,4.53,4.53,0,0,0-.62-.21,2.6,2.6,0,0,0-2.24.48,4.32,4.32,0,0,0-1.48,2.61,5.52,5.52,0,0,0-.12,2.19,3.43,3.43,0,0,0,.73,1.69,2.58,2.58,0,0,0,1.47.89,3.14,3.14,0,0,0,1.69-.06,3.62,3.62,0,0,0,1.43-.8l.38.46a4.08,4.08,0,0,1-1.39.94,4.51,4.51,0,0,1-1.48.36A4.1,4.1,0,0,1,395.69,72.52Z"/><path d="M400.79,72.87a.93.93,0,0,0,.82-.1,1.38,1.38,0,0,0,.43-.7q.15-.48.3-1.11l2-8.35c0-.19.09-.37.13-.54s.11-.37.19-.6l-.63-.11-.64-.11.18-.75a7.1,7.1,0,0,0,1.22.22,3,3,0,0,0,.7,0,1.44,1.44,0,0,0,.39-.15l.52.12-2.69,11.46c-.05.24-.11.44-.16.62a4.85,4.85,0,0,1-.21.56l.57.11.56.1-.17.72-3.6-.85Z"/><path d="M411,75.83a3.69,3.69,0,0,1,.06-.54l.06-.49a5.37,5.37,0,0,1-1.52.64,3.57,3.57,0,0,1-1.56,0,2.89,2.89,0,0,1-1.85-1.08,2,2,0,0,1-.3-1.64,2.14,2.14,0,0,1,.83-1.29,4.09,4.09,0,0,1,1.53-.66,7.32,7.32,0,0,1,1.89-.15,8.52,8.52,0,0,1,1.86.26l.26-1.1a6.32,6.32,0,0,0,.17-1.19,1.68,1.68,0,0,0-.25-1,1.62,1.62,0,0,0-1-.64,2.67,2.67,0,0,0-1.1,0,1.41,1.41,0,0,0-.95.53.72.72,0,0,1,.11.37,2,2,0,0,1,0,.36.91.91,0,0,1-.29.44.83.83,0,0,1-1.18-.28,1,1,0,0,1-.06-.65,1.59,1.59,0,0,1,.71-1,3.22,3.22,0,0,1,1.42-.47,5.56,5.56,0,0,1,1.87.15,2.82,2.82,0,0,1,2,1.3,3.64,3.64,0,0,1,.11,2.64c-.1.43-.21.87-.31,1.31s-.21.89-.32,1.33l-.33,1.33c0,.18-.09.37-.15.56s-.12.39-.2.62l.64.11.63.12-.17.74Zm.86-4.36a8.44,8.44,0,0,0-1.3-.15,5.56,5.56,0,0,0-1.31.11,2.53,2.53,0,0,0-1.06.49,1.61,1.61,0,0,0-.58,1,1.3,1.3,0,0,0,.21,1.08,1.44,1.44,0,0,0,.86.55,2.86,2.86,0,0,0,1.33,0,4.46,4.46,0,0,0,1.25-.51,4,4,0,0,1,.08-.43c0-.15.07-.31.11-.48s.06-.24.14-.56S411.77,71.88,411.87,71.47Z"/><path d="M414.88,76.18a.91.91,0,0,0,.82-.09,1.38,1.38,0,0,0,.43-.7q.15-.48.3-1.11l.95-4c0-.19.09-.38.14-.56a3.23,3.23,0,0,1,.2-.57l-.64-.12-.63-.12.17-.73.55.13a2.66,2.66,0,0,0,1.08.1,2.52,2.52,0,0,0,.57-.21l.51.12c0,.19-.06.43-.11.71s-.13.63-.21,1.06a3.77,3.77,0,0,1,.92-.7,4.73,4.73,0,0,1,1.2-.46,2.77,2.77,0,0,1,1.28,0,1.51,1.51,0,0,1,.8.47,1,1,0,0,1,.17.93.87.87,0,0,1-.17.33.94.94,0,0,1-.36.29.92.92,0,0,1-.55,0,.81.81,0,0,1-.54-.46.86.86,0,0,1,0-.72,1.88,1.88,0,0,0-1,0,3.55,3.55,0,0,0-1,.48,4.67,4.67,0,0,0-1,.84l-1,4.35c0,.23-.11.44-.15.62a4.74,4.74,0,0,1-.2.56l.56.11.56.1-.17.73-3.62-.86Z"/><path d="M427.27,84.71a1.69,1.69,0,0,1-.87-.48,1,1,0,0,1-.2-.91.94.94,0,0,1,.35-.53.68.68,0,0,1,.61-.13c.29,0,.46.18.51.4a1.11,1.11,0,0,1,0,.53l0,.11a1.12,1.12,0,0,1-.05.13.38.38,0,0,0,.19.08.84.84,0,0,0,.5-.07,1.58,1.58,0,0,0,.56-.41,9.6,9.6,0,0,0,.81-1q.49-.7,1.14-1.68l-1.37-6.55c-.15-.73-.25-1.31-.29-1.73s-.07-.73-.07-.93l-.86-.16.18-.72,3.65.86-.13.53-.07,0c-.5-.08-.81,0-.94.36A3.13,3.13,0,0,0,431,74l1,4.91c.45-.68.88-1.37,1.3-2l1.26-2,.48-.73a6.92,6.92,0,0,1,.48-.67,1.08,1.08,0,0,1,.37-.36l-1.24-.21.17-.72,2.77.65-.12.53a1.86,1.86,0,0,0-1.17.59,10.23,10.23,0,0,0-1,1.31l-3.66,5.65q-.88,1.35-1.56,2.28a5.36,5.36,0,0,1-1.35,1.35A1.82,1.82,0,0,1,427.27,84.71Z"/><path d="M441.13,82.37a.9.9,0,0,0,.82-.1,1.34,1.34,0,0,0,.43-.7c.1-.31.2-.69.3-1.11l.95-4c0-.19.09-.38.14-.57a5.61,5.61,0,0,1,.2-.57,5.86,5.86,0,0,1-.63-.12l-.64-.12.17-.72.55.13a2.48,2.48,0,0,0,1.09.09,2.17,2.17,0,0,0,.56-.21l.51.12c0,.2-.06.43-.11.71s-.13.63-.21,1.06a4,4,0,0,1,.92-.69,4.75,4.75,0,0,1,1.2-.47,2.91,2.91,0,0,1,1.28,0,1.39,1.39,0,0,1,.8.47,1,1,0,0,1,.17.93.91.91,0,0,1-.17.32.94.94,0,0,1-.36.29.84.84,0,0,1-.55,0,.81.81,0,0,1-.54-.46.86.86,0,0,1,0-.72,1.85,1.85,0,0,0-1,0,3.56,3.56,0,0,0-1,.47,5.05,5.05,0,0,0-1,.85l-1,4.34q-.07.36-.15.63a4.74,4.74,0,0,1-.2.56l.56.1.57.11-.18.72L441,82.9Z"/><path d="M452.73,86a4.41,4.41,0,0,1-2.06-1.09,4.21,4.21,0,0,1-1.16-2,5.25,5.25,0,0,1,0-2.61,5,5,0,0,1,1.1-2.19,4.75,4.75,0,0,1,2-1.37,4.43,4.43,0,0,1,3.82.46,3.24,3.24,0,0,1,1,1,3.34,3.34,0,0,1,.49,1.4,4.68,4.68,0,0,1-.12,1.79L451.51,80a8.58,8.58,0,0,0-.26,2.42,3.18,3.18,0,0,0,.57,1.8,2.6,2.6,0,0,0,1.55,1,3.41,3.41,0,0,0,1.16.07,4.38,4.38,0,0,0,1.2-.28,3.37,3.37,0,0,0,1-.55l.34.45a4.08,4.08,0,0,1-1.43.91,5,5,0,0,1-1.52.31A5.24,5.24,0,0,1,452.73,86Zm-1-6.7,4.5,1.06a3.9,3.9,0,0,0,.1-1.27,2.16,2.16,0,0,0-.37-1.11,1.7,1.7,0,0,0-1-.65,2.54,2.54,0,0,0-1.85.21A3.35,3.35,0,0,0,451.74,79.26Z"/><path d="M461.75,88.08a3.33,3.33,0,0,1-1.51-.72,2.28,2.28,0,0,1-.69-1.43,7.05,7.05,0,0,1,.21-2.38l.75-3.14c0-.19.09-.37.14-.56a3.23,3.23,0,0,1,.2-.57c-.21,0-.41-.07-.62-.12l-.61-.11.17-.73.54.13a3,3,0,0,0,1.14.11,1.81,1.81,0,0,0,.62-.2l.51.12-1.27,5.39a4.77,4.77,0,0,0-.1,2.37,1.56,1.56,0,0,0,1.3,1.08,2.53,2.53,0,0,0,1.38-.12,3.27,3.27,0,0,0,1.2-.71L466.18,82c.07-.28.13-.52.19-.73a5.89,5.89,0,0,1,.21-.59l-.64-.12c-.21,0-.42-.09-.64-.12l.17-.73.55.13a2.94,2.94,0,0,0,1.14.11,1.82,1.82,0,0,0,.61-.2l.51.12-1.59,6.67c0,.19-.11.45-.2.79s-.18.62-.26.85l.65.12.64.11-.17.74-2.53-.59a4.93,4.93,0,0,1,.06-.58c0-.18,0-.35.07-.51a5.25,5.25,0,0,1-1.55.63A3.3,3.3,0,0,1,461.75,88.08Z"/><path d="M471.89,90.47a3.37,3.37,0,0,1-.81-.31,1.93,1.93,0,0,1-.68-.63,2.47,2.47,0,0,1-.34-1.12,5.61,5.61,0,0,1,.19-1.75l1.24-5.11-1.36-.31.18-.75a1.83,1.83,0,0,0,1-.13,3.25,3.25,0,0,0,1.07-.69,3.69,3.69,0,0,0,.81-1.11l.6.14-.58,2.47,3,.7-.17.69-3-.67-1.19,4.9a6,6,0,0,0-.19,1.39,1.66,1.66,0,0,0,.24.94,1.09,1.09,0,0,0,.71.46,1.68,1.68,0,0,0,1-.06,2.81,2.81,0,0,0,.95-.6l.39.5a4.53,4.53,0,0,1-1,.74,3.52,3.52,0,0,1-.85.33,2.19,2.19,0,0,1-.7.06A3,3,0,0,1,471.89,90.47Z"/><path d="M475.59,90.49a.93.93,0,0,0,.82-.1,1.38,1.38,0,0,0,.43-.7q.15-.48.3-1.11l.95-4c0-.18.09-.36.14-.53s.12-.37.2-.6l-.64-.11-.63-.11.17-.74a8.41,8.41,0,0,0,1.22.21,2.41,2.41,0,0,0,.69,0,1.34,1.34,0,0,0,.4-.14l.51.12-1.68,7.13c-.06.23-.11.44-.16.62a3.44,3.44,0,0,1-.2.56l.57.11.56.1-.17.73-3.6-.85Zm4.12-9.82a.9.9,0,0,1-.58-.46,1.05,1.05,0,0,1-.11-.8,1.08,1.08,0,0,1,.47-.68.9.9,0,0,1,.73-.16.89.89,0,0,1,.61.47,1.1,1.1,0,0,1,.1.82,1.06,1.06,0,0,1-.47.67A1,1,0,0,1,479.71,80.67Z"/><path d="M480.38,91.62a1,1,0,0,0,.82-.1,1.44,1.44,0,0,0,.42-.7q.15-.48.3-1.11l2-8.35c.05-.19.09-.37.14-.54s.11-.37.19-.6l-.64-.11L483,80l.17-.75a7.35,7.35,0,0,0,1.23.22,2.91,2.91,0,0,0,.69,0,1.52,1.52,0,0,0,.4-.15l.51.12-2.68,11.46c-.06.24-.11.44-.17.62a4.74,4.74,0,0,1-.2.56l.56.11.56.1-.17.72-3.6-.85Z"/><path d="M485.35,92.79a1,1,0,0,0,.83-.1,1.44,1.44,0,0,0,.42-.7q.15-.48.3-1.11l1-4c0-.18.09-.36.15-.53s.11-.37.19-.6l-.63-.11-.64-.11.18-.74a8.1,8.1,0,0,0,1.21.21,2.37,2.37,0,0,0,.69,0,1.24,1.24,0,0,0,.4-.14l.51.12-1.68,7.13c-.06.23-.11.44-.16.62a4.63,4.63,0,0,1-.19.56l.56.11.56.1-.17.73-3.6-.85ZM489.47,83a.92.92,0,0,1-.58-.45,1.13,1.13,0,0,1-.11-.81,1.08,1.08,0,0,1,.47-.68.92.92,0,0,1,.74-.16.89.89,0,0,1,.6.47,1.1,1.1,0,0,1,.1.82,1,1,0,0,1-.47.67A1,1,0,0,1,489.47,83Z"/><path d="M490.12,94.47l.17-.72,6.42-5.18.72-.57a2.06,2.06,0,0,1,.56-.34l-3.34-.73a1.46,1.46,0,0,0-1.09.1,2.14,2.14,0,0,0-.74.78,12,12,0,0,0-.55,1.18l-.55-.12,1-3.12,6.92,1.63-.14.57-6.52,5.38-.52.4a5,5,0,0,1-.63.37l3.39.86a1.91,1.91,0,0,0,1.25-.07,2,2,0,0,0,.85-.76,7,7,0,0,0,.62-1.22l.51.12-1,3.17Z"/><path d="M504.58,97.88c0-.21,0-.39.05-.55a3.86,3.86,0,0,0,.06-.49,4.89,4.89,0,0,1-1.52.64,3.38,3.38,0,0,1-1.55,0,2.92,2.92,0,0,1-1.86-1.08,2,2,0,0,1-.3-1.65,2.14,2.14,0,0,1,.84-1.28,3.88,3.88,0,0,1,1.53-.67,8.24,8.24,0,0,1,1.88-.15,8.61,8.61,0,0,1,1.87.26l.26-1.09a7.41,7.41,0,0,0,.17-1.19,1.79,1.79,0,0,0-.25-1,1.69,1.69,0,0,0-1-.64,2.68,2.68,0,0,0-1.1,0,1.51,1.51,0,0,0-1,.54.62.62,0,0,1,.11.37,1.83,1.83,0,0,1,0,.35,1,1,0,0,1-.3.45.66.66,0,0,1-.67.11.7.7,0,0,1-.51-.39,1,1,0,0,1-.05-.66,1.55,1.55,0,0,1,.71-1,3.18,3.18,0,0,1,1.42-.46,5.33,5.33,0,0,1,1.87.14,2.9,2.9,0,0,1,2,1.3,3.65,3.65,0,0,1,.1,2.64c-.1.44-.2.88-.31,1.32s-.21.88-.32,1.32-.21.88-.32,1.33a5.12,5.12,0,0,1-.15.56c-.06.19-.12.4-.2.62l.63.12.64.11-.18.74Zm.86-4.37a7.61,7.61,0,0,0-1.3-.14,5.08,5.08,0,0,0-1.31.11,2.68,2.68,0,0,0-1.07.48,1.68,1.68,0,0,0-.57,1,1.35,1.35,0,0,0,.2,1.09,1.48,1.48,0,0,0,.87.55,2.86,2.86,0,0,0,1.33,0,4.77,4.77,0,0,0,1.24-.52,4,4,0,0,1,.09-.42c0-.16.07-.32.11-.48s.06-.25.14-.56Z"/><path d="M508.45,98.23a1,1,0,0,0,.82-.1,1.44,1.44,0,0,0,.42-.7c.1-.31.2-.69.3-1.11l.95-4c.05-.18.09-.37.14-.56a4.87,4.87,0,0,1,.2-.57l-.63-.12-.63-.12.17-.72.55.13a2.44,2.44,0,0,0,1.08.09,1.93,1.93,0,0,0,.56-.21l.52.12c0,.2-.06.43-.12.71s-.12.63-.21,1.06a4.32,4.32,0,0,1,.93-.69,4.48,4.48,0,0,1,1.2-.47A2.72,2.72,0,0,1,516,91a1.45,1.45,0,0,1,.81.47,1,1,0,0,1,.17.93,1,1,0,0,1-.54.61.81.81,0,0,1-.54,0,.82.82,0,0,1-.55-.46.9.9,0,0,1,0-.72,1.85,1.85,0,0,0-1,0,3.51,3.51,0,0,0-1,.47,5.42,5.42,0,0,0-1,.85l-1,4.34c-.06.24-.11.45-.16.63a4.63,4.63,0,0,1-.19.56l.56.1.56.11-.17.72-3.62-.85Z"/><polygon class="e78b497d-2c1a-4d51-8292-dccb1c009e5f" points="259.03 247.24 302.73 171.49 484.7 276.48 536.09 58.39 290.8 0.6 251.1 169.11 251.34 169.09 259.03 247.24"/><line class="b77f6236-9e9a-4536-89d8-09656fab9d44" x1="299.45" y1="83.31" x2="323.79" y2="89.04"/><line class="e2384810-be17-4103-b774-67f72042a9f8" x1="329.33" y1="90.35" x2="368.72" y2="99.63"/><line class="b23e9b33-40f2-457a-8ac9-2a99f30513ab" x1="371.49" y1="100.28" x2="471.88" y2="123.93"/><line class="b77f6236-9e9a-4536-89d8-09656fab9d44" x1="474.66" y1="124.59" x2="498.99" y2="130.32"/><line class="b77f6236-9e9a-4536-89d8-09656fab9d44" x1="296.93" y1="94.02" x2="300.83" y2="94.94"/><line class="b4c5ba29-9c3c-4b13-97a2-4d3397818de7" x1="306.21" y1="96.2" x2="389.7" y2="115.87"/><line class="aadc6187-d957-4510-a860-7f4ce2d072be" x1="392.39" y1="116.51" x2="489.88" y2="139.48"/><line class="b77f6236-9e9a-4536-89d8-09656fab9d44" x1="492.58" y1="140.11" x2="496.47" y2="141.03"/><line class="b77f6236-9e9a-4536-89d8-09656fab9d44" x1="294.41" y1="104.72" x2="298.3" y2="105.64"/><line class="a5a46ed9-a94c-4044-8ca7-9ffbd0c24d7b" x1="300.99" y1="106.28" x2="388.35" y2="126.86"/><line class="ed43f22f-5643-4f78-b3a7-1c7be8a17878" x1="390.59" y1="127.39" x2="487.81" y2="150.29"/><line class="b77f6236-9e9a-4536-89d8-09656fab9d44" x1="490.05" y1="150.82" x2="493.95" y2="151.73"/><line class="b77f6236-9e9a-4536-89d8-09656fab9d44" x1="291.89" y1="115.43" x2="325.95" y2="123.46"/><line class="a915fbc3-f54b-40e4-8ed7-ab68cbec7a1d" x1="331.01" y1="124.65" x2="353.75" y2="130.01"/><line class="b5aa227b-19a2-45b4-a1af-38d7114681b8" x1="356.28" y1="130.6" x2="454.83" y2="153.82"/><line class="b77f6236-9e9a-4536-89d8-09656fab9d44" x1="457.36" y1="154.42" x2="491.42" y2="162.44"/><line class="b77f6236-9e9a-4536-89d8-09656fab9d44" x1="289.59" y1="125.16" x2="301.76" y2="128.03"/><line class="a5a7d34d-d0ec-4ad4-9481-f6d61fe50ecc" x1="306.25" y1="129.09" x2="375.88" y2="145.49"/><line class="a5959948-2b4d-4845-963f-f12eedb27acc" x1="378.13" y1="146.02" x2="474.72" y2="168.78"/><line class="b77f6236-9e9a-4536-89d8-09656fab9d44" x1="476.96" y1="169.31" x2="489.13" y2="172.18"/><line class="b77f6236-9e9a-4536-89d8-09656fab9d44" x1="287.07" y1="135.87" x2="289.5" y2="136.45"/><line class="ea756120-99eb-46b3-bf4a-12cf68b1d1c4" x1="293.48" y1="137.38" x2="382.87" y2="158.44"/><line class="b6bee90f-7b06-4262-9e8d-0a7bc6ffa2fa" x1="384.85" y1="158.91" x2="482.19" y2="181.84"/><line class="b77f6236-9e9a-4536-89d8-09656fab9d44" x1="484.17" y1="182.31" x2="486.61" y2="182.88"/><line class="b77f6236-9e9a-4536-89d8-09656fab9d44" x1="284.55" y1="146.58" x2="328.35" y2="156.9"/><line class="a4bf1022-c995-4d4c-99f3-c45854b2db60" x1="331.3" y1="157.59" x2="356.33" y2="163.49"/><line class="a1dd4484-23ca-4dee-8ed7-cf2c610db4e1" x1="357.81" y1="163.84" x2="438.81" y2="182.92"/><line class="b77f6236-9e9a-4536-89d8-09656fab9d44" x1="440.28" y1="183.27" x2="484.09" y2="193.59"/><line class="b77f6236-9e9a-4536-89d8-09656fab9d44" x1="282.03" y1="157.29" x2="294.19" y2="160.15"/><line class="ef0b17f5-cd45-42b8-a413-135bb2eebc0b" x1="299.09" y1="161.31" x2="367.11" y2="177.33"/><line class="f691fb32-a3d5-4941-bb7f-dff6ead3077f" x1="369.56" y1="177.91" x2="466.95" y2="200.85"/><line class="b77f6236-9e9a-4536-89d8-09656fab9d44" x1="469.4" y1="201.43" x2="481.56" y2="204.3"/><path d="M36.22,225a4.06,4.06,0,0,0-1.44-2.52,3.64,3.64,0,0,0-2.66-.69,4.12,4.12,0,0,0-1.76.58A4.7,4.7,0,0,0,29,223.63a5.74,5.74,0,0,0-.81,1.92,7.49,7.49,0,0,0-.12,2.44,6.59,6.59,0,0,0,.94,2.93A5.07,5.07,0,0,0,31,232.77a4.35,4.35,0,0,0,2.51.48,5.37,5.37,0,0,0,2.26-.76,4.67,4.67,0,0,0,1.7-1.72l.51.33a6.43,6.43,0,0,1-1.52,1.81,5.8,5.8,0,0,1-1.72,1,7.22,7.22,0,0,1-1.61.37,6.22,6.22,0,0,1-2.53-.24,5.93,5.93,0,0,1-2.08-1.17A6.18,6.18,0,0,1,27,230.91a7.13,7.13,0,0,1-.69-2.47,8.24,8.24,0,0,1,.15-2.53,6.67,6.67,0,0,1,1-2.3,5.69,5.69,0,0,1,1.8-1.75,6.37,6.37,0,0,1,2.7-.85,6.58,6.58,0,0,1,1.94.09,6.28,6.28,0,0,1,1.81.66l-.18-1,1-.1.41,4.19Z"/><path d="M44,233.16a4.44,4.44,0,0,1-2.35-.36,4.38,4.38,0,0,1-1.79-1.46A4.66,4.66,0,0,1,39,229a5.56,5.56,0,0,1,.34-2.63,4.74,4.74,0,0,1,1.45-2,4.23,4.23,0,0,1,2.25-.89,4.45,4.45,0,0,1,2.35.38,4.68,4.68,0,0,1,1.8,1.47,4.54,4.54,0,0,1,.85,2.29,5.33,5.33,0,0,1-.36,2.59,4.78,4.78,0,0,1-1.45,2A4.18,4.18,0,0,1,44,233.16Zm.08-.73a2.17,2.17,0,0,0,1.46-.69,3.13,3.13,0,0,0,.66-1.49,6.68,6.68,0,0,0,.07-1.85,9.2,9.2,0,0,0-.31-1.58,5.79,5.79,0,0,0-.62-1.38,2.91,2.91,0,0,0-.94-.94,2.09,2.09,0,0,0-1.28-.25,2.2,2.2,0,0,0-1.48.69,3.21,3.21,0,0,0-.73,1.49,6.22,6.22,0,0,0-.1,1.89,6.82,6.82,0,0,0,.52,2.09A3.87,3.87,0,0,0,42.43,232,2.21,2.21,0,0,0,44.09,232.43Z"/><path d="M50.07,232.28l-.06-.54a.93.93,0,0,0,.75-.36,1.38,1.38,0,0,0,.18-.8c0-.34,0-.72-.08-1.15l-.4-4.12c0-.19,0-.38-.05-.58s0-.39,0-.6l-.63.1-.64.1-.08-.76a6.84,6.84,0,0,0,1.2-.19,1.8,1.8,0,0,0,.58-.24,1.37,1.37,0,0,0,.31-.26l.52-.06a3.62,3.62,0,0,1,.09.41c0,.16,0,.34.08.54a5,5,0,0,1,1.17-.89,3.58,3.58,0,0,1,1.37-.43,3.29,3.29,0,0,1,1.55.17,2.52,2.52,0,0,1,1,.79,5.91,5.91,0,0,1,1.33-1,3.89,3.89,0,0,1,1.54-.51,2.8,2.8,0,0,1,2.41.72,5,5,0,0,1,1,3l.31,3.35c0,.25,0,.46.05.65a5.8,5.8,0,0,1,0,.59l.56-.08.57-.09.07.74-3.68.37,0-.55a.89.89,0,0,0,.74-.35,1.38,1.38,0,0,0,.18-.8c0-.34,0-.72-.08-1.15l-.24-2.53a4.53,4.53,0,0,0-.73-2.28,1.69,1.69,0,0,0-1.64-.6,2.55,2.55,0,0,0-1.09.36,3.48,3.48,0,0,0-.91.73,3.36,3.36,0,0,1,.19.61,5,5,0,0,1,.12.69c0,.7.12,1.4.19,2.11s.13,1.42.19,2.13c0,.24,0,.46,0,.64a4,4,0,0,1,0,.6l.56-.09.57-.08.07.74-3.68.36-.05-.54a.92.92,0,0,0,.74-.35,1.56,1.56,0,0,0,.17-.8,10.22,10.22,0,0,0-.07-1.16l-.23-2.53a4.58,4.58,0,0,0-.68-2.3,1.61,1.61,0,0,0-1.61-.62,2.59,2.59,0,0,0-1.08.35,3.36,3.36,0,0,0-.86.71L52,225l.06.52.46,4.64c0,.24,0,.45,0,.64a3.94,3.94,0,0,1,0,.59l.57-.08.57-.09.07.74Z"/><path d="M70.71,230.54a4.63,4.63,0,0,1-2.35-.36,4.51,4.51,0,0,1-1.8-1.47,4.56,4.56,0,0,1-.83-2.31,5.4,5.4,0,0,1,.34-2.62,4.61,4.61,0,0,1,1.45-2,4.23,4.23,0,0,1,2.24-.89,4.53,4.53,0,0,1,2.35.38,4.71,4.71,0,0,1,1.81,1.47,4.53,4.53,0,0,1,.84,2.29,5.39,5.39,0,0,1-.35,2.6,4.83,4.83,0,0,1-1.46,2A4.24,4.24,0,0,1,70.71,230.54Zm.07-.74a2.05,2.05,0,0,0,1.46-.69,3.1,3.1,0,0,0,.67-1.49,6.63,6.63,0,0,0,.06-1.84,7.71,7.71,0,0,0-.31-1.59,5.42,5.42,0,0,0-.62-1.38,2.78,2.78,0,0,0-.94-.93,2,2,0,0,0-1.27-.26,2.18,2.18,0,0,0-1.48.69,3.22,3.22,0,0,0-.74,1.5,5.85,5.85,0,0,0-.09,1.88,7,7,0,0,0,.51,2.09,3.81,3.81,0,0,0,1.1,1.54A2.13,2.13,0,0,0,70.78,229.8Z"/><path d="M85.94,229a4.62,4.62,0,0,1-2.28-.33,4.13,4.13,0,0,1-1.78-1.43,4.87,4.87,0,0,1-.85-2.44,5.08,5.08,0,0,1,.16-1.86,5.28,5.28,0,0,1,.81-1.69A4.69,4.69,0,0,1,83.38,220a4.43,4.43,0,0,1,1.87-.6,4.69,4.69,0,0,1,1.79.13,2.92,2.92,0,0,1,1.24.7,1.71,1.71,0,0,1,.53,1.06,1.15,1.15,0,0,1-.15.7.77.77,0,0,1-.61.34.67.67,0,0,1-.67-.22,1.07,1.07,0,0,1-.24-.51,1.64,1.64,0,0,1,0-.38.85.85,0,0,1,.18-.37,1.07,1.07,0,0,0-.57-.59,2.37,2.37,0,0,0-.77-.2h-.65a2.64,2.64,0,0,0-2,1.19,4.35,4.35,0,0,0-.56,2.94,5.61,5.61,0,0,0,.6,2.11,3.53,3.53,0,0,0,1.24,1.37,2.63,2.63,0,0,0,1.68.37,3.29,3.29,0,0,0,1.58-.61,3.61,3.61,0,0,0,1.1-1.22l.5.31a4.16,4.16,0,0,1-1,1.34,4.75,4.75,0,0,1-1.29.82A4.45,4.45,0,0,1,85.94,229Z"/><path d="M95.53,228.09a4.41,4.41,0,0,1-2.35-.36,4.34,4.34,0,0,1-1.8-1.46,4.6,4.6,0,0,1-.83-2.32,5.42,5.42,0,0,1,.34-2.62,4.58,4.58,0,0,1,1.45-2,4.15,4.15,0,0,1,2.24-.89,4.43,4.43,0,0,1,2.35.38,4.71,4.71,0,0,1,1.81,1.47,4.53,4.53,0,0,1,.84,2.29,5.47,5.47,0,0,1-.35,2.59,4.8,4.8,0,0,1-1.46,2A4.15,4.15,0,0,1,95.53,228.09Zm.07-.73a2.13,2.13,0,0,0,1.46-.69,3.14,3.14,0,0,0,.67-1.49,7.1,7.1,0,0,0,.06-1.85,8.34,8.34,0,0,0-.31-1.58,5.42,5.42,0,0,0-.62-1.38,2.81,2.81,0,0,0-.94-.94,2,2,0,0,0-1.27-.25,2.18,2.18,0,0,0-1.48.69,3.23,3.23,0,0,0-.74,1.49,5.93,5.93,0,0,0-.09,1.89,7.12,7.12,0,0,0,.51,2.09,3.88,3.88,0,0,0,1.1,1.54A2.17,2.17,0,0,0,95.6,227.36Z"/><path d="M101.58,227.21l0-.55a.93.93,0,0,0,.75-.35,1.46,1.46,0,0,0,.17-.8c0-.34,0-.72-.07-1.15l-.39-4.12c0-.19,0-.39,0-.58a4,4,0,0,1,0-.6l-.64.1-.64.1-.07-.76a7.78,7.78,0,0,0,1.19-.19,2.51,2.51,0,0,0,.59-.24,1.59,1.59,0,0,0,.3-.27l.52-.05c0,.08,0,.18.06.29s0,.22.06.36a2.75,2.75,0,0,1,.06.44,7,7,0,0,1,.82-.7,5.33,5.33,0,0,1,1-.53,3.53,3.53,0,0,1,1-.26,2.65,2.65,0,0,1,2.38.75,5.24,5.24,0,0,1,1,3l.33,3.36c0,.24,0,.46,0,.64a5.8,5.8,0,0,1,0,.59l.56-.08.57-.08.07.74-3.68.36,0-.54a1,1,0,0,0,.75-.36,1.44,1.44,0,0,0,.17-.8c0-.33,0-.71-.07-1.15l-.25-2.52a4.7,4.7,0,0,0-.75-2.3,1.68,1.68,0,0,0-1.64-.62,2.87,2.87,0,0,0-1.24.47,3.12,3.12,0,0,0-1,.93,2.4,2.4,0,0,1,.05.32c0,.12,0,.25,0,.38L104,225c0,.25,0,.46,0,.65a3.87,3.87,0,0,1,0,.59l.57-.08.56-.09.07.74Z"/><path d="M115.8,226.1a3.12,3.12,0,0,1-.86,0,1.85,1.85,0,0,1-.85-.38,2.35,2.35,0,0,1-.69-.94A6,6,0,0,1,113,223l-.48-5.24-1.39.16-.08-.78a1.76,1.76,0,0,0,.92-.45,3.1,3.1,0,0,0,.79-1,3.52,3.52,0,0,0,.41-1.31l.61-.06.25,2.53,3-.3.07.7-3,.34.46,5a6.27,6.27,0,0,0,.27,1.36,1.75,1.75,0,0,0,.53.82,1.13,1.13,0,0,0,.82.21,1.7,1.7,0,0,0,.92-.38,2.82,2.82,0,0,0,.71-.87l.52.34a4.3,4.3,0,0,1-.69,1,3,3,0,0,1-.7.59,2.31,2.31,0,0,1-.64.28A5.12,5.12,0,0,1,115.8,226.1Z"/><path d="M124.85,224.92c-.06-.21-.1-.38-.13-.54s-.06-.31-.1-.48a5.29,5.29,0,0,1-1.23,1.1,3.48,3.48,0,0,1-1.47.5,2.91,2.91,0,0,1-2.1-.43,2,2,0,0,1-.82-1.46,2.13,2.13,0,0,1,.37-1.48,4,4,0,0,1,1.24-1.13,7.73,7.73,0,0,1,1.73-.75,8.36,8.36,0,0,1,1.85-.35l-.11-1.12a5.88,5.88,0,0,0-.23-1.18,1.71,1.71,0,0,0-.55-.88,1.66,1.66,0,0,0-1.2-.26,2.61,2.61,0,0,0-1,.3,1.44,1.44,0,0,0-.73.82.74.74,0,0,1,.22.31,1.73,1.73,0,0,1,.08.35,1,1,0,0,1-.13.52.84.84,0,0,1-1.21.12,1,1,0,0,1-.26-.61,1.57,1.57,0,0,1,.35-1.14,3.2,3.2,0,0,1,1.2-.91,5.65,5.65,0,0,1,1.81-.47,2.88,2.88,0,0,1,2.32.59,3.69,3.69,0,0,1,1,2.46c0,.45.09.9.13,1.35s.09.9.13,1.35l.12,1.37c0,.19,0,.38,0,.58s0,.41,0,.65l.64-.1.64-.1.07.76Zm-.6-4.41a6.93,6.93,0,0,0-1.27.28,4.93,4.93,0,0,0-1.21.53,2.62,2.62,0,0,0-.85.8,1.61,1.61,0,0,0-.23,1.11,1.36,1.36,0,0,0,.54,1,1.56,1.56,0,0,0,1,.24,2.89,2.89,0,0,0,1.26-.41,4.85,4.85,0,0,0,1-.89,2.75,2.75,0,0,1-.06-.44c0-.15,0-.31,0-.48s0-.26-.05-.58S124.29,220.93,124.25,220.51Z"/><path d="M128.67,224.54l0-.54a1,1,0,0,0,.75-.36,1.46,1.46,0,0,0,.18-.8c0-.33,0-.72-.08-1.15l-.41-4.12c0-.19,0-.38,0-.57a4.14,4.14,0,0,1,0-.61l-.64.1-.63.1-.08-.76a6.84,6.84,0,0,0,1.2-.19,1.8,1.8,0,0,0,.58-.24,1.12,1.12,0,0,0,.3-.26l.53,0a3,3,0,0,1,.08.41c0,.15,0,.33.08.54a4.53,4.53,0,0,1,1.17-.89,3.59,3.59,0,0,1,1.38-.44,3.31,3.31,0,0,1,1.55.17,2.52,2.52,0,0,1,1.05.79,6.22,6.22,0,0,1,1.33-1,3.84,3.84,0,0,1,1.54-.51,2.8,2.8,0,0,1,2.41.72,5,5,0,0,1,1,3l.32,3.36c0,.24,0,.45.05.64a5.8,5.8,0,0,1,0,.59l.56-.08.57-.09.07.74-3.68.37,0-.54a.92.92,0,0,0,.74-.36,1.38,1.38,0,0,0,.18-.8c0-.33,0-.72-.08-1.15l-.25-2.53a4.44,4.44,0,0,0-.72-2.28,1.71,1.71,0,0,0-1.64-.6,2.65,2.65,0,0,0-1.09.36,3.7,3.7,0,0,0-.91.73,4.86,4.86,0,0,1,.19.61q.08.33.12.69c.05.7.12,1.4.19,2.11s.13,1.42.19,2.13c0,.24,0,.46.05.65a5.8,5.8,0,0,1,0,.59l.56-.08.57-.09.07.74-3.68.37-.06-.55a.88.88,0,0,0,.74-.35,1.55,1.55,0,0,0,.18-.8,9.93,9.93,0,0,0-.07-1.15l-.23-2.53a4.51,4.51,0,0,0-.68-2.3,1.61,1.61,0,0,0-1.61-.63,2.74,2.74,0,0,0-1.08.35,3.2,3.2,0,0,0-.86.72q0,.21.06.45l.06.52.45,4.64c0,.24.05.45.06.64a3.92,3.92,0,0,1,0,.59l.57-.08.56-.08.08.74Z"/><path d="M144.76,222.41a1,1,0,0,0,.75-.36,1.46,1.46,0,0,0,.17-.8c0-.33,0-.72-.07-1.15L145.2,216a5.55,5.55,0,0,1,0-.56c0-.17,0-.38,0-.62l-.64.09-.64.1-.07-.75a8.29,8.29,0,0,0,1.22-.2,2.62,2.62,0,0,0,.64-.24,1.59,1.59,0,0,0,.33-.27l.52,0,.72,7.29c0,.24,0,.45.06.64a3.9,3.9,0,0,1,0,.59l.57-.08.56-.08.07.74-3.68.36Zm.72-10.62a.92.92,0,0,1-.7-.25,1.14,1.14,0,0,1-.14-1.52.91.91,0,0,1,.65-.38.87.87,0,0,1,.72.24,1.14,1.14,0,0,1,.36.74,1.09,1.09,0,0,1-.22.79A1,1,0,0,1,145.48,211.79Z"/><path d="M149.88,222.45l0-.54a1,1,0,0,0,.75-.36,1.44,1.44,0,0,0,.18-.8c0-.33,0-.71-.08-1.15l-.39-4.11c0-.2,0-.39,0-.58a4,4,0,0,1,0-.6l-.64.09-.64.1-.07-.76a6.54,6.54,0,0,0,1.19-.19,1.87,1.87,0,0,0,.59-.24,1.31,1.31,0,0,0,.3-.26l.53-.05c0,.08,0,.17.05.28s0,.23.06.36a4.3,4.3,0,0,1,.07.45,5.51,5.51,0,0,1,.81-.7,4.78,4.78,0,0,1,1-.53,3.55,3.55,0,0,1,1-.27,2.67,2.67,0,0,1,2.39.76,5.22,5.22,0,0,1,1,3l.33,3.36c0,.24,0,.45.06.64a3.94,3.94,0,0,1,0,.59l.57-.08.56-.09.08.74-3.69.37,0-.54a1,1,0,0,0,.75-.36,1.46,1.46,0,0,0,.17-.8c0-.34,0-.72-.07-1.15l-.25-2.53a4.54,4.54,0,0,0-.75-2.3,1.69,1.69,0,0,0-1.63-.62,2.9,2.9,0,0,0-1.24.47,3.28,3.28,0,0,0-1,.93,2.88,2.88,0,0,1,.05.33c0,.12,0,.24,0,.38l.43,4.6c0,.24,0,.46.06.64a3.9,3.9,0,0,1,0,.59l.57-.08.56-.08.08.74Z"/><path d="M166.33,220.83c-.06-.2-.1-.38-.13-.53s-.06-.32-.1-.48a5,5,0,0,1-1.23,1.09,3.35,3.35,0,0,1-1.47.5,2.91,2.91,0,0,1-2.1-.42,2,2,0,0,1-.82-1.46,2.12,2.12,0,0,1,.37-1.48,3.88,3.88,0,0,1,1.24-1.13,7.73,7.73,0,0,1,1.73-.75,9,9,0,0,1,1.85-.36l-.11-1.12a7.06,7.06,0,0,0-.22-1.18,1.82,1.82,0,0,0-.57-.87,1.62,1.62,0,0,0-1.19-.27,2.8,2.8,0,0,0-1.05.31,1.4,1.4,0,0,0-.73.82.68.68,0,0,1,.22.31,1.73,1.73,0,0,1,.08.35,1,1,0,0,1-.13.51.67.67,0,0,1-.61.33.7.7,0,0,1-.6-.21,1,1,0,0,1-.26-.6,1.61,1.61,0,0,1,.35-1.15,3.29,3.29,0,0,1,1.2-.9,5.65,5.65,0,0,1,1.81-.47,2.92,2.92,0,0,1,2.32.58,3.7,3.7,0,0,1,.95,2.47c0,.45.09.89.13,1.35s.09.9.13,1.35.08.91.12,1.36c0,.2,0,.39,0,.58s0,.42,0,.66l.64-.1.64-.1.07.76Zm-.6-4.4a6.93,6.93,0,0,0-1.27.28,4.93,4.93,0,0,0-1.21.53,2.43,2.43,0,0,0-.85.8,1.61,1.61,0,0,0-.23,1.11,1.32,1.32,0,0,0,.54.95,1.45,1.45,0,0,0,1,.24,2.88,2.88,0,0,0,1.26-.4,4.92,4.92,0,0,0,1-.9,2.62,2.62,0,0,1-.06-.43c0-.15,0-.32-.05-.49s0-.25,0-.57S165.77,216.85,165.73,216.43Z"/><path d="M170.1,219.91a.93.93,0,0,0,.75-.35,1.46,1.46,0,0,0,.18-.8c0-.34,0-.72-.08-1.15l-.4-4.12c0-.19,0-.38-.05-.58a4,4,0,0,1,0-.6l-.64.09-.64.09-.07-.74.56-.05a2.62,2.62,0,0,0,1.06-.26,2,2,0,0,0,.46-.39l.53-.05c0,.19.08.43.12.71s.09.64.14,1.07a3.93,3.93,0,0,1,.66-1,4.32,4.32,0,0,1,1-.82,2.77,2.77,0,0,1,1.21-.41,1.47,1.47,0,0,1,.91.18,1,1,0,0,1,.47.83.85.85,0,0,1-.06.36.84.84,0,0,1-.76.6.86.86,0,0,1-.67-.26.9.9,0,0,1-.24-.67,1.73,1.73,0,0,0-.91.32,3.35,3.35,0,0,0-.82.78,5,5,0,0,0-.64,1.11l.45,4.44c0,.24,0,.46.06.64a4,4,0,0,1,0,.6l.57-.09.56-.08.07.74-3.7.37Z"/><path d="M182.72,219.22l-.06-.54a.93.93,0,0,0,.75-.36,1.38,1.38,0,0,0,.18-.8c0-.33,0-.72-.08-1.15l-.4-4.11c0-.2,0-.39-.05-.58s0-.4,0-.61l-.63.1-.64.1-.07-.76a6.87,6.87,0,0,0,1.19-.19,2,2,0,0,0,.59-.24,1.56,1.56,0,0,0,.3-.26l.52,0a2.85,2.85,0,0,1,.09.41c0,.15,0,.33.08.54a4.53,4.53,0,0,1,1.17-.89,3.59,3.59,0,0,1,1.38-.44,3.14,3.14,0,0,1,1.54.18,2.44,2.44,0,0,1,1,.79,5.94,5.94,0,0,1,1.33-1,3.88,3.88,0,0,1,1.55-.51,2.78,2.78,0,0,1,2.4.72,5,5,0,0,1,1,3l.31,3.36c0,.24,0,.45.05.64a3.87,3.87,0,0,1,0,.59l.56-.08.57-.08.07.74-3.68.36-.05-.54a1,1,0,0,0,.75-.36,1.46,1.46,0,0,0,.17-.8c0-.33,0-.72-.07-1.15l-.25-2.53a4.53,4.53,0,0,0-.73-2.28,1.7,1.7,0,0,0-1.63-.6,2.85,2.85,0,0,0-1.1.36,3.7,3.7,0,0,0-.91.73,3.63,3.63,0,0,1,.19.61,5,5,0,0,1,.12.69c.06.7.12,1.4.19,2.11s.13,1.42.19,2.13c0,.25,0,.46.05.65a3.87,3.87,0,0,1,0,.59l.56-.08.57-.09.07.74-3.68.37-.05-.55a.89.89,0,0,0,.74-.35,1.46,1.46,0,0,0,.17-.8c0-.34,0-.72-.06-1.15l-.24-2.53a4.42,4.42,0,0,0-.68-2.3,1.61,1.61,0,0,0-1.61-.63,2.65,2.65,0,0,0-1.07.35,2.92,2.92,0,0,0-.86.72c0,.14,0,.29,0,.46s0,.33.06.51l.46,4.64c0,.24,0,.45,0,.64a5.8,5.8,0,0,1,0,.59l.56-.08.57-.08.07.74Z"/><path d="M203.25,217.49a4.33,4.33,0,0,1-2.3-.37,4.14,4.14,0,0,1-1.75-1.5,5.32,5.32,0,0,1-.82-2.48,5,5,0,0,1,.33-2.42,4.73,4.73,0,0,1,1.42-1.94,4.38,4.38,0,0,1,2.32-.91,4,4,0,0,1,1.44.11,3.22,3.22,0,0,1,1.24.62,3.63,3.63,0,0,1,.92,1.17,5,5,0,0,1,.46,1.73l-6.35.73a8.77,8.77,0,0,0,.54,2.39,3.28,3.28,0,0,0,1.12,1.51,2.65,2.65,0,0,0,1.77.4,3.44,3.44,0,0,0,1.13-.32,4.62,4.62,0,0,0,1-.64,3.57,3.57,0,0,0,.74-.84l.47.32a4.09,4.09,0,0,1-1.06,1.32,4.87,4.87,0,0,1-1.34.79A5.1,5.1,0,0,1,203.25,217.49Zm-3.11-6,4.61-.45a4.27,4.27,0,0,0-.32-1.24,2.1,2.1,0,0,0-.72-.93,1.66,1.66,0,0,0-1.17-.28,2.53,2.53,0,0,0-1.68.8A3.3,3.3,0,0,0,200.14,211.47Z"/><path d="M208.64,216.67l-.06-.54a.93.93,0,0,0,.75-.36,1.38,1.38,0,0,0,.18-.8c0-.33,0-.72-.08-1.15l-.38-4.12c0-.19,0-.38-.05-.58a4,4,0,0,1,0-.6l-.63.1-.64.1-.08-.76a6.84,6.84,0,0,0,1.2-.19,1.8,1.8,0,0,0,.58-.24,1.18,1.18,0,0,0,.31-.27l.52,0a2.18,2.18,0,0,1,.05.29c0,.11,0,.23.07.36s0,.28.06.45a5,5,0,0,1,.81-.7,6.14,6.14,0,0,1,1-.54,3.61,3.61,0,0,1,1-.26,2.66,2.66,0,0,1,2.39.76,5.11,5.11,0,0,1,1,3l.34,3.36c0,.24,0,.46.05.64a4,4,0,0,1,0,.6l.57-.09.57-.08.07.74-3.68.36-.06-.54a.9.9,0,0,0,.75-.35,1.41,1.41,0,0,0,.18-.81c0-.33,0-.71-.08-1.15l-.25-2.52a4.61,4.61,0,0,0-.74-2.3,1.7,1.7,0,0,0-1.64-.62,2.82,2.82,0,0,0-1.24.47,3.55,3.55,0,0,0-1,.93,1.53,1.53,0,0,1,.05.32c0,.12,0,.25,0,.38l.44,4.61c0,.24,0,.45.05.64a5.8,5.8,0,0,1,0,.59l.56-.08.57-.09.07.75Z"/><path d="M224.1,215.44a4.63,4.63,0,0,1-2.35-.36,4.41,4.41,0,0,1-1.79-1.47,4.48,4.48,0,0,1-.84-2.31,5.4,5.4,0,0,1,.34-2.62,4.69,4.69,0,0,1,1.45-2,4.23,4.23,0,0,1,2.24-.89,4.57,4.57,0,0,1,2.36.38,4.69,4.69,0,0,1,1.8,1.48,4.38,4.38,0,0,1,.84,2.28,5.39,5.39,0,0,1-.35,2.6,4.74,4.74,0,0,1-1.46,2A4.16,4.16,0,0,1,224.1,215.44Zm.07-.74a2.05,2.05,0,0,0,1.46-.69,3.1,3.1,0,0,0,.67-1.49,6.27,6.27,0,0,0,.06-1.84,7.71,7.71,0,0,0-.31-1.59,5.2,5.2,0,0,0-.62-1.37,2.79,2.79,0,0,0-.93-.94,2,2,0,0,0-1.28-.26,2.2,2.2,0,0,0-1.48.69,3.22,3.22,0,0,0-.74,1.5,5.85,5.85,0,0,0-.09,1.88,7,7,0,0,0,.51,2.09,3.92,3.92,0,0,0,1.1,1.55A2.16,2.16,0,0,0,224.17,214.7Z"/><path d="M233.88,214.47a5.09,5.09,0,0,1-1.63-.08A5,5,0,0,1,231,214l.14.63-.76.07-.41-3.09.55-.06a2.77,2.77,0,0,0,.55,1.29,2.69,2.69,0,0,0,1.06.81,2.59,2.59,0,0,0,1.32.2,2.86,2.86,0,0,0,.9-.24,1.77,1.77,0,0,0,.71-.55,1,1,0,0,0,.23-.83,1.19,1.19,0,0,0-.38-.81,2.85,2.85,0,0,0-.84-.51,10.71,10.71,0,0,0-1.09-.36l-1.13-.35a5.31,5.31,0,0,1-1.06-.46A2.56,2.56,0,0,1,230,209a2.27,2.27,0,0,1-.38-1.13,2.54,2.54,0,0,1,.06-.85,2.57,2.57,0,0,1,.4-.9,2.65,2.65,0,0,1,.88-.76,3.83,3.83,0,0,1,1.49-.41,4.22,4.22,0,0,1,1.1.05,3.28,3.28,0,0,1,1.21.5l-.1-.68.76-.07.31,3.16-.58.05a3.66,3.66,0,0,0-.41-1.19,2.56,2.56,0,0,0-.83-.9,2,2,0,0,0-1.31-.26,1.89,1.89,0,0,0-1.26.54,1.25,1.25,0,0,0-.37,1,1.32,1.32,0,0,0,.44.9,3.39,3.39,0,0,0,1,.55c.39.14.8.28,1.24.4s.94.32,1.4.51a3.28,3.28,0,0,1,1.15.75,2,2,0,0,1,.54,1.28,2.38,2.38,0,0,1-.31,1.55,2.82,2.82,0,0,1-1.09,1A4,4,0,0,1,233.88,214.47Z"/><polygon class="e78b497d-2c1a-4d51-8292-dccb1c009e5f" points="135.81 460.8 259.03 247.24 251.34 169.09 0.55 193.77 33.27 526.17 217.66 508.02 135.81 460.8"/><line class="b77f6236-9e9a-4536-89d8-09656fab9d44" x1="36.78" y1="272.03" x2="61.66" y2="269.58"/><line class="e2384810-be17-4103-b774-67f72042a9f8" x1="67.33" y1="269.02" x2="107.6" y2="265.06"/><line class="b23e9b33-40f2-457a-8ac9-2a99f30513ab" x1="110.43" y1="264.78" x2="213.08" y2="254.67"/><line class="b77f6236-9e9a-4536-89d8-09656fab9d44" x1="215.91" y1="254.39" x2="240.79" y2="251.95"/><line class="b77f6236-9e9a-4536-89d8-09656fab9d44" x1="37.86" y1="282.97" x2="41.84" y2="282.58"/><line class="b4c5ba29-9c3c-4b13-97a2-4d3397818de7" x1="47.34" y1="282.04" x2="132.7" y2="273.64"/><line class="aadc6187-d957-4510-a860-7f4ce2d072be" x1="135.46" y1="273.37" x2="235.14" y2="263.56"/><line class="b77f6236-9e9a-4536-89d8-09656fab9d44" x1="237.89" y1="263.28" x2="241.87" y2="262.89"/><line class="b77f6236-9e9a-4536-89d8-09656fab9d44" x1="38.93" y1="293.92" x2="42.92" y2="293.54"/><line class="af9f48fb-7fdc-4d7d-a1aa-7db7bea4fc78" x1="45.6" y1="293.28" x2="132.7" y2="284.89"/><line class="e7c4b61d-c163-4f35-b28b-a443b814b217" x1="134.94" y1="284.67" x2="231.87" y2="275.33"/><line class="b77f6236-9e9a-4536-89d8-09656fab9d44" x1="234.1" y1="275.12" x2="238.09" y2="274.73"/><line class="b77f6236-9e9a-4536-89d8-09656fab9d44" x1="40.01" y1="304.87" x2="74.84" y2="301.38"/><line class="e191f713-edd6-4537-8493-4dbac61ba9bb" x1="79.51" y1="300.91" x2="100.52" y2="298.81"/><line class="a00de1b1-838e-4831-8ceb-f81f7d2d1f4f" x1="102.86" y1="298.57" x2="193.92" y2="289.45"/><line class="b77f6236-9e9a-4536-89d8-09656fab9d44" x1="196.26" y1="289.22" x2="231.09" y2="285.73"/><line class="b77f6236-9e9a-4536-89d8-09656fab9d44" x1="40.99" y1="314.82" x2="53.43" y2="313.59"/><line class="f5552c1f-e1be-4cd2-b21a-f6fbfb018d41" x1="57.49" y1="313.19" x2="120.37" y2="306.98"/><line class="a597152b-da9f-4b12-9d68-24a16850de62" x1="122.4" y1="306.78" x2="209.62" y2="298.16"/><line class="b77f6236-9e9a-4536-89d8-09656fab9d44" x1="211.65" y1="297.96" x2="224.09" y2="296.73"/><line class="b77f6236-9e9a-4536-89d8-09656fab9d44" x1="42.07" y1="325.77" x2="44.56" y2="325.53"/><line class="b117b0bf-ef48-405a-a7f8-957ef7d59d7f" x1="48.09" y1="325.19" x2="127.55" y2="317.59"/><line class="f54b7e3c-f42f-44fc-b551-1e6ae900abc6" x1="129.31" y1="317.42" x2="215.83" y2="309.14"/><line class="b77f6236-9e9a-4536-89d8-09656fab9d44" x1="217.6" y1="308.97" x2="220.09" y2="308.73"/><line class="b77f6236-9e9a-4536-89d8-09656fab9d44" x1="43.15" y1="336.71" x2="87.96" y2="332.67"/><line class="e601971c-42d0-4dfc-b208-cf7e41b0085d" x1="95.59" y1="331.98" x2="160.45" y2="326.12"/><line class="b77f6236-9e9a-4536-89d8-09656fab9d44" x1="164.27" y1="325.78" x2="209.09" y2="321.73"/><line class="b77f6236-9e9a-4536-89d8-09656fab9d44" x1="44.22" y1="347.66" x2="56.66" y2="346.41"/><line class="fa2f4244-8712-4bb9-bfcf-62ca4abf5a0d" x1="60.4" y1="346.04" x2="112.43" y2="340.82"/><line class="ec170a4e-f1cf-48bc-93b8-7799f7345809" x1="114.3" y1="340.63" x2="188.78" y2="333.17"/><line class="b77f6236-9e9a-4536-89d8-09656fab9d44" x1="190.65" y1="332.98" x2="203.09" y2="331.73"/><line class="b77f6236-9e9a-4536-89d8-09656fab9d44" x1="51.78" y1="392.03" x2="76.66" y2="389.59"/><line class="a1f633e0-9e21-4e8e-a1ad-1179bae369ea" x1="79.44" y1="389.31" x2="99.16" y2="387.38"/><line class="fe8be6b8-6dd3-4a24-b468-bfdf2720974e" x1="100.55" y1="387.24" x2="150.82" y2="382.31"/><line class="b77f6236-9e9a-4536-89d8-09656fab9d44" x1="152.21" y1="382.17" x2="177.09" y2="379.73"/><line class="b77f6236-9e9a-4536-89d8-09656fab9d44" x1="52.86" y1="402.97" x2="56.84" y2="402.57"/><line class="b273169d-ac8d-433e-9459-8837c13d233a" x1="59.99" y1="402.25" x2="108.87" y2="397.27"/><line class="befa291c-bed3-473a-bf1c-fc0764a579af" x1="110.45" y1="397.11" x2="167.53" y2="391.3"/><line class="b77f6236-9e9a-4536-89d8-09656fab9d44" x1="169.11" y1="391.14" x2="173.09" y2="390.73"/><line class="b77f6236-9e9a-4536-89d8-09656fab9d44" x1="53.93" y1="413.92" x2="57.91" y2="413.51"/><line class="eaf9f907-0d7f-4af3-b6fd-d6cf987809b8" x1="60.86" y1="413.21" x2="156.65" y2="403.39"/><line class="b77f6236-9e9a-4536-89d8-09656fab9d44" x1="159.11" y1="403.14" x2="163.09" y2="402.73"/><line class="b77f6236-9e9a-4536-89d8-09656fab9d44" x1="55.01" y1="424.87" x2="89.84" y2="421.41"/><line class="b2f2126f-2ba4-4064-ab1d-7ea832610939" x1="95.24" y1="420.87" x2="119.56" y2="418.46"/><line class="b77f6236-9e9a-4536-89d8-09656fab9d44" x1="122.26" y1="418.19" x2="157.09" y2="414.73"/><line class="b77f6236-9e9a-4536-89d8-09656fab9d44" x1="55.99" y1="434.82" x2="68.44" y2="433.64"/><line class="bbe19390-9869-4e00-978b-5dab3741defe" x1="72.62" y1="433.25" x2="137.55" y2="427.11"/><line class="b77f6236-9e9a-4536-89d8-09656fab9d44" x1="139.64" y1="426.91" x2="152.09" y2="425.73"/><line class="b77f6236-9e9a-4536-89d8-09656fab9d44" x1="57.07" y1="445.77" x2="59.56" y2="445.51"/><line class="f69f4629-8c36-48fb-9e57-9acbe361907b" x1="63.06" y1="445.16" x2="141.85" y2="437.16"/><line class="b77f6236-9e9a-4536-89d8-09656fab9d44" x1="143.6" y1="436.98" x2="146.09" y2="436.73"/><line class="b1aa0144-af00-4c4d-9ab0-189fea2f5435" x1="58.15" y1="456.71" x2="138.09" y2="448.73"/><line class="b77f6236-9e9a-4536-89d8-09656fab9d44" x1="59.22" y1="467.66" x2="71.67" y2="466.46"/><line class="a778b029-468b-4067-8d36-64ef95387c55" x1="74.72" y1="466.17" x2="117.12" y2="462.08"/><line class="b77f6236-9e9a-4536-89d8-09656fab9d44" x1="118.64" y1="461.93" x2="131.09" y2="460.73"/><path d="M181.89,454.15a2.91,2.91,0,0,1-1-.88,2.13,2.13,0,0,1-.4-1,1.2,1.2,0,0,1,.12-.78.74.74,0,0,1,.35-.33.51.51,0,0,1,.45,0,.56.56,0,0,1,.26.24.46.46,0,0,1,0,.28.52.52,0,0,1-.08.23.9.9,0,0,1-.15.19.75.75,0,0,1-.2.15.73.73,0,0,0,0,.56,1.42,1.42,0,0,0,.37.52,1.81,1.81,0,0,0,.49.37,1.56,1.56,0,0,0,1,.2,1.8,1.8,0,0,0,.83-.38,2.52,2.52,0,0,0,.63-.75,5.23,5.23,0,0,0,.33-.67,2.67,2.67,0,0,0,.18-.79,1.64,1.64,0,0,0-.18-.8,1.9,1.9,0,0,0-.76-.72,4.15,4.15,0,0,0-.45-.2,3.86,3.86,0,0,0-.58-.17,1.81,1.81,0,0,0-.55-.05l-.13-.44,1.9-3.34,2.69,1.55a1.69,1.69,0,0,0,.91.31.69.69,0,0,0,.52-.38l.28.16-.86,1.34-3.51-1.94L183.08,449a5.36,5.36,0,0,1,.76.18,4.08,4.08,0,0,1,.92.4,3.18,3.18,0,0,1,1,.84,2.34,2.34,0,0,1,.42,1,2.53,2.53,0,0,1,0,1,3,3,0,0,1-.35.92,2.54,2.54,0,0,1-1.1,1.08,2.51,2.51,0,0,1-1.4.25A3.5,3.5,0,0,1,181.89,454.15Z"/><path d="M185.47,456l.18-.31a.6.6,0,0,0,.54.1,1,1,0,0,0,.4-.36c.13-.19.26-.4.4-.65l1.37-2.37c.06-.11.13-.22.2-.33a2.35,2.35,0,0,1,.23-.32l-.38-.19-.38-.2.25-.43a5.52,5.52,0,0,0,.72.35,1.14,1.14,0,0,0,.4.1,1.06,1.06,0,0,0,.27,0l.3.18a1.28,1.28,0,0,1-.11.25l-.16.32a3.13,3.13,0,0,1,1,0,2.51,2.51,0,0,1,.91.3,2.14,2.14,0,0,1,.76.69,1.59,1.59,0,0,1,.26.83,3.66,3.66,0,0,1,1.1,0,2.6,2.6,0,0,1,1,.32,1.79,1.79,0,0,1,1,1.31,3.25,3.25,0,0,1-.62,2L194,459.44l-.21.37a3.33,3.33,0,0,1-.24.32l.34.17.34.17-.25.43-2.12-1.22.18-.32a.6.6,0,0,0,.54.1.9.9,0,0,0,.4-.36c.13-.18.26-.4.41-.65l.84-1.45a2.93,2.93,0,0,0,.48-1.51,1.12,1.12,0,0,0-.64-1,1.78,1.78,0,0,0-.73-.22,2.18,2.18,0,0,0-.77,0,3.7,3.7,0,0,1-.13.4,4.11,4.11,0,0,1-.21.42c-.24.39-.47.8-.71,1.21l-.72,1.22c-.08.14-.15.26-.22.36a2.13,2.13,0,0,1-.23.32l.34.17.34.18-.25.42-2.12-1.22.18-.31a.6.6,0,0,0,.53.09,1,1,0,0,0,.41-.36c.12-.18.26-.4.4-.65l.85-1.45a3,3,0,0,0,.52-1.5,1.05,1.05,0,0,0-.62-.95,1.79,1.79,0,0,0-.72-.23,2,2,0,0,0-.73,0l-.15.27c0,.1-.11.2-.17.3l-1.54,2.67-.22.37a2.06,2.06,0,0,1-.23.31l.34.18.34.17-.25.43Z"/><path d="M194.94,461a.6.6,0,0,0,.54.1.9.9,0,0,0,.4-.36c.13-.18.26-.4.41-.65l1.36-2.37c.07-.11.13-.22.2-.31s.14-.21.23-.34l-.38-.19-.38-.2.25-.43a4.77,4.77,0,0,0,.74.36,1.68,1.68,0,0,0,.43.12.86.86,0,0,0,.29,0l.3.17-2.43,4.2-.21.37a3.33,3.33,0,0,1-.24.32l.34.17a3.59,3.59,0,0,0,.34.17l-.25.43-2.12-1.22Zm4.48-5.43a.62.62,0,0,1-.28-.4.71.71,0,0,1,.08-.53.74.74,0,0,1,.43-.35.61.61,0,0,1,.79.46.72.72,0,0,1-.09.53.7.7,0,0,1-.93.29Z"/><path d="M197.68,463l.18-.31a.64.64,0,0,0,.54.1.87.87,0,0,0,.4-.37c.13-.18.26-.4.41-.65l1.37-2.36.2-.33a2.43,2.43,0,0,1,.24-.32l-.39-.19-.38-.2.25-.43a7.85,7.85,0,0,0,.72.36,1.33,1.33,0,0,0,.41.09.53.53,0,0,0,.26,0l.31.18c0,.05,0,.11-.09.17l-.1.22c0,.08-.08.17-.14.27a2.76,2.76,0,0,1,.71-.06,3.53,3.53,0,0,1,.72.08,2.34,2.34,0,0,1,.67.26,1.77,1.77,0,0,1,1,1.33,3.46,3.46,0,0,1-.6,2l-1.12,1.93-.21.37a3.24,3.24,0,0,1-.24.31l.34.18.34.17-.25.43L201.1,465l.18-.31a.6.6,0,0,0,.54.1.9.9,0,0,0,.4-.36c.13-.19.26-.4.41-.65l.84-1.46a3.14,3.14,0,0,0,.48-1.52,1.14,1.14,0,0,0-.64-1,2,2,0,0,0-.85-.22,2.27,2.27,0,0,0-.87.13l-.1.2-.13.21-1.54,2.65-.21.36a2.43,2.43,0,0,1-.24.32l.34.17.34.18-.25.42Z"/></g></g></svg>