<?xml version="1.0" encoding="UTF-8"?><svg id="b" xmlns="http://www.w3.org/2000/svg" viewBox="0 0 376.29 406.33"><defs><style>.d{stroke-dasharray:0 0 0 0 0 0 8.85 5.53 66.4 5.53 11.07 5.53;}.d,.e,.f,.g,.h,.i,.j,.k,.l,.m,.n,.o,.p,.q,.r,.s,.t,.u{fill:none;stroke:#9b532b;stroke-miterlimit:10;stroke-width:4px;}.d,.e,.f,.g,.h,.i,.j,.k,.l,.m,.n,.o,.q,.r,.s,.t,.u{stroke-linecap:round;}.e{stroke-dasharray:0 0 0 0 0 0 7.36 2.76 9.21 4.6 73.64 4.6;}.f{stroke-dasharray:0 0 0 0 6.05 3.03 15.13 3.03;}.g{stroke-dasharray:0 0 0 0 5.19 5.19 10.38 5.19;}.h{stroke-dasharray:0 0 0 0 0 0 56.99 5.7 9.12 5.7 22.79 5.7;}.i{stroke-dasharray:0 0 0 0 66.4 5.53 11.07 5.53;}.j{stroke-dasharray:0 0 0 0 0 0 4.08 4.08 65.31 4.08 20.41 4.08;}.k{stroke-dasharray:0 0 0 0 0 0 54.47 3.03 6.05 3.03 15.13 3.03;}.l{stroke-dasharray:0 0 0 0 0 0 23.08 4.62 27.69 4.62 36.92 4.62;}.m{stroke-dasharray:0 0 0 0 9.21 4.6 73.64 4.6;}.n{stroke-dasharray:0 0 0 0 0 0 72.69 5.19 5.19 5.19 10.38 5.19;}.o{stroke-dasharray:0 0 0 0 0 0 25.14 5.03 7.04 5.03 55.31 5.03;}.q{stroke-dasharray:0 0 0 0 7.04 5.03 55.31 5.03;}.r{stroke-dasharray:0 0 0 0 9.12 5.7 22.79 5.7;}.s{stroke-dasharray:0 0 0 0 65.31 4.08 20.41 4.08;}.t{stroke-dasharray:0 0 0 0 27.69 4.62 36.92 4.62;}</style></defs><g id="c"><g><rect class="p" x="62.14" y="36.17" width="252" height="334" rx="17.64" ry="17.64" transform="translate(126.71 -66.83) rotate(29.98)"/><g><g><line class="u" x1="166.81" y1="38.54" x2="188.46" y2="51.04"/><line class="r" x1="193.4" y1="53.89" x2="228.44" y2="74.11"/><line class="h" x1="230.91" y1="75.53" x2="320.25" y2="127.07"/><line class="u" x1="322.72" y1="128.5" x2="344.37" y2="140.99"/></g><g><line class="u" x1="157.26" y1="55.1" x2="160.72" y2="57.1"/><line class="i" x1="165.51" y1="59.86" x2="239.81" y2="102.73"/><line class="d" x1="242.2" y1="104.11" x2="328.96" y2="154.17"/><line class="u" x1="331.36" y1="155.55" x2="334.82" y2="157.55"/></g><g><line class="u" x1="147.7" y1="71.66" x2="151.17" y2="73.66"/><line class="m" x1="153.56" y1="75.04" x2="231.3" y2="119.89"/><line class="e" x1="233.3" y1="121.04" x2="319.81" y2="170.95"/><line class="u" x1="321.8" y1="172.1" x2="325.27" y2="174.1"/></g><g><line class="u" x1="138.15" y1="88.21" x2="168.47" y2="105.7"/><line class="g" x1="172.96" y1="108.3" x2="193.2" y2="119.97"/><line class="n" x1="195.45" y1="121.27" x2="283.15" y2="171.87"/><line class="u" x1="285.4" y1="173.17" x2="315.72" y2="190.66"/></g><g><line class="u" x1="129.47" y1="103.26" x2="140.29" y2="109.51"/><line class="t" x1="144.29" y1="111.82" x2="206.26" y2="147.57"/><line class="l" x1="208.26" y1="148.72" x2="294.21" y2="198.31"/><line class="u" x1="296.21" y1="199.46" x2="307.03" y2="205.71"/></g><g><line class="u" x1="119.92" y1="119.82" x2="122.08" y2="121.07"/><line class="s" x1="125.62" y1="123.11" x2="205.16" y2="169"/><line class="j" x1="206.93" y1="170.02" x2="293.55" y2="220"/><line class="u" x1="295.32" y1="221.02" x2="297.48" y2="222.27"/></g><g><line class="u" x1="110.36" y1="136.38" x2="149.34" y2="158.86"/><line class="f" x1="151.96" y1="160.38" x2="174.24" y2="173.23"/><line class="k" x1="175.55" y1="173.99" x2="247.64" y2="215.58"/><line class="u" x1="248.95" y1="216.33" x2="287.93" y2="238.82"/></g><g><line class="u" x1="100.81" y1="152.93" x2="111.64" y2="159.18"/><line class="q" x1="115.99" y1="161.69" x2="176.53" y2="196.62"/><line class="o" x1="178.71" y1="197.87" x2="265.37" y2="247.88"/><line class="u" x1="267.55" y1="249.13" x2="278.38" y2="255.38"/></g></g><g><g><line class="u" x1="69.86" y1="206.56" x2="91.52" y2="219.06"/><line class="r" x1="96.45" y1="221.9" x2="131.5" y2="242.12"/><line class="h" x1="133.97" y1="243.55" x2="223.31" y2="295.09"/><line class="u" x1="225.78" y1="296.52" x2="247.43" y2="309.01"/></g><g><line class="u" x1="60.31" y1="223.12" x2="63.78" y2="225.12"/><line class="i" x1="68.57" y1="227.88" x2="142.86" y2="270.75"/><line class="d" x1="145.26" y1="272.13" x2="232.02" y2="322.19"/><line class="u" x1="234.41" y1="323.57" x2="237.88" y2="325.57"/></g><g><line class="u" x1="50.76" y1="239.68" x2="54.23" y2="241.67"/><line class="m" x1="56.62" y1="243.05" x2="134.36" y2="287.91"/><line class="e" x1="136.35" y1="289.06" x2="222.87" y2="338.97"/><line class="u" x1="224.86" y1="340.12" x2="228.33" y2="342.12"/></g><g><line class="u" x1="41.21" y1="256.23" x2="71.52" y2="273.72"/><line class="g" x1="76.02" y1="276.32" x2="96.26" y2="287.99"/><line class="n" x1="98.51" y1="289.29" x2="186.21" y2="339.89"/><line class="u" x1="188.46" y1="341.19" x2="218.77" y2="358.68"/></g></g></g></g></svg>