<svg width="245" height="13" viewBox="0 0 245 13" fill="none" xmlns="http://www.w3.org/2000/svg">
<path d="M5.31561 6.53403C7.23381 6.53403 9.24336 6.46597 11.1616 6.39791C11.9837 6.39791 12.7144 6.32984 13.5365 6.32984C17.0075 6.19372 20.4786 6.05759 23.9496 5.92147C28.1514 5.78534 32.2618 5.58115 36.4636 5.44503C42.4009 5.17277 48.3382 4.96859 54.2755 4.69633C55.6457 4.62827 57.0158 4.62827 58.386 4.56021C61.857 4.42408 65.328 4.28796 68.7991 4.21989C72.2701 4.08377 75.7412 3.94764 79.2122 3.87958C80.5823 3.81152 81.9525 3.74346 83.3226 3.74346C88.8032 3.60733 94.3752 3.4712 99.8558 3.33508C103.235 3.26702 106.615 3.19895 110.086 3.06283C111.456 3.06283 112.735 2.99476 114.105 2.99476C119.403 2.9267 124.792 2.85864 130.09 2.79058C135.388 2.72251 140.595 2.65445 145.893 2.58639C147.263 2.58639 148.633 2.58639 150.094 2.58639C153.566 2.58639 156.945 2.58639 160.416 2.58639C165.805 2.58639 171.103 2.58639 176.493 2.51832C178.228 2.51832 179.964 2.51832 181.699 2.51832C185.353 2.51832 189.007 2.51832 192.66 2.51832C192.934 2.51832 193.3 2.51832 193.574 2.51832C185.353 2.58639 177.041 2.65445 168.82 2.79058C165.349 2.85864 161.969 2.85864 158.498 2.9267C157.037 2.9267 155.484 2.9267 154.022 2.99476C148.998 3.06283 144.066 3.19895 139.042 3.26702C133.287 3.40314 127.533 3.4712 121.778 3.60733C120.773 3.60733 119.86 3.67539 118.855 3.67539C115.749 3.81152 112.735 3.87958 109.629 4.01571C103.418 4.21989 97.2068 4.42408 90.9955 4.62827C90.082 4.62827 89.1686 4.69633 88.2552 4.7644C85.2408 4.90052 82.1352 5.10471 79.1209 5.24084C73.6403 5.51309 68.251 5.78534 62.7704 6.05759C61.3089 6.12565 59.7561 6.26178 58.2946 6.32984C54.8236 6.53403 51.3525 6.73822 47.8815 7.01047C43.497 7.28272 39.0212 7.55497 34.6368 7.82722C28.5168 8.2356 22.3054 8.64398 16.1854 9.05236C14.7239 9.12042 13.2625 9.25654 11.7096 9.32461C9.06067 9.5288 6.41172 9.73298 3.76277 9.93717C3.48874 9.93717 3.21471 10.0733 3.21471 10.3455C3.21471 10.5497 3.48874 10.7539 3.76277 10.7539C4.76755 10.7539 5.68098 10.822 6.68575 10.822C6.50307 11.1623 6.41172 11.3665 6.41172 11.5707C6.41172 12.3194 7.23381 13 8.32993 13C15.9114 12.6597 23.4015 12.2513 30.983 11.9791C37.5597 11.7749 44.1364 11.5026 50.7131 11.2984C57.9293 11.0262 65.2367 10.7539 72.4528 10.5497C74.7364 10.4817 77.02 10.4136 79.3035 10.2775C79.9429 10.2775 80.5823 10.2094 81.3131 10.2094C93.005 10.0052 104.697 9.73298 116.389 9.5288C122.6 9.39267 128.903 9.25654 135.114 9.18848C137.398 9.12042 139.59 9.12042 141.874 9.05236C153.84 8.91623 165.805 8.7801 177.771 8.64398C182.887 8.57592 188.002 8.50785 193.117 8.43979C197.502 8.37173 201.886 8.37173 206.271 8.2356C209.924 8.16754 213.487 8.03141 217.14 7.96335C218.967 7.89529 220.794 7.89529 222.53 7.82722C226.64 7.62304 230.75 7.41885 234.861 7.21466C234.587 7.48691 234.587 7.89529 234.678 8.16754C234.77 8.50785 235.044 8.7801 235.5 8.91623C235.866 9.05235 236.414 9.18848 236.779 9.05236C237.693 8.7801 238.606 8.50785 239.428 8.2356C239.428 8.2356 239.428 8.2356 239.337 8.2356C239.428 8.2356 239.428 8.16754 239.519 8.16754C239.611 8.16754 239.702 8.09948 239.702 8.09948H239.611C240.067 7.96335 240.524 7.82722 241.072 7.62304C241.529 7.48691 242.077 7.28272 242.534 7.1466C243.082 6.94241 243.539 6.73822 244.087 6.53403C244.635 6.32984 245 5.78534 245 5.3089C245 5.03665 244.909 4.83246 244.726 4.56021C244.543 4.28796 244.087 3.94764 243.63 3.87958C243.173 3.81152 242.716 3.74346 242.26 3.74346C242.168 3.74346 242.077 3.74346 241.986 3.74346C241.712 3.74346 241.346 3.74346 241.072 3.81152C240.341 3.87958 239.702 3.94764 238.971 3.94764C238.423 3.94764 237.875 4.01571 237.236 4.01571C235.683 4.08377 234.221 4.15183 232.669 4.28796C232.303 4.28796 231.847 4.35602 231.481 4.35602C231.664 4.21989 231.755 4.08377 231.755 3.94764C231.847 3.81152 231.847 3.67539 231.847 3.53927C231.847 3.4712 231.847 3.33508 231.938 3.26702C231.938 3.13089 231.938 2.99476 231.847 2.9267C231.847 2.9267 231.938 2.9267 231.938 2.85864C232.212 2.72251 232.486 2.58639 232.669 2.31414C232.851 2.10995 232.943 1.8377 232.943 1.56544C232.943 1.29319 232.851 1.08901 232.669 0.816754C232.577 0.748691 232.486 0.612565 232.395 0.544503C232.121 0.340314 231.847 0.272251 231.573 0.204188C231.024 0.0680628 230.385 0 229.746 0C229.198 0 228.741 0 228.193 0C227.462 0 226.731 0 226.001 0C224.996 0 223.9 0 222.895 0C220.155 0 217.414 0 214.674 0C212.116 0 209.468 0 206.91 0C204.535 0 202.251 0 199.876 0C190.468 0 181.151 0.0680628 171.743 0.136126C164.709 0.204188 157.676 0.272251 150.643 0.272251C147.537 0.272251 144.34 0.340314 141.234 0.408377C134.201 0.544503 127.167 0.612565 120.134 0.748691C118.124 0.748691 116.115 0.816754 114.105 0.816754C112.918 0.816754 111.822 0.884817 110.634 0.884817C103.692 1.08901 96.7501 1.29319 89.808 1.49738C87.7071 1.56544 85.6062 1.63351 83.414 1.70157C82.2265 1.70157 81.0391 1.76963 79.8516 1.8377C72.9095 2.10995 66.0588 2.3822 59.1167 2.65445C55.5543 2.79058 51.9919 2.9267 48.4296 3.13089C42.3096 3.40314 36.1896 3.67539 30.1609 4.01571C24.863 4.28796 19.5651 4.49215 14.2672 4.69633C13.4451 4.7644 12.6231 4.7644 11.7096 4.83246C10.3395 4.90052 8.96933 4.90052 7.59918 4.96859C6.41172 5.24084 5.13292 5.24084 3.94546 5.24084C3.85412 4.96859 3.48874 4.7644 3.21471 4.83246C2.39263 4.83246 1.66188 4.90052 0.839792 4.96859C0.474419 5.03665 0.109047 5.17277 0.0177037 5.44503C-0.0736395 5.78534 0.20039 6.12565 0.565762 6.19372C0.931135 6.26178 1.29651 6.32984 1.66188 6.39791C2.02725 6.46597 2.30128 6.46597 2.66665 6.46597C3.58009 6.53403 4.40217 6.53403 5.31561 6.53403ZM219.059 4.35602C220.155 4.35602 221.342 4.35602 222.438 4.35602C222.53 4.56021 222.712 4.69633 222.895 4.83246C222.438 4.83246 221.982 4.90052 221.616 4.90052C220.794 4.90052 219.972 4.96859 219.15 4.96859C215.496 5.03665 211.934 5.17277 208.28 5.24084C206.636 5.3089 204.992 5.37696 203.348 5.37696C200.79 5.37696 198.141 5.44503 195.583 5.44503C189.646 5.51309 183.8 5.58115 177.863 5.64921C166.354 5.78534 154.936 5.92147 143.426 6.05759C135.206 6.12565 126.985 6.32984 118.764 6.53403C106.432 6.80628 94.0098 7.01047 81.6785 7.28272C79.2122 7.35078 76.7459 7.41885 74.2797 7.55497C67.2463 7.82722 60.2128 8.03141 53.1794 8.30366C46.3287 8.57592 39.3866 8.7801 32.5359 9.05236C31.8965 9.05236 31.2571 9.12042 30.6177 9.12042C32.4445 8.98429 34.3627 8.91623 36.1896 8.7801C42.6749 8.43979 49.1603 8.03141 55.6457 7.6911C57.9293 7.55497 60.2128 7.41885 62.4051 7.28272C63.5925 7.21466 64.78 7.1466 65.8761 7.1466C72.7268 6.87435 79.4862 6.53403 86.2456 6.26178C87.5244 6.19372 88.8946 6.12565 90.1734 6.05759C92.0916 5.98953 94.0098 5.92147 95.8366 5.92147C102.779 5.71728 109.721 5.51309 116.663 5.3089C118.216 5.24084 119.769 5.24084 121.23 5.17277C121.595 5.17277 122.052 5.17277 122.418 5.17277C123.514 5.17277 124.61 5.17277 125.615 5.10471C132.557 4.96859 139.59 4.90052 146.532 4.7644C149.729 4.69633 152.926 4.62827 156.123 4.62827C166.445 4.56021 176.858 4.49215 187.18 4.42408C197.958 4.42408 208.554 4.35602 219.059 4.35602Z" fill="#9B532B"/>
</svg>
